<svg viewBox="0 0 330 200" xmlns="http://www.w3.org/2000/svg"><g><g><g><g><g><line x1="80" y1="176.984375" x2="75" y2="176.984375" style="visibility: inherit;" fill="rgb(0, 0, 0)" stroke="rgb(204, 204, 204)" stroke-width="1px"></line><line x1="80" y1="154.861328125" x2="75" y2="154.861328125" style="visibility: inherit;" fill="rgb(0, 0, 0)" stroke="rgb(204, 204, 204)" stroke-width="1px"></line><line x1="80" y1="132.73828125" x2="75" y2="132.73828125" style="visibility: inherit;" fill="rgb(0, 0, 0)" stroke="rgb(204, 204, 204)" stroke-width="1px"></line><line x1="80" y1="110.615234375" x2="75" y2="110.615234375" style="visibility: inherit;" fill="rgb(0, 0, 0)" stroke="rgb(204, 204, 204)" stroke-width="1px"></line><line x1="80" y1="88.4921875" x2="75" y2="88.4921875" style="visibility: inherit;" fill="rgb(0, 0, 0)" stroke="rgb(204, 204, 204)" stroke-width="1px"></line><line x1="80" y1="66.369140625" x2="75" y2="66.369140625" style="visibility: inherit;" fill="rgb(0, 0, 0)" stroke="rgb(204, 204, 204)" stroke-width="1px"></line><line x1="80" y1="44.24609375" x2="75" y2="44.24609375" style="visibility: inherit;" fill="rgb(0, 0, 0)" stroke="rgb(204, 204, 204)" stroke-width="1px"></line><line x1="80" y1="22.123046875" x2="75" y2="22.123046875" style="visibility: inherit;" fill="rgb(0, 0, 0)" stroke="rgb(204, 204, 204)" stroke-width="1px"></line><line x1="80" y1="0" x2="75" y2="0" style="visibility: inherit;" fill="rgb(0, 0, 0)" stroke="rgb(204, 204, 204)" stroke-width="1px"></line></g><g transform="translate(70, 0)"><text x="0" y="176.984375" dx="0em" dy="0.3em" style="text-anchor: end; visibility: hidden; font-family: Roboto, sans-serif; font-size: 12px; font-weight: 200;" fill="rgb(33, 33, 33)" stroke="none" stroke-width="1px">-1.4e+4</text><text x="0" y="154.861328125" dx="0em" dy="0.3em" style="text-anchor: end; visibility: inherit; font-family: Roboto, sans-serif; font-size: 12px; font-weight: 200;" fill="rgb(33, 33, 33)" stroke="none" stroke-width="1px">-1.2e+4</text><text x="0" y="132.73828125" dx="0em" dy="0.3em" style="text-anchor: end; visibility: hidden; font-family: Roboto, sans-serif; font-size: 12px; font-weight: 200;" fill="rgb(33, 33, 33)" stroke="none" stroke-width="1px">-1e+4</text><text x="0" y="110.615234375" dx="0em" dy="0.3em" style="text-anchor: end; visibility: inherit; font-family: Roboto, sans-serif; font-size: 12px; font-weight: 200;" fill="rgb(33, 33, 33)" stroke="none" stroke-width="1px">-8e+3</text><text x="0" y="88.4921875" dx="0em" dy="0.3em" style="text-anchor: end; visibility: hidden; font-family: Roboto, sans-serif; font-size: 12px; font-weight: 200;" fill="rgb(33, 33, 33)" stroke="none" stroke-width="1px">-6e+3</text><text x="0" y="66.369140625" dx="0em" dy="0.3em" style="text-anchor: end; visibility: inherit; font-family: Roboto, sans-serif; font-size: 12px; font-weight: 200;" fill="rgb(33, 33, 33)" stroke="none" stroke-width="1px">-4e+3</text><text x="0" y="44.24609375" dx="0em" dy="0.3em" style="text-anchor: end; visibility: hidden; font-family: Roboto, sans-serif; font-size: 12px; font-weight: 200;" fill="rgb(33, 33, 33)" stroke="none" stroke-width="1px">-2e+3</text><text x="0" y="22.123046875" dx="0em" dy="0.3em" style="text-anchor: end; visibility: inherit; font-family: Roboto, sans-serif; font-size: 12px; font-weight: 200;" fill="rgb(33, 33, 33)" stroke="none" stroke-width="1px">0</text><text x="0" y="0" dx="0em" dy="0.3em" style="text-anchor: end; visibility: hidden; font-family: Roboto, sans-serif; font-size: 12px; font-weight: 200;" fill="rgb(33, 33, 33)" stroke="none" stroke-width="1px">2e+3</text></g><line x1="80" y1="0" x2="80" y2="176.984375" fill="rgb(0, 0, 0)" stroke="rgb(204, 204, 204)" stroke-width="1px"></line></g></g><g transform="translate(80, 0)" clip-path="url(#clip_0)"><clipPath id="clip_0"><rect width="250" height="176"></rect></clipPath><g><g><g><line x1="0" y1="0" x2="0" y2="176.984375" fill="rgb(0, 0, 0)" stroke="rgb(66, 66, 66)" stroke-width="1px" opacity="0.25"></line><line x1="20.833333333333332" y1="0" x2="20.833333333333332" y2="176.984375" fill="rgb(0, 0, 0)" stroke="rgb(66, 66, 66)" stroke-width="1px" opacity="0.25"></line><line x1="41.666666666666664" y1="0" x2="41.666666666666664" y2="176.984375" fill="rgb(0, 0, 0)" stroke="rgb(66, 66, 66)" stroke-width="1px" opacity="0.25"></line><line x1="62.5" y1="0" x2="62.5" y2="176.984375" fill="rgb(0, 0, 0)" stroke="rgb(66, 66, 66)" stroke-width="1px" opacity="0.25"></line><line x1="83.33333333333333" y1="0" x2="83.33333333333333" y2="176.984375" fill="rgb(0, 0, 0)" stroke="rgb(66, 66, 66)" stroke-width="1px" opacity="0.25"></line><line x1="104.16666666666667" y1="0" x2="104.16666666666667" y2="176.984375" fill="rgb(0, 0, 0)" stroke="rgb(66, 66, 66)" stroke-width="1px" opacity="0.25"></line><line x1="125" y1="0" x2="125" y2="176.984375" fill="rgb(0, 0, 0)" stroke="rgb(66, 66, 66)" stroke-width="1px" opacity="0.25"></line><line x1="145.83333333333334" y1="0" x2="145.83333333333334" y2="176.984375" fill="rgb(0, 0, 0)" stroke="rgb(66, 66, 66)" stroke-width="1px" opacity="0.25"></line><line x1="166.66666666666666" y1="0" x2="166.66666666666666" y2="176.984375" fill="rgb(0, 0, 0)" stroke="rgb(66, 66, 66)" stroke-width="1px" opacity="0.25"></line><line x1="187.5" y1="0" x2="187.5" y2="176.984375" fill="rgb(0, 0, 0)" stroke="rgb(66, 66, 66)" stroke-width="1px" opacity="0.25"></line><line x1="208.33333333333334" y1="0" x2="208.33333333333334" y2="176.984375" fill="rgb(0, 0, 0)" stroke="rgb(66, 66, 66)" stroke-width="1px" opacity="0.25"></line><line x1="229.16666666666666" y1="0" x2="229.16666666666666" y2="176.984375" fill="rgb(0, 0, 0)" stroke="rgb(66, 66, 66)" stroke-width="1px" opacity="0.25"></line><line x1="250" y1="0" x2="250" y2="176.984375" fill="rgb(0, 0, 0)" stroke="rgb(66, 66, 66)" stroke-width="1px" opacity="0.25"></line></g><g><line x1="0" y1="176.984375" x2="250" y2="176.984375" fill="rgb(0, 0, 0)" stroke="rgb(66, 66, 66)" stroke-width="1px" opacity="0.25"></line><line x1="0" y1="154.861328125" x2="250" y2="154.861328125" fill="rgb(0, 0, 0)" stroke="rgb(66, 66, 66)" stroke-width="1px" opacity="0.25"></line><line x1="0" y1="132.73828125" x2="250" y2="132.73828125" fill="rgb(0, 0, 0)" stroke="rgb(66, 66, 66)" stroke-width="1px" opacity="0.25"></line><line x1="0" y1="110.615234375" x2="250" y2="110.615234375" fill="rgb(0, 0, 0)" stroke="rgb(66, 66, 66)" stroke-width="1px" opacity="0.25"></line><line x1="0" y1="88.4921875" x2="250" y2="88.4921875" fill="rgb(0, 0, 0)" stroke="rgb(66, 66, 66)" stroke-width="1px" opacity="0.25"></line><line x1="0" y1="66.369140625" x2="250" y2="66.369140625" fill="rgb(0, 0, 0)" stroke="rgb(66, 66, 66)" stroke-width="1px" opacity="0.25"></line><line x1="0" y1="44.24609375" x2="250" y2="44.24609375" fill="rgb(0, 0, 0)" stroke="rgb(66, 66, 66)" stroke-width="1px" opacity="0.25"></line><line x1="0" y1="22.123046875" x2="250" y2="22.123046875" fill="rgb(0, 0, 0)" stroke="rgb(66, 66, 66)" stroke-width="1px" opacity="0.25"></line><line x1="0" y1="0" x2="250" y2="0" fill="rgb(0, 0, 0)" stroke="rgb(66, 66, 66)" stroke-width="1px" opacity="0.25"></line></g></g></g><g><g><line x1="0" y1="22.123046875" x2="250" y2="22.123046875" fill="rgb(0, 0, 0)" stroke="rgb(153, 153, 153)" stroke-width="1.5px"></line></g></g><g><g><line x1="20.833333333333332" y1="0" x2="20.833333333333332" y2="176.984375" fill="rgb(0, 0, 0)" stroke="rgb(153, 153, 153)" stroke-width="1.5px"></line></g></g><g><g><g><g><g><path stroke="rgb(51, 187, 238)" stroke-width="2px" d="M21.858333333333334,27.09194207549095L22.883333333333333,27.32461364335305L23.908333333333335,27.48225506604181L24.93333333333333,27.358419442226587L25.958333333333332,27.47895300159476L26.983333333333334,27.59284873122172L28.008333333333333,27.77578640703132L29.033333333333335,27.851980817783765L30.058333333333334,27.806860622708886L31.083333333333336,27.89654909037926L32.108333333333334,28.12294111640348L33.13333333333333,28.209958819077208L34.15833333333333,28.276565550385463L35.18333333333333,28.287435804098866L36.208333333333336,28.302164031149978L37.233333333333334,28.22313265641902L38.25833333333333,28.166262667331925L39.28333333333334,28.073576262124718L40.30833333333334,28.056555991775085L41.333333333333336,27.956492505519346L42.358333333333334,27.965638198511847L43.38333333333333,27.933279167083004L44.40833333333333,27.95054809039263L45.43333333333333,27.96901694369818L46.45833333333333,27.97936113531936L47.483333333333334,27.991078895918534L48.50833333333333,27.958463266600667L49.53333333333333,27.917934226513147L50.55833333333333,27.862469387222383L51.583333333333336,27.859913221678976L52.608333333333334,27.767669727338955L53.63333333333333,27.689053129830185L54.65833333333334,27.59643645885418L55.68333333333334,27.50134625065488L56.708333333333336,27.478780149472865L57.733333333333334,27.41391195061279L58.75833333333333,27.344715956842773L59.78333333333333,27.35018405921377L60.80833333333333,27.30093524631461L61.83333333333333,27.28578524439733L62.858333333333334,27.29737517388125L63.88333333333333,27.344355131626276L64.90833333333333,27.27643324884752L65.93333333333332,27.246045825820115L66.95833333333333,27.191810007944973L67.98333333333333,27.12105746573081L69.00833333333334,27.104467130254182L70.03333333333333,27.034835565316072L71.05833333333334,26.98698443928068L72.08333333333333,27.04920493640977L73.10833333333333,27.010736789281797L74.13333333333333,27.02799171945042L75.15833333333333,26.983389103950064L76.18333333333334,27.01761090573386L77.20833333333334,27.04999777131288L78.23333333333333,27.103592623692382L79.25833333333334,27.14226318633254L80.28333333333333,27.185702529643752L81.30833333333332,27.194828840769055L82.33333333333333,27.240845659744892L83.35833333333333,27.276761464240554L84.38333333333334,27.269163521658623L85.40833333333333,27.224498798040074L86.43333333333334,27.1633565278193L87.45833333333333,27.1582013865439L88.48333333333333,27.150536722419034L89.50833333333333,27.147826282868955L90.53333333333333,27.16510550918498L91.55833333333334,27.149454733989383L92.58333333333334,27.144204716220646L93.60833333333333,27.100482153267652L94.63333333333334,27.116152006209518L95.65833333333333,27.177091103376206L96.68333333333332,27.144564428383983L97.70833333333333,27.17505957453719L98.73333333333333,27.13670826461711L99.75833333333334,27.13683183123111L100.78333333333333,27.129948211707074L101.80833333333334,27.145957514561157L102.83333333333333,27.156422094730203L103.85833333333333,27.144438349535793L104.88333333333333,27.15872213660529L105.90833333333333,27.131161208577183L106.93333333333334,27.086933843631908L107.95833333333334,27.101524774377825L108.98333333333333,27.125798495116467L110.00833333333334,27.176463169363572L111.03333333333333,27.247459677656817L112.05833333333332,27.290314709312067L113.08333333333333,27.30589290593973L114.10833333333333,27.343918195023477L115.13333333333334,27.391756020270556L116.15833333333333,27.466012541149386L117.18333333333334,27.599125955559348L118.20833333333333,27.676093990460878L119.23333333333333,27.537849114546194L120.25833333333333,27.514032765074806L121.28333333333335,27.496751864191815L122.30833333333334,27.494980251057306L123.33333333333334,27.532312422396462L124.35833333333333,27.57882941181976L125.38333333333334,27.581055803901016L126.40833333333335,27.613629433890843L127.43333333333334,27.608474541440224L128.45833333333334,27.5622227297314L129.48333333333335,27.53529097717013L130.50833333333333,27.61178793310522L131.53333333333333,27.55368260328338L132.55833333333334,27.506717254434758L133.58333333333334,27.554814255621363L134.60833333333332,27.58132686972676L135.63333333333333,27.50919724377844L136.65833333333333,27.423136210997907L137.68333333333334,27.40997459968914L138.70833333333331,27.352857062274268L139.73333333333332,27.332193365057655L140.75833333333335,27.369408068884024L141.78333333333333,27.325241450362583L142.80833333333334,27.26830931293477L143.83333333333334,27.260748560361595L144.85833333333335,27.21916959882282L145.88333333333333,27.204235465729678L146.90833333333333,27.23331220651043L147.93333333333334,27.26134953896017L148.95833333333334,27.260547591641227L149.98333333333332,27.319356934889846L151.00833333333333,27.28119243727248L152.03333333333333,27.283064384543184L153.05833333333334,27.26557501940574L154.08333333333331,27.329093479115947L155.10833333333332,27.280073513366577L156.13333333333335,27.276634118335416L157.15833333333333,27.33223216109262L158.18333333333334,27.30209772567462L159.20833333333334,27.26767776658792L160.23333333333335,27.2530702984506L161.25833333333333,27.200708763292926L162.28333333333333,27.2090491120267L163.30833333333334,27.196011907814988L164.33333333333334,27.23208274533994L165.35833333333332,27.220195351492023L166.38333333333333,27.191997333689404L167.40833333333333,27.227834869339773L168.43333333333334,27.241166384582147L169.45833333333331,27.24928584779921L170.48333333333332,27.33773577926477L171.50833333333335,27.36254897923458L172.53333333333333,27.33328123646828L173.55833333333334,27.29997844230308L174.58333333333334,27.249581524299746L175.60833333333335,27.260374624533792L176.63333333333333,27.222791762949655L177.65833333333333,27.161999462035713L178.68333333333334,27.13518729329302L179.70833333333334,27.110834334139376L180.73333333333332,27.113804706373042L181.75833333333333,27.163650144816852L182.78333333333333,27.151994645525143L183.80833333333334,27.120636342261296L184.83333333333331,27.15754014096623L185.85833333333332,27.224273968921086L186.88333333333335,27.998146790045464L187.90833333333333,27.790728590893366L188.93333333333334,27.72132183534632L189.95833333333334,27.667451887913106L190.98333333333335,27.556427226399105L192.00833333333333,27.48570913169622L193.03333333333333,27.43583823884533L194.05833333333334,27.394194399830216L195.08333333333334,27.408673339253706L196.10833333333332,27.339835362876034L197.13333333333333,27.347522138479246L198.15833333333333,27.299538989765377L199.18333333333334,27.254038933118153L200.20833333333331,27.268483148123796L201.23333333333332,27.32163427185973L202.25833333333335,27.31385833350983L203.28333333333333,27.311293813682514L204.30833333333334,27.313528285291653L205.33333333333334,27.32612365533445L206.35833333333335,27.255213429755987L207.38333333333333,27.23510215212551L208.40833333333333,27.23540895812113L209.43333333333334,27.230553619842137L210.45833333333334,27.248286492658995L211.48333333333332,27.216571448762068L212.50833333333333,27.195260699466875L213.53333333333333,27.194479495167833L214.55833333333334,27.213749151644212L215.58333333333331,27.142273404747762L216.60833333333335,27.16281534341767L217.63333333333335,27.20042583494709L218.65833333333333,27.177831918248796L219.68333333333334,27.188817574219794L220.70833333333334,27.25475944004591L221.73333333333335,27.238221968484567L222.75833333333333,27.246991966113697L223.78333333333333,27.252460028103954L224.80833333333334,27.29829267903037L225.83333333333334,27.27695123854069L226.85833333333332,27.347341650950604L227.88333333333333,27.484782132943L228.90833333333333,27.55701913094381L229.93333333333334,27.66083653232934" style="fill: none;" fill="none"></path></g><g><path stroke="rgb(204, 51, 17)" stroke-width="2px" d="M21.858333333333334,46.58373716449738L22.883333333333333,39.161473695929004L23.908333333333335,36.59999149414055L24.93333333333333,34.919737724074515L25.958333333333332,34.674136718313704L26.983333333333334,33.77829314025012L28.008333333333333,33.65815320927293L29.033333333333335,32.81686453698087L30.058333333333334,32.61048113679465L31.083333333333336,32.48169744365627L32.108333333333334,34.40886351547297L33.13333333333333,35.05972347578697L34.15833333333333,35.355411727408935L35.18333333333333,37.14853959366315L36.208333333333336,62.55125969011761L37.233333333333334,57.60144458378079L38.25833333333333,54.30589669089821L39.28333333333334,52.90053892560456L40.30833333333334,51.46768716831774L41.333333333333336,49.76702263564858L42.358333333333334,47.312823056263014L43.38333333333333,45.16586083250471L44.40833333333333,43.31598325698333L45.43333333333333,41.94392504687832L46.45833333333333,40.28317385847265L47.483333333333334,39.52251510161409L48.50833333333333,38.60360544095903L49.53333333333333,37.84359272050412L50.55833333333333,37.038366992368246L51.583333333333336,36.598458139482176L52.608333333333334,35.6795473339358L53.63333333333333,42.25002052721283L54.65833333333334,40.99648249721529L55.68333333333334,39.56212055158607L56.708333333333336,38.84623268321151L57.733333333333334,38.22402278156523L58.75833333333333,36.876878792978516L59.78333333333333,35.78410611685335L60.80833333333333,107.12508798509597L61.83333333333333,95.63563614716772L62.858333333333334,86.14290763812859L63.88333333333333,78.03033200044611L64.90833333333333,72.0123475093589L65.93333333333332,66.00974204723809L66.95833333333333,60.98956227517245L67.98333333333333,56.57448241299492L69.00833333333334,53.639598200598144L70.03333333333333,50.46079239842842L71.05833333333334,47.395954728877484L72.08333333333333,49.33416251206246L73.10833333333333,47.59734259192826L74.13333333333333,45.22341755449732L75.15833333333333,43.48730988329731L76.18333333333334,42.065662027680254L77.20833333333334,40.764758810599076L78.23333333333333,39.392101660983926L79.25833333333334,38.253106355625654L80.28333333333333,37.51801332997662L81.30833333333332,36.88250582168156L82.33333333333333,36.56478777171348L83.35833333333333,36.186048526477464L84.38333333333334,36.41947279014435L85.40833333333333,35.87567061968093L86.43333333333334,34.94273193006432L87.45833333333333,34.38266274155353L88.48333333333333,34.30135218372057L89.50833333333333,33.86122022210402L90.53333333333333,33.39956621004818L91.55833333333334,33.028514756668116L92.58333333333334,32.67953874969142L93.60833333333333,32.56937587574819L94.63333333333334,32.16250359938129L95.65833333333333,32.80089918797203L96.68333333333332,32.44400638388796L97.70833333333333,32.508221436195484L98.73333333333333,32.28931816673946L99.75833333333334,32.72206495396159L100.78333333333333,32.42843944846237L101.80833333333334,33.9085494036284L102.83333333333333,33.54363483659212L103.85833333333333,32.9291941462571L104.88333333333333,32.71843771274862L105.90833333333333,32.845713371476585L106.93333333333334,34.4386012409632L107.95833333333334,33.779082222310876L108.98333333333333,33.363364778240935L110.00833333333334,33.11138860260346L111.03333333333333,32.720798493494385L112.05833333333332,32.850333535396445L113.08333333333333,32.30809496355475L114.10833333333333,31.841305444371557L115.13333333333334,33.01205884107762L116.15833333333333,33.04564079566231L117.18333333333334,32.60732407476987L118.20833333333333,32.531602211811645L119.23333333333333,32.468857656531924L120.25833333333333,32.10466903018832L121.28333333333335,32.11224621929673L122.30833333333334,31.974607569073303L123.33333333333334,31.736967306910554L124.35833333333333,159.53853659830838L125.38333333333334,140.1441465085521L126.40833333333335,123.45753045135662L127.43333333333334,109.68784974773355L128.45833333333334,97.60223724458587L129.48333333333335,87.56058683573913L130.50833333333333,79.01299122124023L131.53333333333333,72.10256556942254L132.55833333333334,65.62033931875473L133.58333333333334,61.00502258275768L134.60833333333332,56.31356657903683L135.63333333333333,52.349890948117206L136.65833333333333,55.685938456238155L137.68333333333334,51.74892940169912L138.70833333333331,52.80112968525846L139.73333333333332,49.779672599160634L140.75833333333335,46.85102481412408L141.78333333333333,44.74960484798742L142.80833333333334,42.984584234718255L143.83333333333334,41.943834200874036L144.85833333333335,40.389175202795464L145.88333333333333,39.36303524995439L146.90833333333333,38.34539874469543L147.93333333333334,37.26049927561202L148.95833333333334,36.08518338466608L149.98333333333332,35.111851019427114L151.00833333333333,34.47907277502998L152.03333333333333,33.60986908481509L153.05833333333334,33.19674519444239L154.08333333333331,32.62639095428683L155.10833333333332,32.249448615708985L156.13333333333335,32.27432838325825L157.15833333333333,31.79741566570378L158.18333333333334,32.235912197558L159.20833333333334,32.07860198410832L160.23333333333335,32.4942402911995L161.25833333333333,32.441995183975465L162.28333333333333,32.22374721084968L163.30833333333334,33.59546037258549L164.33333333333334,33.172068766139624L165.35833333333332,32.939361756070554L166.38333333333333,32.719383604268685L167.40833333333333,32.328650351559766L168.43333333333334,32.13659669919814L169.45833333333331,32.02875498710742L170.48333333333332,32.08131987445983L171.50833333333335,33.13663050718996L172.53333333333333,33.0934711233045L173.55833333333334,33.8930355023762L174.58333333333334,40.55940840592819L175.60833333333335,39.2687277039573L176.63333333333333,38.25899730074928L177.65833333333333,37.20411010689098L178.68333333333334,36.23766469267668L179.70833333333334,35.739944776324805L180.73333333333332,35.02451217965392L181.75833333333333,35.14576860268706L182.78333333333333,34.700907030171244L183.80833333333334,34.64530090788189L184.83333333333331,34.60720257690833L185.85833333333332,34.51440703624241L186.88333333333335,35.21966962501756L187.90833333333333,34.93736019111038L188.93333333333334,34.533547748743466L189.95833333333334,34.458311769988086L190.98333333333335,62.371626105312544L192.00833333333333,58.03963502516978L193.03333333333333,54.31438469537414L194.05833333333334,52.39834544750096L195.08333333333334,49.67710686858854L196.10833333333332,47.329658909419244L197.13333333333333,45.00571643779129L198.15833333333333,42.99454366268028L199.18333333333334,43.41746088057096L200.20833333333331,42.370283767041435L201.23333333333332,41.039059536427075L202.25833333333335,39.683678542197676L203.28333333333333,38.705680291122704L204.30833333333334,38.042857981845124L205.33333333333334,37.1390709827945L206.35833333333335,37.52379173863682L207.38333333333333,37.320167627555506L208.40833333333333,36.42373388385763L209.43333333333334,36.0944030621587L210.45833333333334,35.31345807112527L211.48333333333332,34.9935281157273L212.50833333333333,35.3992353551141L213.53333333333333,35.31587875992942L214.55833333333334,35.54287357852316L215.58333333333331,34.91249305231804L216.60833333333335,34.44372668141741L217.63333333333335,33.730550585492686L218.65833333333333,33.20952855024793L219.68333333333334,32.886191618810585L220.70833333333334,32.702644392085L221.73333333333335,32.23774630074613L222.75833333333333,31.70066095785474L223.78333333333333,31.444439826565475L224.80833333333334,31.296117982354605L225.83333333333334,30.912345485942396L226.85833333333332,31.273543951224575L227.88333333333333,31.157054695228357L228.90833333333333,32.01074051831432L229.93333333333334,31.665005848107008" style="fill: none;" fill="none"></path></g><g><path stroke="rgb(0, 119, 187)" stroke-width="2px" d="M21.858333333333334,27.953014566004267L22.883333333333333,27.977688627090007L23.908333333333335,28.00699923329874L24.93333333333333,28.2104422159559L25.958333333333332,28.45983203277822L26.983333333333334,28.4727892531026L28.008333333333333,28.633785644291756L29.033333333333335,28.403267613570705L30.058333333333334,28.32776844715045L31.083333333333336,28.387796991463638L32.108333333333334,28.501465233968972L33.13333333333333,28.503645205867116L34.15833333333333,28.49582318668399L35.18333333333333,28.4964812236152L36.208333333333336,28.526895294473388L37.233333333333334,28.393202608982968L38.25833333333333,28.38194484645168L39.28333333333334,28.383599489516353L40.30833333333334,28.194600963093073L41.333333333333336,28.071278976567363L42.358333333333334,27.916254499400235L43.38333333333333,27.826131253858705L44.40833333333333,27.854982435423295L45.43333333333333,27.792237503742662L46.45833333333333,27.82579752172767L47.483333333333334,27.716851625992046L48.50833333333333,27.634265888853506L49.53333333333333,27.63793614670286L50.55833333333333,27.513298665422145L51.583333333333336,27.54375228411373L52.608333333333334,27.569319395478484L53.63333333333333,27.629843444889968L54.65833333333334,27.574782514728646L55.68333333333334,27.558372073194725L56.708333333333336,27.54747131393153L57.733333333333334,27.55893439955505L58.75833333333333,27.47641837823551L59.78333333333333,27.50370636779346L60.80833333333333,27.45747843005098L61.83333333333333,27.541095467662586L62.858333333333334,27.46097572227089L63.88333333333333,27.572461742604368L64.90833333333333,27.618428601371356L65.93333333333332,27.577962975175986L66.95833333333333,27.588529804969294L67.98333333333333,27.56955271608293L69.00833333333334,27.523657947725674L70.03333333333333,27.50884595055017L71.05833333333334,27.55612290452114L72.08333333333333,27.52805670315809L73.10833333333333,27.450638641954715L74.13333333333333,29.52988921752052L75.15833333333333,29.1854849537904L76.18333333333334,28.905153069522484L77.20833333333334,28.58072035361391L78.23333333333333,28.447600452004117L79.25833333333334,28.337072995467338L80.28333333333333,28.178286243887808L81.30833333333332,28.12451726572071L82.33333333333333,28.10687602805974L83.35833333333333,28.247565089585738L84.38333333333334,28.11706321213487L85.40833333333333,27.914961011785138L86.43333333333334,27.76528038797205L87.45833333333333,27.654577170442266L88.48333333333333,27.56531963388543L89.50833333333333,27.487866245509085L90.53333333333333,27.427996948063388L91.55833333333334,27.42869856522259L92.58333333333334,27.588496669777594L93.60833333333333,27.486677448105844L94.63333333333334,27.413664883492228L95.65833333333333,27.323238949288324L96.68333333333332,27.287757125567428L97.70833333333333,27.36689693187715L98.73333333333333,27.31074916506328L99.75833333333334,27.297372085998514L100.78333333333333,27.30883685710347L101.80833333333334,27.38779836754493L102.83333333333333,27.38450131656199L103.85833333333333,27.400088963977744L104.88333333333333,27.480260089883103L105.90833333333333,27.624095966549643L106.93333333333334,27.56070437585596L107.95833333333334,27.639500411098044L108.98333333333333,27.592008939965684L110.00833333333334,27.64760618039931L111.03333333333333,27.725346798949182L112.05833333333332,27.74079378853851L113.08333333333333,27.682534588800703L114.10833333333333,27.721347416779206L115.13333333333334,27.6622563704213L116.15833333333333,27.657531041880638L117.18333333333334,27.731830998141305L118.20833333333333,27.6634017364011L119.23333333333333,27.768825443829165L120.25833333333333,27.738975879849267L121.28333333333335,27.720845914340963L122.30833333333334,27.631405428133586L123.33333333333334,27.58503496997269L124.35833333333333,27.513860648958644L125.38333333333334,27.442582757638565L126.40833333333335,27.368799739234774L127.43333333333334,27.396712903227648L128.45833333333334,27.430205035826937L129.48333333333335,27.42467030232337L130.50833333333333,27.444500416130683L131.53333333333333,27.503811158791557L132.55833333333334,27.44642566451199L133.58333333333334,27.46023116054271L134.60833333333332,27.423343063334688L135.63333333333333,27.41673062636182L136.65833333333333,27.454776708709925L137.68333333333334,27.556646607675592L138.70833333333331,27.6806228435599L139.73333333333332,27.721272375743236L140.75833333333335,27.776096860036493L141.78333333333333,27.790980218053626L142.80833333333334,27.803829766584673L143.83333333333334,27.885303223393695L144.85833333333335,27.923450899309557L145.88333333333333,27.939673526651312L146.90833333333333,27.96276543764777L147.93333333333334,27.906826356698723L148.95833333333334,27.852654490383607L149.98333333333332,27.840591346464855L151.00833333333333,27.785501236339588L152.03333333333333,27.72379029757704L153.05833333333334,27.735359849574184L154.08333333333331,27.716507868326747L155.10833333333332,27.745224927049765L156.13333333333335,27.81821101533973L157.15833333333333,27.799890031159986L158.18333333333334,27.77518288034772L159.20833333333334,27.833978450088125L160.23333333333335,27.79349462724517L161.25833333333333,27.8271667372872L162.28333333333333,27.785232285175173L163.30833333333334,27.755749851409934L164.33333333333334,27.70024262550407L165.35833333333332,27.675753438611018L166.38333333333333,27.58258112899503L167.40833333333333,27.615663314602795L168.43333333333334,27.544854659620253L169.45833333333331,27.54412194489667L170.48333333333332,27.462707803042104L171.50833333333335,27.454157653450284L172.53333333333333,27.439161863646287L173.55833333333334,27.41981397319545L174.58333333333334,27.284535644648457L175.60833333333335,27.24303585480042L176.63333333333333,27.256564064350766L177.65833333333333,27.21723053526268L178.68333333333334,27.176953882530572L179.70833333333334,27.12991687434504L180.73333333333332,27.200483643938814L181.75833333333333,27.177787936957245L182.78333333333333,27.08759748014281L183.80833333333334,27.145318113468917L184.83333333333331,27.184616987219556L185.85833333333332,27.179859432311293L186.88333333333335,27.17975374785335L187.90833333333333,28.34635423437504L188.93333333333334,28.244327931156846L189.95833333333334,28.092221194642356L190.98333333333335,27.88454604858412L192.00833333333333,27.7347404727776L193.03333333333333,27.612527376001726L194.05833333333334,27.519609263989526L195.08333333333334,27.48070646820036L196.10833333333332,27.414365807833036L197.13333333333333,27.351725935538074L198.15833333333333,27.357154770605305L199.18333333333334,27.324317746337886L200.20833333333331,27.341878342597358L201.23333333333332,27.37027899211829L202.25833333333335,27.442408202199744L203.28333333333333,27.407710535952756L204.30833333333334,27.39406981561673L205.33333333333334,27.44062496500192L206.35833333333335,27.531747058686932L207.38333333333333,27.541109022726847L208.40833333333333,27.61809658354293L209.43333333333334,27.63080188172713L210.45833333333334,27.661870475766147L211.48333333333332,27.702409971410564L212.50833333333333,27.81933333417312L213.53333333333333,27.814081777728152L214.55833333333334,27.930031522233353L215.58333333333331,27.835785367944535L216.60833333333335,27.846517125782274L217.63333333333335,27.88879371396043L218.65833333333333,28.165591697637595L219.68333333333334,28.106934016581587L220.70833333333334,28.12751599296606L221.73333333333335,28.226371506224837L222.75833333333333,28.19595111689881L223.78333333333333,28.198149472728634L224.80833333333334,28.230404824073116L225.83333333333334,28.191256670908874L226.85833333333332,28.28547266373855L227.88333333333333,28.33144373866865L228.90833333333333,28.43012570127354L229.93333333333334,28.56551274844737" style="fill: none;" fill="none"></path></g><g><path stroke="rgb(255, 112, 67)" stroke-width="2px" d="M21.858333333333334,27.42996802675724L22.883333333333333,27.494444617155427L23.908333333333335,27.483926889068744L24.93333333333333,27.44905696217905L25.958333333333332,27.604576939272235L26.983333333333334,27.708272310201284L28.008333333333333,27.79187373444166L29.033333333333335,27.72530596877888L30.058333333333334,27.683292451062254L31.083333333333336,27.549941362204308L32.108333333333334,27.521317157760702L33.13333333333333,27.52100976124499L34.15833333333333,27.54839829760178L35.18333333333333,27.57301959064709L36.208333333333336,27.557563099904787L37.233333333333334,27.568197166628902L38.25833333333333,27.48489606667863L39.28333333333334,27.45270979745596L40.30833333333334,27.447375822778437L41.333333333333336,27.39932920925842L42.358333333333334,27.407683337133875L43.38333333333333,27.385198518994297L44.40833333333333,27.348976519886072L45.43333333333333,27.323272232925444L46.45833333333333,27.309154478359446L47.483333333333334,27.27270390268007L48.50833333333333,27.311522013032636L49.53333333333333,27.264185489425255L50.55833333333333,27.251793241781638L51.583333333333336,27.194195124908333L52.608333333333334,27.136275525434293L53.63333333333333,27.077277490108475L54.65833333333334,27.018510414504792L55.68333333333334,26.94704335712916L56.708333333333336,26.927276858017514L57.733333333333334,26.91049253733461L58.75833333333333,26.917846279793718L59.78333333333333,26.8781366191833L60.80833333333333,26.91507419512413L61.83333333333333,26.886317088999643L62.858333333333334,26.887462524426578L63.88333333333333,26.892495704928933L64.90833333333333,26.895269962020578L65.93333333333332,26.87974610721327L66.95833333333333,26.92719252477997L67.98333333333333,26.92412734644727L69.00833333333334,26.934281815149614L70.03333333333333,26.886555984059598L71.05833333333334,26.86043306185323L72.08333333333333,26.844718178823506L73.10833333333333,26.86843677890428L74.13333333333333,26.91677364822055L75.15833333333333,26.935924766843222L76.18333333333334,26.938183586876278L77.20833333333334,26.993937701251433L78.23333333333333,27.092566988366418L79.25833333333334,27.116683827955907L80.28333333333333,27.18364763771867L81.30833333333332,27.23267200783033L82.33333333333333,27.28307441431343L83.35833333333333,27.301721095509816L84.38333333333334,27.326142175644105L85.40833333333333,27.38391973185007L86.43333333333334,27.44692456762506L87.45833333333333,27.524758865116535L88.48333333333333,27.52497378017529L89.50833333333333,27.564350436329512L90.53333333333333,27.57133783615746L91.55833333333334,27.55556196312228L92.58333333333334,27.52419880131416L93.60833333333333,27.43341821462213L94.63333333333334,27.476244183362397L95.65833333333333,27.45820294703033L96.68333333333332,27.364122666331763L97.70833333333333,27.309200818470146L98.73333333333333,27.279147760367163L99.75833333333334,27.338856205003317L100.78333333333333,27.32491162629031L101.80833333333334,27.25863633199716L102.83333333333333,27.295281466690582L103.85833333333333,27.281501532518188L104.88333333333333,27.220907202487503L105.90833333333333,27.184641776554127L106.93333333333334,27.1394981253833L107.95833333333334,27.096911881632955L108.98333333333333,27.04663965249269L110.00833333333334,27.050958683295928L111.03333333333333,27.031063310293597L112.05833333333332,27.082815268094535L113.08333333333333,27.064783136043545L114.10833333333333,26.99907096944588L115.13333333333334,26.99465355810509L116.15833333333333,26.983594465122742L117.18333333333334,26.950909029292376L118.20833333333333,26.91553653271471L119.23333333333333,26.90155442625424L120.25833333333333,26.968186429170057L121.28333333333335,26.974084994135403L122.30833333333334,26.951293629665454L123.33333333333334,26.84665769190684L124.35833333333333,26.795373707916145L125.38333333333334,26.79228521326874L126.40833333333335,26.81082437326953L127.43333333333334,26.805502283291165L128.45833333333334,26.821007129602144L129.48333333333335,26.815592792065274L130.50833333333333,26.818981567033422L131.53333333333333,26.839458871685377L132.55833333333334,26.846663525098464L133.58333333333334,26.83598151263013L134.60833333333332,26.82141608912138L135.63333333333333,26.8888781558894L136.65833333333333,26.919264575657202L137.68333333333334,26.888604068412327L138.70833333333331,26.923762488706714L139.73333333333332,26.971733081142492L140.75833333333335,26.992173268876396L141.78333333333333,27.02508158076564L142.80833333333334,27.06013979928069L143.83333333333334,27.11353220005073L144.85833333333335,27.09577958392603L145.88333333333333,27.115607080819885L146.90833333333333,27.104799623039984L147.93333333333334,27.091804471397715L148.95833333333334,27.067361466589734L149.98333333333332,27.052338690458082L151.00833333333333,27.094256020074546L152.03333333333333,27.086589699124303L153.05833333333334,27.05264936973296L154.08333333333331,27.12405216745182L155.10833333333332,27.15269593502366L156.13333333333335,27.102482568711075L157.15833333333333,27.07159723444958L158.18333333333334,27.041850790820103L159.20833333333334,27.031328070026834L160.23333333333335,27.040309025628034L161.25833333333333,27.035041688040504L162.28333333333333,27.09118751040655L163.30833333333334,27.10311414092242L164.33333333333334,27.19869556406491L165.35833333333332,27.209250400648692L166.38333333333333,27.188096036377303L167.40833333333333,27.212009182150442L168.43333333333334,27.215689295854407L169.45833333333331,27.199192336571546L170.48333333333332,27.235714969884153L171.50833333333335,27.239644534097966L172.53333333333333,27.21585864719595L173.55833333333334,27.183158908455763L174.58333333333334,27.231593295345284L175.60833333333335,27.236229672466955L176.63333333333333,27.286347913044093L177.65833333333333,27.274707676314907L178.68333333333334,27.293418406594604L179.70833333333334,27.259902551824446L180.73333333333332,27.137442538099204L181.75833333333333,27.081894897812855L182.78333333333333,27.01326554253162L183.80833333333334,26.978308202810293L184.83333333333331,26.991830613161824L185.85833333333332,26.91762055696302L186.88333333333335,26.86667268720415L187.90833333333333,26.80046034769071L188.93333333333334,26.796634276361498L189.95833333333334,26.768978068489815L190.98333333333335,26.843956249083377L192.00833333333333,26.78125431753585L193.03333333333333,26.809032063260528L194.05833333333334,26.771659865908898L195.08333333333334,26.751092581741602L196.10833333333332,26.79211394305801L197.13333333333333,26.78201355405307L198.15833333333333,26.783520614523265L199.18333333333334,26.7906653744616L200.20833333333331,26.758758149025052L201.23333333333332,26.733793477863703L202.25833333333335,26.790194088830614L203.28333333333333,26.782073009468565L204.30833333333334,26.794975309533207L205.33333333333334,26.761509848576758L206.35833333333335,26.757261508704417L207.38333333333333,26.717460523241247L208.40833333333333,26.74725888133096L209.43333333333334,26.79440141890387L210.45833333333334,26.78705827786971L211.48333333333332,26.749556596925682L212.50833333333333,26.735997356214806L213.53333333333333,26.74085541476896L214.55833333333334,26.756367047852038L215.58333333333331,26.752455522425862L216.60833333333335,26.818098740448768L217.63333333333335,26.83100375024893L218.65833333333333,26.807530395893796L219.68333333333334,26.819635364479087L220.70833333333334,26.818329280344468L221.73333333333335,26.793369876250267L222.75833333333333,26.802426441944085L223.78333333333333,26.800128693817044L224.80833333333334,26.766302500565146L225.83333333333334,26.726203195391495L226.85833333333332,26.78146556799873L227.88333333333333,26.739054382975127L228.90833333333333,26.719003002310263L229.93333333333334,26.778812830951587" style="fill: none;" fill="none"></path></g></g></g></g><g opacity="0.2"><g><g><g><path stroke="rgb(51, 187, 238)" stroke-width="2px" d="M21.858333333333334,27.09194207549095L22.883333333333333,27.522384476035842L23.908333333333335,27.73014620321988L24.93333333333333,27.087637371301657L25.958333333333332,27.80543396717311L26.983333333333334,27.951886404037467L28.008333333333333,28.42146238696576L29.033333333333335,28.14533411210775L30.058333333333334,27.620850195944303L31.083333333333336,28.287067982852456L32.108333333333334,29.153261424005038L33.13333333333333,28.620542128026482L34.15833333333333,28.600316229641447L35.18333333333333,28.341586359262458L36.208333333333336,28.377046832621097L37.233333333333334,27.81440930241347L38.25833333333333,27.867927793800828L39.28333333333334,27.581501918464905L40.30833333333334,27.965281892716884L41.333333333333336,27.415322175443173L42.358333333333334,28.015455056428912L43.38333333333333,27.75595248624683L44.40833333333333,28.0456649519205L45.43333333333333,28.071182611823076L46.45833333333333,28.03679223823547L47.483333333333334,28.056337593674666L48.50833333333333,27.776343119233847L49.53333333333333,27.69112334409356L50.55833333333333,27.5514881516695L51.583333333333336,27.845558320164677L52.608333333333334,27.24894529101253L53.63333333333333,27.246448616594076L54.65833333333334,27.074502149790526L55.68333333333334,26.96502689236402L56.708333333333336,27.351414939433333L57.733333333333334,27.047570067793128L58.75833333333333,26.95373379528523L59.78333333333333,27.381094173461193L60.80833333333333,27.02243892657757L61.83333333333333,27.20008696597815L62.858333333333334,27.36295277541876L63.88333333333333,27.61023494124412L64.90833333333333,26.89196034497023L65.93333333333332,27.074009296268216L66.95833333333333,26.884714723050585L67.98333333333333,26.720393645435575L69.00833333333334,27.010508495628834L70.03333333333333,26.64044672784209L71.05833333333334,26.71593905976415L72.08333333333333,27.401665069311857L73.10833333333333,26.79281509482861L74.13333333333333,27.125745075702667L75.15833333333333,26.73069495919347L76.18333333333334,27.21149922558665L77.20833333333334,27.2334950082302L78.23333333333333,27.40725693136454L79.25833333333334,27.361371930867428L80.28333333333333,27.431835469007492L81.30833333333332,27.246540435880423L82.33333333333333,27.501589770674705L83.35833333333333,27.480272505551586L84.38333333333334,27.22611064466833L85.40833333333333,26.971409345477817L86.43333333333334,26.81689605295659L87.45833333333333,27.12898980724812L88.48333333333333,27.10710474786163L89.50833333333333,27.13246746271848L90.53333333333333,27.26301929721236L91.55833333333334,27.060768415063617L92.58333333333334,27.114455016762015L93.60833333333333,26.852723803460595L94.63333333333334,27.204946974307305L95.65833333333333,27.522409793853754L96.68333333333332,26.960247901052227L97.70833333333333,27.34786436864734L98.73333333333333,26.919385280489912L99.75833333333334,27.137532039016488L100.78333333333333,27.090941177755585L101.80833333333334,27.236676614016304L102.83333333333333,27.21572122490405L103.85833333333333,27.076530613362795L104.88333333333333,27.239663441389805L105.90833333333333,26.974982871085405L106.93333333333334,26.8363124563098L107.95833333333334,27.184206617861992L108.98333333333333,27.26334944155812L110.00833333333334,27.463562745720157L111.03333333333333,27.649772933572525L112.05833333333332,27.533159739345315L113.08333333333333,27.394169307351106L114.10833333333333,27.55939473742247L115.13333333333334,27.662836927622553L116.15833333333333,27.88679935771226L117.18333333333334,28.353435098052028L118.20833333333333,28.112246087074283L119.23333333333333,26.754461638808245L120.25833333333333,27.379073474019766L121.28333333333335,27.398826773136857L122.30833333333334,27.4849411111772L123.33333333333334,27.74386137154698L124.35833333333333,27.842425662159926L125.38333333333334,27.593672024756664L126.40833333333335,27.79821332550049L127.43333333333334,27.579263485789305L128.45833333333334,27.30012914201618L129.48333333333335,27.382677718579778L130.50833333333333,28.04527066910266L131.53333333333333,27.224419076859945L132.55833333333334,27.240580283969635L133.58333333333334,27.82736392349005L134.60833333333332,27.731565013736493L135.63333333333333,27.100462702721348L136.65833333333333,26.93545703130961L137.68333333333334,27.335392136394987L138.70833333333331,27.029191019833082L139.73333333333332,27.215099081724876L140.75833333333335,27.58029138919711L141.78333333333333,27.07496394678951L142.80833333333334,26.945693869024506L143.83333333333334,27.217904295951122L144.85833333333335,26.983555484235293L145.88333333333333,27.11960871177911L146.90833333333333,27.398080403864384L147.93333333333334,27.420227755844593L148.95833333333334,27.256003223508596L149.98333333333332,27.65260987946392L151.00833333333333,27.06492695105076L152.03333333333333,27.29367208573222L153.05833333333334,27.166468617051834L154.08333333333331,27.68903141719103L155.10833333333332,27.002293707638973L156.13333333333335,27.257144213169816L157.15833333333333,27.64728773656488L158.18333333333334,27.13133592504262L159.20833333333334,27.07263133183121L160.23333333333335,27.170294645696885L161.25833333333333,26.903993397474295L162.28333333333333,27.256311088174588L163.30833333333334,27.122134417295456L164.33333333333334,27.43648415794969L165.35833333333332,27.15283345302939L166.38333333333333,27.03220856615901L167.40833333333333,27.43091423800588L168.43333333333334,27.31671163761615L169.45833333333331,27.29529613935947L170.48333333333332,27.83895205754041L171.50833333333335,27.503157112389797L172.53333333333333,27.16743069413305L173.55833333333334,27.111262608706948L174.58333333333334,26.963998988956213L175.60833333333335,27.32153552585841L176.63333333333333,27.00982221397758L177.65833333333333,26.817509756863117L178.68333333333334,26.983251670420167L179.70833333333334,26.97283423227072L180.73333333333332,27.130636815696946L181.75833333333333,27.44610762932896L182.78333333333333,27.085946816205976L183.80833333333334,26.942939290434122L184.83333333333331,27.36666166695953L185.85833333333332,27.602432327330106L186.88333333333335,32.383426109731204L187.90833333333333,26.61535879570245L188.93333333333334,27.328016887247554L189.95833333333334,27.362188852459198L190.98333333333335,26.927287477821118L192.00833333333333,27.08497326171399L193.03333333333333,27.153236512690786L194.05833333333334,27.15821264541149L195.08333333333334,27.490720662653455L196.10833333333332,26.949753496736285L197.13333333333333,27.391080533564097L198.15833333333333,27.027634480386975L199.18333333333334,26.996205278784043L200.20833333333331,27.350333699822432L201.23333333333332,27.62282397302985L202.25833333333335,27.26979468286037L203.28333333333333,27.29676153466105L204.30833333333334,27.3261902910769L205.33333333333334,27.39749741891026L206.35833333333335,26.853388818144804L207.38333333333333,27.12113824555278L208.40833333333333,27.23714752542972L209.43333333333334,27.203040036261076L210.45833333333334,27.34877277195454L211.48333333333332,27.03685286667944L212.50833333333333,27.074499786794192L213.53333333333333,27.19005267080664L214.55833333333334,27.322943871676916L215.58333333333331,26.73724417233468L216.60833333333335,27.27921966254712L217.63333333333335,27.413551953613755L218.65833333333333,27.049799723625174L219.68333333333334,27.251069624722007L220.70833333333334,27.628430013060573L221.73333333333335,27.144509629637003L222.75833333333333,27.29668861934542L223.78333333333333,27.283445712715388L224.80833333333334,27.55801103428007L225.83333333333334,27.1560164090991L226.85833333333332,27.746220654606816L227.88333333333333,28.263611530900008L228.90833333333333,27.966362119615084L229.93333333333334,28.249135140180588" style="fill: none;" fill="none"></path></g><g><path stroke="rgb(204, 51, 17)" stroke-width="2px" d="M21.858333333333334,46.58373716449738L22.883333333333333,32.852549747645845L23.908333333333335,32.572060731828216L24.93333333333333,31.245652824103832L25.958333333333332,34.0088941590786L26.983333333333334,30.954292674839497L28.008333333333333,33.23412099546195L29.033333333333335,29.57785000747443L30.058333333333334,31.75965448850393L31.083333333333336,31.920951268374914L32.108333333333334,43.179483111858374L33.13333333333333,38.13073348820208L34.15833333333333,36.79264292657376L35.18333333333333,46.081069780826574L36.208333333333336,191.70644172286987L37.233333333333334,32.00268663662672L38.25833333333333,37.01774735903739L39.28333333333334,45.43946091294288L40.30833333333334,43.78377554154396L41.333333333333336,40.56937001597882L42.358333333333334,33.944725980758676L43.38333333333333,33.40056168079377L44.40833333333333,33.126896998405456L45.43333333333333,34.3539982970953L46.45833333333333,31.06265901184081L47.483333333333334,35.28624491250515L48.50833333333333,33.47256960582733L49.53333333333333,33.590366998791694L50.55833333333333,32.52361323058606L51.583333333333336,34.12802023112774L52.608333333333334,30.51212069803476L53.63333333333333,79.24120536088944L54.65833333333334,33.93226286292076L55.68333333333334,31.472159526109692L56.708333333333336,34.80569382429123L57.733333333333334,34.7101045460701L58.75833333333333,29.2650325011611L59.78333333333333,29.606875704228887L60.80833333333333,510.5500586013794L61.83333333333333,30.643813184618953L62.858333333333334,32.4315914016962L63.88333333333333,32.11777333521842L64.90833333333333,37.947450040102005L65.93333333333332,32.02635980910062L66.95833333333333,32.56418587774039L67.98333333333333,31.57237352573872L69.00833333333334,37.018010664343834L70.03333333333333,32.45623475295306L71.05833333333334,30.035650842070574L72.08333333333333,60.31351826095581L73.10833333333333,37.758273954272276L74.13333333333333,31.774557568848124L75.15833333333333,33.65146868300439L76.18333333333334,34.01112077677249L77.20833333333334,33.39411205106973L78.23333333333333,31.61473192298412L79.25833333333334,31.79951958703994L80.28333333333333,33.352881140649316L81.30833333333332,33.28158684051037L82.33333333333333,34.764508823513985L83.35833333333333,34.03998443949222L84.38333333333334,37.742144816398614L85.40833333333333,32.79425462794303L86.43333333333334,29.656268404006955L87.45833333333333,31.20903380739689L88.48333333333333,33.840604260325435L89.50833333333333,31.367193878412237L90.53333333333333,30.78357564127445L91.55833333333334,30.9259232159257L92.58333333333334,30.702034713864332L93.60833333333333,31.945126746356493L94.63333333333334,29.856916499495515L95.65833333333333,36.418444227337844L96.68333333333332,30.42162806534767L97.70833333333333,32.8721045550704L98.73333333333333,31.04887261605263L99.75833333333334,35.17428614592553L100.78333333333333,30.764567698717126L101.80833333333334,42.295812949776646L102.83333333333333,31.47579111391307L103.85833333333333,29.447371425867072L104.88333333333333,31.524153547286996L105.90833333333333,33.566940928220745L106.93333333333334,43.4649533239603L107.95833333333334,30.041812186241156L108.98333333333333,31.007634954214087L110.00833333333334,31.68352482271194L111.03333333333333,30.50745614326001L112.05833333333332,33.5843649880886L113.08333333333333,29.235411329329008L114.10833333333333,29.19616601097584L115.13333333333334,39.646325583457944L116.15833333333333,33.23593847721815L117.18333333333334,30.12353000080586L118.20833333333333,32.1025117545724L119.23333333333333,32.11330524671078L120.25833333333333,30.040933826744556L121.28333333333335,32.15518361812831L122.30833333333334,31.19465531224013L123.33333333333334,30.390339293241507L124.35833333333333,883.7473658981323L125.38333333333334,30.24261083835363L126.40833333333335,28.900045436799523L127.43333333333334,31.659663285672668L128.45833333333334,29.117102854013446L129.48333333333335,30.65790339422226L130.50833333333333,30.57661767041684L131.53333333333333,32.94348797392845L132.55833333333334,28.88772477388383L133.58333333333334,34.85156160867214L134.60833333333332,29.728649682462216L135.63333333333333,29.88906270170211L136.65833333333333,74.59020743370056L137.68333333333334,29.439211661934856L138.70833333333331,58.763597905159L139.73333333333332,32.65808257544041L140.75833333333335,30.255354140043256L141.78333333333333,32.84155843895673L142.80833333333334,32.982800806462755L143.83333333333334,36.04625069928169L144.85833333333335,31.579440910220146L145.88333333333333,33.548242200613025L146.90833333333333,32.57879189568758L147.93333333333334,31.112735630273825L148.95833333333334,29.425060014426705L149.98333333333332,29.596300958037386L151.00833333333333,30.893329394698146L152.03333333333333,28.68438151228428L153.05833333333334,30.85570981782674L154.08333333333331,29.39438359594344L155.10833333333332,30.11344203186035L156.13333333333335,32.41531373262406L157.15833333333333,29.094910267531866L158.18333333333334,34.720725877046576L159.20833333333334,31.187177441537386L160.23333333333335,34.849524030685416L161.25833333333333,32.14593957644701L162.28333333333333,30.987008696734915L163.30833333333334,41.36850162100792L164.33333333333334,30.772849663317206L165.35833333333332,31.62068869918585L166.38333333333333,31.47284074419736L167.40833333333333,30.114495253086087L168.43333333333334,31.048292669236666L169.45833333333331,31.417651951968676L170.48333333333332,32.3791875694394L171.50833333333335,39.11672409236431L172.53333333333333,32.848901281297216L173.55833333333334,38.423900316953656L174.58333333333334,78.33552152490616L175.60833333333335,31.954870392978197L176.63333333333333,32.537191682696346L177.65833333333333,31.22641600847245L178.68333333333334,30.761140678882608L179.70833333333334,32.91953191703557L180.73333333333332,30.97039413189889L181.75833333333333,35.832888333201396L182.78333333333333,32.180024785935885L183.80833333333334,34.33019954824448L184.83333333333331,34.391312034726155L185.85833333333332,33.988565639138216L186.88333333333335,39.21615762805938L187.90833333333333,33.33760673230887L188.93333333333334,32.245277242004875L189.95833333333334,34.03197455704212L190.98333333333335,220.54707400512697L192.00833333333333,33.4916855710745L193.03333333333333,33.20463282656669L194.05833333333334,41.540789709568024L195.08333333333334,34.256754921436304L196.10833333333332,34.02745380747318L197.13333333333333,31.83670909857749L198.15833333333333,31.597897937059393L199.18333333333334,45.813991781949994L200.20833333333331,36.43628012371064L201.23333333333332,33.495455562949175L202.25833333333335,32.00318624156713L203.28333333333333,33.16369020169974L204.30833333333334,34.28686489593982L205.33333333333334,32.01761132150889L206.35833333333335,39.703876021742815L207.38333333333333,36.166297664761544L208.40833333333333,31.34394266957045L209.43333333333334,34.2281950725317L210.45833333333334,30.888103121936318L211.48333333333332,33.18059170180558L212.50833333333333,37.69824304497243L213.53333333333333,34.843524720549574L214.55833333333334,36.829177550554284L215.58333333333331,31.34033673715591L216.60833333333335,31.787383912980562L217.63333333333335,29.68921937525273L218.65833333333333,30.25707035052777L219.68333333333334,31.053949007332328L220.70833333333334,31.662543440639976L221.73333333333335,29.603323783159265L222.75833333333333,28.657177348136905L223.78333333333333,29.992520082592964L224.80833333333334,30.45562753182649L225.83333333333334,28.73763467293978L226.85833333333332,33.32033525449037L227.88333333333333,30.49694891124963L228.90833333333333,36.84829351580143L229.93333333333334,29.705842716932306" style="fill: none;" fill="none"></path></g><g><path stroke="rgb(0, 119, 187)" stroke-width="2px" d="M21.858333333333334,27.953014566004267L22.883333333333333,27.998661579012865L23.908333333333335,28.053090161561972L24.93333333333333,28.655295727908605L25.958333333333332,29.135337084054953L26.983333333333334,28.513634772479534L28.008333333333333,29.20202016562224L29.033333333333335,27.51575863429904L30.058333333333334,28.016519079923633L31.083333333333336,28.649171516537663L32.108333333333334,29.018774525463584L33.13333333333333,28.513931159734735L34.15833333333333,28.457803245246414L35.18333333333333,28.499759257972244L36.208333333333336,28.681529713273054L37.233333333333334,27.701789572000504L38.25833333333333,28.322887631654734L39.28333333333334,28.392384029150012L40.30833333333334,27.181064170300964L41.333333333333336,27.404320402055973L42.358333333333334,27.07183162635564L43.38333333333333,27.332258128106588L44.40833333333333,28.01389412856102L45.43333333333333,27.445146227389568L46.45833333333333,28.012123231589797L47.483333333333334,27.110108791351315L48.50833333333333,27.173121126890177L49.53333333333333,27.658475849092007L50.55833333333333,26.81447904527187L51.583333333333336,27.71477356174588L52.608333333333334,27.7130941464901L53.63333333333333,27.97058850735425L54.65833333333334,27.26449076879024L55.68333333333334,27.465815356373778L56.708333333333336,27.48594639733433L57.733333333333334,27.623671951144924L58.75833333333333,27.010173287719482L59.78333333333333,27.657960040748122L60.80833333333333,27.196064808636898L61.83333333333333,28.01408789426089L62.858333333333334,27.007645894348627L63.88333333333333,28.20340913558006L64.90833333333333,27.878624740660197L65.93333333333332,27.34886931723357L66.95833333333333,27.64836154961586L67.98333333333333,27.462087560862294L69.00833333333334,27.26373494753241L70.03333333333333,27.424951723098758L71.05833333333334,27.823915974259386L72.08333333333333,27.36907023537158L73.10833333333333,27.012066047787666L74.13333333333333,41.30934704577924L75.15833333333333,27.23427783516049L76.18333333333334,27.316894263476136L77.20833333333334,26.74255213725567L78.23333333333333,27.693353337496525L79.25833333333334,27.710820606440315L80.28333333333333,27.27857996568084L81.30833333333332,27.819850945413116L82.33333333333333,28.00691586279868L83.35833333333333,29.044756682932377L84.38333333333334,27.37758917474747L85.40833333333333,26.769763390392068L86.43333333333334,26.917120517283678L87.45833333333333,27.027278005510578L88.48333333333333,27.05953999453784L89.50833333333333,27.048973350048065L90.53333333333333,27.08874392873049L91.55833333333334,27.432674332708118L92.58333333333334,28.49400704973937L93.60833333333333,26.909708472907546L94.63333333333334,26.999931048870096L95.65833333333333,26.81082956621051L96.68333333333332,27.086694873332977L97.70833333333333,27.815353150665757L98.73333333333333,26.992580104827887L99.75833333333334,27.221568965703252L100.78333333333333,27.37380365461112L101.80833333333334,27.83524552899599L102.83333333333333,27.36581807726622L103.85833333333333,27.48841876664758L104.88333333333333,27.93456226515771L105.90833333333333,28.439164605259904L106.93333333333334,27.201485859811303L107.95833333333334,28.086010751426226L108.98333333333333,27.32289087304472L110.00833333333334,27.962656941354272L111.03333333333333,28.16587665200233L112.05833333333332,27.82832667571307L113.08333333333333,27.35239929619432L114.10833333333333,27.941286677598956L115.13333333333334,27.32740723419189L116.15833333333333,27.63075418874622L117.18333333333334,28.152863968729964L118.20833333333333,27.275636009812352L119.23333333333333,28.366226334810257L120.25833333333333,27.569828378975394L121.28333333333335,27.61810945776104L122.30833333333334,27.12457606765628L123.33333333333334,27.322269067436466L124.35833333333333,27.110539531826973L125.38333333333334,27.038674736857423L126.40833333333335,26.95069599470496L127.43333333333334,27.554887490689755L128.45833333333334,27.619993778556594L129.48333333333335,27.393306813687083L130.50833333333333,27.55687105733156L131.53333333333333,27.839905357778076L132.55833333333334,27.12124120467901L133.58333333333334,27.538462303131816L134.60833333333332,27.214310516089192L135.63333333333333,27.379260150730616L136.65833333333333,27.670371172666552L137.68333333333334,28.13390936237574L138.70833333333331,28.383154840588563L139.73333333333332,27.95161972302198L140.75833333333335,28.08676893568039L141.78333333333333,27.87531924635172L142.80833333333334,27.87664387458563L143.83333333333334,28.346986143469817L144.85833333333335,28.13962106209993L145.88333333333333,28.031601747989654L146.90833333333333,28.093619599640366L147.93333333333334,27.589838231980806L148.95833333333334,27.5456805818081L149.98333333333332,27.772233531028032L151.00833333333333,27.473323946028945L152.03333333333333,27.37409497830271L153.05833333333334,27.800920644164076L154.08333333333331,27.60967997467518L155.10833333333332,27.90795492637158L156.13333333333335,28.231798848748216L157.15833333333333,27.696071120858193L158.18333333333334,27.635175692468888L159.20833333333334,28.167153345167634L160.23333333333335,27.564086297869682L161.25833333333333,28.017975360810762L162.28333333333333,27.547603723257783L163.30833333333334,27.588682726770642L164.33333333333334,27.385701678752902L165.35833333333332,27.53698137956858L166.38333333333333,27.05460470789672L167.40833333333333,27.803129033029077L168.43333333333334,27.14360561475157L169.45833333333331,27.539969894796613L170.48333333333332,27.00136099922657L171.50833333333335,27.40570680576563L172.53333333333333,27.354185721427196L173.55833333333334,27.310175927311185L174.58333333333334,26.517958449572316L175.60833333333335,27.007870379000902L176.63333333333333,27.333223918467766L177.65833333333333,26.994340537101024L178.68333333333334,26.94871951705218L179.70833333333334,26.863373827964065L180.73333333333332,27.600362004965547L181.75833333333333,27.049178930729624L182.78333333333333,26.576518224865207L183.80833333333334,27.472401702314606L184.83333333333331,27.407310605138537L185.85833333333332,27.152899954497805L186.88333333333335,27.1791548692584L187.90833333333333,34.95709032464028L188.93333333333334,27.66617887958885L189.95833333333334,27.23028302106262L190.98333333333335,26.707720220923424L192.00833333333333,26.885842209875584L193.03333333333333,26.919986494272944L194.05833333333334,26.993073295921096L195.08333333333334,27.26025729206205L196.10833333333332,27.03843539908528L197.13333333333333,26.996766659200198L198.15833333333333,27.38791816931963L199.18333333333334,27.138241275489325L200.20833333333331,27.441388388067484L201.23333333333332,27.53121600607037L202.25833333333335,27.851140392661097L203.28333333333333,27.21109042721986L204.30833333333334,27.316772400379172L205.33333333333334,27.704437478184694L206.35833333333335,28.04810558956862L207.38333333333333,27.594160152286282L208.40833333333333,28.054359428167352L209.43333333333334,27.702798571437597L210.45833333333334,27.837925841987136L211.48333333333332,27.932133780062202L212.50833333333333,28.48189905649424L213.53333333333333,27.784322957873353L214.55833333333334,28.587080074429515L215.58333333333331,27.301723826974634L216.60833333333335,27.90733042019605L217.63333333333335,28.128361046969896L218.65833333333333,29.734113605141633L219.68333333333334,27.774540490597477L220.70833333333334,28.244147192478174L221.73333333333335,28.786552748024473L222.75833333333333,28.023568910717973L223.78333333333333,28.210606822431078L224.80833333333334,28.413185148358348L225.83333333333334,27.96941713631153L226.85833333333332,28.81936328977347L227.88333333333333,28.591946496605864L228.90833333333333,28.989323489367962L229.93333333333334,29.332706015765673" style="fill: none;" fill="none"></path></g><g><path stroke="rgb(255, 112, 67)" stroke-width="2px" d="M21.858333333333334,27.42996802675724L22.883333333333333,27.549249718993902L23.908333333333335,27.46738776165246L24.93333333333333,27.372809508293873L25.958333333333332,28.025823209226125L26.983333333333334,28.035155019342906L28.008333333333333,28.08694379740953L29.033333333333335,27.469015866130594L30.058333333333334,27.510089468508962L31.083333333333336,26.96930796658993L32.108333333333334,27.39104711404442L33.13333333333333,27.519559345126158L34.15833333333333,27.68152384024859L35.18333333333333,27.695671436905858L36.208333333333336,27.478977583557374L37.233333333333334,27.62319293802976L38.25833333333333,27.04790595084428L39.28333333333334,27.28183212378622L40.30833333333334,27.418771474957463L41.333333333333336,27.1394801607132L42.358333333333334,27.453188516646627L43.38333333333333,27.261982279390097L44.40833333333333,27.149466520816087L45.43333333333333,27.181081723988047L46.45833333333333,27.230772498875847L47.483333333333334,27.069702904224393L48.50833333333333,27.52827576348186L49.53333333333333,26.999278186738497L50.55833333333333,27.182312169939276L51.583333333333336,26.87073591184616L52.608333333333334,26.810568961471322L53.63333333333333,26.74512375241519L54.65833333333334,26.68733296364545L55.68333333333334,26.543961198866374L56.708333333333336,26.815712866932163L57.733333333333334,26.815703414946785L58.75833333333333,26.959397559940818L59.78333333333333,26.65366566693782L60.80833333333333,27.123951899051672L61.83333333333333,26.723648166537288L62.858333333333334,26.89394357404113L63.88333333333333,26.92098064059019L64.90833333333333,26.910973688662043L65.93333333333332,26.79185875645279L66.95833333333333,27.19584471240639L67.98333333333333,26.906769580602646L69.00833333333334,26.9917912016213L70.03333333333333,26.616239855766302L71.05833333333334,26.712463767290124L72.08333333333333,26.75569816103577L73.10833333333333,27.002802426993853L74.13333333333333,27.190613713651896L75.15833333333333,27.04442458209396L76.18333333333334,26.950981242120257L77.20833333333334,27.309828904420144L78.23333333333333,27.65139293634891L79.25833333333334,27.25333067464828L80.28333333333333,27.563073247581723L81.30833333333332,27.510454382658008L82.33333333333333,27.568668485343462L83.35833333333333,27.407379469603306L84.38333333333334,27.46452144709229L85.40833333333333,27.711312109678975L86.43333333333334,27.803939203202727L87.45833333333333,27.965806477904323L88.48333333333333,27.52619160071016L89.50833333333333,27.78747992098331L90.53333333333333,27.610932362735262L91.55833333333334,27.466166767686605L92.58333333333334,27.34647661465406L93.60833333333333,26.91900078722835L94.63333333333334,27.718922308176765L95.65833333333333,27.355970121234655L96.68333333333332,26.831004828959706L97.70833333333333,26.9979788763225L98.73333333333333,27.108847964018583L99.75833333333334,27.677202595084896L100.78333333333333,27.245892637312412L101.80833333333334,26.883077504158017L102.83333333333333,27.502936678588387L103.85833333333333,27.203415415108207L104.88333333333333,26.877539991021163L105.90833333333333,26.97913803136349L106.93333333333334,26.883684456646446L107.95833333333334,26.855590118020782L108.98333333333333,26.761763972640043L110.00833333333334,27.075433170348415L111.03333333333333,26.918322944849724L112.05833333333332,27.376076181948182L113.08333333333333,26.96260110783577L114.10833333333333,26.626702190846196L115.13333333333334,26.969621569961316L116.15833333333333,26.92092629167437L117.18333333333334,26.76569161012768L118.20833333333333,26.715092431932682L119.23333333333333,26.82232250526547L120.25833333333333,27.345767715752125L121.28333333333335,27.007510190844542L122.30833333333334,26.822142579972738L123.33333333333334,26.253720772296187L124.35833333333333,26.504764490723616L125.38333333333334,26.774783744901413L126.40833333333335,26.915879606634387L127.43333333333334,26.77534377503396L128.45833333333334,26.908867921352392L129.48333333333335,26.7849115472138L130.50833333333333,26.83818462455272L131.53333333333333,26.955496928125623L132.55833333333334,26.88748989346623L133.58333333333334,26.77545010986925L134.60833333333332,26.73887869066001L135.63333333333333,27.27116319531202L136.65833333333333,27.091454285532233L137.68333333333334,26.714861195862287L138.70833333333331,27.12299353525042L139.73333333333332,27.243566436201334L140.75833333333335,27.108000998616212L141.78333333333333,27.211562013775104L142.80833333333334,27.25880303660035L143.83333333333334,27.416089136540887L144.85833333333335,26.9951814262271L145.88333333333333,27.227962896227837L146.90833333333333,27.043557362437248L147.93333333333334,27.01816527891158L148.95833333333334,26.928851106256246L149.98333333333332,26.967209625840187L151.00833333333333,27.33178755426407L152.03333333333333,27.04314721378683L153.05833333333334,26.860320836693045L154.08333333333331,27.52866802087427L155.10833333333332,27.315010617822406L156.13333333333335,26.817940159767872L157.15833333333333,26.896580340385434L158.18333333333334,26.87328761032224L159.20833333333334,26.971699318885797L160.23333333333335,27.09120110735297L161.25833333333333,27.00519344171882L162.28333333333333,27.409347170412534L163.30833333333334,27.17069838050008L164.33333333333334,27.740323628455403L165.35833333333332,27.26906114128231L166.38333333333333,27.06822130551935L167.40833333333333,27.347517008185378L168.43333333333334,27.236543273508552L169.45833333333331,27.10570956730842L170.48333333333332,27.442676558643576L171.50833333333335,27.26191206464172L172.53333333333333,27.081071954756975L173.55833333333334,26.997860388934615L174.58333333333334,27.506054821044213L175.60833333333335,27.262502476155767L176.63333333333333,27.5703512763083L177.65833333333333,27.208746334850797L178.68333333333334,27.399445878177875L179.70833333333334,27.069979374796155L180.73333333333332,26.44350246033073L181.75833333333333,26.767124936193234L182.78333333333333,26.624365862607956L183.80833333333334,26.780216611057526L184.83333333333331,27.068457605153316L185.85833333333332,26.497096905171862L186.88333333333335,26.57796809190512L187.90833333333333,26.425257090449342L188.93333333333334,26.77495320549608L189.95833333333334,26.612259557217357L190.98333333333335,27.268832605779174L192.00833333333333,26.425943372100598L193.03333333333333,26.96643928903341L194.05833333333334,26.559884080916646L195.08333333333334,26.634544638127085L196.10833333333332,27.02456832385064L197.13333333333333,26.72477801635862L198.15833333333333,26.79206062385439L199.18333333333334,26.831152347445485L200.20833333333331,26.577950538218015L201.23333333333332,26.59232700794936L202.25833333333335,27.109797550976285L203.28333333333333,26.736053559750324L204.30833333333334,26.86808834323287L205.33333333333334,26.571872236490247L206.35833333333335,26.73318758276104L207.38333333333333,26.4919216056168L208.40833333333333,26.916116243839273L209.43333333333334,27.061542465150353L210.45833333333334,26.74544714534283L211.48333333333332,26.53704707157612L212.50833333333333,26.65916165885329L213.53333333333333,26.768384413242334L214.55833333333334,26.84426630198955L215.58333333333331,26.73029021167755L216.60833333333335,27.190076975911847L217.63333333333335,26.90413213911652L218.65833333333333,26.674514721214777L219.68333333333334,26.88823018646241L220.70833333333334,26.810928136914978L221.73333333333335,26.651933253049847L222.75833333333333,26.853746980875734L223.78333333333333,26.787108121097088L224.80833333333334,26.574620738804335L225.83333333333334,26.498973799407473L226.85833333333332,27.094619012773034L227.88333333333333,26.49872433450817L228.90833333333333,26.605378511875877L229.93333333333334,27.11773519325256" style="fill: none;" fill="none"></path></g></g></g></g></g></g><g transform="translate(80, 176)" clip-path="url(#clip_1)"><clipPath id="clip_1"><rect width="250" height="23"></rect></clipPath><g><g><line x1="0" y1="0" x2="0" y2="5" style="visibility: inherit;" fill="rgb(0, 0, 0)" stroke="rgb(204, 204, 204)" stroke-width="1px"></line><line x1="20.833333333333332" y1="0" x2="20.833333333333332" y2="5" style="visibility: inherit;" fill="rgb(0, 0, 0)" stroke="rgb(204, 204, 204)" stroke-width="1px"></line><line x1="41.666666666666664" y1="0" x2="41.666666666666664" y2="5" style="visibility: inherit;" fill="rgb(0, 0, 0)" stroke="rgb(204, 204, 204)" stroke-width="1px"></line><line x1="62.5" y1="0" x2="62.5" y2="5" style="visibility: inherit;" fill="rgb(0, 0, 0)" stroke="rgb(204, 204, 204)" stroke-width="1px"></line><line x1="83.33333333333333" y1="0" x2="83.33333333333333" y2="5" style="visibility: inherit;" fill="rgb(0, 0, 0)" stroke="rgb(204, 204, 204)" stroke-width="1px"></line><line x1="104.16666666666667" y1="0" x2="104.16666666666667" y2="5" style="visibility: inherit;" fill="rgb(0, 0, 0)" stroke="rgb(204, 204, 204)" stroke-width="1px"></line><line x1="125" y1="0" x2="125" y2="5" style="visibility: inherit;" fill="rgb(0, 0, 0)" stroke="rgb(204, 204, 204)" stroke-width="1px"></line><line x1="145.83333333333334" y1="0" x2="145.83333333333334" y2="5" style="visibility: inherit;" fill="rgb(0, 0, 0)" stroke="rgb(204, 204, 204)" stroke-width="1px"></line><line x1="166.66666666666666" y1="0" x2="166.66666666666666" y2="5" style="visibility: inherit;" fill="rgb(0, 0, 0)" stroke="rgb(204, 204, 204)" stroke-width="1px"></line><line x1="187.5" y1="0" x2="187.5" y2="5" style="visibility: inherit;" fill="rgb(0, 0, 0)" stroke="rgb(204, 204, 204)" stroke-width="1px"></line><line x1="208.33333333333334" y1="0" x2="208.33333333333334" y2="5" style="visibility: inherit;" fill="rgb(0, 0, 0)" stroke="rgb(204, 204, 204)" stroke-width="1px"></line><line x1="229.16666666666666" y1="0" x2="229.16666666666666" y2="5" style="visibility: inherit;" fill="rgb(0, 0, 0)" stroke="rgb(204, 204, 204)" stroke-width="1px"></line><line x1="250" y1="0" x2="250" y2="5" style="visibility: inherit;" fill="rgb(0, 0, 0)" stroke="rgb(204, 204, 204)" stroke-width="1px"></line></g><g transform="translate(0, 8)"><text x="0" y="0" dx="0em" dy="0.95em" style="text-anchor: middle; visibility: hidden; font-family: Roboto, sans-serif; font-size: 12px; font-weight: 200;" fill="rgb(33, 33, 33)" stroke="none" stroke-width="1px">-10k</text><text x="20.833333333333332" y="0" dx="0em" dy="0.95em" style="text-anchor: middle; visibility: inherit; font-family: Roboto, sans-serif; font-size: 12px; font-weight: 200;" fill="rgb(33, 33, 33)" stroke="none" stroke-width="1px">0</text><text x="41.666666666666664" y="0" dx="0em" dy="0.95em" style="text-anchor: middle; visibility: hidden; font-family: Roboto, sans-serif; font-size: 12px; font-weight: 200;" fill="rgb(33, 33, 33)" stroke="none" stroke-width="1px">10k</text><text x="62.5" y="0" dx="0em" dy="0.95em" style="text-anchor: middle; visibility: inherit; font-family: Roboto, sans-serif; font-size: 12px; font-weight: 200;" fill="rgb(33, 33, 33)" stroke="none" stroke-width="1px">20k</text><text x="83.33333333333333" y="0" dx="0em" dy="0.95em" style="text-anchor: middle; visibility: hidden; font-family: Roboto, sans-serif; font-size: 12px; font-weight: 200;" fill="rgb(33, 33, 33)" stroke="none" stroke-width="1px">30k</text><text x="104.16666666666667" y="0" dx="0em" dy="0.95em" style="text-anchor: middle; visibility: inherit; font-family: Roboto, sans-serif; font-size: 12px; font-weight: 200;" fill="rgb(33, 33, 33)" stroke="none" stroke-width="1px">40k</text><text x="125" y="0" dx="0em" dy="0.95em" style="text-anchor: middle; visibility: hidden; font-family: Roboto, sans-serif; font-size: 12px; font-weight: 200;" fill="rgb(33, 33, 33)" stroke="none" stroke-width="1px">50k</text><text x="145.83333333333334" y="0" dx="0em" dy="0.95em" style="text-anchor: middle; visibility: inherit; font-family: Roboto, sans-serif; font-size: 12px; font-weight: 200;" fill="rgb(33, 33, 33)" stroke="none" stroke-width="1px">60k</text><text x="166.66666666666666" y="0" dx="0em" dy="0.95em" style="text-anchor: middle; visibility: hidden; font-family: Roboto, sans-serif; font-size: 12px; font-weight: 200;" fill="rgb(33, 33, 33)" stroke="none" stroke-width="1px">70k</text><text x="187.5" y="0" dx="0em" dy="0.95em" style="text-anchor: middle; visibility: inherit; font-family: Roboto, sans-serif; font-size: 12px; font-weight: 200;" fill="rgb(33, 33, 33)" stroke="none" stroke-width="1px">80k</text><text x="208.33333333333334" y="0" dx="0em" dy="0.95em" style="text-anchor: middle; visibility: hidden; font-family: Roboto, sans-serif; font-size: 12px; font-weight: 200;" fill="rgb(33, 33, 33)" stroke="none" stroke-width="1px">90k</text><text x="229.16666666666666" y="0" dx="0em" dy="0.95em" style="text-anchor: middle; visibility: inherit; font-family: Roboto, sans-serif; font-size: 12px; font-weight: 200;" fill="rgb(33, 33, 33)" stroke="none" stroke-width="1px">100k</text><text x="250" y="0" dx="0em" dy="0.95em" style="text-anchor: middle; visibility: hidden; font-family: Roboto, sans-serif; font-size: 12px; font-weight: 200;" fill="rgb(33, 33, 33)" stroke="none" stroke-width="1px">110k</text></g><line x1="0" y1="0" x2="250" y2="0" fill="rgb(0, 0, 0)" stroke="rgb(204, 204, 204)" stroke-width="1px"></line></g></g></g></g></svg>