<svg viewBox="0 0 330 200" xmlns="http://www.w3.org/2000/svg"><g><g><g><g><g><line x1="50" y1="176.984375" x2="45" y2="176.984375" style="visibility: inherit;" fill="rgb(0, 0, 0)" stroke="rgb(204, 204, 204)" stroke-width="1px"></line><line x1="50" y1="165.18541666666667" x2="45" y2="165.18541666666667" style="visibility: inherit;" fill="rgb(0, 0, 0)" stroke="rgb(204, 204, 204)" stroke-width="1px"></line><line x1="50" y1="153.38645833333334" x2="45" y2="153.38645833333334" style="visibility: inherit;" fill="rgb(0, 0, 0)" stroke="rgb(204, 204, 204)" stroke-width="1px"></line><line x1="50" y1="141.5875" x2="45" y2="141.5875" style="visibility: inherit;" fill="rgb(0, 0, 0)" stroke="rgb(204, 204, 204)" stroke-width="1px"></line><line x1="50" y1="129.78854166666667" x2="45" y2="129.78854166666667" style="visibility: inherit;" fill="rgb(0, 0, 0)" stroke="rgb(204, 204, 204)" stroke-width="1px"></line><line x1="50" y1="117.98958333333334" x2="45" y2="117.98958333333334" style="visibility: inherit;" fill="rgb(0, 0, 0)" stroke="rgb(204, 204, 204)" stroke-width="1px"></line><line x1="50" y1="106.190625" x2="45" y2="106.190625" style="visibility: inherit;" fill="rgb(0, 0, 0)" stroke="rgb(204, 204, 204)" stroke-width="1px"></line><line x1="50" y1="94.39166666666667" x2="45" y2="94.39166666666667" style="visibility: inherit;" fill="rgb(0, 0, 0)" stroke="rgb(204, 204, 204)" stroke-width="1px"></line><line x1="50" y1="82.59270833333333" x2="45" y2="82.59270833333333" style="visibility: inherit;" fill="rgb(0, 0, 0)" stroke="rgb(204, 204, 204)" stroke-width="1px"></line><line x1="50" y1="70.79375" x2="45" y2="70.79375" style="visibility: inherit;" fill="rgb(0, 0, 0)" stroke="rgb(204, 204, 204)" stroke-width="1px"></line><line x1="50" y1="58.99479166666667" x2="45" y2="58.99479166666667" style="visibility: inherit;" fill="rgb(0, 0, 0)" stroke="rgb(204, 204, 204)" stroke-width="1px"></line><line x1="50" y1="47.19583333333334" x2="45" y2="47.19583333333334" style="visibility: inherit;" fill="rgb(0, 0, 0)" stroke="rgb(204, 204, 204)" stroke-width="1px"></line><line x1="50" y1="35.396874999999994" x2="45" y2="35.396874999999994" style="visibility: inherit;" fill="rgb(0, 0, 0)" stroke="rgb(204, 204, 204)" stroke-width="1px"></line><line x1="50" y1="23.597916666666663" x2="45" y2="23.597916666666663" style="visibility: inherit;" fill="rgb(0, 0, 0)" stroke="rgb(204, 204, 204)" stroke-width="1px"></line><line x1="50" y1="11.798958333333331" x2="45" y2="11.798958333333331" style="visibility: inherit;" fill="rgb(0, 0, 0)" stroke="rgb(204, 204, 204)" stroke-width="1px"></line><line x1="50" y1="0" x2="45" y2="0" style="visibility: inherit;" fill="rgb(0, 0, 0)" stroke="rgb(204, 204, 204)" stroke-width="1px"></line></g><g transform="translate(40, 0)"><text x="0" y="176.984375" dx="0em" dy="0.3em" style="text-anchor: end; visibility: hidden; font-family: Roboto, sans-serif; font-size: 12px; font-weight: 200;" fill="rgb(33, 33, 33)" stroke="none" stroke-width="1px">-700</text><text x="0" y="165.18541666666667" dx="0em" dy="0.3em" style="text-anchor: end; visibility: inherit; font-family: Roboto, sans-serif; font-size: 12px; font-weight: 200;" fill="rgb(33, 33, 33)" stroke="none" stroke-width="1px">-680</text><text x="0" y="153.38645833333334" dx="0em" dy="0.3em" style="text-anchor: end; visibility: hidden; font-family: Roboto, sans-serif; font-size: 12px; font-weight: 200;" fill="rgb(33, 33, 33)" stroke="none" stroke-width="1px">-660</text><text x="0" y="141.5875" dx="0em" dy="0.3em" style="text-anchor: end; visibility: inherit; font-family: Roboto, sans-serif; font-size: 12px; font-weight: 200;" fill="rgb(33, 33, 33)" stroke="none" stroke-width="1px">-640</text><text x="0" y="129.78854166666667" dx="0em" dy="0.3em" style="text-anchor: end; visibility: hidden; font-family: Roboto, sans-serif; font-size: 12px; font-weight: 200;" fill="rgb(33, 33, 33)" stroke="none" stroke-width="1px">-620</text><text x="0" y="117.98958333333334" dx="0em" dy="0.3em" style="text-anchor: end; visibility: inherit; font-family: Roboto, sans-serif; font-size: 12px; font-weight: 200;" fill="rgb(33, 33, 33)" stroke="none" stroke-width="1px">-600</text><text x="0" y="106.190625" dx="0em" dy="0.3em" style="text-anchor: end; visibility: hidden; font-family: Roboto, sans-serif; font-size: 12px; font-weight: 200;" fill="rgb(33, 33, 33)" stroke="none" stroke-width="1px">-580</text><text x="0" y="94.39166666666667" dx="0em" dy="0.3em" style="text-anchor: end; visibility: inherit; font-family: Roboto, sans-serif; font-size: 12px; font-weight: 200;" fill="rgb(33, 33, 33)" stroke="none" stroke-width="1px">-560</text><text x="0" y="82.59270833333333" dx="0em" dy="0.3em" style="text-anchor: end; visibility: hidden; font-family: Roboto, sans-serif; font-size: 12px; font-weight: 200;" fill="rgb(33, 33, 33)" stroke="none" stroke-width="1px">-540</text><text x="0" y="70.79375" dx="0em" dy="0.3em" style="text-anchor: end; visibility: inherit; font-family: Roboto, sans-serif; font-size: 12px; font-weight: 200;" fill="rgb(33, 33, 33)" stroke="none" stroke-width="1px">-520</text><text x="0" y="58.99479166666667" dx="0em" dy="0.3em" style="text-anchor: end; visibility: hidden; font-family: Roboto, sans-serif; font-size: 12px; font-weight: 200;" fill="rgb(33, 33, 33)" stroke="none" stroke-width="1px">-500</text><text x="0" y="47.19583333333334" dx="0em" dy="0.3em" style="text-anchor: end; visibility: inherit; font-family: Roboto, sans-serif; font-size: 12px; font-weight: 200;" fill="rgb(33, 33, 33)" stroke="none" stroke-width="1px">-480</text><text x="0" y="35.396874999999994" dx="0em" dy="0.3em" style="text-anchor: end; visibility: hidden; font-family: Roboto, sans-serif; font-size: 12px; font-weight: 200;" fill="rgb(33, 33, 33)" stroke="none" stroke-width="1px">-460</text><text x="0" y="23.597916666666663" dx="0em" dy="0.3em" style="text-anchor: end; visibility: inherit; font-family: Roboto, sans-serif; font-size: 12px; font-weight: 200;" fill="rgb(33, 33, 33)" stroke="none" stroke-width="1px">-440</text><text x="0" y="11.798958333333331" dx="0em" dy="0.3em" style="text-anchor: end; visibility: hidden; font-family: Roboto, sans-serif; font-size: 12px; font-weight: 200;" fill="rgb(33, 33, 33)" stroke="none" stroke-width="1px">-420</text><text x="0" y="0" dx="0em" dy="0.3em" style="text-anchor: end; visibility: hidden; font-family: Roboto, sans-serif; font-size: 12px; font-weight: 200;" fill="rgb(33, 33, 33)" stroke="none" stroke-width="1px">-400</text></g><line x1="50" y1="0" x2="50" y2="176.984375" fill="rgb(0, 0, 0)" stroke="rgb(204, 204, 204)" stroke-width="1px"></line></g></g><g transform="translate(50, 0)" clip-path="url(#clip_0)"><clipPath id="clip_0"><rect width="280" height="176"></rect></clipPath><g><g><g><line x1="0" y1="0" x2="0" y2="176.984375" fill="rgb(0, 0, 0)" stroke="rgb(66, 66, 66)" stroke-width="1px" opacity="0.25"></line><line x1="23.333333333333332" y1="0" x2="23.333333333333332" y2="176.984375" fill="rgb(0, 0, 0)" stroke="rgb(66, 66, 66)" stroke-width="1px" opacity="0.25"></line><line x1="46.666666666666664" y1="0" x2="46.666666666666664" y2="176.984375" fill="rgb(0, 0, 0)" stroke="rgb(66, 66, 66)" stroke-width="1px" opacity="0.25"></line><line x1="70" y1="0" x2="70" y2="176.984375" fill="rgb(0, 0, 0)" stroke="rgb(66, 66, 66)" stroke-width="1px" opacity="0.25"></line><line x1="93.33333333333333" y1="0" x2="93.33333333333333" y2="176.984375" fill="rgb(0, 0, 0)" stroke="rgb(66, 66, 66)" stroke-width="1px" opacity="0.25"></line><line x1="116.66666666666667" y1="0" x2="116.66666666666667" y2="176.984375" fill="rgb(0, 0, 0)" stroke="rgb(66, 66, 66)" stroke-width="1px" opacity="0.25"></line><line x1="140" y1="0" x2="140" y2="176.984375" fill="rgb(0, 0, 0)" stroke="rgb(66, 66, 66)" stroke-width="1px" opacity="0.25"></line><line x1="163.33333333333334" y1="0" x2="163.33333333333334" y2="176.984375" fill="rgb(0, 0, 0)" stroke="rgb(66, 66, 66)" stroke-width="1px" opacity="0.25"></line><line x1="186.66666666666666" y1="0" x2="186.66666666666666" y2="176.984375" fill="rgb(0, 0, 0)" stroke="rgb(66, 66, 66)" stroke-width="1px" opacity="0.25"></line><line x1="210" y1="0" x2="210" y2="176.984375" fill="rgb(0, 0, 0)" stroke="rgb(66, 66, 66)" stroke-width="1px" opacity="0.25"></line><line x1="233.33333333333334" y1="0" x2="233.33333333333334" y2="176.984375" fill="rgb(0, 0, 0)" stroke="rgb(66, 66, 66)" stroke-width="1px" opacity="0.25"></line><line x1="256.66666666666663" y1="0" x2="256.66666666666663" y2="176.984375" fill="rgb(0, 0, 0)" stroke="rgb(66, 66, 66)" stroke-width="1px" opacity="0.25"></line><line x1="280" y1="0" x2="280" y2="176.984375" fill="rgb(0, 0, 0)" stroke="rgb(66, 66, 66)" stroke-width="1px" opacity="0.25"></line></g><g><line x1="0" y1="176.984375" x2="280" y2="176.984375" fill="rgb(0, 0, 0)" stroke="rgb(66, 66, 66)" stroke-width="1px" opacity="0.25"></line><line x1="0" y1="165.18541666666667" x2="280" y2="165.18541666666667" fill="rgb(0, 0, 0)" stroke="rgb(66, 66, 66)" stroke-width="1px" opacity="0.25"></line><line x1="0" y1="153.38645833333334" x2="280" y2="153.38645833333334" fill="rgb(0, 0, 0)" stroke="rgb(66, 66, 66)" stroke-width="1px" opacity="0.25"></line><line x1="0" y1="141.5875" x2="280" y2="141.5875" fill="rgb(0, 0, 0)" stroke="rgb(66, 66, 66)" stroke-width="1px" opacity="0.25"></line><line x1="0" y1="129.78854166666667" x2="280" y2="129.78854166666667" fill="rgb(0, 0, 0)" stroke="rgb(66, 66, 66)" stroke-width="1px" opacity="0.25"></line><line x1="0" y1="117.98958333333334" x2="280" y2="117.98958333333334" fill="rgb(0, 0, 0)" stroke="rgb(66, 66, 66)" stroke-width="1px" opacity="0.25"></line><line x1="0" y1="106.190625" x2="280" y2="106.190625" fill="rgb(0, 0, 0)" stroke="rgb(66, 66, 66)" stroke-width="1px" opacity="0.25"></line><line x1="0" y1="94.39166666666667" x2="280" y2="94.39166666666667" fill="rgb(0, 0, 0)" stroke="rgb(66, 66, 66)" stroke-width="1px" opacity="0.25"></line><line x1="0" y1="82.59270833333333" x2="280" y2="82.59270833333333" fill="rgb(0, 0, 0)" stroke="rgb(66, 66, 66)" stroke-width="1px" opacity="0.25"></line><line x1="0" y1="70.79375" x2="280" y2="70.79375" fill="rgb(0, 0, 0)" stroke="rgb(66, 66, 66)" stroke-width="1px" opacity="0.25"></line><line x1="0" y1="58.99479166666667" x2="280" y2="58.99479166666667" fill="rgb(0, 0, 0)" stroke="rgb(66, 66, 66)" stroke-width="1px" opacity="0.25"></line><line x1="0" y1="47.19583333333334" x2="280" y2="47.19583333333334" fill="rgb(0, 0, 0)" stroke="rgb(66, 66, 66)" stroke-width="1px" opacity="0.25"></line><line x1="0" y1="35.396874999999994" x2="280" y2="35.396874999999994" fill="rgb(0, 0, 0)" stroke="rgb(66, 66, 66)" stroke-width="1px" opacity="0.25"></line><line x1="0" y1="23.597916666666663" x2="280" y2="23.597916666666663" fill="rgb(0, 0, 0)" stroke="rgb(66, 66, 66)" stroke-width="1px" opacity="0.25"></line><line x1="0" y1="11.798958333333331" x2="280" y2="11.798958333333331" fill="rgb(0, 0, 0)" stroke="rgb(66, 66, 66)" stroke-width="1px" opacity="0.25"></line><line x1="0" y1="0" x2="280" y2="0" fill="rgb(0, 0, 0)" stroke="rgb(66, 66, 66)" stroke-width="1px" opacity="0.25"></line></g></g></g><g><g><line x1="0" y1="-235.97916666666669" x2="280" y2="-235.97916666666669" fill="rgb(0, 0, 0)" stroke="rgb(153, 153, 153)" stroke-width="1.5px"></line></g></g><g><g><line x1="23.333333333333332" y1="0" x2="23.333333333333332" y2="176.984375" fill="rgb(0, 0, 0)" stroke="rgb(153, 153, 153)" stroke-width="1.5px"></line></g></g><g><g><g><g><g><path stroke="rgb(51, 187, 238)" stroke-width="2px" d="M24.481333333333335,29.028577359517413L25.62933333333333,41.43772764549599L26.777333333333335,49.84527018889664L27.92533333333333,43.2407035854185L29.073333333333334,49.669160085053875L30.221333333333334,55.74359899849272L31.369333333333334,65.50027504167002L32.51733333333333,69.5639769484669L33.66533333333333,67.1575665444745L34.81333333333333,71.9409514868942L35.961333333333336,84.01519287485269L37.10933333333333,88.65613701745065L38.257333333333335,92.20849602055797L39.40533333333333,92.78824288527225L40.553333333333335,93.57374832799941L41.70133333333333,89.35874167568028L42.849333333333334,86.32567559103586L43.99733333333334,81.38240064665169L45.14533333333333,80.47465289467165L46.29333333333334,75.1379336276987L47.44133333333333,75.62570392063152L48.589333333333336,73.89988891109417L49.73733333333333,74.82089815427342L50.885333333333335,75.80590366390294L52.03333333333333,76.3575938836986L53.181333333333335,76.98254111565453L54.32933333333333,75.24304088536883L55.477333333333334,73.08149208070188L56.62533333333333,70.12336731852723L57.77333333333333,69.98703848954582L58.92133333333334,65.06738545807718L60.06933333333333,60.87450025761002L61.217333333333336,55.93494447222251L62.36533333333333,50.8634667015937L63.513333333333335,49.6599413052193L64.66133333333333,46.200304032682176L65.80933333333334,42.509851031614765L66.95733333333334,42.80148315806819L68.10533333333333,40.17487980344601L69.25333333333333,39.36687970119077L70.40133333333334,39.98500927366713L71.54933333333334,42.49060702006743L72.69733333333333,38.86810660520105L73.84533333333333,37.247444043739215L74.99333333333333,34.354867090398365L76.14133333333334,30.58139817230981L77.28933333333333,29.696580280223813L78.43733333333334,25.98289681685687L79.58533333333334,23.4308367616368L80.73333333333333,26.749263275187992L81.88133333333333,24.69762876169545L83.02933333333333,25.61789170402258L84.17733333333332,23.239085544003437L85.32533333333333,25.064248305805553L86.47333333333334,26.791547803353026L87.62133333333334,29.649939930261148L88.76933333333334,31.7123699377354L89.91733333333333,34.02913491433348L91.06533333333333,34.51587150768312L92.21333333333332,36.97010185306034L93.36133333333333,38.88561142616269L94.50933333333334,38.48038782179334L95.65733333333334,36.09826922880404L96.80533333333334,32.837348150363496L97.95333333333333,32.56240728234152L99.10133333333333,32.1536251956822L100.24933333333333,32.00906841967686L101.39733333333332,32.93062715653163L102.54533333333335,32.09591914609972L103.69333333333334,31.815918198434158L104.84133333333334,29.484048174274776L105.98933333333333,30.31977366450761L107.13733333333333,33.569858846731066L108.28533333333333,31.835102847146207L109.43333333333332,33.461510641983445L110.58133333333333,31.416107446245682L111.72933333333334,31.422697665659786L112.87733333333334,31.055571291044707L114.02533333333334,31.909400776595387L115.17333333333333,32.467511718944195L116.32133333333333,31.828378641909428L117.46933333333332,32.5901806189485L118.61733333333332,31.120264457450002L119.76533333333334,28.76147166036842L120.91333333333334,29.539654633483444L122.06133333333334,30.834253072877978L123.20933333333333,33.53636903272433L124.35733333333333,37.32284947502964L125.50533333333333,39.60845116330942L126.65333333333332,40.43928831678579L127.80133333333335,42.467303734585464L128.94933333333333,45.0186544144298L130.09733333333332,48.97900219463432L131.24533333333332,56.078384296498825L132.39333333333335,60.18334615791364L133.54133333333334,52.81028610913037L134.68933333333334,51.54008080398928L135.83733333333333,50.61843275689713L136.98533333333333,50.523946723056284L138.13333333333333,52.51499586114421L139.28133333333332,54.995901963720286L140.42933333333335,55.114642874720246L141.57733333333334,56.85190314084462L142.72533333333334,56.576975543478184L143.87333333333333,54.11021225234119L145.02133333333333,52.67385211574L146.16933333333333,56.7536897656114L147.31733333333332,53.65473884178091L148.46533333333332,51.14992023652056L149.61333333333334,53.715093633140086L150.76133333333334,55.12909971876008L151.90933333333334,51.28218633485036L153.05733333333333,46.69226458655472L154.20533333333333,45.990311983420796L155.35333333333332,42.944043321294444L156.50133333333332,41.84197946974119L157.64933333333335,43.82676367381481L158.79733333333334,41.47121068600443L159.94533333333334,38.43483002318811L161.09333333333333,38.031589885951725L162.24133333333333,35.81404527055033L163.38933333333333,35.01755817224966L164.53733333333332,36.56831768055628L165.68533333333335,38.06364207787616L166.83333333333334,38.020871554199125L167.98133333333334,41.15736986079131L169.12933333333334,39.12192998786629L170.27733333333333,39.221767175636344L171.42533333333333,38.28900103497311L172.57333333333332,41.6766522195167L173.72133333333332,39.06225404621763L174.86933333333334,38.87881964455503L176.01733333333334,41.84404859160634L177.16533333333334,40.23687870264643L178.31333333333333,38.401147551355486L179.46133333333333,37.62208258403104L180.60933333333332,34.829467375623125L181.75733333333335,35.27428597475723L182.90533333333335,34.578968416799775L184.05333333333334,36.50274641813012L185.20133333333334,35.868752079574946L186.34933333333333,34.364857796767964L187.49733333333333,36.27619303145405L188.64533333333333,36.98720717771398L189.79333333333332,37.42024521595789L190.94133333333332,42.13757489412136L192.08933333333334,43.4609455591773L193.23733333333334,41.89999927830916L194.38533333333334,40.1238502561644L195.53333333333333,37.436014629319864L196.68133333333333,38.011646641801775L197.82933333333332,36.00722735731467L198.97733333333335,32.764971308570885L200.12533333333334,31.334988975627294L201.27333333333334,30.03616448743402L202.42133333333334,30.19458433989613L203.56933333333333,32.8530077235655L204.71733333333333,32.23138109467412L205.86533333333333,30.558938253935953L207.01333333333332,32.52714085153177L208.16133333333332,36.0862783424583L209.30933333333334,77.35949546909106L210.45733333333334,66.29719151431243L211.60533333333333,62.59549788513621L212.75333333333333,59.72243402203282L213.90133333333333,53.80111874128541L215.04933333333332,50.02948702379833L216.19733333333335,47.36970607175114L217.34533333333334,45.14870132427776L218.49333333333334,45.92091142686441L219.64133333333334,42.24955268672193L220.78933333333333,42.659514052226655L221.93733333333333,40.10041278748687L223.08533333333332,37.673743099634876L224.23333333333332,38.4441012332694L225.38133333333332,41.278827832518886L226.52933333333334,40.86411112052392L227.67733333333334,40.7273367297337L228.82533333333333,40.84650854888884L229.97333333333333,41.518261617837794L231.12133333333333,37.73638292031988L232.26933333333335,36.66378144669396L233.41733333333335,36.68014443312766L234.56533333333334,36.42119305824711L235.71333333333334,37.366946275146404L236.86133333333333,35.67547726730978L238.00933333333333,34.538903971566704L239.15733333333333,34.4972397422849L240.30533333333332,35.524954754357594L241.45333333333332,31.712914919881175L242.60133333333334,32.808484982275935L243.74933333333334,34.81437786384467L244.89733333333334,33.609368973269426L246.04533333333333,34.19527062505505L247.19333333333333,37.71217013578136L248.34133333333335,36.83017165251021L249.48933333333335,37.29790485939708L250.63733333333334,37.58953483221066L251.78533333333334,40.0339428816196L252.93333333333334,38.89573272216948L254.08133333333333,42.649888050698614L255.22933333333333,49.98004709029386L256.3773333333333,53.83268698367041L257.5253333333333,59.36961505756457" style="fill: none;" fill="none"></path></g><g><path stroke="rgb(0, 119, 187)" stroke-width="2px" d="M24.481333333333335,74.95244352022807L25.62933333333333,76.26839344480011L26.777333333333335,77.83162577593257L27.92533333333333,88.68191818431448L29.073333333333334,101.98270841483844L30.221333333333334,102.67376016547234L31.369333333333334,111.26023436222708L32.51733333333333,98.96593939043713L33.66533333333333,94.93931718135751L34.81333333333333,98.1408395447271L35.961333333333336,104.20314581167818L37.10933333333333,104.31941097958035L38.257333333333335,103.90223662314703L39.40533333333333,103.937331926144L40.553333333333335,105.55941570524712L41.70133333333333,98.42913914575851L42.849333333333334,97.82872514408967L43.99733333333334,97.91697277420586L45.14533333333333,87.83705136496394L46.29333333333334,81.25987875025928L47.44133333333333,72.99190663467884L48.589333333333336,68.18533353913055L49.73733333333333,69.72406322257588L50.885333333333335,66.37766686627579L52.03333333333333,68.16753449214305L53.181333333333335,62.35708671957568L54.32933333333333,57.95251407218721L55.477333333333334,58.14826115748515L56.62533333333333,51.50092882251404L57.77333333333333,53.125121819398764L58.92133333333334,54.488701092185984L60.06933333333333,57.71665039413219L61.217333333333336,54.78006745219504L62.36533333333333,53.90484390371885L63.513333333333335,53.323470076348265L64.66133333333333,53.93483464293644L65.80933333333334,49.5339801725605L66.95733333333334,50.98933961565155L68.10533333333333,48.523849602719004L69.25333333333333,52.98342494200443L70.40133333333334,48.710371854447565L71.54933333333334,54.656292938899995L72.69733333333333,57.107858739805586L73.84533333333333,54.949692009386396L74.99333333333333,55.51325626502897L76.14133333333334,54.501144857755556L77.28933333333333,52.053423878702695L78.43733333333334,51.26345069600881L79.58533333333334,53.78488824112672L80.73333333333333,52.2880241684314L81.88133333333333,48.159060904251426L83.02933333333333,159.0524249344285L84.17733333333332,140.6841975354879L85.32533333333333,125.73316370786551L86.47333333333334,108.43008552607502L87.62133333333334,101.33035744021966L88.76933333333334,95.43555975825808L89.91733333333333,86.9669330073502L91.06533333333333,84.09925417177122L92.21333333333332,83.15838816318619L93.36133333333333,90.66180477790641L94.50933333333334,83.70170464719288L95.65733333333334,72.92292062854033L96.80533333333334,64.93995402517561L97.95333333333333,59.03578242358677L99.10133333333333,54.275380473889925L100.24933333333333,50.14453309381785L101.39733333333332,46.95150389671323L102.54533333333335,46.98892347853808L103.69333333333334,55.51148905480448L104.84133333333334,50.08113056564513L105.98933333333333,46.18712711958591L107.13733333333333,41.36441062871081L108.28533333333333,39.47204669692969L109.43333333333332,43.692836366781734L110.58133333333333,40.698288803374965L111.72933333333334,39.98484458658758L112.87733333333334,40.59629904551889L114.02533333333334,44.80757960239687L115.17333333333333,44.631736883306054L116.32133333333333,45.463078078813055L117.46933333333332,49.73887146043317L118.61733333333332,57.410118215981505L119.76533333333334,54.02923337898458L120.91333333333334,58.231688591895875L122.06133333333334,55.698810131503095L123.20933333333333,58.663996287963535L124.35733333333333,62.810162610623294L125.50533333333333,63.634002055386816L126.65333333333332,60.52684473603746L127.80133333333335,62.59686222822454L128.94933333333333,59.44533975580311L130.09733333333332,59.19332223363365L131.24533333333332,63.15598656753587L132.39333333333335,59.50642594139153L133.54133333333334,65.12902367088829L134.68933333333334,63.53704692529502L135.83733333333333,62.57011543151788L136.98533333333333,57.79995616712512L138.13333333333333,55.3268650652101L139.28133333333332,51.530901277794634L140.42933333333335,47.729413740723395L141.57733333333334,43.79431942585481L142.72533333333334,45.28302150547385L143.87333333333333,47.06926857743665L145.02133333333333,46.7740827905791L146.16933333333333,47.831688860303274L147.31733333333332,50.99492846888315L148.46533333333332,47.9343687739725L149.61333333333334,48.67066189561154L150.76133333333334,46.70329671118389L151.90933333333334,46.35063340596309L153.05733333333333,48.37975779786185L154.20533333333333,53.8128190760315L155.35333333333332,60.42488498986118L156.50133333333332,62.592860039639376L157.64933333333335,65.5168325352797L158.79733333333334,66.31061162952659L159.94533333333334,66.99592088451625L161.09333333333333,71.34117191433018L162.24133333333333,73.37571462984357L163.38933333333333,74.24092142140375L164.53733333333332,75.47249000788047L165.68533333333335,72.48907235726446L166.83333333333334,69.599906153793L167.98133333333334,68.95653847812564L169.12933333333334,66.0183992714448L170.27733333333333,62.72714920410904L171.42533333333333,63.34419197728994L172.57333333333332,62.33875297742673L173.72133333333332,63.8703294426543L174.86933333333334,67.76292081811913L176.01733333333334,66.78580166186627L177.16533333333334,65.46808695187823L178.31333333333333,68.60385067136636L179.46133333333333,66.44471345307522L180.60933333333332,68.24055932198439L181.75733333333335,66.00405520934216L182.90533333333335,64.43165874186283L184.05333333333334,61.47127336021758L185.20133333333334,60.165183392587636L186.34933333333333,55.19599354640134L187.49733333333333,56.960376778816126L188.64533333333333,53.183915179747274L189.79333333333332,53.144837061155734L190.94133333333332,48.80274949557976L192.08933333333334,48.34674151734861L193.23733333333334,47.546966061135315L194.38533333333334,46.5150785704231L195.53333333333333,39.300234381251535L196.68133333333333,37.08691225602235L197.82933333333332,37.808416765374595L198.97733333333335,35.71062854734333L200.12533333333334,33.5625404016302L201.27333333333334,31.05389996506941L202.42133333333334,34.81746101007009L203.56933333333333,33.60702330438656L204.71733333333333,28.796865607616215L205.86533333333333,31.875299385009193L207.01333333333332,33.971239318376796L208.16133333333332,33.717503056601664L209.30933333333334,33.71186655217859L210.45733333333334,95.93055916666873L211.60533333333333,90.4891563283646L212.75333333333333,82.37679704759253L213.90133333333333,71.30078925781973L215.04933333333332,63.3111585481384L216.19733333333335,56.79312672009218L217.34533333333334,51.83749407944118L218.49333333333334,49.762678304019246L219.64133333333334,46.22450975109562L220.78933333333333,42.88371656203039L221.93733333333333,43.173254432283045L223.08533333333332,41.42194647135437L224.23333333333332,42.35851160519151L225.38133333333332,43.87321291297638L226.52933333333334,47.72010411731989L227.67733333333334,45.869561917480354L228.82533333333333,45.1420568328916L229.97333333333333,47.62499813343593L231.12133333333333,52.484843129970336L232.26933333333335,52.984147878765164L233.41733333333335,57.09015112228966L234.56533333333334,57.76776702544702L235.71333333333334,59.42475870752724L236.86133333333333,61.58686514189589L238.00933333333333,67.82277782256577L239.15733333333333,67.54269481216767L240.30533333333332,73.7266811857788L241.45333333333332,68.70021962370889L242.60133333333334,69.27258004172103L243.74933333333334,71.52733141122201L244.89733333333334,86.28989054067219L246.04533333333333,83.16148088435118L247.19333333333333,84.2591862915239L248.34133333333335,89.53148033199113L249.48933333333335,87.90905956793618L250.63733333333334,88.02630521219446L251.78533333333334,89.7465906172321L252.93333333333334,87.6586891151395L254.08133333333333,92.68354206605633L255.22933333333333,95.13533272899485L256.3773333333333,100.39837073458932L257.5253333333333,107.61901325052627" style="fill: none;" fill="none"></path></g><g><path stroke="rgb(255, 112, 67)" stroke-width="2px" d="M24.481333333333335,47.056628093719446L25.62933333333333,50.49537958162316L26.777333333333335,49.934434083667334L27.92533333333333,48.074704649549865L29.073333333333334,56.369103427853034L30.221333333333334,61.89952321073521L31.369333333333334,66.3582658368891L32.51733333333333,62.80798500154008L33.66533333333333,60.567264056653265L34.81333333333333,53.45520598422969L35.961333333333336,51.928581747237146L37.10933333333333,51.912187266399016L38.257333333333335,53.37290920542854L39.40533333333333,54.68604483451119L40.553333333333335,53.861698661588726L41.70133333333333,54.42884888687509L42.849333333333334,49.98612355619432L43.99733333333334,48.26952253098376L45.14533333333333,47.985043881517264L46.29333333333334,45.422557827116L47.44133333333333,45.86811131380623L48.589333333333336,44.6689210130295L49.73733333333333,42.73708106059071L50.885333333333335,41.36618575602393L52.03333333333333,40.61323884583697L53.181333333333335,38.669208142937585L54.32933333333333,40.73950736174009L55.477333333333334,38.2148927693468L56.62533333333333,37.5539728950209L57.77333333333333,34.48207332844517L58.92133333333334,31.39302802316224L60.06933333333333,28.2464661391193L61.217333333333336,25.11222210692147L62.36533333333333,21.300645713555074L63.513333333333335,20.246432427600226L64.66133333333333,19.3512686578454L65.80933333333334,19.743468255663974L66.95733333333334,17.625619689775338L68.10533333333333,19.59562373995397L69.25333333333333,18.061911413313872L70.40133333333334,18.12300130275051L71.54933333333334,18.391437596208867L72.69733333333333,18.53939797443064L73.84533333333333,17.711459051374188L74.99333333333333,20.241934654931825L76.14133333333334,20.07845847718788L77.28933333333333,20.620030141313404L78.43733333333334,18.074652483178134L79.58533333333334,16.68142996550538L80.73333333333333,15.843302870587417L81.88133333333333,17.10829487489465L83.02933333333333,19.686261238429314L84.17733333333332,20.7076542316385L85.32533333333333,20.82812463340103L86.47333333333334,23.801677400076933L87.62133333333334,29.06190604620986L88.76933333333334,30.348137490981042L89.91733333333333,33.91954067832937L91.06533333333333,36.53417375095099L92.21333333333332,39.22230209671587L93.36133333333333,40.21679176052331L94.50933333333334,41.51924936768604L95.65733333333334,44.60071903200327L96.80533333333334,47.96097694000334L97.95333333333333,52.11213947288157L99.10133333333333,52.12360160934878L100.24933333333333,54.223689937574655L101.39733333333332,54.59635126173066L102.54533333333335,53.754971366521055L103.69333333333334,52.08226940342246L104.84133333333334,47.24063811317984L105.98933333333333,49.52468977932741L107.13733333333333,48.56249050828357L108.28533333333333,43.5448755376941L109.43333333333332,40.615710318408084L110.58133333333333,39.01288055291495L111.72933333333334,42.19733093351036L112.87733333333334,41.45362006881662L114.02533333333334,37.918937706515216L115.17333333333333,39.873344890164304L116.32133333333333,39.13841506763599L117.46933333333332,35.90671746599953L118.61733333333332,33.972561416220216L119.76533333333334,31.56490002044319L120.91333333333334,29.29363368709101L122.06133333333334,26.612448132943552L123.20933333333333,26.84279644244936L124.35733333333333,25.78170988232606L125.50533333333333,28.541814298375165L126.65333333333332,27.58010058898906L127.80133333333335,24.07545170377989L128.94933333333333,23.83985643227101L130.09733333333332,23.25003813988006L131.24533333333332,21.5068148955932L132.39333333333335,19.62028174478469L133.54133333333334,18.87456940022586L134.68933333333334,22.42827622240343L135.83733333333333,22.74286635388824L136.98533333333333,21.527326915491123L138.13333333333333,15.94674356836581L139.28133333333332,13.21159775552742L140.42933333333335,13.046878040999031L141.57733333333334,14.035633241041745L142.72533333333334,13.751788442195801L143.87333333333333,14.5787135787817L145.02133333333333,14.289948910147924L146.16933333333333,14.470683575115867L147.31733333333332,15.562806489885906L148.46533333333332,15.947054671918163L149.61333333333334,15.37734734027293L150.76133333333334,14.60052475314039L151.90933333333334,18.198501647434536L153.05733333333333,19.819110701717495L154.20533333333333,18.183883648657613L155.35333333333332,20.058999397690975L156.50133333333332,22.617430994265586L157.64933333333335,23.70757434007413L158.79733333333334,25.462684307500304L159.94533333333334,27.332455961636384L161.09333333333333,30.180050669372967L162.24133333333333,29.23324447605508L163.38933333333333,30.290710977059966L164.53733333333332,29.71431322879878L165.68533333333335,29.021238474545054L166.83333333333334,27.71761155145205L167.98133333333334,26.91639682443118L169.12933333333334,29.15198773730898L170.27733333333333,28.743117286629584L171.42533333333333,26.93296638575797L172.57333333333332,30.7411155974304L173.72133333333332,32.268783201261876L174.86933333333334,29.59073699792396L176.01733333333334,27.9435191706436L177.16533333333334,26.357042177072213L178.31333333333333,25.79583040143157L179.46133333333333,26.274814700161183L180.60933333333332,25.99389002882743L181.75733333333335,28.9883338883483L182.90533333333335,29.624420849195047L184.05333333333334,34.722096750128934L185.20133333333334,35.285021367931016L186.34933333333333,34.156788606789L187.49733333333333,35.432156381356656L188.64533333333333,35.62842911223505L189.79333333333332,34.74859128381587L190.94133333333332,36.696465060488684L192.08933333333334,36.90604181855793L193.23733333333334,35.63746118378458L194.38533333333334,33.89347511764078L195.53333333333333,36.47664241841517L196.68133333333333,36.72391586490437L197.82933333333332,39.39688869568511L198.97733333333335,38.77607607012878L200.12533333333334,39.77398168504601L201.27333333333334,37.986469430637776L202.42133333333334,31.45526869862418L203.56933333333333,28.49272788335178L204.71733333333333,24.83249560168686L205.86533333333333,22.96810414988282L207.01333333333332,23.68929936863065L208.16133333333332,19.731429704693905L209.30933333333334,17.01420998422072L210.45733333333334,13.482885210171249L211.60533333333333,13.278828072613605L212.75333333333333,11.803830319457118L213.90133333333333,15.80266661777959L215.04933333333332,12.458563601911935L216.19733333333335,13.940043373894525L217.34533333333334,11.946859515141147L218.49333333333334,10.849937692885598L219.64133333333334,13.037743629759714L220.78933333333333,12.499056216164245L221.93733333333333,12.579432774574862L223.08533333333332,12.96048663795273L224.23333333333332,11.258767948003253L225.38133333333332,9.927318819397076L226.52933333333334,12.93535140429871L227.67733333333334,12.502227171656333L228.82533333333333,13.190349841771L229.97333333333333,11.405525257426985L231.12133333333333,11.178947130901308L232.26933333333335,9.056227906200245L233.41733333333335,10.6454736709845L234.56533333333334,13.15974234153991L235.71333333333334,12.768108153051502L236.86133333333333,10.768018502702564L238.00933333333333,10.044858998123456L239.15733333333333,10.3039554543437L240.30533333333332,11.13124255210863L241.45333333333332,10.92262786271272L242.60133333333334,14.423599490600784L243.74933333333334,15.111866679942871L244.89733333333334,13.859954447669578L246.04533333333333,14.505552772218373L247.19333333333333,14.43589495170534L248.34133333333335,13.104726733348292L249.48933333333335,13.5877435703519L250.63733333333334,13.465197003575788L251.78533333333334,11.661133363474141L252.93333333333334,9.522503754212886L254.08133333333333,12.469830293265282L255.22933333333333,10.207900425340933L256.3773333333333,9.138493456546675L257.5253333333333,12.32835098408518" style="fill: none;" fill="none"></path></g></g></g></g><g opacity="0.2"><g><g><g><path stroke="rgb(51, 187, 238)" stroke-width="2px" d="M24.481333333333335,29.028577359517413L25.62933333333333,51.98550538857777L26.777333333333335,63.06613083839416L27.92533333333333,28.798993136088065L29.073333333333334,67.08147824923196L30.221333333333334,74.8922748819987L31.369333333333334,99.93632730484009L32.51733333333333,85.20948597908021L33.66533333333333,57.237010450363165L34.81333333333333,92.76862575213114L35.961333333333336,138.96560928026835L37.10933333333333,110.5539134947459L38.257333333333335,109.47519891421L39.40533333333333,95.67627249399821L40.553333333333335,97.56749773979188L41.70133333333333,67.56016279538473L42.849333333333334,70.41448233604432L43.99733333333334,55.13843565146128L45.14533333333333,75.60670094490051L46.29333333333334,46.27551602363587L47.44133333333333,78.28260300954183L48.589333333333336,64.44246593316396L49.73733333333333,79.8937974357605L50.885333333333335,81.25473929723104L52.03333333333333,79.42058603922526L53.181333333333335,80.46300499598185L54.32933333333333,65.5299663591385L55.477333333333334,60.98491168498993L56.62533333333333,53.53770142237346L57.77333333333333,69.22144374211629L58.92133333333334,37.4020821873347L60.06933333333333,37.268926218350735L61.217333333333336,28.098447988828024L62.36533333333333,22.259767592748L63.513333333333335,42.86713010311126L64.66133333333333,26.662070282300323L65.80933333333334,21.65746908187866L66.95733333333334,44.45002258459728L68.10533333333333,25.321742750803622L69.25333333333333,34.79630485216776L70.40133333333334,43.48248135566711L71.54933333333334,56.670863533020025L72.69733333333333,18.362885065078732L73.84533333333333,28.072162467638645L74.99333333333333,17.976451896031705L76.14133333333334,9.212661089897148L77.28933333333333,24.68545310020446L78.43733333333334,4.948825484911608L79.58533333333334,8.97508318742117L80.73333333333333,45.547137029965725L81.88133333333333,13.075138390858958L83.02933333333333,30.831404037475583L84.17733333333332,9.762064490318297L85.32533333333333,35.404958697954825L86.47333333333334,36.578067105611176L87.62133333333334,45.84536967277526L88.76933333333334,43.39816964626311L89.91733333333333,47.15622501373291L91.06533333333333,37.27382324695588L92.21333333333332,50.87645443598429L93.36133333333333,49.73953362941742L94.50933333333334,36.1842343823115L95.65733333333334,22.600165092150366L96.80533333333334,14.359456157684319L97.95333333333333,31.004456386566165L99.10133333333333,29.83725321928661L100.24933333333333,31.189931344985965L101.39733333333332,38.152695851326L102.54533333333335,27.365982136726373L103.69333333333334,30.229267560640967L104.84133333333334,16.270269517898566L105.98933333333333,35.05550529638926L107.13733333333333,51.98685567220051L108.28533333333333,22.00488805611928L109.43333333333332,42.677766327857974L110.58133333333333,19.82554829279582L111.72933333333334,31.460042080879205L112.87733333333334,28.975196146965036L114.02533333333334,36.7477527475357L115.17333333333333,35.63013199488322L116.32133333333333,28.206632712682083L117.46933333333332,36.90705020745596L118.61733333333332,22.79075312455495L119.76533333333334,15.394997669855758L120.91333333333334,33.94935295263927L122.06133333333334,38.170303549766544L123.20933333333333,48.8483464384079L124.35733333333333,58.779556457201636L125.50533333333333,52.56018609841665L126.65333333333332,45.147363058725986L127.80133333333335,53.95938599586487L128.94933333333333,59.47630280653635L130.09733333333332,71.42096574465434L131.24533333333332,96.30820522944133L132.39333333333335,83.44479131062825L133.54133333333334,11.029620736440027L134.68933333333334,44.34225194772085L135.83733333333333,45.39576123396556L136.98533333333333,49.98852592945098L138.13333333333333,63.79760648250579L139.28133333333332,69.05436864852905L140.42933333333335,55.787507987022394L141.57733333333334,66.69637736002603L142.72533333333334,55.019052575429285L143.87333333333333,40.131887574195865L145.02133333333333,44.53447832425435L146.16933333333333,79.87276901880901L147.31733333333332,36.09401743253071L148.46533333333332,36.95594847838085L149.61333333333334,68.2510759194692L150.76133333333334,63.141800732612616L151.90933333333334,29.483010811805716L153.05733333333333,20.682708336512253L154.20533333333333,42.012580607732126L155.35333333333332,25.68185439109803L156.50133333333332,35.596951025327044L157.64933333333335,55.07387409051258L158.79733333333334,28.123077162106842L159.94533333333334,21.22867301464081L161.09333333333333,35.746562450726834L162.24133333333333,23.2479591592153L163.38933333333333,30.504131294886264L164.53733333333332,45.355954872767136L165.68533333333335,46.537146978378296L166.83333333333334,37.778505253791806L167.98133333333334,58.93086023807527L169.12933333333334,27.58777072270712L170.27733333333333,39.78751123905181L171.42533333333333,33.003326242764786L172.57333333333332,60.87334225018818L173.72133333333332,24.24733107407888L174.86933333333334,37.839358035723365L176.01733333333334,58.647012616793326L177.16533333333334,31.129582668940238L178.31333333333333,27.99867103099822L179.46133333333333,33.207381103833505L180.60933333333332,19.004647865295407L181.75733333333335,37.79492470264435L182.90533333333335,30.63883558909099L184.05333333333334,47.40415509064993L185.20133333333334,32.27611749490102L186.34933333333333,25.842790195147195L187.49733333333333,47.107092693646756L188.64533333333333,41.0162873395284L189.79333333333332,39.87412743250528L190.94133333333332,68.86910973548889L192.08933333333334,50.960045994122815L193.23733333333334,33.05463702042897L194.38533333333334,30.059005797704053L195.53333333333333,22.204946077664697L196.68133333333333,41.27356137911479L197.82933333333332,24.64885141213735L198.97733333333335,14.392187032699583L200.12533333333334,23.231755755742398L201.27333333333334,22.67615905443827L202.42133333333334,31.092296837170917L203.56933333333333,47.91740689754486L204.71733333333333,28.708830197652173L205.86533333333333,21.081762156486505L207.01333333333332,43.68028890450795L208.16133333333332,56.25472412427266L209.30933333333334,311.24105918566386L210.45733333333334,3.6108024374644057L211.60533333333333,41.61923398653666L212.75333333333333,43.4417387978236L213.90133333333333,20.246998817125952L215.04933333333332,28.65690729141236L216.19733333333335,32.29761401017507L217.34533333333334,32.56300775527953L218.49333333333334,50.296768674850455L219.64133333333334,21.445186492602026L220.78933333333333,44.9826284567515L221.93733333333333,25.598838953971857L223.08533333333332,23.922614868481958L224.23333333333332,42.80946399052937L225.38133333333332,57.342278561592096L226.52933333333334,38.514049752553305L227.67733333333334,39.95228184858958L228.82533333333333,41.521815524101264L229.97333333333333,45.324862341880795L231.12133333333333,16.305736967722574L232.26933333333335,30.585706429481515L233.41733333333335,36.77286802291871L234.56533333333334,34.95380193392435L235.71333333333334,42.72621450424194L236.86133333333333,26.090486222902936L238.00933333333333,28.098321962356565L239.15733333333333,34.26114244302114L240.30533333333332,41.3486731561025L241.45333333333332,10.11135585784913L242.60133333333334,39.016715335845944L243.74933333333334,46.181104192733756L244.89733333333334,26.780985260009775L246.04533333333333,37.51537998517354L247.19333333333333,57.641267363230384L248.34133333333335,31.832180247306827L249.48933333333335,39.948393031756076L250.63733333333334,39.242104678153986L251.78533333333334,53.88558849493663L252.93333333333334,32.44587515195211L254.08133333333333,63.923434912363696L255.22933333333333,91.51761498133342L256.3773333333333,75.6643130461375L257.5253333333333,90.74554080963135" style="fill: none;" fill="none"></path></g><g><path stroke="rgb(0, 119, 187)" stroke-width="2px" d="M24.481333333333335,74.95244352022807L25.62933333333333,77.38695088068644L26.777333333333335,80.28980861663818L27.92533333333333,112.4074388217926L29.073333333333334,138.0096444829305L30.221333333333334,104.85218786557515L31.369333333333334,141.5660754998525L32.51733333333333,51.632127162615454L33.66533333333333,78.33935092926026L34.81333333333333,112.08081421534219L35.961333333333336,131.79297469139098L37.10933333333333,104.86799518585204L38.257333333333335,101.8745064131419L39.40533333333333,104.11216042518616L40.553333333333335,113.80658470789592L41.70133333333333,61.553777173360196L42.849333333333334,94.6790070215861L43.99733333333334,98.38548155466715L45.14533333333333,33.78175574938456L46.29333333333334,45.688754776318866L47.44133333333333,27.956020072301236L48.589333333333336,41.84543349901836L49.73733333333333,78.19935352325439L50.885333333333335,47.866132127443954L52.03333333333333,78.10490568478902L53.181333333333335,29.997468872070304L54.32933333333333,33.358126767476406L55.477333333333334,59.243711951573694L56.62533333333333,14.230549081166586L57.77333333333333,62.24625662644704L58.92133333333334,62.15668781280519L60.06933333333333,75.88972039222718L61.217333333333336,38.23117433547974L62.36533333333333,48.96848567326863L63.513333333333335,50.042141191164646L64.66133333333333,57.387504061063126L65.80933333333334,24.66757534503937L66.95733333333334,59.21620217323303L68.10533333333333,34.58178979396819L69.25333333333333,78.20968769391378L70.40133333333334,24.532781031926465L71.54933333333334,88.30682056427003L72.69733333333333,70.9849861685435L73.84533333333333,42.73136358579L74.99333333333333,58.7042826461792L76.14133333333334,48.769669912656155L77.28933333333333,38.19086386839549L78.43733333333334,46.78909189860027L79.58533333333334,68.0671852938334L80.73333333333333,43.80874588648479L81.88133333333333,24.768522548675534L83.02933333333333,787.2901757748922L84.17733333333332,36.619817875226346L85.32533333333333,41.026027385393775L86.47333333333334,10.39444732030232L87.62133333333334,61.103844666481024L88.76933333333334,62.035432343482974L89.91733333333333,38.982598169644675L91.06533333333333,67.85038375536601L92.21333333333332,77.82717934926352L93.36133333333333,133.17868975639342L94.50933333333334,44.26308931986491L95.65733333333334,11.845714154243462L96.80533333333334,19.704760921796158L97.95333333333333,25.57982696056365L99.10133333333333,27.30046637535096L100.24933333333333,26.736912002563486L101.39733333333332,28.85800953229269L102.54533333333335,47.20096441109975L103.69333333333334,103.80537598609925L104.84133333333334,19.309451888402304L105.98933333333333,24.12132260640461L107.13733333333333,14.035910197893779L108.28533333333333,28.748726577758795L109.43333333333332,67.61050136884053L110.58133333333333,23.729272257486972L111.72933333333334,35.94201150417327L112.87733333333334,44.06119491259257L114.02533333333334,68.6714282131195L115.17333333333333,43.6352974541982L116.32133333333333,50.17400088787078L117.46933333333332,73.96832080841064L118.61733333333332,100.88044561386108L119.76533333333334,34.87091252326966L120.91333333333334,82.0455734093984L122.06133333333334,41.34584656238555L123.20933333333333,75.46670353889466L124.35733333333333,86.30508810679117L125.50533333333333,68.30242270469665L126.65333333333332,42.91962913036346L127.80133333333335,74.32695613861084L128.94933333333333,41.58671915690104L130.09733333333332,57.765223399798074L131.24533333333332,85.61107833226522L132.39333333333335,38.82558718999227L133.54133333333334,96.99040452321371L134.68933333333334,54.51584687868753L135.83733333333333,57.090837747255954L136.98533333333333,30.769056941668204L138.13333333333333,41.312683596611016L139.28133333333332,30.020441697438553L140.42933333333335,26.18765263239542L141.57733333333334,21.495453050931296L142.72533333333334,53.718999503453574L143.87333333333333,57.19133485635121L145.02133333333333,45.10136339664459L146.16933333333333,53.82478972434997L147.31733333333332,68.91995241483053L148.46533333333332,30.591197582880664L149.61333333333334,52.84298950036367L150.76133333333334,35.554894191424054L151.90933333333334,44.35220803896586L153.05733333333333,59.87812920888265L154.20533333333333,84.6001659933726L155.35333333333332,97.89325816472372L156.50133333333332,74.87805189450582L157.64933333333335,82.08600990295409L158.79733333333334,70.80869313875834L159.94533333333334,70.87933997790017L161.09333333333333,95.96426098505655L162.24133333333333,84.90478997866313L163.38933333333333,79.14375989278157L164.53733333333332,82.45137864748637L165.68533333333335,55.583039038976025L166.83333333333334,53.22796436309814L167.98133333333334,65.31078832149505L169.12933333333334,49.368943788210544L170.27733333333333,44.076732176144915L171.42533333333333,66.84076768875121L172.57333333333332,56.64126531600951L173.72133333333332,72.5492627398173L174.86933333333334,89.8209385999044L176.01733333333334,61.248793112436935L177.16533333333334,58.00103693167368L178.31333333333333,86.37317840894063L179.46133333333333,54.20960255304971L180.60933333333332,78.41701924324035L181.75733333333335,53.33053190708161L182.90533333333335,55.5214120944341L184.05333333333334,44.69575620015463L185.20133333333334,52.764006910324106L186.34933333333333,27.03725108782451L187.49733333333333,66.95854842821757L188.64533333333333,31.78396612008413L189.79333333333332,52.92339438915253L190.94133333333332,24.197586625417077L192.08933333333334,45.762696307500214L193.23733333333334,43.014905142784116L194.38533333333334,40.667716123263034L195.53333333333333,-1.5838826894760132L196.68133333333333,24.544753546714777L197.82933333333332,41.89694231828053L198.97733333333335,23.823161978721622L200.12533333333334,21.39004090944926L201.27333333333334,16.83827082475027L202.42133333333334,56.14430693149566L203.56933333333333,26.747876305580142L204.71733333333333,1.539305326143897L205.86533333333333,49.31975745677948L207.01333333333332,45.84823227405548L208.16133333333332,32.27966423988342L209.30933333333334,33.6799263604482L210.45733333333334,448.5031506474813L211.60533333333333,59.65454024473826L212.75333333333333,36.406761123339344L213.90133333333333,8.536745115915927L215.04933333333332,18.03658452669779L216.19733333333335,19.857613027890515L217.34533333333334,23.755575782457996L218.49333333333334,38.00538890997569L219.64133333333334,26.174887951215112L220.78933333333333,23.95255515734354L221.93733333333333,44.81396903038024L223.08533333333332,31.497868026097613L224.23333333333332,47.66571403026581L225.38133333333332,52.45652032375336L226.52933333333334,69.51915427525839L227.67733333333334,35.383156118392954L228.82533333333333,41.019528020222985L229.97333333333333,61.69499883651733L231.12133333333333,80.0239647769928L232.26933333333335,55.81354145526885L233.41733333333335,80.35750283559163L234.56533333333334,61.60759047667186L235.71333333333334,68.81437823931375L236.86133333333333,73.83880160331726L238.00933333333333,103.15961634635927L239.15733333333333,65.95555775324503L240.30533333333332,108.76927063624065L241.45333333333332,40.21693743864695L242.60133333333334,72.51595574378968L243.74933333333334,84.30425583839416L244.89733333333334,169.94439227422077L246.04533333333333,65.43382616519929L247.19333333333333,90.4795169321696L248.34133333333335,119.4078132279714L249.48933333333335,78.71534190495808L250.63733333333334,88.69069719632466L251.78533333333334,99.49487457911174L252.93333333333334,75.82724726994833L254.08133333333333,121.1577087879181L255.22933333333333,109.02881315231322L256.3773333333333,130.2222527662913L257.5253333333333,148.53598750750223" style="fill: none;" fill="none"></path></g><g><path stroke="rgb(255, 112, 67)" stroke-width="2px" d="M24.481333333333335,47.05662809371949L25.62933333333333,53.41831834634146L26.777333333333335,49.05234728813172L27.92533333333333,44.008173775672915L29.073333333333334,78.83557115872702L30.221333333333334,79.33326769828795L31.369333333333334,82.09533586184185L32.51733333333333,49.13917952696483L33.66533333333333,51.329771653811136L34.81333333333333,22.488091551462805L35.961333333333336,44.98084608236949L37.10933333333333,51.83483174006145L38.257333333333335,60.47293814659119L39.40533333333333,61.227476634979254L40.553333333333335,49.67047112305959L41.70133333333333,57.361956694920856L42.849333333333334,26.67998404502869L43.99733333333334,39.156046601931266L45.14533333333333,46.45947866439819L46.29333333333334,31.563941904703775L47.44133333333333,48.295054221153265L48.589333333333336,38.09738823413849L49.73733333333333,32.09654777685802L50.885333333333335,33.78269194602967L52.03333333333333,36.43286660671234L53.181333333333335,27.84248822530111L54.32933333333333,52.299707385698966L55.477333333333334,24.086503292719534L56.62533333333333,33.8483157300949L57.77333333333333,17.230915298461923L58.92133333333334,14.022011278470355L60.06933333333333,10.531600128809604L61.217333333333336,7.449424727757773L62.36533333333333,-0.19706939379372718L63.513333333333335,14.296352903048204L64.66133333333333,14.295848797162376L65.80933333333334,21.95953653017679L66.95733333333334,5.653835570017498L68.10533333333333,30.735767949422208L69.25333333333333,9.386235548655197L70.40133333333334,18.468657282193494L71.54933333333334,19.910634164810187L72.69733333333333,19.37693006197611L73.84533333333333,13.024133677482599L74.99333333333333,34.570051328341165L76.14133333333334,19.152710965474448L77.28933333333333,23.687197419802356L78.43733333333334,3.6577923075358014L79.58533333333334,8.789734255472812L80.73333333333333,11.095568588574727L81.88133333333333,24.274462773005173L83.02933333333333,34.2910647281011L84.17733333333332,26.494311045010885L85.32533333333333,21.51066624641418L86.47333333333334,40.64920823574066L87.62133333333334,58.865956605275464L88.76933333333334,37.63596931457519L89.91733333333333,54.155573204358426L91.06533333333333,51.34923374176025L92.21333333333332,54.45398588498434L93.36133333333333,45.85190504550935L94.50933333333334,48.89947717825572L95.65733333333334,62.0616458495458L96.80533333333334,67.0017575041453L97.95333333333333,75.63467882156372L99.10133333333333,52.18855203787486L100.24933333333333,66.1239291191101L101.39733333333332,56.708059345881146L102.54533333333335,48.98722760995229L103.69333333333334,42.603752781550085L104.84133333333334,19.80504198551179L105.98933333333333,62.46752310276032L107.13733333333333,43.11007313251494L108.28533333333333,15.11192421118419L109.43333333333332,24.017206737200418L110.58133333333333,29.930224747657782L111.72933333333334,60.24247173786162L112.87733333333334,37.23927398999532L114.02533333333334,17.8891335550944L115.17333333333333,50.94828952471415L116.32133333333333,34.973822139104215L117.46933333333332,17.593799521128336L118.61733333333332,23.01236167271931L119.76533333333334,17.92150435447692L120.91333333333334,16.42313962777456L122.06133333333334,11.419078540802007L123.20933333333333,28.148102418581644L124.35733333333333,19.76889039198557L125.50533333333333,44.182396370569855L126.65333333333332,22.130392417907718L127.80133333333335,4.215783511797588L128.94933333333333,22.504817064603174L130.09733333333332,19.9077355559667L131.24533333333332,11.628552540143332L132.39333333333335,8.929929703076684L133.54133333333334,14.64886694749197L134.68933333333334,42.56594484011332L135.83733333333333,24.52554351170857L136.98533333333333,14.639270931879675L138.13333333333333,-15.676558810869844L139.28133333333332,-2.2875604947408013L140.42933333333335,12.113466394742325L141.57733333333334,19.638579020500174L142.72533333333334,12.143334668477385L143.87333333333333,19.264622472127286L145.02133333333333,12.653615851402286L146.16933333333333,15.494846642812083L147.31733333333332,21.751502833366388L148.46533333333332,18.124460984865824L149.61333333333334,12.149005859692895L150.76133333333334,10.198530168533331L151.90933333333334,38.5870370833079L153.05733333333333,29.002561895052594L154.20533333333333,8.917597112655647L155.35333333333332,30.684655213356027L156.50133333333332,37.115209930737805L157.64933333333335,29.885053259531656L158.79733333333334,35.408307401339215L159.94533333333334,37.9278286186854L161.09333333333333,46.31642061551411L162.24133333333333,23.86800939877828L163.38933333333333,36.28302113215129L164.53733333333332,26.448059329986563L165.68533333333335,25.093814875284842L166.83333333333334,20.33039233366649L167.98133333333334,22.376180044809967L169.12933333333334,41.820336227416995L170.27733333333333,26.42618473529815L171.42533333333333,16.675444623629257L172.57333333333332,52.32062777996064L173.72133333333332,40.9255662838618L174.86933333333334,14.415141854286192L176.01733333333334,18.609284820556635L177.16533333333334,17.36700588385265L178.31333333333333,22.615630340576175L179.46133333333333,28.989059058825177L180.60933333333332,24.4019835583369L181.75733333333335,45.95684908866883L182.90533333333335,33.22891362667083L184.05333333333334,63.60892685095468L185.20133333333334,38.47492753505708L186.34933333333333,27.763469627698264L187.49733333333333,42.65924043655396L188.64533333333333,36.74064125378926L189.79333333333332,29.76284358978271L190.94133333333332,47.7344164609909L192.08933333333334,38.09364344755809L193.23733333333334,28.448837587038675L194.38533333333334,24.010887409846L195.53333333333333,51.114590455691015L196.68133333333333,38.125132061640414L197.82933333333332,54.543734736442566L198.97733333333335,35.2581378587087L200.12533333333334,45.428780169487005L201.27333333333334,27.85723332246145L202.42133333333334,-5.554868782361347L203.56933333333333,11.70499659697214L204.71733333333333,4.091179339090986L205.86533333333333,12.40321925640106L207.01333333333332,27.776072274843845L208.16133333333332,-2.696498390833533L209.30933333333334,1.6166315682728996L210.45733333333334,-6.527955176035546L211.60533333333333,12.12250429312389L212.75333333333333,3.44550971825917L213.90133333333333,38.46273897488912L215.04933333333332,-6.491353487968437L216.19733333333335,22.335095415115347L217.34533333333334,0.6521509822209602L218.49333333333334,4.6340473667780495L219.64133333333334,25.43531060536703L220.78933333333333,9.446494205792746L221.93733333333333,13.034899938901273L223.08533333333332,15.119791863759357L224.23333333333332,1.6156953716278044L225.38133333333332,2.382440423965446L226.52933333333334,29.980869385401416L227.67733333333334,10.04785652001699L228.82533333333333,17.089711639086413L229.97333333333333,1.291519279479975L231.12133333333333,9.895004413922633L232.26933333333335,-2.9725143671035688L233.41733333333335,19.651199671427417L234.56533333333334,27.407264808018997L235.71333333333334,10.54884775161744L236.86133333333333,-0.5658228492736926L238.00933333333333,5.946955138842268L239.15733333333333,11.77216870625814L240.30533333333332,15.819202772776277L241.45333333333332,9.74047795613607L242.60133333333334,34.26243871529896L243.74933333333334,19.012047419548026L244.89733333333334,6.765785131454467L246.04533333333333,18.163943277994797L247.19333333333333,14.041167302131644L248.34133333333335,5.561440162658693L249.48933333333335,16.32483898003896L250.63733333333334,12.770766458511348L251.78533333333334,1.4381060695648107L252.93333333333334,-2.5963973649342846L254.08133333333333,29.171347347895306L255.22933333333333,-2.609702159563698L256.3773333333333,3.0785206333796125L257.5253333333333,30.404210306803378" style="fill: none;" fill="none"></path></g></g></g></g></g></g><g transform="translate(50, 176)" clip-path="url(#clip_1)"><clipPath id="clip_1"><rect width="280" height="23"></rect></clipPath><g><g><line x1="0" y1="0" x2="0" y2="5" style="visibility: inherit;" fill="rgb(0, 0, 0)" stroke="rgb(204, 204, 204)" stroke-width="1px"></line><line x1="23.333333333333332" y1="0" x2="23.333333333333332" y2="5" style="visibility: inherit;" fill="rgb(0, 0, 0)" stroke="rgb(204, 204, 204)" stroke-width="1px"></line><line x1="46.666666666666664" y1="0" x2="46.666666666666664" y2="5" style="visibility: inherit;" fill="rgb(0, 0, 0)" stroke="rgb(204, 204, 204)" stroke-width="1px"></line><line x1="70" y1="0" x2="70" y2="5" style="visibility: inherit;" fill="rgb(0, 0, 0)" stroke="rgb(204, 204, 204)" stroke-width="1px"></line><line x1="93.33333333333333" y1="0" x2="93.33333333333333" y2="5" style="visibility: inherit;" fill="rgb(0, 0, 0)" stroke="rgb(204, 204, 204)" stroke-width="1px"></line><line x1="116.66666666666667" y1="0" x2="116.66666666666667" y2="5" style="visibility: inherit;" fill="rgb(0, 0, 0)" stroke="rgb(204, 204, 204)" stroke-width="1px"></line><line x1="140" y1="0" x2="140" y2="5" style="visibility: inherit;" fill="rgb(0, 0, 0)" stroke="rgb(204, 204, 204)" stroke-width="1px"></line><line x1="163.33333333333334" y1="0" x2="163.33333333333334" y2="5" style="visibility: inherit;" fill="rgb(0, 0, 0)" stroke="rgb(204, 204, 204)" stroke-width="1px"></line><line x1="186.66666666666666" y1="0" x2="186.66666666666666" y2="5" style="visibility: inherit;" fill="rgb(0, 0, 0)" stroke="rgb(204, 204, 204)" stroke-width="1px"></line><line x1="210" y1="0" x2="210" y2="5" style="visibility: inherit;" fill="rgb(0, 0, 0)" stroke="rgb(204, 204, 204)" stroke-width="1px"></line><line x1="233.33333333333334" y1="0" x2="233.33333333333334" y2="5" style="visibility: inherit;" fill="rgb(0, 0, 0)" stroke="rgb(204, 204, 204)" stroke-width="1px"></line><line x1="256.66666666666663" y1="0" x2="256.66666666666663" y2="5" style="visibility: inherit;" fill="rgb(0, 0, 0)" stroke="rgb(204, 204, 204)" stroke-width="1px"></line><line x1="280" y1="0" x2="280" y2="5" style="visibility: inherit;" fill="rgb(0, 0, 0)" stroke="rgb(204, 204, 204)" stroke-width="1px"></line></g><g transform="translate(0, 8)"><text x="0" y="0" dx="0em" dy="0.95em" style="text-anchor: middle; visibility: hidden; font-family: Roboto, sans-serif; font-size: 12px; font-weight: 200;" fill="rgb(33, 33, 33)" stroke="none" stroke-width="1px">-10k</text><text x="23.333333333333332" y="0" dx="0em" dy="0.95em" style="text-anchor: middle; visibility: inherit; font-family: Roboto, sans-serif; font-size: 12px; font-weight: 200;" fill="rgb(33, 33, 33)" stroke="none" stroke-width="1px">0</text><text x="46.666666666666664" y="0" dx="0em" dy="0.95em" style="text-anchor: middle; visibility: hidden; font-family: Roboto, sans-serif; font-size: 12px; font-weight: 200;" fill="rgb(33, 33, 33)" stroke="none" stroke-width="1px">10k</text><text x="70" y="0" dx="0em" dy="0.95em" style="text-anchor: middle; visibility: inherit; font-family: Roboto, sans-serif; font-size: 12px; font-weight: 200;" fill="rgb(33, 33, 33)" stroke="none" stroke-width="1px">20k</text><text x="93.33333333333333" y="0" dx="0em" dy="0.95em" style="text-anchor: middle; visibility: hidden; font-family: Roboto, sans-serif; font-size: 12px; font-weight: 200;" fill="rgb(33, 33, 33)" stroke="none" stroke-width="1px">30k</text><text x="116.66666666666667" y="0" dx="0em" dy="0.95em" style="text-anchor: middle; visibility: inherit; font-family: Roboto, sans-serif; font-size: 12px; font-weight: 200;" fill="rgb(33, 33, 33)" stroke="none" stroke-width="1px">40k</text><text x="140" y="0" dx="0em" dy="0.95em" style="text-anchor: middle; visibility: hidden; font-family: Roboto, sans-serif; font-size: 12px; font-weight: 200;" fill="rgb(33, 33, 33)" stroke="none" stroke-width="1px">50k</text><text x="163.33333333333334" y="0" dx="0em" dy="0.95em" style="text-anchor: middle; visibility: inherit; font-family: Roboto, sans-serif; font-size: 12px; font-weight: 200;" fill="rgb(33, 33, 33)" stroke="none" stroke-width="1px">60k</text><text x="186.66666666666666" y="0" dx="0em" dy="0.95em" style="text-anchor: middle; visibility: hidden; font-family: Roboto, sans-serif; font-size: 12px; font-weight: 200;" fill="rgb(33, 33, 33)" stroke="none" stroke-width="1px">70k</text><text x="210" y="0" dx="0em" dy="0.95em" style="text-anchor: middle; visibility: inherit; font-family: Roboto, sans-serif; font-size: 12px; font-weight: 200;" fill="rgb(33, 33, 33)" stroke="none" stroke-width="1px">80k</text><text x="233.33333333333334" y="0" dx="0em" dy="0.95em" style="text-anchor: middle; visibility: hidden; font-family: Roboto, sans-serif; font-size: 12px; font-weight: 200;" fill="rgb(33, 33, 33)" stroke="none" stroke-width="1px">90k</text><text x="256.66666666666663" y="0" dx="0em" dy="0.95em" style="text-anchor: middle; visibility: inherit; font-family: Roboto, sans-serif; font-size: 12px; font-weight: 200;" fill="rgb(33, 33, 33)" stroke="none" stroke-width="1px">100k</text><text x="280" y="0" dx="0em" dy="0.95em" style="text-anchor: middle; visibility: hidden; font-family: Roboto, sans-serif; font-size: 12px; font-weight: 200;" fill="rgb(33, 33, 33)" stroke="none" stroke-width="1px">110k</text></g><line x1="0" y1="0" x2="280" y2="0" fill="rgb(0, 0, 0)" stroke="rgb(204, 204, 204)" stroke-width="1px"></line></g></g></g></g></svg>