<svg viewBox="0 0 330 200" xmlns="http://www.w3.org/2000/svg"><g><g><g><g><g><line x1="82.734375" y1="176.921875" x2="77.734375" y2="176.921875" style="visibility: inherit;" fill="rgb(0, 0, 0)" stroke="rgb(204, 204, 204)" stroke-width="1px"></line><line x1="82.734375" y1="164.28459821428572" x2="77.734375" y2="164.28459821428572" style="visibility: inherit;" fill="rgb(0, 0, 0)" stroke="rgb(204, 204, 204)" stroke-width="1px"></line><line x1="82.734375" y1="151.64732142857144" x2="77.734375" y2="151.64732142857144" style="visibility: inherit;" fill="rgb(0, 0, 0)" stroke="rgb(204, 204, 204)" stroke-width="1px"></line><line x1="82.734375" y1="139.01004464285714" x2="77.734375" y2="139.01004464285714" style="visibility: inherit;" fill="rgb(0, 0, 0)" stroke="rgb(204, 204, 204)" stroke-width="1px"></line><line x1="82.734375" y1="126.37276785714286" x2="77.734375" y2="126.37276785714286" style="visibility: inherit;" fill="rgb(0, 0, 0)" stroke="rgb(204, 204, 204)" stroke-width="1px"></line><line x1="82.734375" y1="113.73549107142856" x2="77.734375" y2="113.73549107142856" style="visibility: inherit;" fill="rgb(0, 0, 0)" stroke="rgb(204, 204, 204)" stroke-width="1px"></line><line x1="82.734375" y1="101.09821428571428" x2="77.734375" y2="101.09821428571428" style="visibility: inherit;" fill="rgb(0, 0, 0)" stroke="rgb(204, 204, 204)" stroke-width="1px"></line><line x1="82.734375" y1="88.4609375" x2="77.734375" y2="88.4609375" style="visibility: inherit;" fill="rgb(0, 0, 0)" stroke="rgb(204, 204, 204)" stroke-width="1px"></line><line x1="82.734375" y1="75.82366071428572" x2="77.734375" y2="75.82366071428572" style="visibility: inherit;" fill="rgb(0, 0, 0)" stroke="rgb(204, 204, 204)" stroke-width="1px"></line><line x1="82.734375" y1="63.18638392857142" x2="77.734375" y2="63.18638392857142" style="visibility: inherit;" fill="rgb(0, 0, 0)" stroke="rgb(204, 204, 204)" stroke-width="1px"></line><line x1="82.734375" y1="50.54910714285714" x2="77.734375" y2="50.54910714285714" style="visibility: inherit;" fill="rgb(0, 0, 0)" stroke="rgb(204, 204, 204)" stroke-width="1px"></line><line x1="82.734375" y1="37.91183035714286" x2="77.734375" y2="37.91183035714286" style="visibility: inherit;" fill="rgb(0, 0, 0)" stroke="rgb(204, 204, 204)" stroke-width="1px"></line><line x1="82.734375" y1="25.27455357142858" x2="77.734375" y2="25.27455357142858" style="visibility: inherit;" fill="rgb(0, 0, 0)" stroke="rgb(204, 204, 204)" stroke-width="1px"></line><line x1="82.734375" y1="12.63727678571428" x2="77.734375" y2="12.63727678571428" style="visibility: inherit;" fill="rgb(0, 0, 0)" stroke="rgb(204, 204, 204)" stroke-width="1px"></line><line x1="82.734375" y1="0" x2="77.734375" y2="0" style="visibility: inherit;" fill="rgb(0, 0, 0)" stroke="rgb(204, 204, 204)" stroke-width="1px"></line></g><g transform="translate(72.734375, 0)"><text x="0" y="176.921875" dx="0em" dy="0.3em" style="text-anchor: end; visibility: hidden; font-family: Roboto, sans-serif; font-size: 12px; font-weight: 200;" fill="rgb(33, 33, 33)" stroke="none" stroke-width="1px">-3e+3</text><text x="0" y="164.28459821428572" dx="0em" dy="0.3em" style="text-anchor: end; visibility: inherit; font-family: Roboto, sans-serif; font-size: 12px; font-weight: 200;" fill="rgb(33, 33, 33)" stroke="none" stroke-width="1px">-2.8e+3</text><text x="0" y="151.64732142857144" dx="0em" dy="0.3em" style="text-anchor: end; visibility: hidden; font-family: Roboto, sans-serif; font-size: 12px; font-weight: 200;" fill="rgb(33, 33, 33)" stroke="none" stroke-width="1px">-2.6e+3</text><text x="0" y="139.01004464285714" dx="0em" dy="0.3em" style="text-anchor: end; visibility: inherit; font-family: Roboto, sans-serif; font-size: 12px; font-weight: 200;" fill="rgb(33, 33, 33)" stroke="none" stroke-width="1px">-2.4e+3</text><text x="0" y="126.37276785714286" dx="0em" dy="0.3em" style="text-anchor: end; visibility: hidden; font-family: Roboto, sans-serif; font-size: 12px; font-weight: 200;" fill="rgb(33, 33, 33)" stroke="none" stroke-width="1px">-2.2e+3</text><text x="0" y="113.73549107142856" dx="0em" dy="0.3em" style="text-anchor: end; visibility: inherit; font-family: Roboto, sans-serif; font-size: 12px; font-weight: 200;" fill="rgb(33, 33, 33)" stroke="none" stroke-width="1px">-2e+3</text><text x="0" y="101.09821428571428" dx="0em" dy="0.3em" style="text-anchor: end; visibility: hidden; font-family: Roboto, sans-serif; font-size: 12px; font-weight: 200;" fill="rgb(33, 33, 33)" stroke="none" stroke-width="1px">-1.8e+3</text><text x="0" y="88.4609375" dx="0em" dy="0.3em" style="text-anchor: end; visibility: inherit; font-family: Roboto, sans-serif; font-size: 12px; font-weight: 200;" fill="rgb(33, 33, 33)" stroke="none" stroke-width="1px">-1.6e+3</text><text x="0" y="75.82366071428572" dx="0em" dy="0.3em" style="text-anchor: end; visibility: hidden; font-family: Roboto, sans-serif; font-size: 12px; font-weight: 200;" fill="rgb(33, 33, 33)" stroke="none" stroke-width="1px">-1.4e+3</text><text x="0" y="63.18638392857142" dx="0em" dy="0.3em" style="text-anchor: end; visibility: inherit; font-family: Roboto, sans-serif; font-size: 12px; font-weight: 200;" fill="rgb(33, 33, 33)" stroke="none" stroke-width="1px">-1.2e+3</text><text x="0" y="50.54910714285714" dx="0em" dy="0.3em" style="text-anchor: end; visibility: hidden; font-family: Roboto, sans-serif; font-size: 12px; font-weight: 200;" fill="rgb(33, 33, 33)" stroke="none" stroke-width="1px">-1e+3</text><text x="0" y="37.91183035714286" dx="0em" dy="0.3em" style="text-anchor: end; visibility: inherit; font-family: Roboto, sans-serif; font-size: 12px; font-weight: 200;" fill="rgb(33, 33, 33)" stroke="none" stroke-width="1px">-800</text><text x="0" y="25.27455357142858" dx="0em" dy="0.3em" style="text-anchor: end; visibility: hidden; font-family: Roboto, sans-serif; font-size: 12px; font-weight: 200;" fill="rgb(33, 33, 33)" stroke="none" stroke-width="1px">-600</text><text x="0" y="12.63727678571428" dx="0em" dy="0.3em" style="text-anchor: end; visibility: inherit; font-family: Roboto, sans-serif; font-size: 12px; font-weight: 200;" fill="rgb(33, 33, 33)" stroke="none" stroke-width="1px">-400</text><text x="0" y="0" dx="0em" dy="0.3em" style="text-anchor: end; visibility: hidden; font-family: Roboto, sans-serif; font-size: 12px; font-weight: 200;" fill="rgb(33, 33, 33)" stroke="none" stroke-width="1px">-200</text></g><line x1="82.734375" y1="0" x2="82.734375" y2="176.921875" fill="rgb(0, 0, 0)" stroke="rgb(204, 204, 204)" stroke-width="1px"></line></g></g><g transform="translate(82, 0)" clip-path="url(#clip_0)"><clipPath id="clip_0"><rect width="247" height="176"></rect></clipPath><g><g><g><line x1="0" y1="0" x2="0" y2="176.921875" fill="rgb(0, 0, 0)" stroke="rgb(66, 66, 66)" stroke-width="1px" opacity="0.25"></line><line x1="20.60546875" y1="0" x2="20.60546875" y2="176.921875" fill="rgb(0, 0, 0)" stroke="rgb(66, 66, 66)" stroke-width="1px" opacity="0.25"></line><line x1="41.2109375" y1="0" x2="41.2109375" y2="176.921875" fill="rgb(0, 0, 0)" stroke="rgb(66, 66, 66)" stroke-width="1px" opacity="0.25"></line><line x1="61.81640625" y1="0" x2="61.81640625" y2="176.921875" fill="rgb(0, 0, 0)" stroke="rgb(66, 66, 66)" stroke-width="1px" opacity="0.25"></line><line x1="82.421875" y1="0" x2="82.421875" y2="176.921875" fill="rgb(0, 0, 0)" stroke="rgb(66, 66, 66)" stroke-width="1px" opacity="0.25"></line><line x1="103.02734375" y1="0" x2="103.02734375" y2="176.921875" fill="rgb(0, 0, 0)" stroke="rgb(66, 66, 66)" stroke-width="1px" opacity="0.25"></line><line x1="123.6328125" y1="0" x2="123.6328125" y2="176.921875" fill="rgb(0, 0, 0)" stroke="rgb(66, 66, 66)" stroke-width="1px" opacity="0.25"></line><line x1="144.23828125" y1="0" x2="144.23828125" y2="176.921875" fill="rgb(0, 0, 0)" stroke="rgb(66, 66, 66)" stroke-width="1px" opacity="0.25"></line><line x1="164.84375" y1="0" x2="164.84375" y2="176.921875" fill="rgb(0, 0, 0)" stroke="rgb(66, 66, 66)" stroke-width="1px" opacity="0.25"></line><line x1="185.44921875" y1="0" x2="185.44921875" y2="176.921875" fill="rgb(0, 0, 0)" stroke="rgb(66, 66, 66)" stroke-width="1px" opacity="0.25"></line><line x1="206.0546875" y1="0" x2="206.0546875" y2="176.921875" fill="rgb(0, 0, 0)" stroke="rgb(66, 66, 66)" stroke-width="1px" opacity="0.25"></line><line x1="226.66015625" y1="0" x2="226.66015625" y2="176.921875" fill="rgb(0, 0, 0)" stroke="rgb(66, 66, 66)" stroke-width="1px" opacity="0.25"></line><line x1="247.265625" y1="0" x2="247.265625" y2="176.921875" fill="rgb(0, 0, 0)" stroke="rgb(66, 66, 66)" stroke-width="1px" opacity="0.25"></line></g><g><line x1="0" y1="176.921875" x2="247.265625" y2="176.921875" fill="rgb(0, 0, 0)" stroke="rgb(66, 66, 66)" stroke-width="1px" opacity="0.25"></line><line x1="0" y1="164.28459821428572" x2="247.265625" y2="164.28459821428572" fill="rgb(0, 0, 0)" stroke="rgb(66, 66, 66)" stroke-width="1px" opacity="0.25"></line><line x1="0" y1="151.64732142857144" x2="247.265625" y2="151.64732142857144" fill="rgb(0, 0, 0)" stroke="rgb(66, 66, 66)" stroke-width="1px" opacity="0.25"></line><line x1="0" y1="139.01004464285714" x2="247.265625" y2="139.01004464285714" fill="rgb(0, 0, 0)" stroke="rgb(66, 66, 66)" stroke-width="1px" opacity="0.25"></line><line x1="0" y1="126.37276785714286" x2="247.265625" y2="126.37276785714286" fill="rgb(0, 0, 0)" stroke="rgb(66, 66, 66)" stroke-width="1px" opacity="0.25"></line><line x1="0" y1="113.73549107142856" x2="247.265625" y2="113.73549107142856" fill="rgb(0, 0, 0)" stroke="rgb(66, 66, 66)" stroke-width="1px" opacity="0.25"></line><line x1="0" y1="101.09821428571428" x2="247.265625" y2="101.09821428571428" fill="rgb(0, 0, 0)" stroke="rgb(66, 66, 66)" stroke-width="1px" opacity="0.25"></line><line x1="0" y1="88.4609375" x2="247.265625" y2="88.4609375" fill="rgb(0, 0, 0)" stroke="rgb(66, 66, 66)" stroke-width="1px" opacity="0.25"></line><line x1="0" y1="75.82366071428572" x2="247.265625" y2="75.82366071428572" fill="rgb(0, 0, 0)" stroke="rgb(66, 66, 66)" stroke-width="1px" opacity="0.25"></line><line x1="0" y1="63.18638392857142" x2="247.265625" y2="63.18638392857142" fill="rgb(0, 0, 0)" stroke="rgb(66, 66, 66)" stroke-width="1px" opacity="0.25"></line><line x1="0" y1="50.54910714285714" x2="247.265625" y2="50.54910714285714" fill="rgb(0, 0, 0)" stroke="rgb(66, 66, 66)" stroke-width="1px" opacity="0.25"></line><line x1="0" y1="37.91183035714286" x2="247.265625" y2="37.91183035714286" fill="rgb(0, 0, 0)" stroke="rgb(66, 66, 66)" stroke-width="1px" opacity="0.25"></line><line x1="0" y1="25.27455357142858" x2="247.265625" y2="25.27455357142858" fill="rgb(0, 0, 0)" stroke="rgb(66, 66, 66)" stroke-width="1px" opacity="0.25"></line><line x1="0" y1="12.63727678571428" x2="247.265625" y2="12.63727678571428" fill="rgb(0, 0, 0)" stroke="rgb(66, 66, 66)" stroke-width="1px" opacity="0.25"></line><line x1="0" y1="0" x2="247.265625" y2="0" fill="rgb(0, 0, 0)" stroke="rgb(66, 66, 66)" stroke-width="1px" opacity="0.25"></line></g></g></g><g><g><line x1="0" y1="-12.63727678571428" x2="247.265625" y2="-12.63727678571428" fill="rgb(0, 0, 0)" stroke="rgb(153, 153, 153)" stroke-width="1.5px"></line></g></g><g><g><line x1="20.60546875" y1="0" x2="20.60546875" y2="176.921875" fill="rgb(0, 0, 0)" stroke="rgb(153, 153, 153)" stroke-width="1.5px"></line></g></g><g><g><g><g><g><path stroke="rgb(51, 187, 238)" stroke-width="2px" d="M21.6192578125,13.5221079146862L22.633046874999998,15.196765767915831L23.6468359375,16.560027966182417L24.660625,16.398304828092062L25.6744140625,16.5825588850224L26.688203125,16.970698742262098L27.7019921875,18.01802023789246L28.715781250000003,18.40532167868477L29.729570312499998,18.764595501159107L30.743359375,19.129125715487948L31.757148437500003,20.197754068388964L32.7709375,21.143035982624053L33.7847265625,21.612290193231036L34.798515625,22.004636000131537L35.8123046875,22.0519540446252L36.82609375,22.09854648213491L37.8398828125,21.56341622280257L38.853671875,21.210858862243136L39.8674609375,20.926299653747513L40.88125,20.3540752761338L41.8950390625,20.203103420310057L42.908828125,20.16011929724023L43.9226171875,20.078006617573195L44.93640625,19.917618428097636L45.9501953125,19.71676527047088L46.963984375,19.759173090552665L47.9777734375,19.783880825016354L48.9915625,19.86121925787269L50.005351562499996,19.758759026940417L51.019140625,19.858615824394253L52.0329296875,19.405127826961316L53.04671875,18.79247596772384L54.060507812500006,18.330124874299205L55.074296875,17.883991968810697L56.0880859375,17.69108350248618L57.101875,17.560313947591926L58.1156640625,17.49819505963274L59.129453125,17.29437409522052L60.1432421875,17.353020548664556L61.157031249999996,17.258686860398214L62.170820312500005,17.19188946973818L63.184609375,16.973887147489275L64.1983984375,16.909249482325688L65.2121875,16.82156977003138L66.2259765625,16.56547194383147L67.239765625,16.378119873510123L68.2535546875,16.19470211128799L69.26734375000001,15.93276255928101L70.2811328125,15.750215672816891L71.294921875,15.934458192396521L72.3087109375,15.88886664563867L73.32249999999999,15.747265210239199L74.3362890625,15.837447598351707L75.35007812500001,15.95853142206752L76.3638671875,15.887756620700705L77.37765625,15.940531879567379L78.3914453125,16.041281433339027L79.40523437499999,16.356808454609347L80.4190234375,16.471061096595584L81.4328125,16.640949462594442L82.4466015625,16.676035207804272L83.460390625,16.663864510546556L84.4741796875,16.52418078733959L85.48796875000001,16.434359831672683L86.5017578125,16.71710353697159L87.515546875,16.69613357674762L88.5293359375,16.603023034444337L89.54312499999999,16.49195428689946L90.5569140625,16.52337972577346L91.57070312500001,16.477376691745487L92.5844921875,16.33605114182581L93.59828125,16.177556520119428L94.6120703125,15.916162464285497L95.62585937499999,15.796525294536448L96.6396484375,15.855640091670661L97.65343750000001,16.01928717601745L98.6672265625,16.171261891466326L99.681015625,16.11606869210535L100.6948046875,16.1882847342806L101.70859375,16.15017267722442L102.7223828125,16.045799446162718L103.736171875,16.048442244698L104.74996093749999,15.922566809299783L105.76375,15.81163929960379L106.7775390625,15.852337936907539L107.791328125,15.777308080051695L108.8051171875,15.828043468122246L109.81890625,15.955660902478298L110.8326953125,15.937083334327841L111.84648437499999,16.148183841452173L112.86027343750001,16.627189981970876L113.87406250000001,17.0056876833889L114.8878515625,17.16006748623676L115.901640625,17.301670419970943L116.9154296875,17.29982050633698L117.92921874999999,17.072036429529312L118.9430078125,17.013045866214977L119.95679687500001,17.00773444943838L120.9705859375,17.0963590263461L121.984375,17.385720310399556L122.9981640625,17.73586956683582L124.01195312500002,17.947443636363364L125.02574218750001,18.13725213293796L126.03953125000001,18.380394010513456L127.0533203125,18.265627098618452L128.067109375,18.19885689460121L129.0808984375,17.988815748559112L130.0946875,17.84219281242851L131.1084765625,17.65503534895898L132.122265625,17.776559276203177L133.1360546875,17.732597729595447L134.14984375,17.489966451696944L135.1636328125,17.33781247895619L136.177421875,17.142972104162876L137.1912109375,17.14880012173859L138.20499999999998,17.065994319635475L139.2187890625,17.082247604741024L140.232578125,16.793309428884168L141.2463671875,16.673073935686432L142.26015625,16.590604856600947L143.27394531250002,16.52829172860279L144.287734375,16.354884816865564L145.3015234375,16.351761112288884L146.3153125,16.31081782612674L147.3291015625,16.355145466975028L148.342890625,16.43864286382847L149.3566796875,16.326880640173993L150.37046875,16.278016928535546L151.38425781249998,16.385599785966697L152.39804687499998,16.482749401824673L153.4118359375,16.54529409276974L154.42562500000003,16.386822513100597L155.43941406250002,16.149583983553217L156.45320312500002,16.137880575892652L157.4669921875,16.023755845032117L158.48078125,15.890203515836854L159.4945703125,15.594446236210523L160.508359375,15.461848368863116L161.5221484375,15.259820959824589L162.5359375,15.278652392880428L163.54972656249998,15.415833676501837L164.563515625,15.617954583655012L165.5773046875,16.786579735242366L166.59109375,16.819371250719673L167.6048828125,16.828936609440802L168.618671875,16.704589798887355L169.6324609375,16.689995108932617L170.64625,16.574963716144865L171.6600390625,16.512726770038537L172.673828125,16.3031651512587L173.6876171875,16.147247110488742L174.70140625,15.969509046971647L175.71519531250001,15.827710361242039L176.728984375,15.712427502444754L177.7427734375,15.81689825600074L178.7565625,15.672256254817524L179.7703515625,15.681985473137553L180.784140625,15.833812466754981L181.7979296875,15.725589625524268L182.81171874999998,15.67133936198189L183.82550781249998,15.533852046109109L184.839296875,15.603948987000628L185.8530859375,15.596131388118849L186.86687500000002,15.595379203421349L187.88066406250002,15.676825357236043L188.894453125,15.676020730641277L189.9082421875,15.903032233764423L190.92203125,16.046072203482495L191.9358203125,15.95873848269707L192.949609375,16.02374240353062L193.9633984375,16.05910758664557L194.97718749999999,15.96915965984483L195.99097656249998,15.908998500335452L197.00476562499998,15.926889091130963L198.0185546875,16.103367151457913L199.03234375,16.297340951992187L200.04613281250002,16.26090290638759L201.05992187500001,16.334593910874503L202.0737109375,16.41946142546965L203.0875,16.208612591596104L204.1012890625,15.983565528092072L205.115078125,15.778858637494501L206.1288671875,15.707541246427208L207.14265625,15.64394398308057L208.1564453125,15.731301034667288L209.170234375,15.665350290526971L210.1840234375,15.475763967965408L211.1978125,15.483238663840785L212.2116015625,15.416438798101538L213.225390625,15.545226203270051L214.2391796875,15.497390846752058L215.25296875,15.465508780067927L216.2667578125,15.451925410048627L217.280546875,15.410623537017909L218.2943359375,15.531568589496953L219.30812500000002,15.792122549743242L220.3219140625,16.031746678167625L221.335703125,16.141651289195323L222.3494921875,16.39021970011743L223.36328125,16.561988316315713L224.3770703125,16.964285817837837L225.390859375,17.40510644911896L226.4046484375,18.09207561500735L227.41843749999998,18.54217011264224" style="fill: none;" fill="none"></path></g><g><path stroke="rgb(204, 51, 17)" stroke-width="2px" d="M21.6192578125,44.154640461376744L22.633046874999998,123.63618792491525L23.6468359375,93.95555804206614L24.660625,84.29298566397605L25.6744140625,74.12598148383564L26.688203125,83.68041795522555L27.7019921875,75.50090585799624L28.715781250000003,71.7349956931639L29.729570312499998,70.70682618237193L30.743359375,64.60905002153169L31.757148437500003,64.33623532379225L32.7709375,64.19857268035551L33.7847265625,62.74157185942868L34.798515625,63.31126083029281L35.8123046875,85.48124546197225L36.82609375,79.97722256908237L37.8398828125,82.68464768834653L38.853671875,78.31926445272755L39.8674609375,78.35768265100077L40.88125,76.64474795290175L41.8950390625,78.0171969547785L42.908828125,76.986033433165L43.9226171875,79.25495654341901L44.93640625,76.37291208450809L45.9501953125,75.87625417040488L46.963984375,72.06781846890954L47.9777734375,69.02905554240384L48.9915625,66.30258172695552L50.005351562499996,63.84967742369822L51.019140625,69.66404859484882L52.0329296875,64.5698784066872L53.04671875,62.320820796136836L54.060507812500006,59.91592483825428L55.074296875,56.803863973733634L56.0880859375,60.75189697518923L57.101875,56.93087627175027L58.1156640625,56.66877005608117L59.129453125,54.84529718739044L60.1432421875,63.2516756989711L61.157031249999996,65.74461462505153L62.170820312500005,64.75735714533683L63.184609375,63.62263162308852L64.1983984375,60.57984207928251L65.2121875,59.29568122214455L66.2259765625,55.48768685910802L67.239765625,68.30124586053418L68.2535546875,65.54392689825931L69.26734375000001,62.040740178949015L70.2811328125,60.337607683171946L71.294921875,61.91728019015297L72.3087109375,86.0489314197166L73.32249999999999,79.69368482124345L74.3362890625,75.65526662135372L75.35007812500001,73.28960717371866L76.3638671875,74.58314378985142L77.37765625,75.0720417681199L78.3914453125,72.3483366395765L79.40523437499999,68.37676095803599L80.4190234375,65.47411524324147L81.4328125,61.92195273047948L82.4466015625,60.01258974669378L83.460390625,60.20277085586088L84.4741796875,68.05959721761313L85.48796875000001,65.33678051641782L86.5017578125,64.94099959663421L87.515546875,61.637930875534856L88.5293359375,59.803858194600004L89.54312499999999,60.456054674867055L90.5569140625,60.92868305162195L91.57070312500001,59.21879144803277L92.5844921875,58.43572213996604L93.59828125,57.91324965694381L94.6120703125,58.045383506817785L95.62585937499999,54.92912749293781L96.6396484375,58.89861895862159L97.65343750000001,55.373042346415176L98.6672265625,62.51316686526524L99.681015625,58.813597200562L100.6948046875,57.278435726287725L101.70859375,56.94735409551128L102.7223828125,56.77924370054215L103.736171875,54.2218542544714L104.74996093749999,54.69353255138181L105.76375,52.085153513904615L106.7775390625,51.4591586352123L107.791328125,50.414877577375485L108.8051171875,50.905322460069335L109.81890625,52.65561644956104L110.8326953125,50.81135950091142L111.84648437499999,56.78147749307934L112.86027343750001,55.42342460499538L113.87406250000001,52.52384037822189L114.8878515625,56.32046504281902L115.901640625,54.535338894801924L116.9154296875,53.02402872664704L117.92921874999999,53.311059682463004L118.9430078125,51.57466725249237L119.95679687500001,51.869399134421464L120.9705859375,50.171558038187534L121.984375,52.76428243730716L122.9981640625,54.55401824087759L124.01195312500002,54.922472181600675L125.02574218750001,54.06432494338807L126.03953125000001,52.00249755879773L127.0533203125,52.07671599782087L128.067109375,50.25085634579693L129.0808984375,47.37268351240306L130.0946875,48.962855704660804L131.1084765625,47.15493308286123L132.122265625,44.90934955430547L133.1360546875,43.63662404794253L134.14984375,50.06249875523953L135.1636328125,56.26566574882987L136.177421875,56.18979876055743L137.1912109375,53.98186567923739L138.20499999999998,50.975572615239635L139.2187890625,52.59652264864003L140.232578125,54.210024952051846L141.2463671875,51.75873222112789L142.26015625,87.16658893167244L143.27394531250002,90.47040218820726L144.287734375,84.64440397859084L145.3015234375,77.85309753324928L146.3153125,81.5186099380853L147.3291015625,76.09584678767739L148.342890625,71.08109270651451L149.3566796875,67.5045837113015L150.37046875,64.76188611979316L151.38425781249998,61.01836302358607L152.39804687499998,63.11406645586092L153.4118359375,63.023398579304065L154.42562500000003,60.25069191427288L155.43941406250002,64.78790676997332L156.45320312500002,64.03115857931441L157.4669921875,60.798011120959984L158.48078125,57.99899588752127L159.4945703125,62.23415557293694L160.508359375,58.69402928442394L161.5221484375,64.68171467650447L162.5359375,63.0773078157974L163.54972656249998,60.46203366644221L164.563515625,60.637036965148205L165.5773046875,59.15000906114362L166.59109375,57.512997533085986L167.6048828125,56.1504396043332L168.618671875,58.35293369707971L169.6324609375,57.755367735105544L170.64625,55.43497917094789L171.6600390625,60.5298263012158L172.673828125,60.2737963481647L173.6876171875,60.52972514530614L174.70140625,74.70073993376775L175.71519531250001,73.70501597735365L176.728984375,70.0276736539983L177.7427734375,67.05680507466025L178.7565625,64.20887194493146L179.7703515625,61.72307253268352L180.784140625,63.31115184004886L181.7979296875,66.49015746716563L182.81171874999998,66.52761201002677L183.82550781249998,73.9806648673794L184.839296875,72.74991651669656L185.8530859375,70.90270904293833L186.86687500000002,70.27816630868448L187.88066406250002,69.28247896368022L188.894453125,69.85183596087683L189.9082421875,69.06906361621982L190.92203125,73.08436269500146L191.9358203125,72.82373623524761L192.949609375,73.77632392107996L193.9633984375,73.91135994119365L194.97718749999999,72.34221108550199L195.99097656249998,158.93479804978776L197.00476562499998,148.89477846453457L198.0185546875,143.8835932366765L199.03234375,134.11257593735064L200.04613281250002,121.59355564232098L201.05992187500001,112.84817428158163L202.0737109375,163.88458212719175L203.0875,148.96308982551594L204.1012890625,134.7031483148057L205.115078125,121.49278883550072L206.1288671875,110.04183612674099L207.14265625,105.19801628871318L208.1564453125,99.15225959196374L209.170234375,91.77968183442096L210.1840234375,85.05484915565356L211.1978125,79.90122727033311L212.2116015625,74.5953005813855L213.225390625,70.05979262022478L214.2391796875,65.19394610780519L215.25296875,61.95088764463901L216.2667578125,60.68793805361429L217.280546875,57.67718415315343L218.2943359375,54.1888002874419L219.30812500000002,53.934927535154884L220.3219140625,51.53264076128823L221.335703125,48.86347129316068L222.3494921875,46.49666449644884L223.36328125,45.77274017182332L224.3770703125,43.766635123786024L225.390859375,42.16760023062927L226.4046484375,43.371780596255874L227.41843749999998,43.09364136998623" style="fill: none;" fill="none"></path></g><g><path stroke="rgb(0, 119, 187)" stroke-width="2px" d="M21.6192578125,16.086222095830095L22.633046874999998,20.111537717659033L23.6468359375,20.78370479783166L24.660625,21.316644755935624L25.6744140625,21.692750588017127L26.688203125,22.107793224436808L27.7019921875,22.21730087045379L28.715781250000003,21.922123264157744L29.729570312499998,21.946843590382606L30.743359375,21.582541434293834L31.757148437500003,21.930148926025232L32.7709375,22.570814777705035L33.7847265625,22.56532904145776L34.798515625,22.861916996501918L35.8123046875,23.6452898023059L36.82609375,23.60060360901326L37.8398828125,23.472820037800897L38.853671875,23.461152483008178L39.8674609375,22.66414686310047L40.88125,21.954474950130468L41.8950390625,21.12093489242268L42.908828125,20.31219826903398L43.9226171875,19.971754773237457L44.93640625,19.54930255639056L45.9501953125,19.11001288822054L46.963984375,19.069553470659905L47.9777734375,18.72026967662666L48.9915625,18.341306817496427L50.005351562499996,17.864901507100903L51.019140625,18.16264519219939L52.0329296875,18.06338702856038L53.04671875,18.144559054293907L54.060507812500006,18.20579105001198L55.074296875,18.199549438825077L56.0880859375,18.230587407935893L57.101875,18.003438533823715L58.1156640625,18.056060032003735L59.129453125,18.02759020139699L60.1432421875,17.88262465177709L61.157031249999996,18.298867634249802L62.170820312500005,18.307738829924308L63.184609375,18.45441402992172L64.1983984375,18.496063679079874L65.2121875,18.636234852672025L66.2259765625,18.39446297230458L67.239765625,18.341630053425476L68.2535546875,17.955509984202056L69.26734375000001,18.4035855851726L70.2811328125,18.046942455117286L71.294921875,17.823483048273506L72.3087109375,17.674955223031425L73.32249999999999,17.456705145147264L74.3362890625,17.128494226033627L75.35007812500001,17.07554949507707L76.3638671875,17.027762664814862L77.37765625,17.184828246241015L78.3914453125,17.175960570701335L79.40523437499999,17.156591944735325L80.4190234375,17.71402647041128L81.4328125,18.46272298752302L82.4466015625,18.17017487873949L83.460390625,18.124465185744732L84.4741796875,18.008345330685156L85.48796875000001,17.704603205189308L86.5017578125,17.398694366635514L87.515546875,17.191343989694715L88.5293359375,16.89574085388323L89.54312499999999,16.63903518763991L90.5569140625,16.60217343706133L91.57070312500001,16.670178267327213L92.5844921875,16.69060390713797L93.59828125,16.503422812242263L94.6120703125,16.414168544527584L95.62585937499999,16.420086331247973L96.6396484375,16.56826938429006L97.65343750000001,16.731938631274712L98.6672265625,16.624689076447616L99.681015625,16.808192295406727L100.6948046875,17.14249698415005L101.70859375,17.51763252027642L102.7223828125,17.49467224698339L103.736171875,17.861531232543502L104.74996093749999,18.39121742897119L105.76375,18.55096237748528L106.7775390625,18.348800238716542L107.791328125,18.278237409291375L108.8051171875,18.304157412413524L109.81890625,18.583671383106516L110.8326953125,18.83141126961303L111.84648437499999,18.726024428416437L112.86027343750001,18.689612511047557L113.87406250000001,18.60224092542389L114.8878515625,18.55151697558377L115.901640625,18.248331010258767L116.9154296875,18.18758998591868L117.92921874999999,18.358694762425113L118.9430078125,18.424570791996246L119.95679687500001,18.621492201868907L120.9705859375,18.21542476964793L121.984375,17.94752289066957L122.9981640625,17.837623904836935L124.01195312500002,18.11442399924062L125.02574218750001,18.544829165177593L126.03953125000001,18.244857700796423L127.0533203125,18.30202373059269L128.067109375,18.6311644917615L129.0808984375,18.5422141548177L130.0946875,18.564973444537053L131.1084765625,18.49486830013221L132.122265625,18.541114001560352L133.1360546875,18.57696782420544L134.14984375,18.487742995317486L135.1636328125,18.297298376609355L136.177421875,18.44898066679112L137.1912109375,18.54961181717644L138.20499999999998,18.767584009929678L139.2187890625,18.833129425562085L140.232578125,19.062033267288477L141.2463671875,19.463919128800725L142.26015625,20.118601311119054L143.27394531250002,21.08567792861594L144.287734375,21.254372297506055L145.3015234375,21.271223909422208L146.3153125,21.33175282287079L147.3291015625,21.01894141844183L148.342890625,20.441074835062523L149.3566796875,20.3152281013556L150.37046875,20.10423513205644L151.38425781249998,20.035799814711456L152.39804687499998,20.18466682365544L153.4118359375,20.207171858251773L154.42562500000003,20.440771745090373L155.43941406250002,20.274004224664303L156.45320312500002,20.066671469620665L157.4669921875,20.188634761325602L158.48078125,20.092389461087922L159.4945703125,19.95151842451091L160.508359375,19.609814272930763L161.5221484375,19.5399232087556L162.5359375,18.999266780513153L163.54972656249998,18.596980925615952L164.563515625,18.212490400029065L165.5773046875,17.862581633704103L166.59109375,17.578840149011963L167.6048828125,17.664442324951636L168.618671875,17.50688905303269L169.6324609375,17.40665850305176L170.64625,17.183195366727308L171.6600390625,16.95157159560902L172.673828125,16.81411663389731L173.6876171875,16.640356346754302L174.70140625,16.629858224549142L175.71519531250001,16.377481933357203L176.728984375,16.089764474231266L177.7427734375,16.15042332999402L178.7565625,16.058692304112686L179.7703515625,16.01006129655316L180.784140625,15.874137711701104L181.7979296875,16.01861681341857L182.81171874999998,16.107352516240603L183.82550781249998,16.065167077285878L184.839296875,16.260251368052472L185.8530859375,16.279705559431417L186.86687500000002,16.5974242030011L187.88066406250002,16.468436945688403L188.894453125,16.426336034392833L189.9082421875,16.217185029256623L190.92203125,16.105843779218393L191.9358203125,16.156198997445728L192.949609375,16.41366128453917L193.9633984375,16.602964864043233L194.97718749999999,16.719850790190453L195.99097656249998,19.889555041068494L197.00476562499998,19.715463560044462L198.0185546875,19.333320548692775L199.03234375,19.160561376059086L200.04613281250002,18.74989229365773L201.05992187500001,18.51725337544686L202.0737109375,18.397171235546665L203.0875,18.299169927112782L204.1012890625,18.84385494857917L205.115078125,18.544371857852912L206.1288671875,19.1294816812528L207.14265625,19.036499953046906L208.1564453125,19.348801467348316L209.170234375,19.576779790614168L210.1840234375,19.83925631081065L211.1978125,20.486532928949714L212.2116015625,20.798214137218736L213.225390625,21.274480677200366L214.2391796875,21.578651372865615L215.25296875,21.726230198145032L216.2667578125,21.70197843428181L217.280546875,21.543397212511806L218.2943359375,21.439780239822586L219.30812500000002,21.709623665574696L220.3219140625,22.12595231533519L221.335703125,22.376378811823184L222.3494921875,22.48029341460548L223.36328125,22.576298527966863L224.3770703125,22.974488293280622L225.390859375,22.736826411381372L226.4046484375,22.784956341510036L227.41843749999998,23.52061946935227" style="fill: none;" fill="none"></path></g><g><path stroke="rgb(255, 112, 67)" stroke-width="2px" d="M21.6192578125,13.066330227170665L22.633046874999998,15.18463152607436L23.6468359375,16.03158108886339L24.660625,16.54728286338509L25.6744140625,17.17447858093627L26.688203125,18.06384021717203L27.7019921875,18.493961718569867L28.715781250000003,18.59568203620437L29.729570312499998,18.151323972970367L30.743359375,17.957540119159916L31.757148437500003,17.68653502597557L32.7709375,17.71553684929697L33.7847265625,17.432832146863735L34.798515625,17.420793002264734L35.8123046875,17.564411228692872L36.82609375,17.615872514221355L37.8398828125,17.70841114910109L38.853671875,17.503492879224666L39.8674609375,17.481231220802538L40.88125,17.423139673401998L41.8950390625,17.371856057207008L42.908828125,17.124274336297066L43.9226171875,17.173189331409244L44.93640625,17.192407592648177L45.9501953125,17.18112456797082L46.963984375,16.99570554986258L47.9777734375,16.817191726925717L48.9915625,16.697153990061476L50.005351562499996,16.537693290127216L51.019140625,16.257441525351368L52.0329296875,15.917856217860102L53.04671875,15.472579059982206L54.060507812500006,14.995804146857788L55.074296875,14.802118783346256L56.0880859375,14.654201318688425L57.101875,14.406843461304476L58.1156640625,14.313845645178889L59.129453125,14.250192219728747L60.1432421875,14.358587424488942L61.157031249999996,14.299881498656848L62.170820312500005,14.246975444506388L63.184609375,14.278579306877182L64.1983984375,14.169693319106758L65.2121875,14.075585299392266L66.2259765625,14.284159174349353L67.239765625,14.276134388677113L68.2535546875,14.306009012504164L69.26734375000001,14.277072036109036L70.2811328125,14.232213171320197L71.294921875,14.263386895040549L72.3087109375,14.188360939039736L73.32249999999999,14.25502778170021L74.3362890625,14.373232764583152L75.35007812500001,14.557461481573258L76.3638671875,14.687534408680559L77.37765625,14.990925452011629L78.3914453125,15.41723530533838L79.40523437499999,15.83191857962938L80.4190234375,16.422545582628064L81.4328125,16.80657826039608L82.4466015625,17.137391644581957L83.460390625,17.525947300988474L84.4741796875,17.955699004540026L85.48796875000001,18.004761493067658L86.5017578125,18.2099741786643L87.515546875,18.29879975627313L88.5293359375,18.456474484682143L89.54312499999999,18.616086169551032L90.5569140625,18.272397352995167L91.57070312500001,17.928481456524935L92.5844921875,17.691858118564934L93.59828125,17.489223681271096L94.6120703125,17.255110164384508L95.62585937499999,17.061125030840223L96.6396484375,17.04677306447619L97.65343750000001,16.87124851442246L98.6672265625,17.045250432152528L99.681015625,17.086753900271884L100.6948046875,16.949492205289427L101.70859375,16.925945463544082L102.7223828125,16.79836087135896L103.736171875,16.626999535470468L104.74996093749999,16.42232643267302L105.76375,16.351512322160524L106.7775390625,16.31426381160443L107.791328125,16.20955213954419L108.8051171875,15.996905334084374L109.81890625,15.722917920327934L110.8326953125,15.610281761389881L111.84648437499999,15.529415148699435L112.86027343750001,15.298513075076151L113.87406250000001,15.259713593461617L114.8878515625,15.053200708713657L115.901640625,14.88474171451896L116.9154296875,14.766072850100832L117.92921874999999,14.794742697559128L118.9430078125,14.978346288958209L119.95679687500001,15.140320621093688L120.9705859375,15.112072624795584L121.984375,14.96061730315559L122.9981640625,14.651045305120753L124.01195312500002,14.384930185829395L125.02574218750001,14.497259849689243L126.03953125000001,14.4078788081709L127.0533203125,14.328066073365688L128.067109375,14.286945639990805L129.0808984375,14.319545704284305L130.0946875,14.416357961737944L131.1084765625,14.500761598913591L132.122265625,14.514735079745373L133.1360546875,14.369906331660296L134.14984375,14.588863958519305L135.1636328125,14.79472060050725L136.177421875,14.92898442673849L137.1912109375,14.995443240560858L138.20499999999998,14.866000913593636L139.2187890625,14.724166160338324L140.232578125,14.628374321528254L141.2463671875,14.950929244661697L142.26015625,14.95479488813074L143.27394531250002,14.90991774694671L144.287734375,14.85071837275695L145.3015234375,14.883323224218389L146.3153125,14.755239948860396L147.3291015625,14.705164723827329L148.342890625,14.645395373940913L149.3566796875,14.579881907096782L150.37046875,14.739859489858071L151.38425781249998,14.695994974940163L152.39804687499998,14.817724222166037L153.4118359375,14.874654383343268L154.42562500000003,14.818414072396587L155.43941406250002,14.765744140294494L156.45320312500002,14.687317940706835L157.4669921875,14.531664452301396L158.48078125,14.696143608389285L159.4945703125,14.880582156012613L160.508359375,15.127811451915665L161.5221484375,15.41502636788393L162.5359375,15.645453494001107L163.54972656249998,15.824751240243897L164.563515625,16.008358579328167L165.5773046875,16.037861341261785L166.59109375,15.954933995363549L167.6048828125,15.767638196444214L168.618671875,15.847995558529735L169.6324609375,15.76309123256308L170.64625,15.9702987185338L171.6600390625,16.010511493725964L172.673828125,16.200771475407755L173.6876171875,16.283064525758043L174.70140625,16.487890265578898L175.71519531250001,16.54324057850749L176.728984375,16.39733491071632L177.7427734375,16.05281287413866L178.7565625,15.512954790528871L179.7703515625,15.158542655070613L180.784140625,14.773791556709272L181.7979296875,14.42097769479907L182.81171874999998,14.309186694145607L183.82550781249998,14.305618188393465L184.839296875,14.094717798796136L185.8530859375,13.993612065410414L186.86687500000002,13.817998645965076L187.88066406250002,13.655125814946924L188.894453125,13.56581726123602L189.9082421875,13.532347833073903L190.92203125,13.468314537751127L191.9358203125,13.409352910637427L192.949609375,13.504903301374124L193.9633984375,13.613627110517863L194.97718749999999,13.558073636011137L195.99097656249998,13.565915175981349L197.00476562499998,13.460977302946725L198.0185546875,13.48750791675429L199.03234375,13.454252141088434L200.04613281250002,13.424463017451298L201.05992187500001,13.514630284712688L202.0737109375,13.542599586173989L203.0875,13.398974793532656L204.1012890625,13.305135534332761L205.115078125,13.309993768940807L206.1288671875,13.427607695366955L207.14265625,13.620016519045691L208.1564453125,13.604692155441258L209.170234375,13.508460113864222L210.1840234375,13.378597705110684L211.1978125,13.41645207791405L212.2116015625,13.563670880910648L213.225390625,13.323410310009475L214.2391796875,13.405280083703596L215.25296875,13.548889035288939L216.2667578125,13.68611217831025L217.280546875,13.597350497924124L218.2943359375,13.672727201714787L219.30812500000002,13.647014519519951L220.3219140625,13.512415935058925L221.335703125,13.491632340113915L222.3494921875,13.3897010284741L223.36328125,13.354660598697714L224.3770703125,13.422987325257015L225.390859375,13.460704268034336L226.4046484375,13.553740130371365L227.41843749999998,13.727562876734508" style="fill: none;" fill="none"></path></g></g></g></g><g opacity="0.2"><g><g><g><path stroke="rgb(51, 187, 238)" stroke-width="2px" d="M21.6192578125,13.5221079146862L22.633046874999998,16.620224943161002L23.6468359375,18.70375777295657L24.660625,16.044676971265243L25.6744140625,17.081635181563232L26.688203125,18.194246205602365L27.7019921875,21.714526876040868L28.715781250000003,19.89645669017519L29.729570312499998,20.245721124240326L30.743359375,20.7163524712835L31.757148437500003,25.061129835673732L32.7709375,25.603243093490605L33.7847265625,23.893161307062417L34.798515625,23.959120579787655L35.8123046875,22.29253342458181L36.82609375,22.339506700720097L37.8398828125,18.75617077044078L38.853671875,19.33912339670318L39.8674609375,19.400302425112034L40.88125,17.25933145999909L41.8950390625,19.380755294561382L42.908828125,19.924567380632677L43.9226171875,19.62573172807694L44.93640625,19.030385947227487L45.9501953125,18.601625606673096L46.963984375,19.995351248468676L47.9777734375,19.921844627516606L48.9915625,20.29402492421013L50.005351562499996,19.184283203738072L51.019140625,20.41939112186432L52.0329296875,16.85497176953724L53.04671875,15.343300010817387L54.060507812500006,15.72457993354116L55.074296875,15.367752724885932L56.0880859375,16.60228986757142L57.101875,16.821795447043L58.1156640625,17.14720108202525L59.129453125,16.14221400959152L60.1432421875,17.68465943472725L61.157031249999996,16.725074077674325L62.170820312500005,16.813939571550915L63.184609375,15.740118137938644L64.1983984375,16.543366944789895L65.2121875,16.32517646278653L66.2259765625,15.115388991662439L67.239765625,15.317165823153083L68.2535546875,15.15592368943351L69.26734375000001,14.449153286729542L70.2811328125,14.716206774371004L71.294921875,16.978135853835514L72.3087109375,15.630590958765566L73.32249999999999,14.945058801685061L74.3362890625,16.348371928249087L75.35007812500001,16.64454846143722L76.3638671875,15.486761332580013L77.37765625,16.239552433490758L78.3914453125,16.612131887333742L79.40523437499999,18.144625379868916L80.4190234375,17.118440556015287L81.4328125,17.60358425429889L82.4466015625,16.874842853716437L83.460390625,16.594900639568056L84.4741796875,15.732672989368439L85.48796875000001,15.925392617327828L86.5017578125,18.319269166673937L87.515546875,16.577306872265684L88.5293359375,16.07540821518217L89.54312499999999,15.862576466117595L90.5569140625,16.70145438722202L91.57070312500001,16.216696348020005L92.5844921875,15.53521553959166L93.59828125,15.279429082018993L94.6120703125,14.434941749572756L95.62585937499999,15.118586105448859L96.6396484375,16.190621937513356L97.65343750000001,16.946615937096723L98.6672265625,17.032448222296587L99.681015625,15.803308378458025L100.6948046875,16.59750769495965L101.70859375,15.934204927342279L102.7223828125,15.45435247165816L103.736171875,16.063418074335367L104.74996093749999,15.209273838485997L105.76375,15.183050949232912L106.7775390625,16.08296327659061L107.791328125,15.352139316967556L108.8051171875,16.11554375580378L109.81890625,16.678825840609406L110.8326953125,15.831810512883322L111.84648437499999,17.344419423171452L112.86027343750001,19.341556905508046L113.87406250000001,19.150507181371957L114.8878515625,18.034886088200974L115.901640625,18.104086825507032L116.9154296875,17.289337664842606L117.92921874999999,15.781260248763223L118.9430078125,16.67876606345177L119.95679687500001,16.977636425324853L120.9705859375,17.598564901351924L121.984375,19.025434084619803L122.9981640625,19.720048513071873L124.01195312500002,19.146363274540224L125.02574218750001,19.212833545548584L126.03953125000001,19.758197909423288L127.0533203125,17.615281294243676L128.067109375,17.82049241985593L129.0808984375,16.798582626921785L130.0946875,17.011329530988412L131.1084765625,16.594476414578306L132.122265625,18.46519484996796L133.1360546875,17.483482303108488L134.14984375,16.115055897065563L135.1636328125,16.475606644153586L136.177421875,16.038876658678063L137.1912109375,17.18182555437089L138.20499999999998,16.596761444636762L139.2187890625,17.17434955307415L140.232578125,15.1559931080682L141.2463671875,15.991739477430063L142.26015625,16.123280076980596L143.27394531250002,16.175184004477092L144.287734375,15.372245653186521L145.3015234375,16.33406011973108L146.3153125,16.07880587169103L147.3291015625,16.606335431337357L148.342890625,16.911794778619498L149.3566796875,15.693561373608455L150.37046875,16.00112256288529L151.38425781249998,16.995235977513445L152.39804687499998,17.033263891254144L153.4118359375,16.89971400788853L154.42562500000003,15.48881689548492L155.43941406250002,14.805232316766473L156.45320312500002,16.07156126584325L157.4669921875,15.377049037047788L158.48078125,15.13340698395456L159.4945703125,13.91848831874984L160.508359375,14.710460454055239L161.5221484375,14.114998975481308L162.5359375,15.385363846846987L163.54972656249998,16.193194283587587L164.563515625,16.76330639072826L165.5773046875,23.408788926942012L166.59109375,17.005189838409432L167.6048828125,16.883140308856973L168.618671875,15.999957872458873L169.6324609375,16.60729186585972L170.64625,15.923119157041816L171.6600390625,16.160050742115285L172.673828125,15.115649311542517L173.6876171875,15.263711546148581L174.70140625,14.96232668706348L175.71519531250001,15.02418447545596L176.728984375,15.059157969270434L177.7427734375,16.408899192810054L178.7565625,14.852618248122088L179.7703515625,15.737117710283833L180.784140625,16.694165430579858L181.7979296875,15.112326858554566L182.81171874999998,15.363921201910287L183.82550781249998,14.754757256167284L184.839296875,16.001164985384264L185.8530859375,15.551831661122188L186.86687500000002,15.591116823468896L187.88066406250002,16.138353562184747L188.894453125,15.671461179937626L189.9082421875,17.18943075145993L190.92203125,16.85663203188352L191.9358203125,15.463847398247031L192.949609375,16.392097954920356L193.9633984375,16.25951029096331L194.97718749999999,15.459454741307665L195.99097656249998,15.568085263116012L197.00476562499998,16.02826910563878L198.0185546875,17.103409493310107L199.03234375,17.396525821685795L200.04613281250002,16.05442064796175L201.05992187500001,16.752176269633438L202.0737109375,16.90037734150886L203.0875,15.013802532979414L204.1012890625,14.708298834902891L205.115078125,14.618852924108507L206.1288671875,15.303409363712577L207.14265625,15.283559490782876L208.1564453125,16.226324326992035L209.170234375,15.291629407065253L210.1840234375,14.401441473449971L211.1978125,15.525595273801256L212.2116015625,15.037906225579121L213.225390625,16.275021499225076L214.2391796875,15.22632382648331L215.25296875,15.284843735524582L216.2667578125,15.374952979939316L217.280546875,15.176579589843756L218.2943359375,16.216923886878146L219.30812500000002,17.268594991139008L220.3219140625,17.389616739239003L221.335703125,16.76444408501898L222.3494921875,17.798774028675897L223.36328125,17.535343808106013L224.3770703125,19.24397165979658L225.390859375,19.90309002637863L226.4046484375,21.984900888374874L227.41843749999998,21.092705599239903" style="fill: none;" fill="none"></path></g><g><path stroke="rgb(204, 51, 17)" stroke-width="2px" d="M21.6192578125,44.154640461376744L22.633046874999998,191.19550326892306L23.6468359375,47.28276755128587L24.660625,63.164563337734755L25.6744140625,46.58731624262673L26.688203125,113.79921737807138L27.7019921875,46.631431784970424L28.715781250000003,57.23600367954799L29.729570312499998,66.46814217022488L30.743359375,38.058292106560295L31.757148437500003,63.09464334624155L32.7709375,63.5490268761771L33.7847265625,55.65962989670889L34.798515625,66.14918668338231L35.8123046875,198.20021374157497L36.82609375,51.512290699141374L37.8398828125,96.88755758013043L38.853671875,55.143340370995666L39.8674609375,78.56370678356716L40.88125,67.38073496818542L41.8950390625,85.49296691349575L42.908828125,71.33528319086348L43.9226171875,91.7521366759709L44.93640625,60.43007075922829L45.9501953125,73.11880217960903L46.963984375,50.85783109426499L47.9777734375,52.061118281568795L48.9915625,51.044536368846884L50.005351562499996,50.09669047423772L51.019140625,102.31636477402279L52.0329296875,35.923190872669224L53.04671875,49.65882472276688L54.060507812500006,46.363313878263746L55.074296875,39.25149430888039L56.0880859375,83.0349687569482L57.101875,35.35173667192459L58.1156640625,55.18777601037707L59.129453125,44.537561363492685L60.1432421875,110.78877030032021L61.157031249999996,79.84630090441021L62.170820312500005,59.17130265644618L63.184609375,57.20073129994528L64.1983984375,43.3560831972531L65.2121875,52.0254833824294L66.2259765625,33.9259743302209L67.239765625,140.8630131190164L68.2535546875,49.927972339221405L69.26734375000001,42.19890926633562L70.2811328125,50.6904743358067L71.294921875,70.86564298766L72.3087109375,222.75451041221618L73.32249999999999,43.6896744462422L74.3362890625,52.775786982263845L75.35007812500001,59.88663854735239L76.3638671875,81.91205292224883L77.37765625,77.84210007599421L78.3914453125,56.91572923864637L79.40523437499999,45.87329930577959L80.4190234375,49.027115147113804L81.4328125,41.794410738604405L82.4466015625,49.19349618809563L83.460390625,61.28041046823774L84.4741796875,112.57974022252219L85.48796875000001,49.90803762129376L86.5017578125,62.69830922126769L87.515546875,42.92102504389628L88.5293359375,49.411007910115366L89.54312499999999,64.15176574162075L90.5569140625,63.60686802523477L91.57070312500001,49.52953637225288L92.5844921875,53.99838026319232L93.59828125,54.95260110242025L94.6120703125,58.79413578782763L95.62585937499999,37.270467734677446L96.6396484375,81.39226932525635L97.65343750000001,35.39487649679183L98.6672265625,102.97369753905704L99.681015625,37.849446144104L100.6948046875,48.57921454633985L101.70859375,55.07122983591896L102.7223828125,55.82662027903966L103.736171875,39.73000852755139L104.74996093749999,57.366371875490465L105.76375,37.30435945476804L106.7775390625,47.911858501774915L107.791328125,44.497290842192506L108.8051171875,53.684507763045175L109.81890625,62.57394188063485L110.8326953125,40.36057655232293L111.84648437499999,90.61212843077524L112.86027343750001,47.72779499190194L113.87406250000001,36.09286929879869L114.8878515625,77.83466456890106L115.901640625,44.41962681634086L116.9154296875,44.45993976014001L117.92921874999999,54.93756811141969L118.9430078125,41.73511179821833L119.95679687500001,53.53954622745515L120.9705859375,40.55045965773718L121.984375,67.45638585363115L122.9981640625,64.69585357393538L124.01195312500002,57.01037769045148L125.02574218750001,49.20149090085712L126.03953125000001,40.31880967378616L127.0533203125,52.49728713308062L128.067109375,39.9043187192508L129.0808984375,31.06303799458912L130.0946875,57.973831208092825L131.1084765625,36.910038470200135L132.122265625,32.18437648364476L133.1360546875,36.42451296942574L134.14984375,86.4757882302148L135.1636328125,91.41694494179316L136.177421875,55.7598858315604L137.1912109375,41.47024499756948L138.20499999999998,33.93991204942976L139.2187890625,61.78190611158098L140.232578125,63.35320462090629L141.2463671875,37.86807347774506L142.26015625,287.8111094910758L143.27394531250002,109.192010578428L144.287734375,51.630414219243185L145.3015234375,39.36902777058737L146.3153125,102.28984685557229L147.3291015625,45.36685565641948L148.342890625,42.66415295600892L149.3566796875,47.23769943101065L150.37046875,49.21993311813899L151.38425781249998,39.805065498011444L152.39804687499998,74.9897192294257L153.4118359375,62.50961394582477L154.42562500000003,44.53868748801094L155.43941406250002,90.498790939876L156.45320312500002,59.742918834005096L157.4669921875,42.4768421966689L158.48078125,42.13790956939969L159.4945703125,86.23339378425052L160.508359375,38.63331365380968L161.5221484375,98.61193189212254L162.5359375,53.98566893986293L163.54972656249998,45.64214682204383L164.563515625,61.62872232437134L165.5773046875,50.7235176059178L166.59109375,48.23659887484141L167.6048828125,48.42927800859723L168.618671875,70.83373355524881L169.6324609375,54.36916061741965L170.64625,42.28611064127513L171.6600390625,89.40062670503345L172.673828125,58.822959947586064L173.6876171875,61.97998832906995L174.70140625,155.0031570666177L175.71519531250001,68.0625802244459L176.728984375,49.18940048864909L177.7427734375,50.221883125305176L178.7565625,48.0705842099871L179.7703515625,47.63687586341587L180.784140625,72.31026791504452L181.7979296875,84.50452268736704L182.81171874999998,66.73985441957201L183.82550781249998,116.21463105882917L184.839296875,65.77567586285727L185.8530859375,60.435200025013515L186.86687500000002,66.73909081459045L187.88066406250002,63.64025067533765L188.894453125,73.07819227831705L189.9082421875,64.63335366317204L190.92203125,95.83772414139338L191.9358203125,71.34685296331133L192.949609375,79.17432080745697L193.9633984375,74.67656405517033L194.97718749999999,63.4503675699234L195.99097656249998,649.6261241803851L197.00476562499998,92.0013341481345L198.0185546875,115.48687694549561L199.03234375,78.74347790786199L200.04613281250002,50.65244063717978L201.05992187500001,63.29101323740823L202.0737109375,453.09089325223647L203.0875,64.40796678270613L204.1012890625,53.89681308746338L205.115078125,46.634085119451804L206.1288671875,45.15310411044529L207.14265625,77.74970387322561L208.1564453125,64.89297164372036L209.170234375,50.00174120834896L210.1840234375,46.9474639759745L211.1978125,50.69736992018563L212.2116015625,44.528382677350734L213.225390625,44.35858084031514L214.2391796875,37.62081587076187L215.25296875,43.57355635336467L216.2667578125,53.53122370447432L217.280546875,40.616245383875714L218.2943359375,34.421291715077004L219.30812500000002,52.496315272195L220.3219140625,37.91968237604413L221.335703125,33.73817764043809L222.3494921875,33.08475931508202L223.36328125,41.67050233227865L224.3770703125,32.39870651824133L225.390859375,33.10640250274114L226.4046484375,50.1954693348067L227.41843749999998,41.517519087791435" style="fill: none;" fill="none"></path></g><g><path stroke="rgb(0, 119, 187)" stroke-width="2px" d="M21.6192578125,16.086222095830095L22.633046874999998,23.53305599621364L23.6468359375,21.840687531403137L24.660625,22.48198459182466L25.6744140625,22.711482598100385L26.688203125,23.416147302218846L27.7019921875,22.603806582518978L28.715781250000003,20.78567083460944L29.729570312499998,22.048754462514605L30.743359375,19.996307682991024L31.757148437500003,23.51212627785547L32.7709375,25.59372502735683L33.7847265625,22.538664907046726L34.798515625,24.339380434240613L35.8123046875,27.62819623708724L36.82609375,23.369501836299897L37.8398828125,22.802478858402793L38.853671875,23.399209155355177L39.8674609375,18.390068460873195L40.88125,18.116377780437478L41.8950390625,16.580617755481175L42.908828125,15.880341851711265L43.9226171875,18.096599254437855L44.93640625,17.21238903658731L45.9501953125,16.671070236478542L46.963984375,18.844226380246035L47.9777734375,16.76992815715926L48.9915625,16.220533655881873L50.005351562499996,15.193783841473724L51.019140625,19.83471267121178L52.0329296875,17.5052161206518L53.04671875,18.601550403152185L54.060507812500006,18.5508593734673L55.074296875,18.16434605700629L56.0880859375,18.405768642084944L57.101875,16.720619715281895L58.1156640625,18.35339035391808L59.129453125,17.866655811922882L60.1432421875,17.062861297471187L61.157031249999996,20.65340905257633L62.170820312500005,18.357933417899268L63.184609375,19.28451214245387L64.1983984375,18.73182218432427L65.2121875,19.429805344854078L66.2259765625,17.02549671735082L67.239765625,18.042443077904842L68.2535546875,15.768735970088418L69.26734375000001,20.94145782061986L70.2811328125,16.026792031356262L71.294921875,16.557653685467592L72.3087109375,16.833546479259223L73.32249999999999,16.220265622820165L74.3362890625,15.269029784883763L75.35007812500001,16.775583847590855L76.3638671875,16.757012434516643L77.37765625,18.07474973917007L78.3914453125,17.125716014589578L79.40523437499999,17.046846804107947L80.4190234375,20.87256753887448L81.4328125,22.705045948028573L82.4466015625,16.51249879189899L83.460390625,17.86545641217912L84.4741796875,17.350360501323436L85.48796875000001,15.983459376948229L86.5017578125,15.665263638496397L87.515546875,16.016388877630238L88.5293359375,15.220693203892022L89.54312499999999,15.184396899427682L90.5569140625,16.393293498073305L91.57070312500001,17.055533774920864L92.5844921875,16.806347872529702L93.59828125,15.442740276711321L94.6120703125,15.908398549897337L95.62585937499999,16.453620219911848L96.6396484375,17.407968326636723L97.65343750000001,17.659392979996554L98.6672265625,16.01694422670774L99.681015625,17.84804004805429L100.6948046875,19.03688430275236L101.70859375,19.643394914014003L102.7223828125,17.364564325298574L103.736171875,19.940394829341344L104.74996093749999,21.392767647675097L105.76375,19.456182497739796L106.7775390625,17.203216135331562L107.791328125,17.878381776298795L108.8051171875,18.451037305082593L109.81890625,20.167582737718305L110.8326953125,20.23526976312909L111.84648437499999,18.128832640477594L112.86027343750001,18.48327840430396L113.87406250000001,18.10713546054704L114.8878515625,18.26408135209765L115.901640625,16.53027767556055L116.9154296875,17.84339092782566L117.92921874999999,19.32828830480576L118.9430078125,18.79786823034286L119.95679687500001,19.73738003219876L120.9705859375,15.914376265662055L121.984375,16.429412399360103L122.9981640625,17.214863039595745L124.01195312500002,19.68295775089945L125.02574218750001,20.983791618006574L126.03953125000001,16.545019493954527L127.0533203125,18.625964551312574L128.067109375,20.49629539932523L129.0808984375,18.03816226209914L130.0946875,18.693942749329967L131.1084765625,18.09760582464082L132.122265625,18.803172971010213L133.1360546875,18.78013948236192L134.14984375,17.98213563902037L135.1636328125,17.218112217358172L136.177421875,19.30851363539695L137.1912109375,19.119854997566772L138.20499999999998,20.002759759426112L139.2187890625,19.20455344506673L140.232578125,20.35915502990996L141.2463671875,21.741272333349496L142.26015625,23.828466996124817L143.27394531250002,26.56577874251774L144.287734375,22.210307051794878L145.3015234375,21.366716376713352L146.3153125,21.67474999836513L147.3291015625,19.246343463148385L148.342890625,17.16649753417288L149.3566796875,19.60209661126136L150.37046875,18.908608307327547L151.38425781249998,19.647999683448255L152.39804687499998,21.028246540342067L153.4118359375,20.33470038754599L154.42562500000003,21.764504436424804L155.43941406250002,19.328988276038842L156.45320312500002,18.891785858188356L157.4669921875,20.879760080746237L158.48078125,19.546999426569258L159.4945703125,19.153249217442095L160.508359375,17.67349074772427L161.5221484375,19.143873845168514L162.5359375,15.935547020946235L163.54972656249998,16.31736108149801L164.563515625,16.03371075528009L165.5773046875,15.879765291384288L166.59109375,15.970971735886174L167.6048828125,18.149521321909777L168.618671875,16.614087178877426L169.6324609375,16.83868538652148L170.64625,15.916904260941923L171.6600390625,15.639036892652518L172.673828125,16.035205184221272L173.6876171875,15.65571471963609L174.70140625,16.570368865387785L175.71519531250001,14.947349616629737L176.728984375,14.459365539210179L177.7427734375,16.494156845978324L178.7565625,15.538883157457633L179.7703515625,15.73448558705193L180.784140625,15.103904064212518L181.7979296875,16.83733172314508L182.81171874999998,16.610188165562498L183.82550781249998,15.826116256543564L184.839296875,17.36572901572499L185.8530859375,16.389945977245063L186.86687500000002,18.3978298498903L187.88066406250002,15.737509154251644L188.894453125,16.18776420371874L189.9082421875,15.031996000153686L190.92203125,15.474910029002592L191.9358203125,16.4415452340671L192.949609375,17.872614244733533L193.9633984375,17.675685147898538L194.97718749999999,17.382204371690754L195.99097656249998,37.85121246269771L197.00476562499998,18.728945167575564L198.0185546875,17.167843484367648L199.03234375,18.181592731135236L200.04613281250002,16.42276749338422L201.05992187500001,17.198966172252387L202.0737109375,17.716705776112416L203.0875,17.743829179321025L204.1012890625,21.930403403554635L205.115078125,16.847301010404323L206.1288671875,22.445104013851715L207.14265625,18.509603493213653L208.1564453125,21.11851004838944L209.170234375,20.86865695578711L210.1840234375,21.32662325859069L211.1978125,24.15443376507077L212.2116015625,22.56440765074322L213.225390625,23.973324403762813L214.2391796875,23.30228531496865L215.25296875,22.562510208061763L216.2667578125,21.564551772390093L217.280546875,20.644770289148603L218.2943359375,20.852617394583557L219.30812500000002,23.238736411503375L220.3219140625,24.485147997311188L221.335703125,23.79546229192188L222.3494921875,23.069142830371852L223.36328125,23.120327503681178L224.3770703125,25.23089696339198L225.390859375,21.39007574728558L226.4046484375,23.057692612239297L227.41843749999998,27.689377193791525" style="fill: none;" fill="none"></path></g><g><path stroke="rgb(255, 112, 67)" stroke-width="2px" d="M21.6192578125,13.066330227170665L22.633046874999998,16.98518763014248L23.6468359375,17.363409276349213L24.660625,17.67492925609861L25.6744140625,18.873320501361583L26.688203125,20.86740742036275L27.7019921875,20.012069569655836L28.715781250000003,18.987311684404105L29.729570312499998,16.31943399906158L30.743359375,17.113772152832585L31.757148437500003,16.453178640263417L32.7709375,17.852378712722242L33.7847265625,16.0587091769491L34.798515625,17.360819575616283L35.8123046875,18.29461012499673L36.82609375,17.882012756552015L37.8398828125,18.193860546520778L38.853671875,16.415576879807873L39.8674609375,17.36184928536415L40.88125,17.108964912380483L41.8950390625,17.092512695959645L42.908828125,15.767532713753841L43.9226171875,17.442612081936428L44.93640625,17.298718822002407L45.9501953125,17.11848105021885L46.963984375,15.963067653008874L47.9777734375,15.82040078895433L48.9915625,16.025392088890076L50.005351562499996,15.643626235723493L51.019140625,14.683605083908356L52.0329296875,14.008223473855425L53.04671875,12.965707916191652L54.060507812500006,12.308974851029253L55.074296875,13.709711774928236L56.0880859375,13.819341153757922L57.101875,13.009894805465422L58.1156640625,13.788374657801226L59.129453125,13.890371843406134L60.1432421875,14.971549723999832L61.157031249999996,13.967802545513425L62.170820312500005,13.947624862364362L63.184609375,14.457439172097617L64.1983984375,13.5533424437046L65.2121875,13.54279852441379L66.2259765625,15.465150925942828L67.239765625,14.230690915073659L68.2535546875,14.4752026293959L69.26734375000001,14.113174808025356L70.2811328125,13.97811699765069L71.294921875,14.439976528882978L72.3087109375,13.763339598519464L73.32249999999999,14.632711583205621L74.3362890625,15.042917865344458L75.35007812500001,15.601234589474533L76.3638671875,15.42450053044728L77.37765625,16.709915747472227L78.3914453125,17.832721669333317L79.40523437499999,18.181567663294924L80.4190234375,19.769162197113033L81.4328125,18.98261435679028L82.4466015625,19.011891665969568L83.460390625,19.727653710160936L84.4741796875,20.390856206417084L85.48796875000001,18.282772319487155L86.5017578125,19.37281071748052L87.515546875,18.8021316914899L88.5293359375,19.34994499053273L89.54312499999999,19.520535500390185L90.5569140625,16.324858294044226L91.57070312500001,15.979650993517467L92.5844921875,16.351007908071786L93.59828125,16.34097305876869L94.6120703125,15.928477889980584L95.62585937499999,15.96188367962837L96.6396484375,16.96544574175563L97.65343750000001,15.876614456687655L98.6672265625,18.031257036243158L99.681015625,17.321939355305272L100.6948046875,16.171678363425382L101.70859375,16.79251428127288L102.7223828125,16.07538314734186L103.736171875,15.655953828266691L104.74996093749999,15.262514074700226L105.76375,15.95023291877337L106.7775390625,16.10318916712489L107.791328125,15.616186592067987L108.8051171875,14.791907795497343L109.81890625,14.170323699031549L110.8326953125,14.972010586602352L111.84648437499999,15.071171249662118L112.86027343750001,13.990068572589331L113.87406250000001,15.039849947350364L114.8878515625,13.882961404153273L115.901640625,13.930141007900247L116.9154296875,14.093616107702264L117.92921874999999,14.957205134459906L118.9430078125,16.018766465868264L119.95679687500001,16.05817503912108L120.9705859375,14.952000665153774L121.984375,14.102370568854468L122.9981640625,12.896804136378424L124.01195312500002,12.876944621971669L125.02574218750001,15.133794571331576L126.03953125000001,13.9013862667765L127.0533203125,13.875793930121828L128.067109375,14.05392985991069L129.0808984375,14.504279395852768L130.0946875,14.96496073859079L131.1084765625,14.979048864841452L132.122265625,14.593918136187964L133.1360546875,13.549210106645312L134.14984375,15.829623825890682L135.1636328125,15.961241557257516L136.177421875,15.689812767335349L137.1912109375,15.372043182168692L138.20499999999998,14.132494399717867L139.2187890625,13.920435897111897L140.232578125,14.085553904601515L141.2463671875,16.77874046717371L142.26015625,14.976700201034548L143.27394531250002,14.655613947766161L144.287734375,14.515255253314974L145.3015234375,15.068084048713954L146.3153125,14.029434723343172L147.3291015625,14.421405115808762L148.342890625,14.306702391760696L149.3566796875,14.208638928788044L150.37046875,15.646399124520165L151.38425781249998,14.447429390634811L152.39804687499998,15.507523289237701L153.4118359375,15.197258629798885L154.42562500000003,14.499718977212915L155.43941406250002,14.467281191859918L156.45320312500002,14.24290280989238L157.4669921875,13.649628018311088L158.48078125,15.628192159278044L159.4945703125,15.925733925615038L160.508359375,16.528777461733128L161.5221484375,17.042577558074683L162.5359375,16.951207208463124L163.54972656249998,16.840771802152915L164.563515625,17.048800167356223L165.5773046875,16.2050436588696L166.59109375,15.485012368644991L167.6048828125,14.706295335974012L168.618671875,16.30335394365446L169.6324609375,15.281966718775877L170.64625,17.144474472318368L171.6600390625,16.238383886473528L172.673828125,17.278911371571677L173.6876171875,16.749391811064303L174.70140625,17.648569457871577L175.71519531250001,16.85689235176358L176.728984375,15.570536126579562L177.7427734375,14.100521333558223L178.7565625,12.453758983441766L179.7703515625,13.150207220826822L180.784140625,12.593535332679755L181.7979296875,12.42169914398875L182.81171874999998,13.675704357113164L183.82550781249998,14.28539665579795L184.839296875,12.899615591083254L185.8530859375,13.420679576226643L186.86687500000002,12.822855935777941L187.88066406250002,12.732179772513245L188.894453125,13.059735456875384L189.9082421875,13.34268774015563L190.92203125,13.105459197589331L191.9358203125,13.075237023660117L192.949609375,14.046355515548159L193.9633984375,14.229728695665091L194.97718749999999,13.24327061380658L195.99097656249998,13.610350569146027L197.00476562499998,12.86632935575076L198.0185546875,13.637848061663764L199.03234375,13.265802745648786L200.04613281250002,13.255657983507433L201.05992187500001,14.025578132527215L202.0737109375,13.701092294454579L203.0875,12.585100968565264L204.1012890625,12.773379732200073L205.115078125,13.337523765053064L206.1288671875,14.0940866117818L207.14265625,14.710333186558321L208.1564453125,13.517854095016213L209.170234375,12.963145211594439L210.1840234375,12.642710722173959L211.1978125,13.630960190466466L212.2116015625,14.39791076455797L213.225390625,11.961933741569528L214.2391796875,13.8692088013036L215.25296875,14.362673094272605L216.2667578125,14.463709988764352L217.280546875,13.094367642402647L218.2943359375,14.099861856528689L219.30812500000002,13.50130932041576L220.3219140625,12.749690623113079L221.335703125,13.373858635425561L222.3494921875,12.81209026251521L223.36328125,13.156098163298209L224.3770703125,13.810172109092985L225.390859375,13.674433610439305L226.4046484375,14.080943350281043L227.41843749999998,14.71255843945912" style="fill: none;" fill="none"></path></g></g></g></g></g></g><g transform="translate(82, 176)" clip-path="url(#clip_1)"><clipPath id="clip_1"><rect width="247" height="23"></rect></clipPath><g><g><line x1="0" y1="0" x2="0" y2="5" style="visibility: inherit;" fill="rgb(0, 0, 0)" stroke="rgb(204, 204, 204)" stroke-width="1px"></line><line x1="20.60546875" y1="0" x2="20.60546875" y2="5" style="visibility: inherit;" fill="rgb(0, 0, 0)" stroke="rgb(204, 204, 204)" stroke-width="1px"></line><line x1="41.2109375" y1="0" x2="41.2109375" y2="5" style="visibility: inherit;" fill="rgb(0, 0, 0)" stroke="rgb(204, 204, 204)" stroke-width="1px"></line><line x1="61.81640625" y1="0" x2="61.81640625" y2="5" style="visibility: inherit;" fill="rgb(0, 0, 0)" stroke="rgb(204, 204, 204)" stroke-width="1px"></line><line x1="82.421875" y1="0" x2="82.421875" y2="5" style="visibility: inherit;" fill="rgb(0, 0, 0)" stroke="rgb(204, 204, 204)" stroke-width="1px"></line><line x1="103.02734375" y1="0" x2="103.02734375" y2="5" style="visibility: inherit;" fill="rgb(0, 0, 0)" stroke="rgb(204, 204, 204)" stroke-width="1px"></line><line x1="123.6328125" y1="0" x2="123.6328125" y2="5" style="visibility: inherit;" fill="rgb(0, 0, 0)" stroke="rgb(204, 204, 204)" stroke-width="1px"></line><line x1="144.23828125" y1="0" x2="144.23828125" y2="5" style="visibility: inherit;" fill="rgb(0, 0, 0)" stroke="rgb(204, 204, 204)" stroke-width="1px"></line><line x1="164.84375" y1="0" x2="164.84375" y2="5" style="visibility: inherit;" fill="rgb(0, 0, 0)" stroke="rgb(204, 204, 204)" stroke-width="1px"></line><line x1="185.44921875" y1="0" x2="185.44921875" y2="5" style="visibility: inherit;" fill="rgb(0, 0, 0)" stroke="rgb(204, 204, 204)" stroke-width="1px"></line><line x1="206.0546875" y1="0" x2="206.0546875" y2="5" style="visibility: inherit;" fill="rgb(0, 0, 0)" stroke="rgb(204, 204, 204)" stroke-width="1px"></line><line x1="226.66015625" y1="0" x2="226.66015625" y2="5" style="visibility: inherit;" fill="rgb(0, 0, 0)" stroke="rgb(204, 204, 204)" stroke-width="1px"></line><line x1="247.265625" y1="0" x2="247.265625" y2="5" style="visibility: inherit;" fill="rgb(0, 0, 0)" stroke="rgb(204, 204, 204)" stroke-width="1px"></line></g><g transform="translate(0, 8)"><text x="0" y="0" dx="0em" dy="0.95em" style="text-anchor: middle; visibility: hidden; font-family: Roboto, sans-serif; font-size: 12px; font-weight: 200;" fill="rgb(33, 33, 33)" stroke="none" stroke-width="1px">-10k</text><text x="20.60546875" y="0" dx="0em" dy="0.95em" style="text-anchor: middle; visibility: inherit; font-family: Roboto, sans-serif; font-size: 12px; font-weight: 200;" fill="rgb(33, 33, 33)" stroke="none" stroke-width="1px">0</text><text x="41.2109375" y="0" dx="0em" dy="0.95em" style="text-anchor: middle; visibility: hidden; font-family: Roboto, sans-serif; font-size: 12px; font-weight: 200;" fill="rgb(33, 33, 33)" stroke="none" stroke-width="1px">10k</text><text x="61.81640625" y="0" dx="0em" dy="0.95em" style="text-anchor: middle; visibility: inherit; font-family: Roboto, sans-serif; font-size: 12px; font-weight: 200;" fill="rgb(33, 33, 33)" stroke="none" stroke-width="1px">20k</text><text x="82.421875" y="0" dx="0em" dy="0.95em" style="text-anchor: middle; visibility: hidden; font-family: Roboto, sans-serif; font-size: 12px; font-weight: 200;" fill="rgb(33, 33, 33)" stroke="none" stroke-width="1px">30k</text><text x="103.02734375" y="0" dx="0em" dy="0.95em" style="text-anchor: middle; visibility: inherit; font-family: Roboto, sans-serif; font-size: 12px; font-weight: 200;" fill="rgb(33, 33, 33)" stroke="none" stroke-width="1px">40k</text><text x="123.6328125" y="0" dx="0em" dy="0.95em" style="text-anchor: middle; visibility: hidden; font-family: Roboto, sans-serif; font-size: 12px; font-weight: 200;" fill="rgb(33, 33, 33)" stroke="none" stroke-width="1px">50k</text><text x="144.23828125" y="0" dx="0em" dy="0.95em" style="text-anchor: middle; visibility: inherit; font-family: Roboto, sans-serif; font-size: 12px; font-weight: 200;" fill="rgb(33, 33, 33)" stroke="none" stroke-width="1px">60k</text><text x="164.84375" y="0" dx="0em" dy="0.95em" style="text-anchor: middle; visibility: hidden; font-family: Roboto, sans-serif; font-size: 12px; font-weight: 200;" fill="rgb(33, 33, 33)" stroke="none" stroke-width="1px">70k</text><text x="185.44921875" y="0" dx="0em" dy="0.95em" style="text-anchor: middle; visibility: inherit; font-family: Roboto, sans-serif; font-size: 12px; font-weight: 200;" fill="rgb(33, 33, 33)" stroke="none" stroke-width="1px">80k</text><text x="206.0546875" y="0" dx="0em" dy="0.95em" style="text-anchor: middle; visibility: hidden; font-family: Roboto, sans-serif; font-size: 12px; font-weight: 200;" fill="rgb(33, 33, 33)" stroke="none" stroke-width="1px">90k</text><text x="226.66015625" y="0" dx="0em" dy="0.95em" style="text-anchor: middle; visibility: inherit; font-family: Roboto, sans-serif; font-size: 12px; font-weight: 200;" fill="rgb(33, 33, 33)" stroke="none" stroke-width="1px">100k</text><text x="247.265625" y="0" dx="0em" dy="0.95em" style="text-anchor: middle; visibility: hidden; font-family: Roboto, sans-serif; font-size: 12px; font-weight: 200;" fill="rgb(33, 33, 33)" stroke="none" stroke-width="1px">110k</text></g><line x1="0" y1="0" x2="247.265625" y2="0" fill="rgb(0, 0, 0)" stroke="rgb(204, 204, 204)" stroke-width="1px"></line></g></g></g></g></svg>