<svg viewBox="0 0 330 200" xmlns="http://www.w3.org/2000/svg"><g><g><g><g><g><line x1="51.5625" y1="176.921875" x2="46.5625" y2="176.921875" style="visibility: inherit;" fill="rgb(0, 0, 0)" stroke="rgb(204, 204, 204)" stroke-width="1px"></line><line x1="51.5625" y1="160.8380681818182" x2="46.5625" y2="160.8380681818182" style="visibility: inherit;" fill="rgb(0, 0, 0)" stroke="rgb(204, 204, 204)" stroke-width="1px"></line><line x1="51.5625" y1="144.75426136363635" x2="46.5625" y2="144.75426136363635" style="visibility: inherit;" fill="rgb(0, 0, 0)" stroke="rgb(204, 204, 204)" stroke-width="1px"></line><line x1="51.5625" y1="128.67045454545456" x2="46.5625" y2="128.67045454545456" style="visibility: inherit;" fill="rgb(0, 0, 0)" stroke="rgb(204, 204, 204)" stroke-width="1px"></line><line x1="51.5625" y1="112.58664772727272" x2="46.5625" y2="112.58664772727272" style="visibility: inherit;" fill="rgb(0, 0, 0)" stroke="rgb(204, 204, 204)" stroke-width="1px"></line><line x1="51.5625" y1="96.5028409090909" x2="46.5625" y2="96.5028409090909" style="visibility: inherit;" fill="rgb(0, 0, 0)" stroke="rgb(204, 204, 204)" stroke-width="1px"></line><line x1="51.5625" y1="80.4190340909091" x2="46.5625" y2="80.4190340909091" style="visibility: inherit;" fill="rgb(0, 0, 0)" stroke="rgb(204, 204, 204)" stroke-width="1px"></line><line x1="51.5625" y1="64.33522727272728" x2="46.5625" y2="64.33522727272728" style="visibility: inherit;" fill="rgb(0, 0, 0)" stroke="rgb(204, 204, 204)" stroke-width="1px"></line><line x1="51.5625" y1="48.25142045454545" x2="46.5625" y2="48.25142045454545" style="visibility: inherit;" fill="rgb(0, 0, 0)" stroke="rgb(204, 204, 204)" stroke-width="1px"></line><line x1="51.5625" y1="32.167613636363626" x2="46.5625" y2="32.167613636363626" style="visibility: inherit;" fill="rgb(0, 0, 0)" stroke="rgb(204, 204, 204)" stroke-width="1px"></line><line x1="51.5625" y1="16.083806818181824" x2="46.5625" y2="16.083806818181824" style="visibility: inherit;" fill="rgb(0, 0, 0)" stroke="rgb(204, 204, 204)" stroke-width="1px"></line><line x1="51.5625" y1="0" x2="46.5625" y2="0" style="visibility: inherit;" fill="rgb(0, 0, 0)" stroke="rgb(204, 204, 204)" stroke-width="1px"></line></g><g transform="translate(41.5625, 0)"><text x="0" y="176.921875" dx="0em" dy="0.3em" style="text-anchor: end; visibility: hidden; font-family: Roboto, sans-serif; font-size: 12px; font-weight: 200;" fill="rgb(33, 33, 33)" stroke="none" stroke-width="1px">-600</text><text x="0" y="160.8380681818182" dx="0em" dy="0.3em" style="text-anchor: end; visibility: inherit; font-family: Roboto, sans-serif; font-size: 12px; font-weight: 200;" fill="rgb(33, 33, 33)" stroke="none" stroke-width="1px">-580</text><text x="0" y="144.75426136363635" dx="0em" dy="0.3em" style="text-anchor: end; visibility: hidden; font-family: Roboto, sans-serif; font-size: 12px; font-weight: 200;" fill="rgb(33, 33, 33)" stroke="none" stroke-width="1px">-560</text><text x="0" y="128.67045454545456" dx="0em" dy="0.3em" style="text-anchor: end; visibility: inherit; font-family: Roboto, sans-serif; font-size: 12px; font-weight: 200;" fill="rgb(33, 33, 33)" stroke="none" stroke-width="1px">-540</text><text x="0" y="112.58664772727272" dx="0em" dy="0.3em" style="text-anchor: end; visibility: hidden; font-family: Roboto, sans-serif; font-size: 12px; font-weight: 200;" fill="rgb(33, 33, 33)" stroke="none" stroke-width="1px">-520</text><text x="0" y="96.5028409090909" dx="0em" dy="0.3em" style="text-anchor: end; visibility: inherit; font-family: Roboto, sans-serif; font-size: 12px; font-weight: 200;" fill="rgb(33, 33, 33)" stroke="none" stroke-width="1px">-500</text><text x="0" y="80.4190340909091" dx="0em" dy="0.3em" style="text-anchor: end; visibility: hidden; font-family: Roboto, sans-serif; font-size: 12px; font-weight: 200;" fill="rgb(33, 33, 33)" stroke="none" stroke-width="1px">-480</text><text x="0" y="64.33522727272728" dx="0em" dy="0.3em" style="text-anchor: end; visibility: inherit; font-family: Roboto, sans-serif; font-size: 12px; font-weight: 200;" fill="rgb(33, 33, 33)" stroke="none" stroke-width="1px">-460</text><text x="0" y="48.25142045454545" dx="0em" dy="0.3em" style="text-anchor: end; visibility: hidden; font-family: Roboto, sans-serif; font-size: 12px; font-weight: 200;" fill="rgb(33, 33, 33)" stroke="none" stroke-width="1px">-440</text><text x="0" y="32.167613636363626" dx="0em" dy="0.3em" style="text-anchor: end; visibility: inherit; font-family: Roboto, sans-serif; font-size: 12px; font-weight: 200;" fill="rgb(33, 33, 33)" stroke="none" stroke-width="1px">-420</text><text x="0" y="16.083806818181824" dx="0em" dy="0.3em" style="text-anchor: end; visibility: hidden; font-family: Roboto, sans-serif; font-size: 12px; font-weight: 200;" fill="rgb(33, 33, 33)" stroke="none" stroke-width="1px">-400</text><text x="0" y="0" dx="0em" dy="0.3em" style="text-anchor: end; visibility: hidden; font-family: Roboto, sans-serif; font-size: 12px; font-weight: 200;" fill="rgb(33, 33, 33)" stroke="none" stroke-width="1px">-380</text></g><line x1="51.5625" y1="0" x2="51.5625" y2="176.921875" fill="rgb(0, 0, 0)" stroke="rgb(204, 204, 204)" stroke-width="1px"></line></g></g><g transform="translate(51, 0)" clip-path="url(#clip_0)"><clipPath id="clip_0"><rect width="278" height="176"></rect></clipPath><g><g><g><line x1="0" y1="0" x2="0" y2="176.921875" fill="rgb(0, 0, 0)" stroke="rgb(66, 66, 66)" stroke-width="1px" opacity="0.25"></line><line x1="23.203125" y1="0" x2="23.203125" y2="176.921875" fill="rgb(0, 0, 0)" stroke="rgb(66, 66, 66)" stroke-width="1px" opacity="0.25"></line><line x1="46.40625" y1="0" x2="46.40625" y2="176.921875" fill="rgb(0, 0, 0)" stroke="rgb(66, 66, 66)" stroke-width="1px" opacity="0.25"></line><line x1="69.609375" y1="0" x2="69.609375" y2="176.921875" fill="rgb(0, 0, 0)" stroke="rgb(66, 66, 66)" stroke-width="1px" opacity="0.25"></line><line x1="92.8125" y1="0" x2="92.8125" y2="176.921875" fill="rgb(0, 0, 0)" stroke="rgb(66, 66, 66)" stroke-width="1px" opacity="0.25"></line><line x1="116.015625" y1="0" x2="116.015625" y2="176.921875" fill="rgb(0, 0, 0)" stroke="rgb(66, 66, 66)" stroke-width="1px" opacity="0.25"></line><line x1="139.21875" y1="0" x2="139.21875" y2="176.921875" fill="rgb(0, 0, 0)" stroke="rgb(66, 66, 66)" stroke-width="1px" opacity="0.25"></line><line x1="162.421875" y1="0" x2="162.421875" y2="176.921875" fill="rgb(0, 0, 0)" stroke="rgb(66, 66, 66)" stroke-width="1px" opacity="0.25"></line><line x1="185.625" y1="0" x2="185.625" y2="176.921875" fill="rgb(0, 0, 0)" stroke="rgb(66, 66, 66)" stroke-width="1px" opacity="0.25"></line><line x1="208.828125" y1="0" x2="208.828125" y2="176.921875" fill="rgb(0, 0, 0)" stroke="rgb(66, 66, 66)" stroke-width="1px" opacity="0.25"></line><line x1="232.03125" y1="0" x2="232.03125" y2="176.921875" fill="rgb(0, 0, 0)" stroke="rgb(66, 66, 66)" stroke-width="1px" opacity="0.25"></line><line x1="255.234375" y1="0" x2="255.234375" y2="176.921875" fill="rgb(0, 0, 0)" stroke="rgb(66, 66, 66)" stroke-width="1px" opacity="0.25"></line><line x1="278.4375" y1="0" x2="278.4375" y2="176.921875" fill="rgb(0, 0, 0)" stroke="rgb(66, 66, 66)" stroke-width="1px" opacity="0.25"></line></g><g><line x1="0" y1="176.921875" x2="278.4375" y2="176.921875" fill="rgb(0, 0, 0)" stroke="rgb(66, 66, 66)" stroke-width="1px" opacity="0.25"></line><line x1="0" y1="160.8380681818182" x2="278.4375" y2="160.8380681818182" fill="rgb(0, 0, 0)" stroke="rgb(66, 66, 66)" stroke-width="1px" opacity="0.25"></line><line x1="0" y1="144.75426136363635" x2="278.4375" y2="144.75426136363635" fill="rgb(0, 0, 0)" stroke="rgb(66, 66, 66)" stroke-width="1px" opacity="0.25"></line><line x1="0" y1="128.67045454545456" x2="278.4375" y2="128.67045454545456" fill="rgb(0, 0, 0)" stroke="rgb(66, 66, 66)" stroke-width="1px" opacity="0.25"></line><line x1="0" y1="112.58664772727272" x2="278.4375" y2="112.58664772727272" fill="rgb(0, 0, 0)" stroke="rgb(66, 66, 66)" stroke-width="1px" opacity="0.25"></line><line x1="0" y1="96.5028409090909" x2="278.4375" y2="96.5028409090909" fill="rgb(0, 0, 0)" stroke="rgb(66, 66, 66)" stroke-width="1px" opacity="0.25"></line><line x1="0" y1="80.4190340909091" x2="278.4375" y2="80.4190340909091" fill="rgb(0, 0, 0)" stroke="rgb(66, 66, 66)" stroke-width="1px" opacity="0.25"></line><line x1="0" y1="64.33522727272728" x2="278.4375" y2="64.33522727272728" fill="rgb(0, 0, 0)" stroke="rgb(66, 66, 66)" stroke-width="1px" opacity="0.25"></line><line x1="0" y1="48.25142045454545" x2="278.4375" y2="48.25142045454545" fill="rgb(0, 0, 0)" stroke="rgb(66, 66, 66)" stroke-width="1px" opacity="0.25"></line><line x1="0" y1="32.167613636363626" x2="278.4375" y2="32.167613636363626" fill="rgb(0, 0, 0)" stroke="rgb(66, 66, 66)" stroke-width="1px" opacity="0.25"></line><line x1="0" y1="16.083806818181824" x2="278.4375" y2="16.083806818181824" fill="rgb(0, 0, 0)" stroke="rgb(66, 66, 66)" stroke-width="1px" opacity="0.25"></line><line x1="0" y1="0" x2="278.4375" y2="0" fill="rgb(0, 0, 0)" stroke="rgb(66, 66, 66)" stroke-width="1px" opacity="0.25"></line></g></g></g><g><g><line x1="0" y1="-305.5923295454545" x2="278.4375" y2="-305.5923295454545" fill="rgb(0, 0, 0)" stroke="rgb(153, 153, 153)" stroke-width="1.5px"></line></g></g><g><g><line x1="23.203125" y1="0" x2="23.203125" y2="176.921875" fill="rgb(0, 0, 0)" stroke="rgb(153, 153, 153)" stroke-width="1.5px"></line></g></g><g><g><g><g><g><path stroke="rgb(51, 187, 238)" stroke-width="2px" d="M24.344718750000002,27.34529391418804L25.486312499999997,48.65912113711051L26.62790625,66.00973093323049L27.769499999999997,63.951436448444234L28.91109375,66.29648808210328L30.0526875,71.2364499015177L31.19428125,84.5659962095405L32.335875,89.49528727416954L33.47746875,94.06786319657027L34.6190625,98.70733865166473L35.760656250000004,112.30806314313217L36.90225,124.33892386976058L38.04384375,130.3112501865769L39.1854375,135.30474227440124L40.327031250000005,135.90697193159357L41.468625,136.49996659080816L42.61021875,129.68921783566913L43.75181250000001,125.20212415582161L44.893406250000005,121.58046150224087L46.035,114.29760578715748L47.176593749999995,112.37614580394616L48.3181875,111.82907514669397L49.45978125,110.78400467820428L50.601375,108.74270044851548L51.742968749999996,106.18638753326582L52.8845625,106.72612342521572L54.02615625,107.04058550020832L55.16775,108.02489282747048L56.30934375,106.7208535246961L57.4509375,107.99175821956338L58.59253125,102.22009279768945L59.734125,94.42270549830327L60.875718750000004,88.5382370365352L62.0173125,82.86018187577244L63.15890625,80.4049832134604L64.3005,78.74064342389724L65.44209375,77.9500393953256L66.5836875,75.3559543937159L67.72528125,76.10236380118526L68.866875,74.90175322325025L70.00846875,74.05160461484954L71.1500625,71.27702960440902L72.29165625,70.4543684114178L73.43325,69.33844480039913L74.57484375,66.07901792149137L75.71643750000001,63.694537026492455L76.85803125000001,61.36012914366529L77.99962500000001,58.02635302721292L79.14121875000001,55.7030290176694L80.2828125,58.047933812319435L81.42440625,57.46767776267391L82.56599999999999,55.665477675771704L83.70759374999999,56.81325352447603L84.8491875,58.35432037176832L85.99078125,57.45355017255443L87.132375,58.12523528540307L88.27396875,59.407502333405766L89.4155625,63.42330078593719L90.55715624999999,64.87742532030752L91.69874999999999,67.0396408875657L92.84034375,67.4861867356908L93.9819375,67.33128695241086L95.12353125,65.55349411159492L96.265125,64.41031831219787L97.40671875,68.0088745614566L98.5483125,67.74198415860587L99.68990624999999,66.55694089292781L100.83149999999999,65.14333865144752L101.97309375,65.54329878257145L103.1146875,64.95780562221529L104.25628125,63.159116805055625L105.397875,61.141912528792695L106.53946875,57.81507909090615L107.6810625,56.29242420319131L108.82265625,57.04479434853586L109.96425,59.12757542204041L111.10584375,61.061799073207766L112.2474375,60.35934017224987L113.38903125,61.27845343629852L114.530625,60.79339089194696L115.67221875,59.46500431479807L116.8138125,59.49863993252006L117.95540625,57.89658893654272L119.09700000000001,56.48478426768433L120.23859375,57.00276692427745L121.3801875,56.047841473385276L122.52178125,56.69356459428311L123.663375,58.31778648608737L124.80496875,58.08134470962706L125.9465625,60.768078436663956L127.08815625000001,66.86452022508372L128.22975,71.68176369767689L129.37134375,73.64659755210403L130.5129375,75.44881670872087L131.65453125,75.42527235337957L132.796125,72.5262022849186L133.93771875,71.77541329728173L135.07931250000001,71.70781344739768L136.22090625,72.83576260804142L137.3625,76.51854258690332L138.50409375,80.97498766881957L139.6456875,83.6677485537157L140.78728125,86.0834930555743L141.928875,89.17802604289858L143.07046875,87.71735625514386L144.2120625,86.86755365856074L145.35365625,84.19430270893398L146.49525,82.32819261272644L147.63684375,79.94618853220496L148.7784375,81.49285669713142L149.92003125,80.93334610394204L151.061625,77.84531165796103L152.20321875,75.90880655035157L153.3448125,73.42901996207286L154.48640625,73.50319473121858L155.628,72.44930270445155L156.76959375,72.65616269670383L157.9111875,68.978767731253L159.05278125,67.44849781782746L160.194375,66.39889135673933L161.33596875,65.6058151822172L162.4775625,63.3988181237434L163.61915625,63.35906188367659L164.76075,62.83796551434031L165.90234375,63.40213548877293L167.0439375,64.464829630544L168.18553125,63.04240132948702L169.327125,62.42049954499769L170.46871875,63.78973591230349L171.6103125,65.0261855686776L172.75190625,65.8222089079784L173.89350000000002,63.805297894007474L175.03509375000002,60.78589842704093L176.1766875,60.636945965906364L177.31828125,59.18444939131783L178.459875,57.4846924742873L179.60146875,53.7205089154066L180.7430625,52.0328996946214L181.88465625,49.461641761404L183.02625,49.70131454575104L184.16784375,51.44725815547794L185.3094375,54.019706064699925L186.45103125,68.89311708490284L187.592625,69.3104636455231L188.73421875,69.43220457470136L189.8758125,67.84960880402105L191.01740625000002,67.66385820459672L192.15900000000002,66.19982229638913L193.30059375000002,65.40771570958132L194.44218750000002,62.740567834201684L195.58378125000002,60.756156406220505L196.725375,58.49403559782091L197.86696875,56.68932505217137L199.0085625,55.222088667478516L200.15015625,56.551716440009415L201.29175,54.710818243132145L202.43334375,54.83464465811426L203.5749375,56.766988213244986L204.71653125,55.38960659758145L205.858125,54.69914869795127L206.99971874999997,52.94931013229766L208.14131250000003,53.84145301637166L209.28290625000002,53.74195630333065L210.42450000000002,53.73238304354435L211.56609375000002,54.76897045573137L212.7076875,54.758729753616194L213.84928125,57.6479670660929L214.990875,59.468475771595486L216.13246875,58.35695568887194L217.27406249999999,59.184278317662674L218.41565624999998,59.634380648216386L219.55724999999998,58.48958885257045L220.69884374999998,57.72390136790591L221.84043749999998,57.95159979621229L222.98203124999998,60.19768420037352L224.12362499999998,62.66644166171857L225.26521875,62.202684717660375L226.4068125,63.14057022931172L227.54840625,64.22070223325031L228.69,61.53717162031379L229.83159375,58.6729362666264L230.9731875,56.067575840839176L232.11478125,55.15989995452812L233.256375,54.35048023920701L234.39796875,55.462297259401794L235.5395625,54.622924152161524L236.68115625,52.210007319559786L237.82274999999998,52.30513981251919L238.96434374999998,51.454959703110454L240.10593749999998,53.09407213252815L241.24753125,52.48525850411708L242.389125,52.07948674631916L243.53071875,51.906607491528185L244.6723125,51.38094728931884L245.81390625,52.92024795723385L246.9555,56.23638926945969L248.09709375,59.28615090395163L249.2386875,60.68493686248604L250.38028125,63.84853481967623L251.521875,66.03468084401808L252.66346875,71.15483086339074L253.8050625,76.7652752615141L254.94665625,85.50851919100268L256.08825,91.2369946154467" style="fill: none;" fill="none"></path></g><g><path stroke="rgb(0, 119, 187)" stroke-width="2px" d="M24.344718750000002,59.97947440147395L25.486312499999997,111.21076413384219L26.62790625,119.76561788149395L27.769499999999997,126.54849007554418L28.91109375,131.33529157476352L30.0526875,136.61765240192284L31.19428125,138.01138607850268L32.335875,134.25458018018952L33.47746875,134.5692025139605L34.6190625,129.9326296182854L35.760656250000004,134.35672496759386L36.90225,142.51065398897336L38.04384375,142.44083552764408L39.1854375,146.21559131911522L40.327031250000005,156.18579066571118L41.468625,155.61705729653224L42.61021875,153.9907209356476L43.75181250000001,153.84222478374062L44.893406250000005,143.69851689400605L46.035,134.6663289107513L47.176593749999995,124.05763726719795L48.3181875,113.76462569679612L49.45978125,109.43170847756774L50.601375,104.05504389951619L51.742968749999996,98.46408448644303L52.8845625,97.94914644476246L54.02615625,93.50371633888484L55.16775,88.68055267722738L56.30934375,82.61721236310234L57.4509375,86.40667744617397L58.59253125,85.1433917271321L59.734125,86.17649023646796L60.875718750000004,86.95580654560716L62.0173125,86.87636785777367L63.15890625,87.2713965555476L64.3005,84.38041088502928L65.44209375,85.05013904368396L66.5836875,84.68779574505277L67.72528125,82.84277965898113L68.866875,88.14041761772474L70.00846875,88.25332374449138L71.1500625,90.12009901718548L72.29165625,90.65018546101648L73.43325,92.4341822158255L74.57484375,89.35708555660365L75.71643750000001,88.68466658905136L76.85803125000001,83.77041116257152L77.99962500000001,89.4731915385603L79.14121875000001,84.93409715603823L80.2828125,82.090068341663L81.42440625,80.19971420221823L82.56599999999999,77.42198593823773L83.70759374999999,73.24475605860961L84.8491875,72.57091402825382L85.99078125,71.96271800673462L87.132375,73.96173449761314L88.27396875,73.84887317256246L89.4155625,73.60236338754056L90.55715624999999,80.69698462341626L91.69874999999999,90.22584938665668L92.84034375,86.50250982032082L93.9819375,85.92075009129678L95.12353125,84.44286102690195L96.265125,80.57705215695479L97.40671875,76.68366693899756L98.5483125,74.04466214156906L99.68990624999999,70.28244041305912L100.83149999999999,67.01527738814443L101.97309375,66.54612783532625L103.1146875,67.41164385689197L104.25628125,67.67160654539258L105.397875,65.28930170126513L106.53946875,64.15333829398732L107.6810625,64.22865557951968L108.82265625,66.11462170914604L109.96425,68.19768485258741L111.10584375,66.8326905184242L112.2474375,69.16818603244913L113.38903125,73.42297298009171L114.530625,78.19742525806379L115.67221875,77.90520359797054L116.8138125,82.57431795964474L117.95540625,89.3157786414513L119.09700000000001,91.34889616799457L120.23859375,88.77592349275606L121.3801875,87.87785111825369L122.52178125,88.20774206708101L123.663375,91.76519260317365L124.80496875,94.91824570416594L125.9465625,93.57695863439098L127.08815625000001,93.11353423151449L128.22975,92.0015322326675L129.37134375,91.35595468924788L130.5129375,87.49722422147543L131.65453125,86.72415663896507L132.796125,88.90185379450169L133.93771875,89.74027598904331L135.07931250000001,92.24654847833158L136.22090625,87.07841752279185L137.3625,83.66875724488551L138.50409375,82.27004287974287L139.6456875,85.7929531721534L140.78728125,91.27083710226026L141.928875,87.45301846468163L143.07046875,88.18058611663407L144.2120625,92.36965034969192L145.35365625,91.23755515222543L146.49525,91.52721883956254L147.63684375,90.63497154713733L148.7784375,91.22355320167723L149.92003125,91.67987458079655L151.061625,90.54428584949505L152.20321875,88.12044524775546L153.3448125,90.05094712279599L154.48640625,91.3317072186091L155.628,94.10589876274116L156.76959375,94.94011314351759L157.9111875,97.85343476548974L159.05278125,102.96834573019092L160.194375,111.30066441424265L161.33596875,123.60891227329394L162.4775625,125.75593151371324L163.61915625,125.9704065744646L164.76075,126.74077456381005L165.90234375,122.75953850744149L167.0439375,115.40487290079604L168.18553125,113.80318719907102L169.327125,111.11782213526374L170.46871875,110.24682718723683L171.6103125,112.14149821016002L172.75190625,112.42792592320441L173.89350000000002,115.40101539205956L175.03509375000002,113.27851967754566L176.1766875,110.63973915880844L177.31828125,112.19199923505332L178.459875,110.96705905021001L179.60146875,109.17415494832068L180.7430625,104.82519301911877L181.88465625,103.9356703841624L183.02625,97.05458857016745L184.16784375,91.93458678056663L185.3094375,87.0410710003699L186.45103125,82.58768670168864L187.592625,78.97643144197033L188.73421875,80.06591368120237L189.8758125,78.06069022041594L191.01740625000002,76.78502867520436L192.15900000000002,73.94095239471096L193.30059375000002,70.99301348956942L194.44218750000002,69.24358670414753L195.58378125000002,67.03209214050932L196.725375,66.89847967607983L197.86696875,63.686417788182645L199.0085625,60.02455921748892L200.15015625,60.796581018105805L201.29175,59.62909523416128L202.43334375,59.010155137949226L203.5749375,57.28021860346858L204.71653125,59.11904353441812L205.858125,60.24840702488045L206.99971874999997,59.71150143818381L208.14131250000003,62.19439241157676L209.28290625000002,62.44199121094521L210.42450000000002,66.48568303819566L211.56609375000002,64.84402703603395L212.7076875,64.30819725590902L213.84928125,61.64627537235716L214.990875,60.229204917324765L216.13246875,60.87008951294574L217.27406249999999,64.14688225777118L218.41565624999998,66.55620054236843L219.55724999999998,68.04383960242383L220.69884374999998,108.38553006814445L221.84043749999998,106.1698203096568L222.98203124999998,101.30618198336252L224.12362499999998,99.10742887711552L225.26521875,93.88073146473457L226.4068125,90.91987250568722L227.54840625,89.39155436150297L228.69,88.14426498143557L229.83159375,95.07661980009848L230.9731875,91.26501682721872L232.11478125,98.71186912503552L233.256375,97.52846531150618L234.39796875,101.50321185716042L235.5395625,104.40475415327107L236.68115625,107.74536441031734L237.82274999999998,115.9834304593599L238.96434374999998,119.95028220096582L240.10593749999998,126.01185634618645L241.24753125,129.8831197455625L242.389125,131.76139570366425L243.53071875,131.45273689085934L244.6723125,129.4344304319687L245.81390625,128.11566896137833L246.9555,131.55003983458715L248.09709375,136.8487681042659L249.2386875,140.03601442320416L250.38028125,141.35856391316076L251.521875,142.58044717412352L252.66346875,147.6483169144806L253.8050625,144.62352932667187L254.94665625,145.2360920737643L256.08825,154.5990773372108" style="fill: none;" fill="none"></path></g><g><path stroke="rgb(255, 112, 67)" stroke-width="2px" d="M24.344718750000002,21.544486982172184L25.486312499999997,48.504685331855356L26.62790625,59.28404340371607L27.769499999999997,65.84752053399218L28.91109375,73.83001148464353L30.0526875,85.14915958218927L31.19428125,90.62343323634376L32.335875,91.91805546078287L33.47746875,86.26258920144112L34.6190625,83.79624924385351L35.760656250000004,80.34709351241638L36.90225,80.71620762741588L38.04384375,77.11814777826567L39.1854375,76.9649223015513L40.327031250000005,78.79279063790938L41.468625,79.44775245372618L42.61021875,80.62551689765021L43.75181250000001,78.01746619013215L44.893406250000005,77.73413599203215L46.035,76.99478902511642L47.176593749999995,76.34208845536212L48.3181875,73.19104837105371L49.45978125,73.81360285429919L50.601375,74.05819890643131L51.742968749999996,73.914596774174L52.8845625,71.55471836188734L54.02615625,69.28272425178196L55.16775,67.75497123714594L56.30934375,65.72547141980101L57.4509375,62.15863077719926L58.59253125,57.836635954583144L59.734125,52.169472127046234L60.875718750000004,46.1014277781901L62.0173125,43.63634133349791L63.15890625,41.75375541967092L64.3005,38.6055645075114L65.44209375,37.42195593864047L66.5836875,36.611821432911256L67.72528125,37.9913967662227L68.866875,37.24423043745084L70.00846875,36.57088065735409L71.1500625,36.9731116329822L72.29165625,35.58728997044961L73.43325,34.38955153771978L74.57484375,37.044128128082654L75.71643750000001,36.941994492254246L76.85803125000001,37.3222169773257L77.99962500000001,36.95392818684222L79.14121875000001,36.38299718043902L80.2828125,36.77975366415233L81.42440625,35.82487786050564L82.56599999999999,36.67336494891155L83.70759374999999,38.17779200378544L84.8491875,40.522521129114075L85.99078125,42.17799474684373L87.132375,46.03933529832981L88.27396875,51.465097067942835L89.4155625,56.74288419528307L90.55715624999999,64.25995514253908L91.69874999999999,69.14764376867764L92.84034375,73.35799593104294L93.9819375,78.30324973985319L95.12353125,83.7728168759639L96.265125,84.39724854813402L97.40671875,87.00904636481845L98.5483125,88.1395537162033L99.68990624999999,90.1463229868635L100.83149999999999,92.17774443064945L101.97309375,87.8035231290292L103.1146875,83.42641171940842L104.25628125,80.41484196355357L105.397875,77.83585821617763L106.53946875,74.85623163762112L107.6810625,72.38732993796643L108.82265625,72.20466854787877L109.96425,69.97071972901321L111.10584375,72.18528959103217L112.2474375,72.71351554891481L113.38903125,70.96654852186539L114.530625,70.66686271783384L115.67221875,69.04305881729584L116.8138125,66.86209636053297L117.95540625,64.25716596129304L119.09700000000001,63.35589546386107L120.23859375,62.881823511328975L121.3801875,61.54912950328984L122.52178125,58.842715615619305L123.663375,55.35560307690105L124.80496875,53.92205196314365L125.9465625,52.89284052890181L127.08815625000001,49.95408686460582L128.22975,49.46027528042073L129.37134375,46.83192947453736L130.5129375,44.687905912059456L131.65453125,43.177574910374105L132.796125,43.5424638780251L133.93771875,45.879236859468165L135.07931250000001,47.94072835937429L136.22090625,47.58120840648937L137.3625,45.653595221980495L138.50409375,41.71358797426392L139.6456875,38.326668274192166L140.78728125,39.75631854149952L141.928875,38.618741649447685L143.07046875,37.60294320647246L144.2120625,37.0795922362466L145.35365625,37.49450214543663L146.49525,38.726658149392065L147.63684375,39.800886258900206L148.7784375,39.97873056039587L149.92003125,38.13545558476726L151.061625,40.92218901751826L152.20321875,43.54218264281957L153.3448125,45.25099497667168L154.48640625,46.09683442532005L155.628,44.44938662755558L156.76959375,42.644217040669574L157.9111875,41.42504818308706L159.05278125,45.53029265933095L160.194375,45.57949175802778L161.33596875,45.00832814295833L162.4775625,44.25488156236113L163.61915625,44.66985239914309L164.76075,43.039701621859805L165.90234375,42.40238057598422L167.0439375,41.64167975924787L168.18553125,40.807871999413436L169.327125,42.84395032546651L170.46871875,42.285674681056406L171.6103125,43.834956009385856L172.75190625,44.55952169709601L173.89350000000002,43.84373592141104L175.03509375000002,43.17339133102084L176.1766875,42.175239699905376L177.31828125,40.194195302017654L178.459875,42.28756637950009L179.60146875,44.63496607652429L180.7430625,47.78152075165395L181.88465625,51.43698331852267L183.02625,54.369692196377514L184.16784375,56.65166351219497L185.3094375,58.988484191449466L186.45103125,59.363973888786184L187.592625,58.308534940990846L188.73421875,55.92477022747175L189.8758125,56.9475002903784L191.01740625000002,55.86689977807554L192.15900000000002,58.504085963157365L193.30059375000002,59.0158849201488L194.44218750000002,61.437375596098676L195.58378125000002,62.484741691466006L196.725375,65.09161474373147L197.86696875,65.79607327191347L199.0085625,63.93909204548054L200.15015625,59.55426612540111L201.29175,52.68334506127629L202.43334375,48.17264515544413L203.5749375,43.27581299448162L204.71653125,38.78545475198825L205.858125,37.362660198216936L206.99971874999997,37.31724285228034L208.14131250000003,34.63305607558733L209.28290625000002,33.34625583249613L210.42450000000002,31.111175948646334L211.56609375000002,29.038249008415466L212.7076875,27.901594688458534L213.84928125,27.475620148213437L214.990875,26.66065093501443L216.13246875,25.910230226294328L217.27406249999999,27.12632610839792L218.41565624999998,28.51008367931821L219.55724999999998,27.803039458323422L220.69884374999998,27.902840876126465L221.84043749999998,26.567267946594615L222.98203124999998,26.90493030414549L224.12362499999998,26.48167497748939L225.26521875,26.102540676652765L226.4068125,27.25012407816164L227.54840625,27.606097005850792L228.69,25.778145099506474L229.83159375,24.583827255144122L230.9731875,24.645659331973818L232.11478125,26.142563850125022L233.256375,28.59140342421783L234.39796875,28.396366069252462L235.5395625,27.171594630999348L236.68115625,25.518800337772305L237.82274999999998,26.000583264360703L238.96434374999998,27.87427712068099L240.10593749999998,24.816415309211457L241.24753125,25.858394247136626L242.389125,27.686144540041155L243.53071875,29.43262090576697L244.6723125,28.302926791761468L245.81390625,29.262266658188395L246.9555,28.935014339344782L248.09709375,27.22194144620443L249.2386875,26.95742296508622L250.38028125,25.66011536239777L251.521875,25.21414625615285L252.66346875,26.083759139634754L253.8050625,26.563792956800913L254.94665625,27.747885750180924L256.08825,29.96017524934846" style="fill: none;" fill="none"></path></g></g></g></g><g opacity="0.2"><g><g><g><path stroke="rgb(51, 187, 238)" stroke-width="2px" d="M24.344718750000002,27.34529391418804L25.486312499999997,66.77587427659468L26.62790625,93.29356483762913L27.769499999999997,59.45071827064861L28.91109375,72.6483682198958L30.0526875,86.80887216221203L31.19428125,131.6124443314292L32.335875,108.47336923859335L33.47746875,112.91855294487694L34.6190625,118.90840645269914L35.760656250000004,174.20557290857488L36.90225,181.1051961898804L38.04384375,159.34051890806717L39.1854375,160.1800005609339L40.327031250000005,138.96889131285926L41.468625,139.56673300916498L42.61021875,93.96063935106451L43.75181250000001,101.38003641258587L44.893406250000005,102.1586785923351L46.035,74.90995721817016L47.176593749999995,101.90989693078127L48.3181875,108.83114166259766L49.45978125,105.02777881188825L50.601375,97.45065069198608L51.742968749999996,91.99370090311223L52.8845625,109.73202725323763L54.02615625,108.7964884411205L55.16775,113.53332858085632L56.30934375,99.40934304757552L57.4509375,115.12889836918224L58.59253125,69.76356115774674L59.734125,50.52410241040316L60.875718750000004,55.376755972342046L62.0173125,50.83531877127562L63.15890625,66.54760967818173L64.3005,69.34131705327468L65.44209375,73.48284331668506L66.5836875,60.69209875843742L67.72528125,80.32322235107422L68.866875,68.11031780676409L70.00846875,69.24133318337527L71.1500625,55.574514937400814L72.29165625,65.7976815700531L73.43325,63.020711799101385L74.57484375,47.62341671206734L75.71643750000001,50.19148547649383L76.85803125000001,48.13931286551735L77.99962500000001,39.1440531947396L79.14121875000001,42.542915764721954L80.2828125,71.33110404881565L81.42440625,54.180532657016414L82.56599999999999,45.45557793053713L83.70759374999999,63.315926814079276L84.8491875,67.08544632738287L85.99078125,52.349973778291194L87.132375,61.930951426245954L88.27396875,66.67287174788389L89.4155625,86.17733438014984L90.55715624999999,73.11680025837639L91.69874999999999,79.29135641834952L92.84034375,70.01646586548199L93.9819375,66.4535649581389L95.12353125,55.479758501052856L96.265125,57.93255376599053L97.40671875,88.40007348494096L98.5483125,66.22964428338139L99.68990624999999,59.8418431932276L100.83149999999999,57.13307547786018L101.97309375,67.80970356464387L103.1146875,61.64005579298193L104.25628125,52.96666368571196L105.397875,49.71119968024168L106.53946875,38.96317908547141L107.6810625,47.6641072511673L108.82265625,61.30819965926083L109.96425,70.92994147214023L111.10584375,72.02235237468372L112.2474375,56.37875436219303L113.38903125,66.48674566312269L114.530625,58.044710438901724L115.67221875,51.93749736655843L116.8138125,59.68924140063199L117.95540625,48.81831476254897L119.09700000000001,48.48456889932806L120.23859375,59.93799852024425L121.3801875,50.63660267049616L122.52178125,60.352659164775496L123.663375,67.52170388048344L124.80496875,56.7415088003332L125.9465625,75.99289493127303L127.08815625000001,101.41100834282963L128.22975,98.9794663992795L129.37134375,84.78065248619427L130.5129375,85.66138914281672L131.65453125,75.29185437072408L132.796125,56.09814180244099L133.93771875,67.52094308029523L135.07931250000001,71.32474768595262L136.22090625,79.2274737444791L137.3625,97.3876269860701L138.50409375,106.22817425727844L139.6456875,98.92672576687553L140.78728125,99.7727110342546L141.928875,106.71371202902361L143.07046875,79.44022783582861L144.2120625,82.05200579816645L145.35365625,69.04588116082279L146.49525,71.75356903076171L147.63684375,66.44816573099656L148.7784375,90.25730945413763L149.92003125,77.76278613047167L151.061625,60.346450053561824L152.20321875,64.93527774377303L153.3448125,59.37689611044798L154.48640625,73.92351841926575L155.628,66.4772479317405L156.76959375,73.8283693118529L157.9111875,48.14019637541338L159.05278125,58.77696834911001L160.194375,60.451121434298436L161.33596875,61.11171687516299L162.4775625,50.892501495101236L163.61915625,63.13377652385018L164.76075,59.88508609424938L165.90234375,66.59909867156637L167.0439375,70.48676309152084L168.18553125,54.98197430047122L169.327125,58.8963894367218L170.46871875,71.54874198653481L171.6103125,72.03273361596194L172.75190625,70.33300782767208L173.89350000000002,52.376135487989934L175.03509375000002,43.675968122482296L176.1766875,59.792882019823246L177.31828125,50.953635471517394L178.459875,47.8527366139672L179.60146875,32.39013542045247L180.7430625,42.469780778884896L181.88465625,34.891180142489354L183.02625,51.05946032350713L184.16784375,61.34093860929662L185.3094375,68.59691088199615L186.45103125,153.17577952471646L187.592625,71.67542748884722L188.73421875,70.12206983999772L189.8758125,58.88156610402194L191.01740625000002,66.61127147457816L192.15900000000002,57.90361881689592L193.30059375000002,60.919111717831015L194.44218750000002,47.62672987417741L195.58378125000002,49.51115831461821L196.725375,45.67535101717169L197.86696875,46.46263196034864L199.0085625,46.907749154350974L200.15015625,64.08627381758255L201.29175,44.279061794281006L202.43334375,55.53632767633958L203.5749375,67.71693502556194L204.71653125,47.58444410887631L205.858125,50.78655393340372L206.99971874999997,43.03355826031077L208.14131250000003,58.896929359436044L209.28290625000002,53.17814159610054L210.42450000000002,53.67813457142222L211.56609375000002,60.64296579144219L212.7076875,54.70069910829718L213.84928125,74.02031183676286L214.990875,69.78469176942653L216.13246875,52.05834188678048L217.27406249999999,63.87243988080457L218.41565624999998,62.1849605213512L219.55724999999998,52.00243534391577L220.69884374999998,53.3850056214766L221.84043749999998,59.24189088994806L222.98203124999998,72.92549582394686L224.12362499999998,76.65606727600097L225.26521875,59.574728701331395L226.4068125,68.45525479533454L227.54840625,70.34145025556737L228.69,46.33049814701081L229.83159375,42.44226926240054L230.9731875,41.30386676138098L232.11478125,50.01640326543287L233.256375,49.76376851905476L234.39796875,61.76259370717135L235.5395625,49.866476544466884L236.68115625,38.53681193481792L237.82274999999998,52.84422393928875L238.96434374999998,46.63727241646159L240.10593749999998,62.38237589922818L241.24753125,49.035314609787676L242.389125,49.780113452131104L243.53071875,50.92695838104594L244.6723125,48.402206143465904L245.81390625,61.642951742085536L246.9555,75.02785670540551L248.09709375,76.5681334994056L249.2386875,68.61139062751423L250.38028125,81.7755899104205L251.521875,78.422841648622L252.66346875,100.1690143065019L253.8050625,108.55779351754623L254.94665625,135.05356812477112L256.08825,123.6983553539623" style="fill: none;" fill="none"></path></g><g><path stroke="rgb(0, 119, 187)" stroke-width="2px" d="M24.344718750000002,59.97947440147401L25.486312499999997,154.75736040635542L26.62790625,133.21812539967624L27.769499999999997,141.3800879868594L28.91109375,144.30097170309585L30.0526875,153.2694315736944L31.19428125,142.93054968660527L32.335875,119.79064016775652L33.47746875,135.8662499774586L34.6190625,109.74420005624943L35.760656250000004,154.4909821727059L36.90225,180.98405716635966L38.04384375,142.10147381695833L39.1854375,165.01967143578963L40.327031250000005,206.87732710838318L41.468625,152.67576200745324L42.61021875,145.4591059251265L43.75181250000001,153.05385515906593L44.893406250000005,89.30115541111338L46.035,85.81781947829505L47.176593749999995,66.27178279703313L48.3181875,57.3591803854162L49.45978125,85.56609278375451L50.601375,74.31250819292936L51.742968749999996,67.42299619154495L52.8845625,95.08134711222215L54.02615625,68.68118790929967L55.16775,61.6888942566785L56.30934375,48.62116934602911L57.4509375,107.6875362699682L58.59253125,78.03939835375004L59.734125,91.99274376739156L60.875718750000004,91.34758520776575L62.0173125,86.42832481644372L63.15890625,89.50097589926287L64.3005,68.05362592176958L65.44209375,88.83434314077549L66.5836875,82.6395398790186L67.72528125,72.40942787690597L68.866875,118.10730839642612L70.00846875,88.89216395508159L71.1500625,100.68498408577658L72.29165625,93.6507482550361L73.43325,102.53417029814288L74.57484375,71.9338786753741L75.71643750000001,84.87683235515249L76.85803125000001,55.93874189203436L77.99962500000001,121.7733836260709L79.14121875000001,59.223091762716116L80.2828125,65.97951281504197L81.42440625,69.49087564511733L82.56599999999999,61.685482926802194L83.70759374999999,49.57884498942982L84.8491875,68.7531694238836L85.99078125,68.51680598475716L87.132375,85.28800804398277L88.27396875,73.20939700386741L89.4155625,72.20560705228286L90.55715624999999,120.89659822203897L91.69874999999999,144.21905070218173L92.84034375,65.40481416962363L93.9819375,82.62427479137074L95.12353125,76.06850865320725L96.265125,58.671585252068255L97.40671875,54.62182130813598L98.5483125,59.090687988021166L99.68990624999999,48.96365214044397L100.83149999999999,48.50169917453419L101.97309375,63.88765588456934L103.1146875,72.31616849899292L104.25628125,69.14471155946906L105.397875,51.7897057945078L106.53946875,57.71626563505693L107.6810625,64.65545052615079L108.82265625,76.80169915719466L109.96425,80.00164929086512L111.10584375,59.09775606718931L112.2474375,82.40261197523637L113.38903125,97.53335703503002L114.530625,105.2525829965418L115.67221875,76.24928459470922L116.8138125,109.03258191888983L117.95540625,127.51732687950134L119.09700000000001,102.86987951668826L120.23859375,74.19576217694716L121.3801875,82.78877942562103L122.52178125,90.07712251923301L123.663375,111.92406438914212L124.80496875,112.78553562164306L125.9465625,85.97633587880568L127.08815625000001,90.4874637820504L128.22975,85.70018995241685L129.37134375,87.69768311760643L130.5129375,65.63109087077054L131.65453125,82.3434413541447L132.796125,101.24213524298234L133.93771875,94.49133429527284L135.07931250000001,106.44875722798434L136.22090625,57.792345653880716L137.3625,64.34735099185596L138.50409375,74.34399550394579L139.6456875,105.75611001144756L140.78728125,122.3121774109927L141.928875,65.81871401396664L143.07046875,92.30346928943287L144.2120625,116.10768008232117L145.35365625,84.822349244898L146.49525,93.16864635510879L147.63684375,85.57890367724677L148.7784375,94.55884917649355L149.92003125,94.26569568460638L151.061625,84.10928313298659L152.20321875,74.38534867546777L153.3448125,100.9904576323249L154.48640625,98.58934769630433L155.628,109.82631739269603L156.76959375,99.66732793721286L157.9111875,114.36225719885392L159.05278125,131.95284106081183L160.194375,158.51713676886123L161.33596875,193.35564990477127L162.4775625,137.92237384102563L163.61915625,127.18576524907893L164.76075,131.10619316101074L165.90234375,100.19920089461587L167.0439375,73.7284345258366L168.18553125,104.72696823423557L169.327125,95.90075345689601L170.46871875,105.31118915297768L171.6103125,122.8779673316262L172.75190625,114.05101629603992L173.89350000000002,132.24852237267928L175.03509375000002,101.2510439677672L176.1766875,95.68664955876089L177.31828125,120.98813966404309L178.459875,104.02573133815419L179.60146875,99.01436504017222L180.7430625,80.18107542558151L181.88465625,98.89504212032665L183.02625,58.061791630224754L184.16784375,62.92124330997467L185.3094375,59.31114824901928L186.45103125,57.35184234489095L187.592625,58.51265163855119L188.73421875,86.23964636976068L189.8758125,66.69775727662173L191.01740625000002,69.55627991936424L192.15900000000002,57.82452013926072L193.30059375000002,54.28802636103196L194.44218750000002,59.33016825372522L195.58378125000002,54.50028961355036L196.725375,66.14134237766267L197.86696875,45.484733757105744L199.0085625,39.274027317220515L200.15015625,65.17137122154236L201.29175,53.013342458551584L202.43334375,55.50282792611556L203.5749375,47.47724490815943L204.71653125,69.53905147639188L205.858125,66.64813347079537L206.99971874999997,56.669036446918135L208.14131250000003,76.2641079274091L209.28290625000002,63.84505107402801L210.42450000000002,89.39993672587654L211.56609375000002,55.54130969047547L212.7076875,61.27182850187475L213.84928125,46.56205136559227L214.990875,52.19913900548761L216.13246875,64.50176888812672L217.27406249999999,82.71537447842685L218.41565624999998,80.2090041550723L219.55724999999998,76.47379427606408L220.69884374999998,336.9884427070618L221.84043749999998,93.61413167823444L222.98203124999998,73.74556480104273L224.12362499999998,86.64782794172115L225.26521875,64.26277946125377L226.4068125,74.14167173775759L227.54840625,80.73108487779443L228.69,81.07629182772202L229.83159375,134.35996377251365L230.9731875,69.66593331423672L232.11478125,140.91069881265813L233.256375,90.82251036817377L234.39796875,124.02677561586553L235.5395625,120.84682716456325L236.68115625,126.67548920024525L237.82274999999998,162.66580473726447L238.96434374999998,142.4291087367318L240.10593749999998,160.36077650243587L241.24753125,151.82027900869195L242.389125,142.40495946624063L243.53071875,129.70367028496483L244.6723125,117.99736049825495L245.81390625,120.64268729469993L246.9555,151.01147478277034L248.09709375,166.8748949657787L249.2386875,158.09707689718766L250.38028125,148.85301102291456L251.521875,149.5044523195787L252.66346875,176.36624544317073L253.8050625,127.48306632908908L254.94665625,148.70728097395462L256.08825,207.65599383007398" style="fill: none;" fill="none"></path></g><g><path stroke="rgb(255, 112, 67)" stroke-width="2px" d="M24.344718750000002,21.544486982172184L25.486312499999997,71.42085392908616L26.62790625,76.23458397171716L27.769499999999997,80.19938371398231L28.91109375,95.45163592642004L30.0526875,120.83092398643494L31.19428125,109.94480588652871L32.335875,96.90243280150675L33.47746875,62.94762589714744L34.6190625,73.05738421786914L35.760656250000004,64.64983042153445L36.90225,82.45783134373751L38.04384375,59.629309979352094L39.1854375,76.20162414420736L40.327031250000005,88.08623113632201L41.468625,82.8349919015711L42.61021875,86.80396377390082L43.75181250000001,64.17126256119121L44.893406250000005,76.21472954099829L46.035,72.99620115756989L47.176593749999995,72.78680931221355L48.3181875,55.92342772050336L49.45978125,77.2426196791909L50.601375,75.41125091639432L51.742968749999996,73.11731563914907L52.8845625,58.41205422011289L54.02615625,56.59629413214598L55.16775,59.20527431314642L56.30934375,54.3464361819354L57.4509375,42.127985158833596L58.59253125,33.532219212705435L59.734125,20.26383938789367L60.875718750000004,11.905418558554219L62.0173125,29.73297940817746L63.15890625,31.128262411464334L64.3005,20.82621797865087L65.44209375,30.73414337201552L66.5836875,32.03228937062351L67.72528125,45.79273512363433L68.866875,33.01777103380723L70.00846875,32.760964157364576L71.1500625,39.249509917606005L72.29165625,27.742824283513162L73.43325,27.608628947084608L74.57484375,52.07493223927238L75.71643750000001,36.36362301002849L76.85803125000001,39.47559028322046L77.99962500000001,34.8679634657773L79.14121875000001,33.149045879190616L80.2828125,39.0272580948743L81.42440625,30.41551534479314L82.56599999999999,41.48024969534441L83.70759374999999,46.701056922565805L84.8491875,53.8069061387669L85.99078125,51.557563569329005L87.132375,67.91739360419187L88.27396875,82.207650791515L89.4155625,86.6475088964809L90.55715624999999,106.85325750871137L91.69874999999999,96.84264863187616L92.84034375,97.21526893052187L93.9819375,106.32496767477556L95.12353125,114.76572671803561L96.265125,87.93556815710934L97.40671875,101.80878413157029L98.5483125,94.54559652805328L99.68990624999999,101.51776578859851L100.83149999999999,103.68891773223878L101.97309375,63.016662378744634L103.1146875,58.62311491749503L104.25628125,63.34947564818643L105.397875,63.22175938432867L106.53946875,57.971820872480215L107.6810625,58.39698546799747L108.82265625,71.1695935314352L109.96425,57.31174081238834L111.10584375,84.73446455218576L112.2474375,75.70678497661244L113.38903125,61.067099625414066L114.530625,68.96864767074585L115.67221875,59.84152414798736L116.8138125,54.503332814303306L117.95540625,49.49591776891189L119.09700000000001,58.248703057115726L120.23859375,60.1954189452258L121.3801875,53.99720435359261L122.52178125,43.506383306329894L123.663375,35.59531298767437L124.80496875,45.798600647666234L125.9465625,47.06064545024526L127.08815625000001,33.30115683295511L128.22975,46.6620106935501L129.37134375,31.93797468922356L130.5129375,32.53844237327576L131.65453125,34.61903455257415L132.796125,45.61016762039879L133.93771875,59.12094820195978L135.07931250000001,59.622511861541064L136.22090625,45.54392892013896L137.3625,34.73045496723868L138.50409375,19.386882190270857L139.6456875,19.134124734184958L140.78728125,47.857669544219966L141.928875,32.172472940791735L143.07046875,31.84675229245965L144.2120625,34.11393685340881L145.35365625,39.84565821994434L146.49525,45.70887530933726L147.63684375,45.888178734345864L148.7784375,40.98651491511953L149.92003125,27.690230902758515L151.061625,56.71367823860863L152.20321875,58.38881300145929L153.3448125,54.93426476608623L154.48640625,50.88992459123785L155.628,35.113849178227504L156.76959375,32.41492278142408L157.9111875,34.51642469492826L159.05278125,68.79334458221088L160.194375,45.858286649530584L161.33596875,41.77173433520577L162.4775625,39.98535095128147L163.61915625,47.02135380181399L164.76075,33.802180569822134L165.90234375,38.79089465574784L167.0439375,37.33104180422696L168.18553125,36.08296136639334L169.327125,54.38172749389301L170.46871875,39.122112698988474L171.6103125,52.61421686302531L172.75190625,48.66539392471314L173.89350000000002,39.78761652816425L175.03509375000002,39.37477198730816L176.1766875,36.51904712590305L177.31828125,28.968277051232082L178.459875,54.150002481720655L179.60146875,57.93689768964594L180.7430625,65.61199724023993L181.88465625,72.15127119367773L183.02625,70.98837583498522L184.16784375,69.5828343001279L185.3094375,72.23046803907914L186.45103125,61.491748840158635L187.592625,52.32771423729982L188.73421875,42.41677018512379L189.8758125,62.74297064651143L191.01740625000002,49.74349687532946L192.15900000000002,73.4481410113248L193.30059375000002,61.91607900966297L194.44218750000002,75.15915609273044L195.58378125000002,68.41981623172761L196.725375,79.86389537291093L197.86696875,69.78800493153659L199.0085625,53.41619842919437L200.15015625,34.70691924528643L201.29175,13.748125698349694L202.43334375,22.612012355977836L203.5749375,15.527097415924068L204.71653125,13.340091378038583L205.858125,29.30015772689473L206.99971874999997,37.059877891974004L208.14131250000003,19.4226643410596L209.28290625000002,26.054387788339103L210.42450000000002,18.445723273537375L211.56609375000002,17.29166301380505L212.7076875,21.46055354205044L213.84928125,25.061764420162554L214.990875,22.04249206022782L216.13246875,21.657846210219653L217.27406249999999,34.01753610697659L218.41565624999998,36.35137658119202L219.55724999999998,23.79645553935657L220.69884374999998,28.46838224367662L221.84043749999998,18.999021345918823L222.98203124999998,28.818350330266078L224.12362499999998,24.083228126439174L225.26521875,23.95411297191273L226.4068125,33.75309668671001L227.54840625,29.623276929421866L228.69,15.419750963557853L229.83159375,17.816026137091892L230.9731875,24.996041100675402L232.11478125,34.62502278631384L233.256375,42.46816101074218L234.39796875,27.291154391115352L235.5395625,20.23122314756566L236.68115625,16.152966009486804L237.82274999999998,28.730686515027823L238.96434374999998,38.49187563982877L240.10593749999998,7.488531710884778L241.24753125,31.76294156204571L242.389125,38.04339619983326L243.53071875,39.329320311546326L244.6723125,21.901326812397343L245.81390625,34.698525901274245L246.9555,27.080584532564327L248.09709375,17.514528385075653L249.2386875,25.458484905416316L250.38028125,18.30870561382987L251.521875,22.68698798743161L252.66346875,31.011565479365256L253.8050625,29.283984587409275L254.94665625,34.45774491266771L256.08825,42.49648241129789" style="fill: none;" fill="none"></path></g></g></g></g></g></g><g transform="translate(51, 176)" clip-path="url(#clip_1)"><clipPath id="clip_1"><rect width="278" height="23"></rect></clipPath><g><g><line x1="0" y1="0" x2="0" y2="5" style="visibility: inherit;" fill="rgb(0, 0, 0)" stroke="rgb(204, 204, 204)" stroke-width="1px"></line><line x1="23.203125" y1="0" x2="23.203125" y2="5" style="visibility: inherit;" fill="rgb(0, 0, 0)" stroke="rgb(204, 204, 204)" stroke-width="1px"></line><line x1="46.40625" y1="0" x2="46.40625" y2="5" style="visibility: inherit;" fill="rgb(0, 0, 0)" stroke="rgb(204, 204, 204)" stroke-width="1px"></line><line x1="69.609375" y1="0" x2="69.609375" y2="5" style="visibility: inherit;" fill="rgb(0, 0, 0)" stroke="rgb(204, 204, 204)" stroke-width="1px"></line><line x1="92.8125" y1="0" x2="92.8125" y2="5" style="visibility: inherit;" fill="rgb(0, 0, 0)" stroke="rgb(204, 204, 204)" stroke-width="1px"></line><line x1="116.015625" y1="0" x2="116.015625" y2="5" style="visibility: inherit;" fill="rgb(0, 0, 0)" stroke="rgb(204, 204, 204)" stroke-width="1px"></line><line x1="139.21875" y1="0" x2="139.21875" y2="5" style="visibility: inherit;" fill="rgb(0, 0, 0)" stroke="rgb(204, 204, 204)" stroke-width="1px"></line><line x1="162.421875" y1="0" x2="162.421875" y2="5" style="visibility: inherit;" fill="rgb(0, 0, 0)" stroke="rgb(204, 204, 204)" stroke-width="1px"></line><line x1="185.625" y1="0" x2="185.625" y2="5" style="visibility: inherit;" fill="rgb(0, 0, 0)" stroke="rgb(204, 204, 204)" stroke-width="1px"></line><line x1="208.828125" y1="0" x2="208.828125" y2="5" style="visibility: inherit;" fill="rgb(0, 0, 0)" stroke="rgb(204, 204, 204)" stroke-width="1px"></line><line x1="232.03125" y1="0" x2="232.03125" y2="5" style="visibility: inherit;" fill="rgb(0, 0, 0)" stroke="rgb(204, 204, 204)" stroke-width="1px"></line><line x1="255.234375" y1="0" x2="255.234375" y2="5" style="visibility: inherit;" fill="rgb(0, 0, 0)" stroke="rgb(204, 204, 204)" stroke-width="1px"></line><line x1="278.4375" y1="0" x2="278.4375" y2="5" style="visibility: inherit;" fill="rgb(0, 0, 0)" stroke="rgb(204, 204, 204)" stroke-width="1px"></line></g><g transform="translate(0, 8)"><text x="0" y="0" dx="0em" dy="0.95em" style="text-anchor: middle; visibility: hidden; font-family: Roboto, sans-serif; font-size: 12px; font-weight: 200;" fill="rgb(33, 33, 33)" stroke="none" stroke-width="1px">-10k</text><text x="23.203125" y="0" dx="0em" dy="0.95em" style="text-anchor: middle; visibility: inherit; font-family: Roboto, sans-serif; font-size: 12px; font-weight: 200;" fill="rgb(33, 33, 33)" stroke="none" stroke-width="1px">0</text><text x="46.40625" y="0" dx="0em" dy="0.95em" style="text-anchor: middle; visibility: hidden; font-family: Roboto, sans-serif; font-size: 12px; font-weight: 200;" fill="rgb(33, 33, 33)" stroke="none" stroke-width="1px">10k</text><text x="69.609375" y="0" dx="0em" dy="0.95em" style="text-anchor: middle; visibility: inherit; font-family: Roboto, sans-serif; font-size: 12px; font-weight: 200;" fill="rgb(33, 33, 33)" stroke="none" stroke-width="1px">20k</text><text x="92.8125" y="0" dx="0em" dy="0.95em" style="text-anchor: middle; visibility: hidden; font-family: Roboto, sans-serif; font-size: 12px; font-weight: 200;" fill="rgb(33, 33, 33)" stroke="none" stroke-width="1px">30k</text><text x="116.015625" y="0" dx="0em" dy="0.95em" style="text-anchor: middle; visibility: inherit; font-family: Roboto, sans-serif; font-size: 12px; font-weight: 200;" fill="rgb(33, 33, 33)" stroke="none" stroke-width="1px">40k</text><text x="139.21875" y="0" dx="0em" dy="0.95em" style="text-anchor: middle; visibility: hidden; font-family: Roboto, sans-serif; font-size: 12px; font-weight: 200;" fill="rgb(33, 33, 33)" stroke="none" stroke-width="1px">50k</text><text x="162.421875" y="0" dx="0em" dy="0.95em" style="text-anchor: middle; visibility: inherit; font-family: Roboto, sans-serif; font-size: 12px; font-weight: 200;" fill="rgb(33, 33, 33)" stroke="none" stroke-width="1px">60k</text><text x="185.625" y="0" dx="0em" dy="0.95em" style="text-anchor: middle; visibility: hidden; font-family: Roboto, sans-serif; font-size: 12px; font-weight: 200;" fill="rgb(33, 33, 33)" stroke="none" stroke-width="1px">70k</text><text x="208.828125" y="0" dx="0em" dy="0.95em" style="text-anchor: middle; visibility: inherit; font-family: Roboto, sans-serif; font-size: 12px; font-weight: 200;" fill="rgb(33, 33, 33)" stroke="none" stroke-width="1px">80k</text><text x="232.03125" y="0" dx="0em" dy="0.95em" style="text-anchor: middle; visibility: hidden; font-family: Roboto, sans-serif; font-size: 12px; font-weight: 200;" fill="rgb(33, 33, 33)" stroke="none" stroke-width="1px">90k</text><text x="255.234375" y="0" dx="0em" dy="0.95em" style="text-anchor: middle; visibility: inherit; font-family: Roboto, sans-serif; font-size: 12px; font-weight: 200;" fill="rgb(33, 33, 33)" stroke="none" stroke-width="1px">100k</text><text x="278.4375" y="0" dx="0em" dy="0.95em" style="text-anchor: middle; visibility: hidden; font-family: Roboto, sans-serif; font-size: 12px; font-weight: 200;" fill="rgb(33, 33, 33)" stroke="none" stroke-width="1px">110k</text></g><line x1="0" y1="0" x2="278.4375" y2="0" fill="rgb(0, 0, 0)" stroke="rgb(204, 204, 204)" stroke-width="1px"></line></g></g></g></g></svg>