<svg viewBox="0 0 330 200" xmlns="http://www.w3.org/2000/svg"><g><g><g><g><g><line x1="61.953125" y1="176.921875" x2="56.953125" y2="176.921875" style="visibility: inherit;" fill="rgb(0, 0, 0)" stroke="rgb(204, 204, 204)" stroke-width="1px"></line><line x1="61.953125" y1="164.28459821428572" x2="56.953125" y2="164.28459821428572" style="visibility: inherit;" fill="rgb(0, 0, 0)" stroke="rgb(204, 204, 204)" stroke-width="1px"></line><line x1="61.953125" y1="151.64732142857144" x2="56.953125" y2="151.64732142857144" style="visibility: inherit;" fill="rgb(0, 0, 0)" stroke="rgb(204, 204, 204)" stroke-width="1px"></line><line x1="61.953125" y1="139.01004464285714" x2="56.953125" y2="139.01004464285714" style="visibility: inherit;" fill="rgb(0, 0, 0)" stroke="rgb(204, 204, 204)" stroke-width="1px"></line><line x1="61.953125" y1="126.37276785714286" x2="56.953125" y2="126.37276785714286" style="visibility: inherit;" fill="rgb(0, 0, 0)" stroke="rgb(204, 204, 204)" stroke-width="1px"></line><line x1="61.953125" y1="113.73549107142856" x2="56.953125" y2="113.73549107142856" style="visibility: inherit;" fill="rgb(0, 0, 0)" stroke="rgb(204, 204, 204)" stroke-width="1px"></line><line x1="61.953125" y1="101.09821428571428" x2="56.953125" y2="101.09821428571428" style="visibility: inherit;" fill="rgb(0, 0, 0)" stroke="rgb(204, 204, 204)" stroke-width="1px"></line><line x1="61.953125" y1="88.4609375" x2="56.953125" y2="88.4609375" style="visibility: inherit;" fill="rgb(0, 0, 0)" stroke="rgb(204, 204, 204)" stroke-width="1px"></line><line x1="61.953125" y1="75.82366071428572" x2="56.953125" y2="75.82366071428572" style="visibility: inherit;" fill="rgb(0, 0, 0)" stroke="rgb(204, 204, 204)" stroke-width="1px"></line><line x1="61.953125" y1="63.18638392857144" x2="56.953125" y2="63.18638392857144" style="visibility: inherit;" fill="rgb(0, 0, 0)" stroke="rgb(204, 204, 204)" stroke-width="1px"></line><line x1="61.953125" y1="50.54910714285714" x2="56.953125" y2="50.54910714285714" style="visibility: inherit;" fill="rgb(0, 0, 0)" stroke="rgb(204, 204, 204)" stroke-width="1px"></line><line x1="61.953125" y1="37.91183035714286" x2="56.953125" y2="37.91183035714286" style="visibility: inherit;" fill="rgb(0, 0, 0)" stroke="rgb(204, 204, 204)" stroke-width="1px"></line><line x1="61.953125" y1="25.27455357142858" x2="56.953125" y2="25.27455357142858" style="visibility: inherit;" fill="rgb(0, 0, 0)" stroke="rgb(204, 204, 204)" stroke-width="1px"></line><line x1="61.953125" y1="12.637276785714299" x2="56.953125" y2="12.637276785714299" style="visibility: inherit;" fill="rgb(0, 0, 0)" stroke="rgb(204, 204, 204)" stroke-width="1px"></line><line x1="61.953125" y1="0" x2="56.953125" y2="0" style="visibility: inherit;" fill="rgb(0, 0, 0)" stroke="rgb(204, 204, 204)" stroke-width="1px"></line></g><g transform="translate(51.953125, 0)"><text x="0" y="176.921875" dx="0em" dy="0.3em" style="text-anchor: end; visibility: hidden; font-family: Roboto, sans-serif; font-size: 12px; font-weight: 200;" fill="rgb(33, 33, 33)" stroke="none" stroke-width="1px">0</text><text x="0" y="164.28459821428572" dx="0em" dy="0.3em" style="text-anchor: end; visibility: inherit; font-family: Roboto, sans-serif; font-size: 12px; font-weight: 200;" fill="rgb(33, 33, 33)" stroke="none" stroke-width="1px">2e-3</text><text x="0" y="151.64732142857144" dx="0em" dy="0.3em" style="text-anchor: end; visibility: hidden; font-family: Roboto, sans-serif; font-size: 12px; font-weight: 200;" fill="rgb(33, 33, 33)" stroke="none" stroke-width="1px">4e-3</text><text x="0" y="139.01004464285714" dx="0em" dy="0.3em" style="text-anchor: end; visibility: inherit; font-family: Roboto, sans-serif; font-size: 12px; font-weight: 200;" fill="rgb(33, 33, 33)" stroke="none" stroke-width="1px">6e-3</text><text x="0" y="126.37276785714286" dx="0em" dy="0.3em" style="text-anchor: end; visibility: hidden; font-family: Roboto, sans-serif; font-size: 12px; font-weight: 200;" fill="rgb(33, 33, 33)" stroke="none" stroke-width="1px">8e-3</text><text x="0" y="113.73549107142856" dx="0em" dy="0.3em" style="text-anchor: end; visibility: inherit; font-family: Roboto, sans-serif; font-size: 12px; font-weight: 200;" fill="rgb(33, 33, 33)" stroke="none" stroke-width="1px">0.01</text><text x="0" y="101.09821428571428" dx="0em" dy="0.3em" style="text-anchor: end; visibility: hidden; font-family: Roboto, sans-serif; font-size: 12px; font-weight: 200;" fill="rgb(33, 33, 33)" stroke="none" stroke-width="1px">0.012</text><text x="0" y="88.4609375" dx="0em" dy="0.3em" style="text-anchor: end; visibility: inherit; font-family: Roboto, sans-serif; font-size: 12px; font-weight: 200;" fill="rgb(33, 33, 33)" stroke="none" stroke-width="1px">0.014</text><text x="0" y="75.82366071428572" dx="0em" dy="0.3em" style="text-anchor: end; visibility: hidden; font-family: Roboto, sans-serif; font-size: 12px; font-weight: 200;" fill="rgb(33, 33, 33)" stroke="none" stroke-width="1px">0.016</text><text x="0" y="63.18638392857144" dx="0em" dy="0.3em" style="text-anchor: end; visibility: inherit; font-family: Roboto, sans-serif; font-size: 12px; font-weight: 200;" fill="rgb(33, 33, 33)" stroke="none" stroke-width="1px">0.018</text><text x="0" y="50.54910714285714" dx="0em" dy="0.3em" style="text-anchor: end; visibility: hidden; font-family: Roboto, sans-serif; font-size: 12px; font-weight: 200;" fill="rgb(33, 33, 33)" stroke="none" stroke-width="1px">0.02</text><text x="0" y="37.91183035714286" dx="0em" dy="0.3em" style="text-anchor: end; visibility: inherit; font-family: Roboto, sans-serif; font-size: 12px; font-weight: 200;" fill="rgb(33, 33, 33)" stroke="none" stroke-width="1px">0.022</text><text x="0" y="25.27455357142858" dx="0em" dy="0.3em" style="text-anchor: end; visibility: hidden; font-family: Roboto, sans-serif; font-size: 12px; font-weight: 200;" fill="rgb(33, 33, 33)" stroke="none" stroke-width="1px">0.024</text><text x="0" y="12.637276785714299" dx="0em" dy="0.3em" style="text-anchor: end; visibility: inherit; font-family: Roboto, sans-serif; font-size: 12px; font-weight: 200;" fill="rgb(33, 33, 33)" stroke="none" stroke-width="1px">0.026</text><text x="0" y="0" dx="0em" dy="0.3em" style="text-anchor: end; visibility: hidden; font-family: Roboto, sans-serif; font-size: 12px; font-weight: 200;" fill="rgb(33, 33, 33)" stroke="none" stroke-width="1px">0.028</text></g><line x1="61.953125" y1="0" x2="61.953125" y2="176.921875" fill="rgb(0, 0, 0)" stroke="rgb(204, 204, 204)" stroke-width="1px"></line></g></g><g transform="translate(61, 0)" clip-path="url(#clip_0)"><clipPath id="clip_0"><rect width="268" height="176"></rect></clipPath><g><g><g><line x1="0" y1="0" x2="0" y2="176.921875" fill="rgb(0, 0, 0)" stroke="rgb(66, 66, 66)" stroke-width="1px" opacity="0.25"></line><line x1="22.337239583333332" y1="0" x2="22.337239583333332" y2="176.921875" fill="rgb(0, 0, 0)" stroke="rgb(66, 66, 66)" stroke-width="1px" opacity="0.25"></line><line x1="44.674479166666664" y1="0" x2="44.674479166666664" y2="176.921875" fill="rgb(0, 0, 0)" stroke="rgb(66, 66, 66)" stroke-width="1px" opacity="0.25"></line><line x1="67.01171875" y1="0" x2="67.01171875" y2="176.921875" fill="rgb(0, 0, 0)" stroke="rgb(66, 66, 66)" stroke-width="1px" opacity="0.25"></line><line x1="89.34895833333333" y1="0" x2="89.34895833333333" y2="176.921875" fill="rgb(0, 0, 0)" stroke="rgb(66, 66, 66)" stroke-width="1px" opacity="0.25"></line><line x1="111.68619791666667" y1="0" x2="111.68619791666667" y2="176.921875" fill="rgb(0, 0, 0)" stroke="rgb(66, 66, 66)" stroke-width="1px" opacity="0.25"></line><line x1="134.0234375" y1="0" x2="134.0234375" y2="176.921875" fill="rgb(0, 0, 0)" stroke="rgb(66, 66, 66)" stroke-width="1px" opacity="0.25"></line><line x1="156.36067708333334" y1="0" x2="156.36067708333334" y2="176.921875" fill="rgb(0, 0, 0)" stroke="rgb(66, 66, 66)" stroke-width="1px" opacity="0.25"></line><line x1="178.69791666666666" y1="0" x2="178.69791666666666" y2="176.921875" fill="rgb(0, 0, 0)" stroke="rgb(66, 66, 66)" stroke-width="1px" opacity="0.25"></line><line x1="201.03515625" y1="0" x2="201.03515625" y2="176.921875" fill="rgb(0, 0, 0)" stroke="rgb(66, 66, 66)" stroke-width="1px" opacity="0.25"></line><line x1="223.37239583333334" y1="0" x2="223.37239583333334" y2="176.921875" fill="rgb(0, 0, 0)" stroke="rgb(66, 66, 66)" stroke-width="1px" opacity="0.25"></line><line x1="245.70963541666666" y1="0" x2="245.70963541666666" y2="176.921875" fill="rgb(0, 0, 0)" stroke="rgb(66, 66, 66)" stroke-width="1px" opacity="0.25"></line><line x1="268.046875" y1="0" x2="268.046875" y2="176.921875" fill="rgb(0, 0, 0)" stroke="rgb(66, 66, 66)" stroke-width="1px" opacity="0.25"></line></g><g><line x1="0" y1="176.921875" x2="268.046875" y2="176.921875" fill="rgb(0, 0, 0)" stroke="rgb(66, 66, 66)" stroke-width="1px" opacity="0.25"></line><line x1="0" y1="164.28459821428572" x2="268.046875" y2="164.28459821428572" fill="rgb(0, 0, 0)" stroke="rgb(66, 66, 66)" stroke-width="1px" opacity="0.25"></line><line x1="0" y1="151.64732142857144" x2="268.046875" y2="151.64732142857144" fill="rgb(0, 0, 0)" stroke="rgb(66, 66, 66)" stroke-width="1px" opacity="0.25"></line><line x1="0" y1="139.01004464285714" x2="268.046875" y2="139.01004464285714" fill="rgb(0, 0, 0)" stroke="rgb(66, 66, 66)" stroke-width="1px" opacity="0.25"></line><line x1="0" y1="126.37276785714286" x2="268.046875" y2="126.37276785714286" fill="rgb(0, 0, 0)" stroke="rgb(66, 66, 66)" stroke-width="1px" opacity="0.25"></line><line x1="0" y1="113.73549107142856" x2="268.046875" y2="113.73549107142856" fill="rgb(0, 0, 0)" stroke="rgb(66, 66, 66)" stroke-width="1px" opacity="0.25"></line><line x1="0" y1="101.09821428571428" x2="268.046875" y2="101.09821428571428" fill="rgb(0, 0, 0)" stroke="rgb(66, 66, 66)" stroke-width="1px" opacity="0.25"></line><line x1="0" y1="88.4609375" x2="268.046875" y2="88.4609375" fill="rgb(0, 0, 0)" stroke="rgb(66, 66, 66)" stroke-width="1px" opacity="0.25"></line><line x1="0" y1="75.82366071428572" x2="268.046875" y2="75.82366071428572" fill="rgb(0, 0, 0)" stroke="rgb(66, 66, 66)" stroke-width="1px" opacity="0.25"></line><line x1="0" y1="63.18638392857144" x2="268.046875" y2="63.18638392857144" fill="rgb(0, 0, 0)" stroke="rgb(66, 66, 66)" stroke-width="1px" opacity="0.25"></line><line x1="0" y1="50.54910714285714" x2="268.046875" y2="50.54910714285714" fill="rgb(0, 0, 0)" stroke="rgb(66, 66, 66)" stroke-width="1px" opacity="0.25"></line><line x1="0" y1="37.91183035714286" x2="268.046875" y2="37.91183035714286" fill="rgb(0, 0, 0)" stroke="rgb(66, 66, 66)" stroke-width="1px" opacity="0.25"></line><line x1="0" y1="25.27455357142858" x2="268.046875" y2="25.27455357142858" fill="rgb(0, 0, 0)" stroke="rgb(66, 66, 66)" stroke-width="1px" opacity="0.25"></line><line x1="0" y1="12.637276785714299" x2="268.046875" y2="12.637276785714299" fill="rgb(0, 0, 0)" stroke="rgb(66, 66, 66)" stroke-width="1px" opacity="0.25"></line><line x1="0" y1="0" x2="268.046875" y2="0" fill="rgb(0, 0, 0)" stroke="rgb(66, 66, 66)" stroke-width="1px" opacity="0.25"></line></g></g></g><g><g><line x1="0" y1="176.921875" x2="268.046875" y2="176.921875" fill="rgb(0, 0, 0)" stroke="rgb(153, 153, 153)" stroke-width="1.5px"></line></g></g><g><g><line x1="22.337239583333332" y1="0" x2="22.337239583333332" y2="176.921875" fill="rgb(0, 0, 0)" stroke="rgb(153, 153, 153)" stroke-width="1.5px"></line></g></g><g><g><g><g><g><path stroke="rgb(51, 187, 238)" stroke-width="2px" d="M23.436231770833334,23.787349712103605L24.535223958333333,31.710567083868717L25.634216145833335,38.68183828575299L26.73320833333333,43.53615244416386L27.832200520833332,47.65585683465618L28.931192708333334,52.286548204065475L30.030184895833333,56.91498989908754L31.129177083333335,61.399574469248705L32.228169270833334,65.67085900450847L33.327161458333336,70.14783578371804L34.42615364583334,74.45083707843337L35.52514583333333,78.7067040491816L36.624138020833335,82.71824039202926L37.72313020833333,86.5849930791958L38.82212239583333,90.29664936407042L39.921114583333335,93.82945064724296L41.02010677083333,97.11621787054656L42.11909895833334,100.15410707986271L43.218091145833334,103.08619842177804L44.317083333333336,105.94335789526936L45.41607552083333,108.69525075262106L46.51506770833333,111.37954251518913L47.614059895833336,113.94313741747864L48.71305208333333,116.37859630090995L49.81204427083333,118.68288208999473L50.911036458333335,120.8945197664283L52.01002864583334,122.99290509484511L53.10902083333333,124.99581600256154L54.20801302083333,126.90317056009322L55.30700520833334,128.69816484818924L56.40599739583333,130.36531558201995L57.504989583333334,131.92836929494794L58.603981770833336,133.4183192010187L59.70297395833334,134.8368954944054L60.80196614583333,136.18614485248796L61.90095833333333,137.46869886761723L62.99995052083334,138.67664804375627L64.09894270833334,139.82049535076536L65.19793489583333,140.8740184062549L66.29692708333333,141.8807048537795L67.39591927083333,142.8213471959597L68.49491145833333,143.722121511008L69.59390364583334,144.58435722666613L70.69289583333332,145.38596012769443L71.79188802083333,146.15602358701838L72.89088020833334,146.89551801969267L73.98987239583334,147.60534434159445L75.08886458333333,148.2865411356714L76.18785677083333,148.9403592162314L77.28684895833334,149.5644932755329L78.38584114583333,150.16401754134375L79.48483333333333,150.7346566618213L80.58382552083333,151.27560719874106L81.68281770833335,151.782276394118L82.78180989583333,152.2414601968729L83.88080208333334,152.656679594058L84.97979427083334,153.05196752743768L86.07878645833333,153.42476556201098L87.17777864583333,153.79009576916064L88.27677083333333,154.1524105143981L89.37576302083335,154.5104568460903L90.47475520833333,154.8595572991174L91.57374739583334,155.18938168731069L92.67273958333334,155.5080879738481L93.77173177083333,155.797879725508L94.87072395833333,156.0807436022757L95.96971614583333,156.36350149734946L97.06870833333333,156.64319380759633L98.16770052083334,156.91614851907985L99.26669270833334,157.17141188806877L100.36568489583334,157.42407674493867L101.46467708333333,157.665253886219L102.56366927083333,157.90259815450344L103.66266145833333,158.13952641842494L104.76165364583333,158.3576525185036L105.86064583333334,158.56967103778658L106.95963802083334,158.780687255586L108.05863020833334,158.991991113214L109.15762239583333,159.20275608024755L110.25661458333333,159.41221935988222L111.35560677083333,159.61987314431985L112.45459895833332,159.81794588244207L113.55359114583332,160.01456013239186L114.65258333333334,160.20928941844448L115.75157552083334,160.39963531115538L116.85056770833333,160.57768360541624L117.94955989583333,160.7517112154463L119.04855208333333,160.91859160291156L120.14754427083332,161.08386885529117L121.24653645833332,161.2485216067175L122.34552864583334,161.4052888453364L123.44452083333334,161.55586404517686L124.54351302083333,161.69855195643515L125.64250520833333,161.84211655524058L126.74149739583333,161.9834514069016L127.84048958333332,162.1222600619329L128.93948177083334,162.26132703892839L130.03847395833333,162.39190549749088L131.13746614583334,162.5019582068451L132.23645833333333,162.60281532380273L133.33545052083335,162.6989811794262L134.43444270833334,162.78410577845835L135.53343489583335,162.87515933519055L136.63242708333334,162.97154754963987L137.73141927083333,163.07032569470826L138.83041145833334,163.17040616767576L139.92940364583333,163.26875572731552L141.02839583333335,163.3700316400941L142.12738802083334,163.45869079102386L143.22638020833332,163.55127063000006L144.32537239583334,163.62937892222877L145.42436458333333,163.70661476332398L146.52335677083332,163.7887656063036L147.62234895833333,163.87481923871474L148.72134114583332,163.96389784658197L149.8203333333333,164.0552528605946L150.91932552083335,164.14103023991234L152.01831770833334,164.21877072489676L153.11730989583333,164.29273610056677L154.21630208333335,164.36263817625974L155.31529427083333,164.43070642874628L156.41428645833335,164.49061308799656L157.51327864583334,164.55585605538977L158.61227083333333,164.62539931318298L159.71126302083334,164.6983721767114L160.81025520833333,164.77406170714602L161.90924739583332,164.84810357528357L163.00823958333334,164.92264737737793L164.10723177083332,164.99907417391796L165.2062239583333,165.0758175130325L166.30521614583333,165.15025186717307L167.40420833333334,165.22579980608765L168.50320052083333,165.2928737483689L169.60219270833335,165.3593993855165L170.70118489583334,165.42491488687796L171.80017708333335,165.48646255977584L172.89916927083334,165.5501847084947L173.99816145833333,165.61533687049945L175.09715364583334,165.6812086850576L176.19614583333333,165.74291346774484L177.29513802083332,165.8042006026867L178.39413020833334,165.8673180904495L179.49312239583332,165.931825098822L180.5921145833333,165.99729903375527L181.69110677083333,166.05710213003493L182.79009895833332,166.11707471615767L183.88909114583333,166.1771326688586L184.98808333333335,166.23450980998905L186.08707552083334,166.29080609005143L187.18606770833335,166.3452611026203L188.28505989583334,166.40139420113422L189.38405208333333,166.4560866514527L190.48304427083335,166.5121748564015L191.58203645833333,166.5693584239786L192.68102864583332,166.6273338032991L193.78002083333334,166.6858661470799L194.87901302083333,166.74476576554565L195.97800520833331,166.80385123054285L197.07699739583333,166.86297627247322L198.17598958333332,166.92202483752445L199.2749817708333,166.98087290222784L200.37397395833335,167.03947727723795L201.47296614583334,167.09775877150096L202.57195833333336,167.15565636188427L203.67095052083334,167.213139804963L204.76994270833333,167.2701911174823L205.86893489583335,167.32675794012508L206.96792708333334,167.38282235891722L208.06691927083332,167.4383553547372L209.16591145833334,167.49333612316L210.26490364583333,167.54684419533126L211.36389583333332,167.59743801382163L212.46288802083333,167.64798513067052L213.56188020833332,167.69839854319218L214.6608723958333,167.74862272554114L215.75986458333333,167.79858068950264L216.85885677083334,167.84823590363666L217.95784895833336,167.8975730945457L219.05684114583335,167.94582059610948L220.15583333333333,167.9845840504595L221.25482552083335,168.00800574617287L222.35381770833334,168.02373348266812L223.45280989583333,168.0386673128237L224.55180208333334,168.05086587174395L225.65079427083333,168.0654781339799L226.74978645833332,168.08470927707734L227.84877864583333,168.10779640430988L228.94777083333332,168.13373002769322L230.0467630208333,168.16089317803232L231.14575520833333,168.18863866892866L232.24474739583334,168.21868593320204L233.34373958333336,168.2489977827467L234.44273177083335,168.28109801849936L235.54172395833334,168.31237403214124L236.64071614583335,168.34417498058076L237.73970833333334,168.3739114939226L238.83870052083333,168.4027111726422L239.93769270833334,168.4268239155378L241.03668489583333,168.44424275263478L242.13567708333332,168.45394221358185L243.23466927083334,168.45865252056478L244.33366145833332,168.46175139998627L245.4326536458333,168.4617218894225L246.53164583333333,168.46544520622305" style="fill: none;" fill="none"></path></g><g><path stroke="rgb(204, 51, 17)" stroke-width="2px" d="M23.436231770833334,8.98409279463314L24.535223958333333,22.17202155253854L25.634216145833335,33.283481036794626L26.73320833333333,42.059277792352255L27.832200520833332,49.78079781187808L28.931192708333334,56.63993317780914L30.030184895833333,62.55673766515625L31.129177083333335,67.903803857505L32.228169270833334,73.24060914621761L33.327161458333336,78.11158677957262L34.42615364583334,82.61929766617307L35.52514583333333,86.89118468900372L36.624138020833335,90.83369781484261L37.72313020833333,94.64671904765757L38.82212239583333,98.23971926605483L39.921114583333335,101.64377727545428L41.02010677083333,104.82549964742762L42.11909895833334,107.81972600996438L43.218091145833334,110.6707411551276L44.317083333333336,113.30755535808026L45.41607552083333,115.73262779001568L46.51506770833333,118.01683137193692L47.614059895833336,120.1618176162685L48.71305208333333,122.17561814056441L49.81204427083333,124.06047360177816L50.911036458333335,125.80587512280255L52.01002864583334,127.46959082144078L53.10902083333333,129.09140673829359L54.20801302083333,130.6069795887694L55.30700520833334,132.00579062438408L56.40599739583333,133.35191581154456L57.504989583333334,134.64859155684576L58.603981770833336,135.8982698302279L59.70297395833334,137.09149936767113L60.80196614583333,138.19892238381624L61.90095833333333,139.22581383112916L62.99995052083334,140.17107007714327L64.09894270833334,141.0647582125476L65.19793489583333,141.930137522012L66.29692708333333,142.74643278391176L67.39591927083333,143.54686373395148L68.49491145833333,144.30819844207554L69.59390364583334,145.03980768177755L70.69289583333332,145.7466435140332L71.79188802083333,146.40567419122402L72.89088020833334,146.99730283617964L73.98987239583334,147.57630990888975L75.08886458333333,148.13384835592643L76.18785677083333,148.67405933154134L77.28684895833334,149.20044897111288L78.38584114583333,149.71954485313026L79.48483333333333,150.22201417776614L80.58382552083333,150.69163116456573L81.68281770833335,151.14052995680098L82.78180989583333,151.56823313045143L83.88080208333334,151.99012795699926L84.97979427083334,152.4034174817699L86.07878645833333,152.80671578998357L87.17777864583333,153.20111649797167L88.27677083333333,153.58255211512295L89.37576302083335,153.95467115524932L90.47475520833333,154.31831280623254L91.57374739583334,154.67384797073825L92.67273958333334,155.0145061450745L93.77173177083333,155.3359128121477L94.87072395833333,155.65254563424398L95.96971614583333,155.96451096020715L97.06870833333333,156.2692924852552L98.16770052083334,156.56772013690724L99.26669270833334,156.8605288906517L100.36568489583334,157.14642619781063L101.46467708333333,157.42361912922865L102.56366927083333,157.6935555510468L103.66266145833333,157.95470236786207L104.76165364583333,158.19940006182554L105.86064583333334,158.44063882724413L106.95963802083334,158.67718735082977L108.05863020833334,158.9084176371741L109.15762239583333,159.1338616482212L110.25661458333333,159.35190893149715L111.35560677083333,159.54935021307685L112.45459895833332,159.740335611778L113.55359114583332,159.9210525731285L114.65258333333334,160.08530270436313L115.75157552083334,160.24872842206355L116.85056770833333,160.40523959578098L117.94955989583333,160.55765647584587L119.04855208333333,160.71299590497156L120.14754427083332,160.8625977763342L121.24653645833332,161.00326802630414L122.34552864583334,161.1444284386359L123.44452083333334,161.28802004120934L124.54351302083333,161.4278701858465L125.64250520833333,161.56915707489105L126.74149739583333,161.70721504638985L127.84048958333332,161.8413491467951L128.93948177083334,161.97701673066464L130.03847395833333,162.11079415392894L131.13746614583334,162.24107904480488L132.23645833333333,162.36809075090488L133.33545052083335,162.49277285666707L134.43444270833334,162.61536380248307L135.53343489583335,162.73694984896545L136.63242708333334,162.85388632629267L137.73141927083333,162.96865373138948L138.83041145833334,163.08450182232485L139.92940364583333,163.19977827193645L141.02839583333335,163.31544270308706L142.12738802083334,163.42961943189337L143.22638020833332,163.5256969113678L144.32537239583334,163.60964566064567L145.42436458333333,163.6876971833012L146.52335677083332,163.74960472969258L147.62234895833333,163.8072941866305L148.72134114583332,163.85815675929396L149.8203333333333,163.91587665662848L150.91932552083335,163.97950339919097L152.01831770833334,164.04509879185142L153.11730989583333,164.10952765897443L154.21630208333335,164.1793727454309L155.31529427083333,164.25353838080463L156.41428645833335,164.31969158366633L157.51327864583334,164.38841250317938L158.61227083333333,164.45710811949797L159.71126302083334,164.52896128507584L160.81025520833333,164.6038772680397L161.90924739583332,164.67710549263037L163.00823958333334,164.73997156886344L164.10723177083332,164.80569695366106L165.2062239583333,164.87463438476516L166.30521614583333,164.94253666240417L167.40420833333334,165.0082707537141L168.50320052083333,165.0750679675292L169.60219270833335,165.14377390384567L170.70118489583334,165.21008793905233L171.80017708333335,165.24716161667942L172.89916927083334,165.27372470297385L173.99816145833333,165.28920021056138L175.09715364583334,165.31132817734675L176.19614583333333,165.3420941622345L177.29513802083332,165.38001643272793L178.39413020833334,165.42137575232343L179.49312239583332,165.46148567887153L180.5921145833333,165.50409168914854L181.69110677083333,165.5511392259584L182.79009895833332,165.60034053383274L183.88909114583333,165.6466336425701L184.98808333333335,165.6817780264623L186.08707552083334,165.72165685995034L187.18606770833335,165.76403929799125L188.28505989583334,165.810436799494L189.38405208333333,165.85063324916567L190.48304427083335,165.88960600072474L191.58203645833333,165.93126637647154L192.68102864583332,165.97566869391162L193.78002083333334,166.01975366136963L194.87901302083333,166.06519824182547L195.97800520833331,166.11133121211844L197.07699739583333,166.15915346562164L198.17598958333332,166.2075871647038L199.2749817708333,166.25795700077043L200.37397395833335,166.31004912781003L201.47296614583334,166.36264559304024L202.57195833333336,166.41554418810577L203.67095052083334,166.46839627451143L204.76994270833333,166.51532538847687L205.86893489583335,166.5564781738417L206.96792708333334,166.58900280137615L208.06691927083332,166.6245012658852L209.16591145833334,166.66126246724534L210.26490364583333,166.7010530660764L211.36389583333332,166.74048090488424L212.46288802083333,166.7804693090152L213.56188020833332,166.81533079130423L214.6608723958333,166.84950809201638L215.75986458333333,166.88533145122642L216.85885677083334,166.92382383960665L217.95784895833336,166.96448637099377L219.05684114583335,167.00690128141193L220.15583333333333,167.0478515257786L221.25482552083335,167.09035000916285L222.35381770833334,167.134106788965L223.45280989583333,167.17883602332793L224.55180208333334,167.22335543971909L225.65079427083333,167.26706769486685L226.74978645833332,167.3100791880106L227.84877864583333,167.3527650304105L228.94777083333332,167.3955726103473L230.0467630208333,167.4375423741536L231.14575520833333,167.47939405376255L232.24474739583334,167.52191794811782L233.34373958333336,167.56487464054436L234.44273177083335,167.60676713510048L235.54172395833334,167.64863081376242L236.64071614583335,167.68946162040478L237.73970833333334,167.7296540295162L238.83870052083333,167.76961042988478L239.93769270833334,167.80845439001706L241.03668489583333,167.8464593624066L242.13567708333332,167.88514564620542L243.23466927083334,167.92435102085827L244.33366145833332,167.95660475952494L245.4326536458333,167.9892067623136L246.53164583333333,168.02285795644102" style="fill: none;" fill="none"></path></g><g><path stroke="rgb(0, 119, 187)" stroke-width="2px" d="M23.436231770833334,24.978587625423526L24.535223958333333,34.17304448366216L25.634216145833335,41.536228380659644L26.73320833333333,48.37198397777513L27.832200520833332,54.5559066999117L28.931192708333334,59.56129930520723L30.030184895833333,63.78757950694542L31.129177083333335,67.75892124850179L32.228169270833334,72.07652634216396L33.327161458333336,76.11495062203217L34.42615364583334,80.09545042365262L35.52514583333333,84.16494129280707L36.624138020833335,88.01075933669097L37.72313020833333,91.53858693652421L38.82212239583333,94.68877630890894L39.921114583333335,97.50752559321617L41.02010677083333,100.18494128162682L42.11909895833334,102.70472528276179L43.218091145833334,105.07241397557998L44.317083333333336,107.29858310812405L45.41607552083333,109.45739024047057L46.51506770833333,111.47705335534533L47.614059895833336,113.39654492055871L48.71305208333333,115.25614328902877L49.81204427083333,117.05226689171299L50.911036458333335,118.78096568621866L52.01002864583334,120.45610981813783L53.10902083333333,122.10267700395916L54.20801302083333,123.70748781283882L55.30700520833334,125.19863529281717L56.40599739583333,126.66063044761513L57.504989583333334,128.0753194569428L58.603981770833336,129.43169258221698L59.70297395833334,130.7338477233323L60.80196614583333,132.0028834775692L61.90095833333333,133.22700376812756L62.99995052083334,134.4146104632199L64.09894270833334,135.56348468887012L65.19793489583333,136.6347181274111L66.29692708333333,137.63034380409556L67.39591927083333,138.55339289014782L68.49491145833333,139.40299563426575L69.59390364583334,140.2283212288184L70.69289583333332,141.03696210707432L71.79188802083333,141.8203296914711L72.89088020833334,142.5835148962532L73.98987239583334,143.3180037743531L75.08886458333333,144.00127433094715L76.18785677083333,144.66989628180042L77.28684895833334,145.32250998106434L78.38584114583333,145.9582328220587L79.48483333333333,146.57645090198832L80.58382552083333,147.17697791217148L81.68281770833335,147.75958673909614L82.78180989583333,148.31775122983095L83.88080208333334,148.8594309656336L84.97979427083334,149.38477870152536L86.07878645833333,149.89386872612124L87.17777864583333,150.3712868119409L88.27677083333333,150.82952669977035L89.37576302083335,151.25906814712L90.47475520833333,151.66083336181748L91.57374739583334,152.0542540129556L92.67273958333334,152.4382022310621L93.77173177083333,152.8145748895758L94.87072395833333,153.16839345744506L95.96971614583333,153.5167004683988L97.06870833333333,153.8559732838529L98.16770052083334,154.14519093878977L99.26669270833334,154.41805642554345L100.36568489583334,154.66770306196634L101.46467708333333,154.91142848893492L102.56366927083333,155.1552612034145L103.66266145833333,155.40149145497227L104.76165364583333,155.6500944125751L105.86064583333334,155.88779246531692L106.95963802083334,156.12339052173394L108.05863020833334,156.35188861212484L109.15762239583333,156.57156969194057L110.25661458333333,156.7759161478863L111.35560677083333,156.9784228904964L112.45459895833332,157.17776730985508L113.55359114583332,157.3699290325036L114.65258333333334,157.55471548323692L115.75157552083334,157.74057860847574L116.85056770833333,157.92721898892887L117.94955989583333,158.0963266234363L119.04855208333333,158.26345157322734L120.14754427083332,158.43118053723174L121.24653645833332,158.5975908633874L122.34552864583334,158.7671217419295L123.44452083333334,158.9373015740514L124.54351302083333,159.10585693245756L125.64250520833333,159.27089380171782L126.74149739583333,159.4332129327257L127.84048958333332,159.58724851046327L128.93948177083334,159.73993827358524L130.03847395833333,159.8935226991264L131.13746614583334,160.03195729573616L132.23645833333333,160.16807917763734L133.33545052083335,160.2980556506508L134.43444270833334,160.4302439807031L135.53343489583335,160.55972740604605L136.63242708333334,160.68610818165985L137.73141927083333,160.81082223785197L138.83041145833334,160.93720154236678L139.92940364583333,161.065298854704L141.02839583333335,161.19473399863801L142.12738802083334,161.320018242879L143.22638020833332,161.44043780923346L144.32537239583334,161.55738817866708L145.42436458333333,161.66735003777285L146.52335677083332,161.76862954445548L147.62234895833333,161.87130091861732L148.72134114583332,161.97301041042388L149.8203333333333,162.07263650530118L150.91932552083335,162.17101427333796L152.01831770833334,162.2625446208658L153.11730989583333,162.35638391969852L154.21630208333335,162.45225379532246L155.31529427083333,162.54716293217558L156.41428645833335,162.64232704323848L157.51327864583334,162.73952625177742L158.61227083333333,162.83722127355838L159.71126302083334,162.93541431113556L160.81025520833333,163.0343883777719L161.90924739583332,163.13386191556825L163.00823958333334,163.22445410128486L164.10723177083332,163.30966130625936L165.2062239583333,163.38129079048184L166.30521614583333,163.45681129820463L167.40420833333334,163.53537723361345L168.50320052083333,163.61517550849462L169.60219270833335,163.69395574553502L170.70118489583334,163.77472421043143L171.80017708333335,163.85696221378512L172.89916927083334,163.9391338758079L173.99816145833333,164.0222022468975L175.09715364583334,164.10462203968697L176.19614583333333,164.1857380361143L177.29513802083332,164.26737935895883L178.39413020833334,164.3492836069123L179.49312239583332,164.4295434300816L180.5921145833333,164.49511473462093L181.69110677083333,164.56062893380897L182.79009895833332,164.6274539569717L183.88909114583333,164.69405654660716L184.98808333333335,164.76233345501555L186.08707552083334,164.8318700135415L187.18606770833335,164.9021063184853L188.28505989583334,164.97304002217618L189.38405208333333,165.04246237012796L190.48304427083335,165.10469334431505L191.58203645833333,165.16842276247615L192.68102864583332,165.2319318821952L193.78002083333334,165.29530935856442L194.87901302083333,165.3582378556543L195.97800520833331,165.42124858109133L197.07699739583333,165.4833761014261L198.17598958333332,165.5451080752795L199.2749817708333,165.6075343910609L200.37397395833335,165.66813626182045L201.47296614583334,165.7293776729232L202.57195833333336,165.79104992793452L203.67095052083334,165.8529495951291L204.76994270833333,165.91493663824917L205.86893489583335,165.97479946728595L206.96792708333334,166.03198890638853L208.06691927083332,166.08469545359077L209.16591145833334,166.13849120961L210.26490364583333,166.1908024606431L211.36389583333332,166.24326983541152L212.46288802083333,166.2954250327475L213.56188020833332,166.34731807906633L214.6608723958333,166.39396758935902L215.75986458333333,166.4412938980881L216.85885677083334,166.48989988295008L217.95784895833336,166.5394734344993L219.05684114583335,166.5862653389894L220.15583333333333,166.63148573197566L221.25482552083335,166.66101272499884L222.35381770833334,166.67249937976604L223.45280989583333,166.67528482311576L224.55180208333334,166.67985854690136L225.65079427083333,166.68143132196374L226.74978645833332,166.6877625176587L227.84877864583333,166.69719895359952L228.94777083333332,166.70382448011705L230.0467630208333,166.71426845693418L231.14575520833333,166.72432932206223L232.24474739583334,166.74049283112262L233.34373958333336,166.7522726532139L234.44273177083335,166.75620488799854L235.54172395833334,166.74037386228906L236.64071614583335,166.7055723936611L237.73970833333334,166.66724553886903L238.83870052083333,166.6318922715442L239.93769270833334,166.59622932356385L241.03668489583333,166.5482762003235L242.13567708333332,166.48742637397007L243.23466927083334,166.3994502818961L244.33366145833332,166.30197563239884L245.4326536458333,166.20351399483525L246.53164583333333,166.1080389444209" style="fill: none;" fill="none"></path></g><g><path stroke="rgb(255, 112, 67)" stroke-width="2px" d="M23.436231770833334,17.431836812391083L24.535223958333333,32.90621915130348L25.634216145833335,45.960903651753796L26.73320833333333,55.03000240133834L27.832200520833332,60.723313831586275L28.931192708333334,66.32856357556435L30.030184895833333,71.61688340379466L31.129177083333335,76.65144634010831L32.228169270833334,81.3940821866367L33.327161458333336,85.8983578953918L34.42615364583334,90.13359397827348L35.52514583333333,94.0989134262258L36.624138020833335,97.67244075088374L37.72313020833333,101.14750726611841L38.82212239583333,104.42939474817827L39.921114583333335,107.52405862489334L41.02010677083333,110.30965751363426L42.11909895833334,112.913643824219L43.218091145833334,115.37115270153718L44.317083333333336,117.75931242623483L45.41607552083333,120.07160544437238L46.51506770833333,122.24716006636598L47.614059895833336,124.34727612101682L48.71305208333333,126.37300246233177L49.81204427083333,128.3063410537219L50.911036458333335,130.16020653709776L52.01002864583334,131.91062910059983L53.10902083333333,133.5813160288446L54.20801302083333,135.14313768555579L55.30700520833334,136.63143859872022L56.40599739583333,138.04727215776458L57.504989583333334,139.3921537479014L58.603981770833336,140.66344724170787L59.70297395833334,141.86976302717284L60.80196614583333,143.01364187132063L61.90095833333333,144.08229489662165L62.99995052083334,145.0600750756209L64.09894270833334,145.98675427785815L65.19793489583333,146.87165028104712L66.29692708333333,147.71350690785843L67.39591927083333,148.5115434057549L68.49491145833333,149.27209317805932L69.59390364583334,149.99656434696155L70.69289583333332,150.68612015209217L71.79188802083333,151.31960096891393L72.89088020833334,151.9263633491352L73.98987239583334,152.50975345794436L75.08886458333333,153.07048308681362L76.18785677083333,153.6092651042725L77.28684895833334,154.1263966794248L78.38584114583333,154.6148045350586L79.48483333333333,155.08529544489656L80.58382552083333,155.53847249494504L81.68281770833335,155.97392323873436L82.78180989583333,156.3934890639574L83.88080208333334,156.79558051692987L84.97979427083334,157.18342001771416L86.07878645833333,157.55760120756995L87.17777864583333,157.91862024576284L88.27677083333333,158.26514880854148L89.37576302083335,158.59672903204324L90.47475520833333,158.9175035955187L91.57374739583334,159.22791832904613L92.67273958333334,159.52589721961772L93.77173177083333,159.80960014895865L94.87072395833333,160.08517842114642L95.96971614583333,160.3509395445054L97.06870833333333,160.60928757293263L98.16770052083334,160.85667455681562L99.26669270833334,161.09744657423926L100.36568489583334,161.32200607954573L101.46467708333333,161.5415459848496L102.56366927083333,161.75308742079773L103.66266145833333,161.96048298360682L104.76165364583333,162.1604848061563L105.86064583333334,162.35358255356718L106.95963802083334,162.54329139624727L108.05863020833334,162.72950577175274L109.15762239583333,162.91205672568125L110.25661458333333,163.09090061036684L111.35560677083333,163.26605769857377L112.45459895833332,163.43746290768487L113.55359114583332,163.60515690984528L114.65258333333334,163.7691615859198L115.75157552083334,163.9295170492595L116.85056770833333,164.08627902136806L117.94955989583333,164.23953591034402L119.04855208333333,164.386374357118L120.14754427083332,164.5300242472115L121.24653645833332,164.67087780323303L122.34552864583334,164.8040495372942L123.44452083333334,164.92890623608486L124.54351302083333,165.04506965807045L125.64250520833333,165.16113956419753L126.74149739583333,165.2768017271064L127.84048958333332,165.38846545323298L128.93948177083334,165.49753266589255L130.03847395833333,165.59835570111204L131.13746614583334,165.69297080547733L132.23645833333333,165.78864466437207L133.33545052083335,165.88309754859642L134.43444270833334,165.97830989953152L135.53343489583335,166.0722162499118L136.63242708333334,166.15606850548812L137.73141927083333,166.2278883221651L138.83041145833334,166.28194194617285L139.92940364583333,166.32138442790514L141.02839583333335,166.3607231403258L142.12738802083334,166.39585462282594L143.22638020833332,166.42442873887467L144.32537239583334,166.43327229317785L145.42436458333333,166.4314808738512L146.52335677083332,166.41524327781266L147.62234895833333,166.38214310355815L148.72134114583332,166.3384098106676L149.8203333333333,166.27515328268305L150.91932552083335,166.20333791773453L152.01831770833334,166.12565148143838L153.11730989583333,166.0433013451658L154.21630208333335,165.956907399914L155.31529427083333,165.88147189884694L156.41428645833335,165.817588287562L157.51327864583334,165.76357122789273L158.61227083333333,165.7264208704542L159.71126302083334,165.69974019581656L160.81025520833333,165.68319078508372L161.90924739583332,165.6566811961991L163.00823958333334,165.63089406921875L164.10723177083332,165.59618154685234L165.2062239583333,165.53383535724575L166.30521614583333,165.4756940514764L167.40420833333334,165.43923677476818L168.50320052083333,165.4187811707962L169.60219270833335,165.40893352010835L170.70118489583334,165.40533369889675L171.80017708333335,165.41145617492717L172.89916927083334,165.42470689511015L173.99816145833333,165.43781231998804L175.09715364583334,165.45946371713194L176.19614583333333,165.48680455784108L177.29513802083332,165.51476408851997L178.39413020833334,165.54475385326043L179.49312239583332,165.5771708456286L180.5921145833333,165.61568780565716L181.69110677083333,165.65932706624227L182.79009895833332,165.70738615405557L183.88909114583333,165.75905799365225L184.98808333333335,165.81229257318736L186.08707552083334,165.86810461758296L187.18606770833335,165.92593615227622L188.28505989583334,165.98534710365283L189.38405208333333,166.04134102147216L190.48304427083335,166.09585006881085L191.58203645833333,166.1485405419677L192.68102864583332,166.19320673443534L193.78002083333334,166.23963282920496L194.87901302083333,166.2887332502192L195.97800520833331,166.33977815179333L197.07699739583333,166.38965220340833L198.17598958333332,166.43992724895594L199.2749817708333,166.49183155556858L200.37397395833335,166.54433932073664L201.47296614583334,166.59792120448188L202.57195833333336,166.65019057260045L203.67095052083334,166.7033703278431L204.76994270833333,166.74933996854003L205.86893489583335,166.78974141831247L206.96792708333334,166.82514057086738L208.06691927083332,166.86346900581466L209.16591145833334,166.89269489493296L210.26490364583333,166.9226729115011L211.36389583333332,166.95413774218247L212.46288802083333,166.98675382015279L213.56188020833332,167.02034768595317L214.6608723958333,167.0569366192511L215.75986458333333,167.09483866436358L216.85885677083334,167.13490705111033L217.95784895833336,167.17673771593732L219.05684114583335,167.21999261138302L220.15583333333333,167.25793845416536L221.25482552083335,167.28740991815008L222.35381770833334,167.3165163545028L223.45280989583333,167.3425855149761L224.55180208333334,167.36695481183463L225.65079427083333,167.39012560925926L226.74978645833332,167.40773109666728L227.84877864583333,167.4197603301875L228.94777083333332,167.423387410723L230.0467630208333,167.424232003221L231.14575520833333,167.41777440939032L232.24474739583334,167.39609976032193L233.34373958333336,167.3637683205683L234.44273177083335,167.32665188713202L235.54172395833334,167.2820592078147L236.64071614583335,167.23782247351429L237.73970833333334,167.19006397919L238.83870052083333,167.13871373648982L239.93769270833334,167.088609163798L241.03668489583333,167.036168311944L242.13567708333332,166.98196936032747L243.23466927083334,166.92175128532884L244.33366145833332,166.8633789489794L245.4326536458333,166.80291580141252L246.53164583333333,166.74229974924776" style="fill: none;" fill="none"></path></g></g></g></g><g opacity="0.2"><g><g><g><path stroke="rgb(51, 187, 238)" stroke-width="2px" d="M23.436231770833334,23.787349712103605L24.535223958333333,38.44530184986902L25.634216145833335,49.644162250715965L26.73320833333333,54.15071714079906L27.832200520833332,58.814616887505906L28.931192708333334,66.88404591750754L30.030184895833333,73.25101042508115L31.129177083333335,78.6655083394601L32.228169270833334,83.27945883255703L33.327161458333336,89.64135662154462L34.42615364583334,94.03398978676498L35.52514583333333,98.78753690970814L36.624138020833335,102.21683445823976L37.72313020833333,105.84735900102118L38.82212239583333,109.16784273611017L39.921114583333335,112.09989570034253L41.02010677083333,114.35830459556644L42.11909895833334,116.28233360287516L43.218091145833334,118.81003770824256L44.317083333333336,121.39564716887878L45.41607552083333,123.68489184272141L46.51506770833333,126.0893940661876L47.614059895833336,128.0633635000704L48.71305208333333,129.8510236303139L49.81204427083333,131.47631043583635L50.911036458333335,133.21159976229785L52.01002864583334,134.70993319567685L53.10902083333333,136.20461812089863L54.20801302083333,137.59735960892533L55.30700520833334,138.77848468149023L56.40599739583333,139.74041385713124L57.504989583333334,140.72822390192596L58.603981770833336,141.81482024742166L59.70297395833334,142.83782368420674L60.80196614583333,143.80143588135252L61.90095833333333,144.71189755321495L62.99995052083334,145.50199376403387L64.09894270833334,146.28644067189973L65.19793489583333,146.83156898341673L66.29692708333333,147.57517908102975L67.39591927083333,148.14364607537158L68.49491145833333,148.81999121735447L69.59390364583334,149.46505628658008L70.69289583333332,149.924185730018L71.79188802083333,150.5162944687493L72.89088020833334,151.08319319305258L73.98987239583334,151.625414467425L75.08886458333333,152.1447972576716L76.18785677083333,152.64381166266165L77.28684895833334,153.1000222995738L78.38584114583333,153.56031691174576L79.48483333333333,153.9674654121523L80.58382552083333,154.34033853229838L81.68281770833335,154.65288033348563L82.78180989583333,154.84310001401278L83.88080208333334,155.00928073353654L84.97979427083334,155.29168262076564L86.07878645833333,155.5370874583428L87.17777864583333,155.86013343220839L88.27677083333333,156.20538675713553L89.37576302083335,156.53926791752434L90.47475520833333,156.8376952883648L91.57374739583334,157.05830792454486L92.67273958333334,157.31402568235666L93.77173177083333,157.43998307062014L94.87072395833333,157.68359749108953L95.96971614583333,157.9657610483503L97.06870833333333,158.22808731367903L98.16770052083334,158.46286734242105L99.26669270833334,158.61788480392195L100.36568489583334,158.85582785384864L101.46467708333333,159.03191103643934L102.56366927083333,159.24753786852878L103.66266145833333,159.482110461928L104.76165364583333,159.59369302228671L105.86064583333334,159.77110320260232L106.95963802083334,159.97644065321947L108.05863020833334,160.18937523937035L109.15762239583333,160.39708716263496L110.25661458333333,160.59917479288146L111.35560677083333,160.79657526708408L112.45459895833332,160.94035591192994L113.55359114583332,161.1287057320265L114.65258333333334,161.31275384331198L115.75157552083334,161.4782607657648L116.85056770833333,161.58662292920573L117.94955989583333,161.73786683287472L119.04855208333333,161.86424644768704L120.14754427083332,162.02043937613053L121.24653645833332,162.18155337706827L122.34552864583334,162.29363613612597L123.44452083333334,162.40912318868192L124.54351302083333,162.50711652732778L125.64250520833333,162.65564905981384L126.74149739583333,162.78434871388578L127.84048958333332,162.90884228536848L128.93948177083334,163.04937310984366L130.03847395833333,163.131849990613L131.13746614583334,163.12559015101266L132.23645833333333,163.17433892774508L133.33545052083335,163.24392098028954L134.43444270833334,163.26647847044038L135.53343489583335,163.39112945739595L136.63242708333334,163.5177474021766L137.73141927083333,163.63006849120262L138.83041145833334,163.7375288258128L139.92940364583333,163.82606988022079L141.02839583333335,163.94392846307892L142.12738802083334,163.96109263431677L143.22638020833332,164.07588970690267L144.32537239583334,164.07199257056865L145.42436458333333,164.1442845231234L146.52335677083332,164.25428704406244L147.62234895833333,164.362456483887L148.72134114583332,164.46867661995827L149.8203333333333,164.57293126937708L150.91932552083335,164.62710205288906L152.01831770833334,164.6593001373762L153.11730989583333,164.71187322739675L154.21630208333335,164.75874993693964L155.31529427083333,164.81642652486232L156.41428645833335,164.8300841561031L157.51327864583334,164.92556620304563L158.61227083333333,165.01947777319063L159.71126302083334,165.11188506930714L160.81025520833333,165.20296904563034L161.90924739583332,165.26767416085983L163.00823958333334,165.34506225545348L164.10723177083332,165.43215935391137L165.2062239583333,165.51069643434L166.30521614583333,165.57204654035482L167.40420833333334,165.65390479302732L168.50320052083333,165.67295942111275L169.60219270833335,165.73637799586504L170.70118489583334,165.7961693944635L171.80017708333335,165.835232706094L172.89916927083334,165.9112768844773L173.99816145833333,165.98453245511388L175.09715364583334,166.05448230081933L176.19614583333333,166.09257390291845L177.29513802083332,166.15149436731164L178.39413020833334,166.22498385439863L179.49312239583332,166.29736481289834L180.5921145833333,166.368317998347L181.69110677083333,166.39598634226317L182.79009895833332,166.45691937083342L183.88909114583333,166.51746106748033L184.98808333333335,166.55964694304774L186.08707552083334,166.60981834372691L187.18606770833335,166.65383950716776L188.28505989583334,166.71948175937152L189.38405208333333,166.7660105365841L190.48304427083335,166.83000801777183L191.58203645833333,166.8933986402439L192.68102864583332,166.95586095277758L193.78002083333334,167.01754942850053L194.87901302083333,167.0785302701817L195.97800520833331,167.13866886552412L197.07699739583333,167.19801817674306L198.17598958333332,167.25663337281262L199.2749817708333,167.31434526887875L200.37397395833335,167.37156873562708L201.47296614583334,167.42802057232362L202.57195833333336,167.4837427073887L203.67095052083334,167.53887931574147L204.76994270833333,167.59348188842446L205.86893489583335,167.64730326843346L206.96792708333334,167.7005207320721L208.06691927083332,167.75304233105012L209.16591145833334,167.80489381088879L210.26490364583333,167.8500566043014L211.36389583333332,167.8841363186002L212.46288802083333,167.93441879281403L213.56188020833332,167.98407454748147L214.6608723958333,168.03322642551834L215.75986458333333,168.0816758186177L216.85885677083334,168.1296154503959L217.95784895833336,168.177150509697L219.05684114583335,168.2192231049708L220.15583333333333,168.20424362510934L221.25482552083335,168.14072868854888L222.35381770833334,168.1128573228078L223.45280989583333,168.12329235037188L224.55180208333334,168.1199910389587L225.65079427083333,168.14828095331697L226.74978645833332,168.1936857546295L227.84877864583333,168.2386234586276L228.94777083333332,168.28068722686552L230.0467630208333,168.3148176966206L231.14575520833333,168.34586311734114L232.24474739583334,168.38895376408462L233.34373958333336,168.42076493016637L234.44273177083335,168.46299935443105L235.54172395833334,168.48960477611192L236.64071614583335,168.52438035507137L237.73970833333334,168.54241840285977L238.83870052083333,168.56590935205324L239.93769270833334,168.56346279194622L241.03668489583333,168.54294949618426L242.13567708333332,168.5089058256152L243.23466927083334,168.4853442601348L244.33366145833332,168.479311716708L245.4326536458333,168.4615546628946L246.53164583333333,168.486544001426" style="fill: none;" fill="none"></path></g><g><path stroke="rgb(204, 51, 17)" stroke-width="2px" d="M23.436231770833334,8.98409279463314L24.535223958333333,33.38176099675808L25.634216145833335,50.75625107578733L26.73320833333333,61.248654372973505L27.832200520833332,70.69554823426631L28.931192708333334,78.26223637897056L30.030184895833333,83.44001673023533L31.129177083333335,88.49034645300293L32.228169270833334,95.24187548972466L33.327161458333336,99.32065456775933L34.42615364583334,103.13409294771762L35.52514583333333,107.0476063756131L36.624138020833335,109.99679555880306L37.72313020833333,113.64141982020476L38.82212239583333,116.50762898158115L39.921114583333335,119.24840596332797L41.02010677083333,121.51653048269301L42.11909895833334,123.7161454343711L43.218091145833334,125.95979552563014L44.317083333333336,127.56815796105573L45.41607552083333,128.94206843923894L46.51506770833333,130.5342097250915L47.614059895833336,131.9763561328499L48.71305208333333,133.3155233978718L49.81204427083333,134.52521864318362L50.911036458333335,135.5263869355861L52.01002864583334,136.75949736470022L53.10902083333333,138.16750374008137L54.20801302083333,139.10452007816846L55.30700520833334,139.86122655465857L56.40599739583333,140.92175077855688L57.504989583333334,141.94876168962426L58.603981770833336,142.94073809534686L59.70297395833334,143.82144677165655L60.80196614583333,144.4493226597094L61.90095833333333,145.02516317134308L62.99995052083334,145.5121066047889L64.09894270833334,146.1166026171829L65.19793489583333,146.82375705667698L66.29692708333333,147.3639304587289L67.39591927083333,148.075825016482L68.49491145833333,148.61691937260912L69.59390364583334,149.18109348517567L70.69289583333332,149.7483511756041L71.79188802083333,150.13725272170683L72.89088020833334,150.3476304098024L73.98987239583334,150.85549097590098L75.08886458333333,151.2917113189261L76.18785677083333,151.7340017202805L77.28684895833334,152.18228567898666L78.38584114583333,152.66021817998782L79.48483333333333,153.06862453300502L80.58382552083333,153.352225425939L81.68281770833335,153.68382773990223L82.78180989583333,153.99151025784624L83.88080208333334,154.38055156535017L84.97979427083334,154.7451302141292L86.07878645833333,155.09185618287302L87.17777864583333,155.43587372277918L88.27677083333333,155.74387254284167L89.37576302083335,156.06322293102545L90.47475520833333,156.37884683890195L91.57374739583334,156.68846247770023L92.67273958333334,156.94483343616594L93.77173177083333,157.15716189918749L94.87072395833333,157.4467519359553L95.96971614583333,157.73227565153502L97.06870833333333,157.99635555465545L98.16770052083334,158.25878333089662L99.26669270833334,158.51975611739286L100.36568489583334,158.76649236621284L101.46467708333333,158.99436376821853L102.56366927083333,159.22318260540695L103.66266145833333,159.43452391158436L104.76165364583333,159.58601202991227L105.86064583333334,159.80765154459783L106.95963802083334,160.01762318904366L108.05863020833334,160.21871777775544L109.15762239583333,160.41137372018107L110.25661458333333,160.5875069226417L111.35560677083333,160.66818161692208L112.45459895833332,160.8225841282578L113.55359114583332,160.94511368426072L114.65258333333334,161.01605215798295L115.75157552083334,161.17480639799967L116.85056770833333,161.29213535870596L117.94955989583333,161.42135139437596L119.04855208333333,161.59325203313972L120.14754427083332,161.71034119270502L121.24653645833332,161.800399026109L122.34552864583334,161.94433708642777L123.44452083333334,162.10170548181384L124.54351302083333,162.2203540843818L125.64250520833333,162.36978256100807L126.74149739583333,162.4895433700949L127.84048958333332,162.60144223257208L128.93948177083334,162.7457995770944L130.03847395833333,162.86886611111237L131.13746614583334,162.97936000371453L132.23645833333333,163.0878236780679L133.33545052083335,163.19930472751417L134.43444270833334,163.31004577712054L135.53343489583335,163.42593740215358L136.63242708333334,163.51652632888207L137.73141927083333,163.6190023305743L138.83041145833334,163.7409743121451L139.92940364583333,163.85301146485082L141.02839583333335,163.97087446122688L142.12738802083334,164.07662087970675L143.22638020833332,164.0701359506919L144.32537239583334,164.08535523169434L145.42436458333333,164.12998913854142L146.52335677083332,164.10041415487856L147.62234895833333,164.13420110582126L148.72134114583332,164.14637800179585L149.8203333333333,164.24295607235814L150.91932552083335,164.34005493803645L152.01831770833334,164.41680601487522L153.11730989583333,164.47462457095804L154.21630208333335,164.57516156710543L155.31529427083333,164.6738103131642L156.41428645833335,164.69455973213553L157.51327864583334,164.77783104613263L158.61227083333333,164.84638327782628L159.71126302083334,164.93612922262972L160.81025520833333,165.02840117086296L161.90924739583332,165.09206543144683L163.00823958333334,165.09621266713035L164.10723177083332,165.17814080050346L165.2062239583333,165.26527982738168L166.30521614583333,165.32731623543492L167.40420833333334,165.38076393759235L168.50320052083333,165.45358551229896L169.60219270833335,165.53310754281276L170.70118489583334,165.58586747175912L171.80017708333335,165.4572457898373L172.89916927083334,165.42424885860444L173.99816145833333,165.37689475353858L175.09715364583334,165.43671998910784L176.19614583333333,165.51643474323802L177.29513802083332,165.5949092988293L178.39413020833334,165.655745230005L179.49312239583332,165.68877526262233L180.5921145833333,165.7455257473656L181.69110677083333,165.81774193452918L182.79009895833332,165.87914794510445L183.88909114583333,165.90896125873562L184.98808333333335,165.88092953517636L186.08707552083334,165.9476369163744L187.18606770833335,166.00420644688242L188.28505989583334,166.07335597466954L189.38405208333333,166.07841313063338L190.48304427083335,166.11045159288864L191.58203645833333,166.16734183903307L192.68102864583332,166.22728182606858L193.78002083333334,166.26956847696212L194.87901302083333,166.3227175310728L195.97800520833331,166.37275137710978L197.07699739583333,166.4301462354711L198.17598958333332,166.4820447928344L199.2749817708333,166.54338607181333L200.37397395833335,166.60523784769975L201.47296614583334,166.66069222934362L202.57195833333336,166.71530289347615L203.67095052083334,166.76789143080947L204.76994270833333,166.78125703428046L205.86893489583335,166.78967729090851L206.96792708333334,166.7733090240711L208.06691927083332,166.82565923143608L209.16591145833334,166.8695759416192L210.26490364583333,166.92653312611895L211.36389583333332,166.96390532479512L212.46288802083333,167.00707026575714L213.56188020833332,167.01287919094207L214.6608723958333,167.0431794627184L215.75986458333333,167.08833048674984L216.85885677083334,167.14194737376133L217.95784895833336,167.19490738218727L219.05684114583335,167.247252440448L220.15583333333333,167.27990291052316L221.25482552083335,167.3311747483401L222.35381770833334,167.38206187451058L223.45280989583333,167.43230168471771L224.55180208333334,167.4756321326022L225.65079427083333,167.5147704740375L226.74978645833332,167.553810982492L227.84877864583333,167.59465147067644L228.94777083333332,167.63814889665602L230.0467630208333,167.6753710357225L231.14575520833333,167.71655357154668L232.24474739583334,167.7628866827976L233.34373958333336,167.80829589762808L234.44273177083335,167.84415793758515L235.54172395833334,167.88585832618006L236.64071614583335,167.92083619137807L237.73970833333334,167.95741101448115L238.83870052083333,167.99603003197313L239.93769270833334,168.02857016410002L241.03668489583333,168.06182087261394L242.13567708333332,168.10436792106546L243.23466927083334,168.14651481055782L244.33366145833332,168.13937594530267L245.4326536458333,168.17395144478255L246.53164583333333,168.21354805649648" style="fill: none;" fill="none"></path></g><g><path stroke="rgb(0, 119, 187)" stroke-width="2px" d="M23.436231770833334,24.978587625423526L24.535223958333333,41.98833281316496L25.634216145833335,53.114835058688186L26.73320833333333,63.31921806031772L27.832200520833332,71.30587303267592L28.931192708333334,75.3399814245474L30.030184895833333,78.70417664123568L31.129177083333335,83.04883780887965L32.228169270833334,89.8760851592441L33.327161458333336,93.69893904412413L34.42615364583334,98.21088431077493L35.52514583333333,103.36637933882801L36.624138020833335,106.70385806030077L37.72313020833333,109.11258549160058L38.82212239583333,110.70530053478433L39.921114583333335,112.08513689637766L41.02010677083333,114.2304243846572L42.11909895833334,116.08231885488411L43.218091145833334,117.7695479134106L44.317083333333336,119.33830638125903L45.41607552083333,121.21647599490825L46.51506770833333,122.54475658236436L47.614059895833336,123.9690635506413L48.71305208333333,125.54303585434016L49.81204427083333,127.02437135899007L50.911036458333335,128.40845646717935L52.01002864583334,129.8098307962812L53.10902083333333,131.31728844239842L54.20801302083333,132.70536925548888L55.30700520833334,133.57261375976043L56.40599739583333,134.88205156799188L57.504989583333334,136.03989386229244L58.603981770833336,137.07543169000462L59.70297395833334,138.0781476560286L60.80196614583333,139.16544133735755L61.90095833333333,140.14019913845448L62.99995052083334,141.12501387574594L64.09894270833334,142.05784619883343L65.19793489583333,142.69241886476186L66.29692708333333,143.26225110731735L67.39591927083333,143.77614642360174L68.49491145833333,144.21126338714384L69.59390364583334,144.90008995783865L70.69289583333332,145.61503278531018L71.79188802083333,146.25593149360793L72.89088020833334,146.9053482915146L73.98987239583334,147.47774920150653L75.08886458333333,147.87127611440206L76.18785677083333,148.45720298568318L77.28684895833334,149.019367476418L78.38584114583333,149.55959678303043L79.48483333333333,150.078805974905L80.58382552083333,150.57923711915126L81.68281770833335,151.06043709459482L82.78180989583333,151.48019501573333L83.88080208333334,151.9285466483811L84.97979427083334,152.36141713129575L86.07878645833333,152.7784386713164L87.17777864583333,153.07643793091745L88.27677083333333,153.42604151335297L89.37576302083335,153.69299461664716L90.47475520833333,153.9373902297905L91.57374739583334,154.2835439123758L92.67273958333334,154.61383099799525L93.77173177083333,154.9472884606626L94.87072395833333,155.17331354100003L95.96971614583333,155.49039685213938L97.06870833333333,155.778483350465L98.16770052083334,155.78406497947643L99.26669270833334,155.96427333016098L100.36568489583334,156.0823511177431L101.46467708333333,156.29252578401378L102.56366927083333,156.53696847468174L103.66266145833333,156.79678639065241L104.76165364583333,157.05883607552408L105.86064583333334,157.23474124622487L106.95963802083334,157.45844040261207L108.05863020833334,157.64670636586794L109.15762239583333,157.81642525560062L110.25661458333333,157.93387632363635L111.35560677083333,158.12595850873083L112.45459895833332,158.30738351919197L113.55359114583332,158.45884368523963L114.65258333333334,158.60183725272094L115.75157552083334,158.7938017440039L116.85056770833333,158.98484675238433L117.94955989583333,159.05460240330078L119.04855208333333,159.2104922701796L120.14754427083332,159.38164408206754L121.24653645833332,159.54058221866478L122.34552864583334,159.72779629348017L123.44452083333334,159.90165359186045L124.54351302083333,160.06100365679802L125.64250520833333,160.20610247233293L126.74149739583333,160.35302112842848L127.84048958333332,160.46011661222292L128.93948177083334,160.60518011961437L130.03847395833333,160.76383431989132L131.13746614583334,160.81641991487933L132.23645833333333,160.9394364290274L133.33545052083335,161.03458893329767L134.43444270833334,161.17931112863567L135.53343489583335,161.2934667699488L136.63242708333334,161.40226587166504L137.73141927083333,161.51753519066966L138.83041145833334,161.65335090682078L139.92940364583333,161.79118360066684L141.02839583333335,161.92819979369546L142.12738802083334,162.0299622766553L143.22638020833332,162.12281533808294L144.32537239583334,162.2201069273776L145.42436458333333,162.29046723025073L146.52335677083332,162.34254674184922L147.62234895833333,162.4531053660477L148.72134114583332,162.54936419214624L149.8203333333333,162.63718437195868L150.91932552083335,162.72848828859216L152.01831770833334,162.78121658732667L153.11730989583333,162.88813994392174L154.21630208333335,162.9955164216912L155.31529427083333,163.08498137251965L156.41428645833335,163.1815903377075L157.51327864583334,163.29032176548208L158.61227083333333,163.39082639583128L159.71126302083334,163.49184152308797L160.81025520833333,163.59524142120063L161.90924739583332,163.6975452956935L163.00823958333334,163.7378098197878L164.10723177083332,163.79250213400206L165.2062239583333,163.78719120075715L166.30521614583333,163.88476084168153L167.40420833333334,163.98058420067744L168.50320052083333,164.0673657326032L169.60219270833335,164.14037708858086L170.70118489583334,164.23241217801842L171.80017708333335,164.32297756598462L172.89916927083334,164.40477329381974L173.99816145833333,164.49292301630445L175.09715364583334,164.57166753207588L176.19614583333333,164.64539534913118L177.29513802083332,164.7300135216839L178.39413020833334,164.81340767859677L179.49312239583332,164.8843490946643L180.5921145833333,164.86668546031382L181.69110677083333,164.93187606251584L182.79009895833332,165.00612908820509L183.88909114583333,165.07147122118946L184.98808333333335,165.14923593597996L186.08707552083334,165.22591051184125L187.18606770833335,165.30011204648795L188.28505989583334,165.3749976764141L189.38405208333333,165.43585567517948L190.48304427083335,165.45733553136859L191.58203645833333,165.5295561320501L192.68102864583332,165.59181689393154L193.78002083333334,165.6544483913193L194.87901302083333,165.7148326724933L195.97800520833331,165.77830935856505L197.07699739583333,165.83543204998725L198.17598958333332,165.89492259378L199.2749817708333,165.96128351382035L200.37397395833335,166.0115468627898L201.47296614583334,166.0764123358375L202.57195833333336,166.1405260396641L203.67095052083334,166.20371437589762L204.76994270833333,166.26619654926202L205.86893489583335,166.3140221651603L206.96792708333334,166.35606239463596L208.06691927083332,166.3833658877364L209.16591145833334,166.44333382705216L210.26490364583333,166.48723288316356L211.36389583333332,166.5405849590991L212.46288802083333,166.59097115098433L213.56188020833332,166.64137867487287L214.6608723958333,166.6583148143509L215.75986458333333,166.7094763142195L216.85885677083334,166.76533379716784L217.95784895833336,166.82039022661152L219.05684114583335,166.85141946443295L220.15583333333333,166.8877346255644L221.25482552083335,166.82833235213027L222.35381770833334,166.73759042344682L223.45280989583333,166.69106900209746L224.55180208333334,166.7057763150198L225.65079427083333,166.69034371398396L226.74978645833332,166.72363929326352L227.84877864583333,166.75067209059748L228.94777083333332,166.741369130383L230.0467630208333,166.77345099223126L231.14575520833333,166.78134089112115L232.24474739583334,166.8320860491315L233.34373958333336,166.81902497839786L234.44273177083335,166.77848755177806L235.54172395833334,166.65066471660197L236.64071614583335,166.508364071436L237.73970833333334,166.45006002838065L238.83870052083333,166.43155709003673L239.93769270833334,166.3941392850086L241.03668489583333,166.2765418352948L242.13567708333332,166.1426106913007L243.23466927083334,165.90091909347706L244.33366145833332,165.7496192852476L245.4326536458333,165.64556471530835L246.53164583333333,165.5670136587396" style="fill: none;" fill="none"></path></g><g><path stroke="rgb(255, 112, 67)" stroke-width="2px" d="M23.436231770833334,17.431836812391083L24.535223958333333,46.05944413937894L25.634216145833335,66.48939502871195L26.73320833333333,74.86072045464869L27.832200520833332,76.14439508753796L28.931192708333334,83.99819728545015L30.030184895833333,90.28193461420597L31.129177083333335,96.03483166016355L32.228169270833334,100.94585310292314L33.327161458333336,105.51074293068712L34.42615364583334,109.40834415526479L35.52514583333333,112.80883025873584L36.624138020833335,115.04203502422232L37.72313020833333,118.45867460332477L38.82212239583333,121.1155123586941L39.921114583333335,123.52860623040135L41.02010677083333,124.92266000442658L42.11909895833334,126.73826947256123L43.218091145833334,128.54996267911753L44.317083333333336,130.6751245256268L45.41607552083333,132.66673331951148L46.51506770833333,134.1691448434597L47.614059895833336,135.91467058917831L48.71305208333333,137.5788787381711L49.81204427083333,139.04026514176803L50.911036458333335,140.484777195138L52.01002864583334,141.68469208471237L53.10902083333333,142.93090771973948L54.20801302083333,143.89998679443045L55.30700520833334,144.989431330165L56.40599739583333,146.0091069744293L57.504989583333334,146.96371853733893L58.603981770833336,147.82772646179365L59.70297395833334,148.67351832657005L60.80196614583333,149.46980228952972L61.90095833333333,150.1174919307523L62.99995052083334,150.58488347975901L64.09894270833334,151.2250907369141L65.19793489583333,151.87563445306608L66.29692708333333,152.4755963113712L67.39591927083333,153.0269565102083L68.49491145833333,153.57637181881L69.59390364583334,154.09744498642456L70.69289583333332,154.58999800116206L71.79188802083333,154.90651049731554L72.89088020833334,155.36239159155542L73.98987239583334,155.8137576569508L75.08886458333333,156.24642070452268L76.18785677083333,156.6611133782478L77.28684895833334,157.05578927697832L78.38584114583333,157.38163047886752L79.48483333333333,157.75074033939018L80.58382552083333,158.10592702200978L81.68281770833335,158.44102925569314L82.78180989583333,158.77066166948603L83.88080208333334,159.07379973513267L84.97979427083334,159.38093203450782L86.07878645833333,159.67776024068422L87.17777864583333,159.96422992027408L88.27677083333333,160.22867614538285L89.37576302083335,160.4755742231937L90.47475520833333,160.7351361551243L91.57374739583334,160.9868611503802L92.67273958333334,161.21438388446924L93.77173177083333,161.41720121634717L94.87072395833333,161.64674828399438L95.96971614583333,161.856886170949L97.06870833333333,162.07323240646136L98.16770052083334,162.25851188924986L99.26669270833334,162.4618029387192L100.36568489583334,162.59449535534702L101.46467708333333,162.78559332594264L102.56366927083333,162.95181229595516L103.66266145833333,163.1357162323215L104.76165364583333,163.2938216852022L105.86064583333334,163.44779755647116L106.95963802083334,163.61830352356836L108.05863020833334,163.78471668836988L109.15762239583333,163.94650889989654L110.25661458333333,164.10434659935606L111.35560677083333,164.25861229163587L112.45459895833332,164.40875722933976L113.55359114583332,164.5554213725679L114.65258333333334,164.69852012889325L115.75157552083334,164.8381969376486L116.85056770833333,164.97459597375305L117.94955989583333,165.1079908753184L119.04855208333333,165.21845828681296L120.14754427083332,165.3440397904659L121.24653645833332,165.46904753678766L122.34552864583334,165.5586890283334L123.44452083333334,165.6364272620163L124.54351302083333,165.70332883800336L125.64250520833333,165.8188688527745L126.74149739583333,165.93222049823765L127.84048958333332,166.02122644320116L128.93948177083334,166.1155801007257L130.03847395833333,166.16968615264133L131.13746614583334,166.2291229986326L132.23645833333333,166.33079647564747L133.33545052083335,166.41833051238063L134.43444270833334,166.51784651471306L135.53343489583335,166.60435220176805L136.63242708333334,166.6312312615607L137.73141927083333,166.63486726475043L138.83041145833334,166.58824580366127L139.92940364583333,166.5448918170145L141.02839583333335,166.5836425044581L142.12738802083334,166.59493301891467L143.22638020833332,166.58634872653678L144.32537239583334,166.48338576669943L145.42436458333333,166.4213294978155L146.52335677083332,166.32323023473924L147.62234895833333,166.19457545143294L148.72134114583332,166.090587819849L149.8203333333333,165.91669962684318L150.91932552083335,165.79638418566952L152.01831770833334,165.68542834485717L153.11730989583333,165.5766505751443L154.21630208333335,165.4673417121069L155.31529427083333,165.4540040609162L156.41428645833335,165.45558115799057L157.51327864583334,165.45747455718345L158.61227083333333,165.51590217874087L159.71126302083334,165.54854970647077L160.81025520833333,165.58941079107223L161.90924739583332,165.50646019271153L163.00823958333334,165.48476701648906L164.10723177083332,165.39947725362435L165.2062239583333,165.18054028308586L166.30521614583333,165.14622665233662L167.40420833333334,165.2326455402056L168.50320052083333,165.30286608167756L169.60219270833335,165.3531301662333L170.70118489583334,165.38493471203816L171.80017708333335,165.44615020575606L172.89916927083334,165.49979430946146L173.99816145833333,165.5120763942801L175.09715364583334,165.58215496759192L176.19614583333333,165.64173598850226L177.29513802083332,165.6732014290127L178.39413020833334,165.7146958534374L179.49312239583332,165.76086713569748L180.5921145833333,165.83395057913472L181.69110677083333,165.90661620954103L182.79009895833332,165.9797209849816L183.88909114583333,166.05186508468563L184.98808333333335,166.11395519054037L186.08707552083334,166.18437286914664L187.18606770833335,166.2536481821948L188.28505989583334,166.3220091614447L189.38405208333333,166.35863988910828L190.48304427083335,166.40473467039087L191.58203645833333,166.44711988985156L192.68102864583332,166.44631515841527L193.78002083333334,166.50271403289662L194.87901302083333,166.56696896929705L195.97800520833331,166.62903259404422L197.07699739583333,166.67227182922474L198.17598958333332,166.72481917372403L199.2749817708333,166.78595595970546L200.37397395833335,166.84188332335438L201.47296614583334,166.90155187903707L202.57195833333336,166.9463836586048L203.67095052083334,167.00472227421727L204.76994270833333,167.00983459915525L205.86893489583335,167.01868296702273L206.96792708333334,167.0257357686782L208.06691927083332,167.0806634705155L209.16591145833334,167.05830826660323L210.26490364583333,167.09254833872026L211.36389583333332,167.13243844937668L212.46288802083333,167.17157826198465L213.56188020833332,167.21071292548837L214.6608723958333,167.26427390793938L215.75986458333333,167.30961692000088L216.85885677083334,167.36196124267528L217.95784895833336,167.4137781499568L219.05684114583335,167.46510368557523L220.15583333333333,167.47296489659857L221.25482552083335,167.45441488073007L222.35381770833334,167.48145282716828L223.45280989583333,167.49031075765794L224.55180208333334,167.50504749403314L225.65079427083333,167.5214267946654L226.74978645833332,167.5074955253128L227.84877864583333,167.48792598680197L228.94777083333332,167.44394086709093L230.0467630208333,167.42901802737626L231.14575520833333,167.38118137768313L232.24474739583334,167.27327674893448L233.34373958333336,167.18055682863113L234.44273177083335,167.116325430993L235.54172395833334,167.02936735834996L236.64071614583335,166.98714764581175L237.73970833333334,166.91943251135257L238.83870052083333,166.84772902785542L239.93769270833334,166.80468325187758L241.03668489583333,166.73900348477142L242.13567708333332,166.67484196783386L243.23466927083334,166.58051552700323L244.33366145833332,166.53260237633262L245.4326536458333,166.46029129853352L246.53164583333333,166.39880878698074" style="fill: none;" fill="none"></path></g></g></g></g></g></g><g transform="translate(61, 176)" clip-path="url(#clip_1)"><clipPath id="clip_1"><rect width="268" height="23"></rect></clipPath><g><g><line x1="0" y1="0" x2="0" y2="5" style="visibility: inherit;" fill="rgb(0, 0, 0)" stroke="rgb(204, 204, 204)" stroke-width="1px"></line><line x1="22.337239583333332" y1="0" x2="22.337239583333332" y2="5" style="visibility: inherit;" fill="rgb(0, 0, 0)" stroke="rgb(204, 204, 204)" stroke-width="1px"></line><line x1="44.674479166666664" y1="0" x2="44.674479166666664" y2="5" style="visibility: inherit;" fill="rgb(0, 0, 0)" stroke="rgb(204, 204, 204)" stroke-width="1px"></line><line x1="67.01171875" y1="0" x2="67.01171875" y2="5" style="visibility: inherit;" fill="rgb(0, 0, 0)" stroke="rgb(204, 204, 204)" stroke-width="1px"></line><line x1="89.34895833333333" y1="0" x2="89.34895833333333" y2="5" style="visibility: inherit;" fill="rgb(0, 0, 0)" stroke="rgb(204, 204, 204)" stroke-width="1px"></line><line x1="111.68619791666667" y1="0" x2="111.68619791666667" y2="5" style="visibility: inherit;" fill="rgb(0, 0, 0)" stroke="rgb(204, 204, 204)" stroke-width="1px"></line><line x1="134.0234375" y1="0" x2="134.0234375" y2="5" style="visibility: inherit;" fill="rgb(0, 0, 0)" stroke="rgb(204, 204, 204)" stroke-width="1px"></line><line x1="156.36067708333334" y1="0" x2="156.36067708333334" y2="5" style="visibility: inherit;" fill="rgb(0, 0, 0)" stroke="rgb(204, 204, 204)" stroke-width="1px"></line><line x1="178.69791666666666" y1="0" x2="178.69791666666666" y2="5" style="visibility: inherit;" fill="rgb(0, 0, 0)" stroke="rgb(204, 204, 204)" stroke-width="1px"></line><line x1="201.03515625" y1="0" x2="201.03515625" y2="5" style="visibility: inherit;" fill="rgb(0, 0, 0)" stroke="rgb(204, 204, 204)" stroke-width="1px"></line><line x1="223.37239583333334" y1="0" x2="223.37239583333334" y2="5" style="visibility: inherit;" fill="rgb(0, 0, 0)" stroke="rgb(204, 204, 204)" stroke-width="1px"></line><line x1="245.70963541666666" y1="0" x2="245.70963541666666" y2="5" style="visibility: inherit;" fill="rgb(0, 0, 0)" stroke="rgb(204, 204, 204)" stroke-width="1px"></line><line x1="268.046875" y1="0" x2="268.046875" y2="5" style="visibility: inherit;" fill="rgb(0, 0, 0)" stroke="rgb(204, 204, 204)" stroke-width="1px"></line></g><g transform="translate(0, 8)"><text x="0" y="0" dx="0em" dy="0.95em" style="text-anchor: middle; visibility: hidden; font-family: Roboto, sans-serif; font-size: 12px; font-weight: 200;" fill="rgb(33, 33, 33)" stroke="none" stroke-width="1px">-10k</text><text x="22.337239583333332" y="0" dx="0em" dy="0.95em" style="text-anchor: middle; visibility: inherit; font-family: Roboto, sans-serif; font-size: 12px; font-weight: 200;" fill="rgb(33, 33, 33)" stroke="none" stroke-width="1px">0</text><text x="44.674479166666664" y="0" dx="0em" dy="0.95em" style="text-anchor: middle; visibility: hidden; font-family: Roboto, sans-serif; font-size: 12px; font-weight: 200;" fill="rgb(33, 33, 33)" stroke="none" stroke-width="1px">10k</text><text x="67.01171875" y="0" dx="0em" dy="0.95em" style="text-anchor: middle; visibility: inherit; font-family: Roboto, sans-serif; font-size: 12px; font-weight: 200;" fill="rgb(33, 33, 33)" stroke="none" stroke-width="1px">20k</text><text x="89.34895833333333" y="0" dx="0em" dy="0.95em" style="text-anchor: middle; visibility: hidden; font-family: Roboto, sans-serif; font-size: 12px; font-weight: 200;" fill="rgb(33, 33, 33)" stroke="none" stroke-width="1px">30k</text><text x="111.68619791666667" y="0" dx="0em" dy="0.95em" style="text-anchor: middle; visibility: inherit; font-family: Roboto, sans-serif; font-size: 12px; font-weight: 200;" fill="rgb(33, 33, 33)" stroke="none" stroke-width="1px">40k</text><text x="134.0234375" y="0" dx="0em" dy="0.95em" style="text-anchor: middle; visibility: hidden; font-family: Roboto, sans-serif; font-size: 12px; font-weight: 200;" fill="rgb(33, 33, 33)" stroke="none" stroke-width="1px">50k</text><text x="156.36067708333334" y="0" dx="0em" dy="0.95em" style="text-anchor: middle; visibility: inherit; font-family: Roboto, sans-serif; font-size: 12px; font-weight: 200;" fill="rgb(33, 33, 33)" stroke="none" stroke-width="1px">60k</text><text x="178.69791666666666" y="0" dx="0em" dy="0.95em" style="text-anchor: middle; visibility: hidden; font-family: Roboto, sans-serif; font-size: 12px; font-weight: 200;" fill="rgb(33, 33, 33)" stroke="none" stroke-width="1px">70k</text><text x="201.03515625" y="0" dx="0em" dy="0.95em" style="text-anchor: middle; visibility: inherit; font-family: Roboto, sans-serif; font-size: 12px; font-weight: 200;" fill="rgb(33, 33, 33)" stroke="none" stroke-width="1px">80k</text><text x="223.37239583333334" y="0" dx="0em" dy="0.95em" style="text-anchor: middle; visibility: hidden; font-family: Roboto, sans-serif; font-size: 12px; font-weight: 200;" fill="rgb(33, 33, 33)" stroke="none" stroke-width="1px">90k</text><text x="245.70963541666666" y="0" dx="0em" dy="0.95em" style="text-anchor: middle; visibility: inherit; font-family: Roboto, sans-serif; font-size: 12px; font-weight: 200;" fill="rgb(33, 33, 33)" stroke="none" stroke-width="1px">100k</text><text x="268.046875" y="0" dx="0em" dy="0.95em" style="text-anchor: middle; visibility: hidden; font-family: Roboto, sans-serif; font-size: 12px; font-weight: 200;" fill="rgb(33, 33, 33)" stroke="none" stroke-width="1px">110k</text></g><line x1="0" y1="0" x2="268.046875" y2="0" fill="rgb(0, 0, 0)" stroke="rgb(204, 204, 204)" stroke-width="1px"></line></g></g></g></g></svg>