<svg viewBox="0 0 330 200" xmlns="http://www.w3.org/2000/svg"><g><g><g><g><g><line x1="82.734375" y1="176.921875" x2="77.734375" y2="176.921875" style="visibility: inherit;" fill="rgb(0, 0, 0)" stroke="rgb(204, 204, 204)" stroke-width="1px"></line><line x1="82.734375" y1="162.17838541666666" x2="77.734375" y2="162.17838541666666" style="visibility: inherit;" fill="rgb(0, 0, 0)" stroke="rgb(204, 204, 204)" stroke-width="1px"></line><line x1="82.734375" y1="147.43489583333334" x2="77.734375" y2="147.43489583333334" style="visibility: inherit;" fill="rgb(0, 0, 0)" stroke="rgb(204, 204, 204)" stroke-width="1px"></line><line x1="82.734375" y1="132.69140625" x2="77.734375" y2="132.69140625" style="visibility: inherit;" fill="rgb(0, 0, 0)" stroke="rgb(204, 204, 204)" stroke-width="1px"></line><line x1="82.734375" y1="117.94791666666669" x2="77.734375" y2="117.94791666666669" style="visibility: inherit;" fill="rgb(0, 0, 0)" stroke="rgb(204, 204, 204)" stroke-width="1px"></line><line x1="82.734375" y1="103.20442708333331" x2="77.734375" y2="103.20442708333331" style="visibility: inherit;" fill="rgb(0, 0, 0)" stroke="rgb(204, 204, 204)" stroke-width="1px"></line><line x1="82.734375" y1="88.4609375" x2="77.734375" y2="88.4609375" style="visibility: inherit;" fill="rgb(0, 0, 0)" stroke="rgb(204, 204, 204)" stroke-width="1px"></line><line x1="82.734375" y1="73.71744791666666" x2="77.734375" y2="73.71744791666666" style="visibility: inherit;" fill="rgb(0, 0, 0)" stroke="rgb(204, 204, 204)" stroke-width="1px"></line><line x1="82.734375" y1="58.97395833333334" x2="77.734375" y2="58.97395833333334" style="visibility: inherit;" fill="rgb(0, 0, 0)" stroke="rgb(204, 204, 204)" stroke-width="1px"></line><line x1="82.734375" y1="44.23046875" x2="77.734375" y2="44.23046875" style="visibility: inherit;" fill="rgb(0, 0, 0)" stroke="rgb(204, 204, 204)" stroke-width="1px"></line><line x1="82.734375" y1="29.48697916666666" x2="77.734375" y2="29.48697916666666" style="visibility: inherit;" fill="rgb(0, 0, 0)" stroke="rgb(204, 204, 204)" stroke-width="1px"></line><line x1="82.734375" y1="14.74348958333334" x2="77.734375" y2="14.74348958333334" style="visibility: inherit;" fill="rgb(0, 0, 0)" stroke="rgb(204, 204, 204)" stroke-width="1px"></line><line x1="82.734375" y1="0" x2="77.734375" y2="0" style="visibility: inherit;" fill="rgb(0, 0, 0)" stroke="rgb(204, 204, 204)" stroke-width="1px"></line></g><g transform="translate(72.734375, 0)"><text x="0" y="176.921875" dx="0em" dy="0.3em" style="text-anchor: end; visibility: hidden; font-family: Roboto, sans-serif; font-size: 12px; font-weight: 200;" fill="rgb(33, 33, 33)" stroke="none" stroke-width="1px">-2.2e+7</text><text x="0" y="162.17838541666666" dx="0em" dy="0.3em" style="text-anchor: end; visibility: inherit; font-family: Roboto, sans-serif; font-size: 12px; font-weight: 200;" fill="rgb(33, 33, 33)" stroke="none" stroke-width="1px">-2e+7</text><text x="0" y="147.43489583333334" dx="0em" dy="0.3em" style="text-anchor: end; visibility: hidden; font-family: Roboto, sans-serif; font-size: 12px; font-weight: 200;" fill="rgb(33, 33, 33)" stroke="none" stroke-width="1px">-1.8e+7</text><text x="0" y="132.69140625" dx="0em" dy="0.3em" style="text-anchor: end; visibility: inherit; font-family: Roboto, sans-serif; font-size: 12px; font-weight: 200;" fill="rgb(33, 33, 33)" stroke="none" stroke-width="1px">-1.6e+7</text><text x="0" y="117.94791666666669" dx="0em" dy="0.3em" style="text-anchor: end; visibility: hidden; font-family: Roboto, sans-serif; font-size: 12px; font-weight: 200;" fill="rgb(33, 33, 33)" stroke="none" stroke-width="1px">-1.4e+7</text><text x="0" y="103.20442708333331" dx="0em" dy="0.3em" style="text-anchor: end; visibility: inherit; font-family: Roboto, sans-serif; font-size: 12px; font-weight: 200;" fill="rgb(33, 33, 33)" stroke="none" stroke-width="1px">-1.2e+7</text><text x="0" y="88.4609375" dx="0em" dy="0.3em" style="text-anchor: end; visibility: hidden; font-family: Roboto, sans-serif; font-size: 12px; font-weight: 200;" fill="rgb(33, 33, 33)" stroke="none" stroke-width="1px">-1e+7</text><text x="0" y="73.71744791666666" dx="0em" dy="0.3em" style="text-anchor: end; visibility: inherit; font-family: Roboto, sans-serif; font-size: 12px; font-weight: 200;" fill="rgb(33, 33, 33)" stroke="none" stroke-width="1px">-8e+6</text><text x="0" y="58.97395833333334" dx="0em" dy="0.3em" style="text-anchor: end; visibility: hidden; font-family: Roboto, sans-serif; font-size: 12px; font-weight: 200;" fill="rgb(33, 33, 33)" stroke="none" stroke-width="1px">-6e+6</text><text x="0" y="44.23046875" dx="0em" dy="0.3em" style="text-anchor: end; visibility: inherit; font-family: Roboto, sans-serif; font-size: 12px; font-weight: 200;" fill="rgb(33, 33, 33)" stroke="none" stroke-width="1px">-4e+6</text><text x="0" y="29.48697916666666" dx="0em" dy="0.3em" style="text-anchor: end; visibility: hidden; font-family: Roboto, sans-serif; font-size: 12px; font-weight: 200;" fill="rgb(33, 33, 33)" stroke="none" stroke-width="1px">-2e+6</text><text x="0" y="14.74348958333334" dx="0em" dy="0.3em" style="text-anchor: end; visibility: inherit; font-family: Roboto, sans-serif; font-size: 12px; font-weight: 200;" fill="rgb(33, 33, 33)" stroke="none" stroke-width="1px">0</text><text x="0" y="0" dx="0em" dy="0.3em" style="text-anchor: end; visibility: hidden; font-family: Roboto, sans-serif; font-size: 12px; font-weight: 200;" fill="rgb(33, 33, 33)" stroke="none" stroke-width="1px">2e+6</text></g><line x1="82.734375" y1="0" x2="82.734375" y2="176.921875" fill="rgb(0, 0, 0)" stroke="rgb(204, 204, 204)" stroke-width="1px"></line></g></g><g transform="translate(82, 0)" clip-path="url(#clip_0)"><clipPath id="clip_0"><rect width="247" height="176"></rect></clipPath><g><g><g><line x1="0" y1="0" x2="0" y2="176.921875" fill="rgb(0, 0, 0)" stroke="rgb(66, 66, 66)" stroke-width="1px" opacity="0.25"></line><line x1="20.60546875" y1="0" x2="20.60546875" y2="176.921875" fill="rgb(0, 0, 0)" stroke="rgb(66, 66, 66)" stroke-width="1px" opacity="0.25"></line><line x1="41.2109375" y1="0" x2="41.2109375" y2="176.921875" fill="rgb(0, 0, 0)" stroke="rgb(66, 66, 66)" stroke-width="1px" opacity="0.25"></line><line x1="61.81640625" y1="0" x2="61.81640625" y2="176.921875" fill="rgb(0, 0, 0)" stroke="rgb(66, 66, 66)" stroke-width="1px" opacity="0.25"></line><line x1="82.421875" y1="0" x2="82.421875" y2="176.921875" fill="rgb(0, 0, 0)" stroke="rgb(66, 66, 66)" stroke-width="1px" opacity="0.25"></line><line x1="103.02734375" y1="0" x2="103.02734375" y2="176.921875" fill="rgb(0, 0, 0)" stroke="rgb(66, 66, 66)" stroke-width="1px" opacity="0.25"></line><line x1="123.6328125" y1="0" x2="123.6328125" y2="176.921875" fill="rgb(0, 0, 0)" stroke="rgb(66, 66, 66)" stroke-width="1px" opacity="0.25"></line><line x1="144.23828125" y1="0" x2="144.23828125" y2="176.921875" fill="rgb(0, 0, 0)" stroke="rgb(66, 66, 66)" stroke-width="1px" opacity="0.25"></line><line x1="164.84375" y1="0" x2="164.84375" y2="176.921875" fill="rgb(0, 0, 0)" stroke="rgb(66, 66, 66)" stroke-width="1px" opacity="0.25"></line><line x1="185.44921875" y1="0" x2="185.44921875" y2="176.921875" fill="rgb(0, 0, 0)" stroke="rgb(66, 66, 66)" stroke-width="1px" opacity="0.25"></line><line x1="206.0546875" y1="0" x2="206.0546875" y2="176.921875" fill="rgb(0, 0, 0)" stroke="rgb(66, 66, 66)" stroke-width="1px" opacity="0.25"></line><line x1="226.66015625" y1="0" x2="226.66015625" y2="176.921875" fill="rgb(0, 0, 0)" stroke="rgb(66, 66, 66)" stroke-width="1px" opacity="0.25"></line><line x1="247.265625" y1="0" x2="247.265625" y2="176.921875" fill="rgb(0, 0, 0)" stroke="rgb(66, 66, 66)" stroke-width="1px" opacity="0.25"></line></g><g><line x1="0" y1="176.921875" x2="247.265625" y2="176.921875" fill="rgb(0, 0, 0)" stroke="rgb(66, 66, 66)" stroke-width="1px" opacity="0.25"></line><line x1="0" y1="162.17838541666666" x2="247.265625" y2="162.17838541666666" fill="rgb(0, 0, 0)" stroke="rgb(66, 66, 66)" stroke-width="1px" opacity="0.25"></line><line x1="0" y1="147.43489583333334" x2="247.265625" y2="147.43489583333334" fill="rgb(0, 0, 0)" stroke="rgb(66, 66, 66)" stroke-width="1px" opacity="0.25"></line><line x1="0" y1="132.69140625" x2="247.265625" y2="132.69140625" fill="rgb(0, 0, 0)" stroke="rgb(66, 66, 66)" stroke-width="1px" opacity="0.25"></line><line x1="0" y1="117.94791666666669" x2="247.265625" y2="117.94791666666669" fill="rgb(0, 0, 0)" stroke="rgb(66, 66, 66)" stroke-width="1px" opacity="0.25"></line><line x1="0" y1="103.20442708333331" x2="247.265625" y2="103.20442708333331" fill="rgb(0, 0, 0)" stroke="rgb(66, 66, 66)" stroke-width="1px" opacity="0.25"></line><line x1="0" y1="88.4609375" x2="247.265625" y2="88.4609375" fill="rgb(0, 0, 0)" stroke="rgb(66, 66, 66)" stroke-width="1px" opacity="0.25"></line><line x1="0" y1="73.71744791666666" x2="247.265625" y2="73.71744791666666" fill="rgb(0, 0, 0)" stroke="rgb(66, 66, 66)" stroke-width="1px" opacity="0.25"></line><line x1="0" y1="58.97395833333334" x2="247.265625" y2="58.97395833333334" fill="rgb(0, 0, 0)" stroke="rgb(66, 66, 66)" stroke-width="1px" opacity="0.25"></line><line x1="0" y1="44.23046875" x2="247.265625" y2="44.23046875" fill="rgb(0, 0, 0)" stroke="rgb(66, 66, 66)" stroke-width="1px" opacity="0.25"></line><line x1="0" y1="29.48697916666666" x2="247.265625" y2="29.48697916666666" fill="rgb(0, 0, 0)" stroke="rgb(66, 66, 66)" stroke-width="1px" opacity="0.25"></line><line x1="0" y1="14.74348958333334" x2="247.265625" y2="14.74348958333334" fill="rgb(0, 0, 0)" stroke="rgb(66, 66, 66)" stroke-width="1px" opacity="0.25"></line><line x1="0" y1="0" x2="247.265625" y2="0" fill="rgb(0, 0, 0)" stroke="rgb(66, 66, 66)" stroke-width="1px" opacity="0.25"></line></g></g></g><g><g><line x1="0" y1="14.74348958333334" x2="247.265625" y2="14.74348958333334" fill="rgb(0, 0, 0)" stroke="rgb(153, 153, 153)" stroke-width="1.5px"></line></g></g><g><g><line x1="20.60546875" y1="0" x2="20.60546875" y2="176.921875" fill="rgb(0, 0, 0)" stroke="rgb(153, 153, 153)" stroke-width="1.5px"></line></g></g><g><g><g><g><g><path stroke="rgb(51, 187, 238)" stroke-width="2px" d="M21.6192578125,16.038141089569088L22.633046874999998,16.428964039255227L23.6468359375,16.849311774184855L24.660625,17.28421662729316L25.6744140625,17.73696671691292L26.688203125,18.210738905601264L27.7019921875,18.710319405696104L28.715781250000003,19.234312358645667L29.729570312499998,19.781142208608003L30.743359375,20.350045713307345L31.757148437500003,20.943215437780893L32.7709375,21.561161096125215L33.7847265625,22.20238379635344L34.798515625,22.865706756609164L35.8123046875,23.54868570031238L36.82609375,24.24911059266753L37.8398828125,24.963765325315396L38.853671875,25.69033405576193L39.8674609375,26.42694068218159L40.88125,27.171377845728475L41.8950390625,27.92262289973066L42.908828125,28.679915639382706L43.9226171875,29.44247621972316L44.93640625,30.20946739365334L45.9501953125,30.980102988851367L46.963984375,31.754084660403706L47.9777734375,32.53103395892158L48.9915625,33.31074709466354L50.005351562499996,34.09264843188964L51.019140625,34.87658297643982L52.0329296875,35.66159474537017L53.04671875,36.44657512404528L54.060507812500006,37.230764111358155L55.074296875,38.0135771091346L56.0880859375,38.7947449714799L57.101875,39.57417357885341L58.1156640625,40.35180402848752L59.129453125,41.12740668765045L60.1432421875,41.901161480380345L61.157031249999996,42.673014553026235L62.170820312500005,43.44299532996483L63.184609375,44.21092971461518L64.1983984375,44.97683287967538L65.2121875,45.74071036958659L66.2259765625,46.502331034905616L67.239765625,47.261607186197956L68.2535546875,48.018448363139605L69.26734375000001,48.77272666925106L70.2811328125,49.524419276739L71.294921875,50.27384118315643L72.3087109375,51.02111187619788L73.32249999999999,51.766268379875484L74.3362890625,52.50950063391968L75.35007812500001,53.25100423940888L76.3638671875,53.99078562815582L77.37765625,54.72898636983451L78.3914453125,55.46578942227308L79.40523437499999,56.20152190982792L80.4190234375,56.93634602608231L81.4328125,57.670480112854854L82.4466015625,58.40396081670522L83.460390625,59.13681856064595L84.4741796875,59.86900441545232L85.48796875000001,60.600525875890376L86.5017578125,61.33162031686948L87.515546875,62.06232133431675L88.5293359375,62.79258608559258L89.54312499999999,63.52236869145751L90.5569140625,64.2516892593198L91.57070312500001,64.98054880006748L92.5844921875,65.70889008039168L93.59828125,66.43664009178875L94.6120703125,67.1636444170856L95.62585937499999,67.88983757124556L96.6396484375,68.61529379917906L97.65343750000001,69.340135902631L98.6672265625,70.06444060371395L99.681015625,70.78819735851319L100.6948046875,71.51144861206652L101.70859375,72.2342077653254L102.7223828125,72.95644639386192L103.736171875,73.67817405617514L104.74996093749999,74.39936127545685L105.76375,75.12000068391974L106.7775390625,75.84014130306834L107.791328125,76.55974628858725L108.8051171875,77.27885840601606L109.81890625,77.99757371475043L110.8326953125,78.7159185750365L111.84648437499999,79.4340005349931L112.86027343750001,80.15204701773173L113.87406250000001,80.87024248547564L114.8878515625,81.58868070156757L115.901640625,82.3074137198726L116.9154296875,83.02643602610827L117.92921874999999,83.74563456781149L118.9430078125,84.46497627826776L119.95679687500001,85.18444853096196L120.9705859375,85.90406381395024L121.984375,86.6239742792472L122.9981640625,87.34436786113996L124.01195312500002,88.06532690019124L125.02574218750001,88.78690922228648L126.03953125000001,89.5091960463397L127.0533203125,90.2321159765301L128.067109375,90.95562822999477L129.0808984375,91.67961520906009L130.0946875,92.4040034938938L131.1084765625,93.1287008219929L132.122265625,93.85376588461847L133.1360546875,94.57916674291569L134.14984375,95.30479442244079L135.1636328125,96.03057951587196L136.177421875,96.75642985409857L137.1912109375,97.4823334390503L138.20499999999998,98.20826016863046L139.2187890625,98.93421541736339L140.232578125,99.66010312925907L141.2463671875,100.38586930075351L142.26015625,101.11150673046407L143.27394531250002,101.8369838646845L144.287734375,102.5622506617585L145.3015234375,103.28729554759816L146.3153125,104.01209762660456L147.3291015625,104.73667673341095L148.342890625,105.46104419864199L149.3566796875,106.18515547099992L150.37046875,106.90900585472966L151.38425781249998,107.63263780042833L152.39804687499998,108.3560929199095L153.4118359375,109.07940216016551L154.42562500000003,109.80250889400894L155.43941406250002,110.52533513276249L156.45320312500002,111.24787982599051L157.4669921875,111.97011775406368L158.48078125,112.69201973996398L159.4945703125,113.41348026261988L160.508359375,114.13446823449085L161.5221484375,114.85492295255362L162.5359375,115.57485031884724L163.54972656249998,116.29432611885441L164.563515625,117.01342361632888L165.5773046875,117.73251580450402L166.59109375,118.45162117196367L167.6048828125,119.17073553029309L168.618671875,119.88982435801134L169.6324609375,120.60888595590244L170.64625,121.32789565863654L171.6600390625,122.04682918339812L172.673828125,122.76563050541873L173.6876171875,123.48426084973887L174.70140625,124.20266956545555L175.71519531250001,124.92081138777753L176.728984375,125.63864341858545L177.7427734375,126.3561922228957L178.7565625,127.0734239871246L179.7703515625,127.79034093105405L180.784140625,128.50698806620568L181.7979296875,129.22335057581037L182.81171874999998,129.939409231044L183.82550781249998,130.6551333125038L184.839296875,131.3705398334043L185.8530859375,132.0856288800756L186.86687500000002,132.8004082662302L187.88066406250002,133.51491006604337L188.894453125,134.2291482734234L189.9082421875,134.94318343670793L190.92203125,135.65706038741368L191.9358203125,136.37076083848214L192.949609375,137.08430463028867L193.9633984375,137.7977064156288L194.97718749999999,138.51093884195686L195.99097656249998,139.22398750570284L197.00476562499998,139.9368556444962L198.0185546875,140.64959466383772L199.03234375,141.36226152754358L200.04613281250002,142.07484715524822L201.05992187500001,142.78737921301587L202.0737109375,143.49988121700113L203.0875,144.2122979641386L204.1012890625,144.9245670511586L205.115078125,145.63664649289893L206.1288671875,146.34851829415948L207.14265625,147.06016494749656L208.1564453125,147.77161137900495L209.170234375,148.4828433914902L210.1840234375,149.1938179560089L211.1978125,149.90453609385762L212.2116015625,150.6149942500915L213.225390625,151.32522699890595L214.2391796875,152.03523497856227L215.25296875,152.74501652005918L216.2667578125,153.45457020474564L217.280546875,154.1638904037213L218.2943359375,154.8730165628897L219.30812500000002,155.58200432650312L220.3219140625,156.2909186843636L221.335703125,156.99978391647468L222.3494921875,157.7086604682613L223.36328125,158.41758423767055L224.3770703125,159.1266476606137L225.390859375,159.83597132656072L226.4046484375,160.54571302464694L227.41843749999998,161.25598697192646" style="fill: none;" fill="none"></path></g><g><path stroke="rgb(0, 119, 187)" stroke-width="2px" d="M21.6192578125,16.157368349507646L22.633046874999998,16.628541013752706L23.6468359375,17.11391936728184L24.660625,17.622227209532163L25.6744140625,18.153944965411473L26.688203125,18.709205408969908L27.7019921875,19.285879999250856L28.715781250000003,19.88068996743487L29.729570312499998,20.493335607072652L30.743359375,21.121257673417357L31.757148437500003,21.766367114093914L32.7709375,22.43058502602169L33.7847265625,23.112570856746764L34.798515625,23.81170946051384L35.8123046875,24.528774567768533L36.82609375,25.261961950735873L37.8398828125,26.00955419957067L38.853671875,26.770310306126145L39.8674609375,27.541265596096167L40.88125,28.319746323938347L41.8950390625,29.103219615922416L42.908828125,29.889681371553863L43.9226171875,30.678132100113878L44.93640625,31.467697406097678L45.9501953125,32.25747362198489L46.963984375,33.04724525282522L47.9777734375,33.83648074987269L48.9915625,34.62453047553253L50.005351562499996,35.41078136003199L51.019140625,36.19565878181234L52.0329296875,36.97911798036906L53.04671875,37.761380778469146L54.060507812500006,38.54253825971464L55.074296875,39.3227395789292L56.0880859375,40.10198082759183L57.101875,40.88002785625731L58.1156640625,41.65714322609475L59.129453125,42.433254705946396L60.1432421875,43.20826529160882L61.157031249999996,43.98255893262335L62.170820312500005,44.75616598761464L63.184609375,45.52928963369542L64.1983984375,46.3019661946529L65.2121875,47.074394128506434L66.2259765625,47.84629712625999L67.239765625,48.617695799758394L68.2535546875,49.38823111262031L69.26734375000001,50.15831913847563L70.2811328125,50.92764990906999L71.294921875,51.69603672778673L72.3087109375,52.463462531518346L73.32249999999999,53.229718899926546L74.3362890625,53.99453778203834L75.35007812500001,54.75790690433244L76.3638671875,55.519824112338945L77.37765625,56.28052872679715L78.3914453125,57.04009767545925L79.40523437499999,57.79856834981273L80.4190234375,58.55638747917971L81.4328125,59.314185539284004L82.4466015625,60.07174403714136L83.460390625,60.829023051349346L84.4741796875,61.58591275257027L85.48796875000001,62.342207422567014L86.5017578125,63.097789597078155L87.515546875,63.852515662116254L88.5293359375,64.60620652099318L89.54312499999999,65.3587159580856L90.5569140625,66.11009047669938L91.57070312500001,66.86042760868949L92.5844921875,67.60986218546357L93.59828125,68.35828430646745L94.6120703125,69.10565968579995L95.62585937499999,69.85206143894288L96.6396484375,70.59758154810295L97.65343750000001,71.34236397284099L98.6672265625,72.08633313097181L99.681015625,72.82965365817553L100.6948046875,73.57258158870249L101.70859375,74.31532182562006L102.7223828125,75.05791694246453L103.736171875,75.80055682113793L104.74996093749999,76.54356540259985L105.76375,77.28704663833531L106.7775390625,78.03087547075786L107.791328125,78.775005308737L108.8051171875,79.51940207571445L109.81890625,80.2642126203548L110.8326953125,81.00956176184607L111.84648437499999,81.75541737438358L112.86027343750001,82.50174993799041L113.87406250000001,83.24847685976503L114.8878515625,83.99568163557097L115.901640625,84.7431831222059L116.9154296875,85.49096003860433L117.92921874999999,86.23904626598893L118.9430078125,86.98747281433802L119.95679687500001,87.73631580091994L120.9705859375,88.48536237876763L121.984375,89.23449355027701L122.9981640625,89.98363802275466L124.01195312500002,90.73291101327901L125.02574218750001,91.4824734845627L126.03953125000001,92.23216591056493L127.0533203125,92.98199976031071L128.067109375,93.7321252140785L129.0808984375,94.48248747429822L130.0946875,95.23308751069368L131.1084765625,95.98390071492692L132.122265625,96.7350056883968L133.1360546875,97.48639073314827L134.14984375,98.23798508897329L135.1636328125,98.98971312898803L136.177421875,99.74164436747387L137.1912109375,100.49380582444809L138.20499999999998,101.24629344717236L139.2187890625,101.99913792575683L140.232578125,102.7524195291002L141.2463671875,103.50627836026176L142.26015625,104.26098167889855L143.27394531250002,105.01688381830476L144.287734375,105.77401836743333L145.3015234375,106.53236632913175L146.3153125,107.2919093442899L147.3291015625,108.05249248168126L148.342890625,108.81389669458238L149.3566796875,109.57605853282502L150.37046875,110.3388389201099L151.38425781249998,111.10227002517341L152.39804687499998,111.86639688362622L153.4118359375,112.6312113337428L154.42562500000003,113.39676946647248L155.43941406250002,114.16299511380791L156.45320312500002,114.92981358108592L157.4669921875,115.69724652149411L158.48078125,116.46526479248676L159.4945703125,117.23380713276258L160.508359375,118.00275291298804L161.5221484375,118.7720515690299L162.5359375,119.54151084354216L163.54972656249998,120.31099053877647L164.563515625,121.08035932326743L165.5773046875,121.8494945076519L166.59109375,122.61829844054122L167.6048828125,123.38679316561812L168.618671875,124.15491338212207L169.6324609375,124.9226080074533L170.64625,125.68981482345261L171.6600390625,126.45647320435258L172.673828125,127.22255152196172L173.6876171875,127.98798419065695L174.70140625,128.75278623140863L175.71519531250001,129.51687752805714L176.728984375,130.28018113577295L177.7427734375,131.04277429471267L178.7565625,131.80463640959522L179.7703515625,132.56576213781068L180.784140625,133.32611708257411L181.7979296875,134.08575604450897L182.81171874999998,134.84471344076616L183.82550781249998,135.60298645883418L184.839296875,136.36063131344937L185.8530859375,137.11767367190308L186.86687500000002,137.87419948557275L187.88066406250002,138.63022652504324L188.894453125,139.38575441464758L189.9082421875,140.14072975850632L190.92203125,140.8951514005908L191.9358203125,141.64906701179214L192.949609375,142.40251932389125L193.9633984375,143.15554908194883L194.97718749999999,143.90819313078987L195.99097656249998,144.6612435525781L197.00476562499998,145.4146526605121L198.0185546875,146.16830694053718L199.03234375,146.92216298226938L200.04613281250002,147.67613302184324L201.05992187500001,148.4301535175904L202.0737109375,149.1842611315536L203.0875,149.93842068076603L204.1012890625,150.69276148939346L205.115078125,151.44720329196107L206.1288671875,152.2018813229717L207.14265625,152.95678005186977L208.1564453125,153.71196368100343L209.170234375,154.46747793627486L210.1840234375,155.22340812669307L211.1978125,155.97988868757196L212.2116015625,156.73701619674088L213.225390625,157.49489043754227L214.2391796875,158.25357411058283L215.25296875,159.0131050307142L216.2667578125,159.77347995618518L217.280546875,160.534658535609L218.2943359375,161.29662195097077L219.30812500000002,162.05942718723142L220.3219140625,162.82316470055295L221.335703125,163.5878605136341L222.3494921875,164.35355664947963L223.36328125,165.120240174128L224.3770703125,165.88797749703224L225.390859375,166.6566945863446L226.4046484375,167.42639264917412L227.41843749999998,168.19722530668082" style="fill: none;" fill="none"></path></g><g><path stroke="rgb(255, 112, 67)" stroke-width="2px" d="M21.6192578125,16.02028234671021L22.633046874999998,16.416424159690788L23.6468359375,16.834816425707096L24.660625,17.273284026945582L25.6744140625,17.735148048673167L26.688203125,18.223437102071426L27.7019921875,18.736043533708653L28.715781250000003,19.270014248733613L29.729570312499998,19.820771593774094L30.743359375,20.386383667322058L31.757148437500003,20.965205124842218L32.7709375,21.55683839449038L33.7847265625,22.159812503582522L34.798515625,22.773642749018624L35.8123046875,23.398350110184122L36.82609375,24.033473456214338L37.8398828125,24.678440945694277L38.853671875,25.331970217785624L39.8674609375,25.993510640469665L40.88125,26.662361413052817L41.8950390625,27.33778389986731L42.908828125,28.01877391745262L43.9226171875,28.704982569038002L44.93640625,29.395956910398212L45.9501953125,30.091239552501133L46.963984375,30.790146741949552L47.9777734375,31.49203018910835L48.9915625,32.196371754727544L50.005351562499996,32.902675434688156L51.019140625,33.610257541098534L52.0329296875,34.318456910087754L53.04671875,35.02645496330978L54.060507812500006,35.733610203725426L55.074296875,36.439662933765106L56.0880859375,37.14443361286749L57.101875,37.84758186884337L58.1156640625,38.549010331403345L59.129453125,39.24872965257627L60.1432421875,39.94689405893048L61.157031249999996,40.64356698327696L62.170820312500005,41.33876397071888L63.184609375,42.03254786707711L64.1983984375,42.724866841629705L65.2121875,43.41567597708692L66.2259765625,44.10524983190432L67.239765625,44.79359207524596L68.2535546875,45.48077916786704L69.26734375000001,46.166853462963445L70.2811328125,46.85181475281274L71.294921875,47.53578006435063L72.3087109375,48.21872289371768L73.32249999999999,48.90075980078561L74.3362890625,49.582046656897646L75.35007812500001,50.26277893484122L76.3638671875,50.943117291324725L77.37765625,51.6233747905144L78.3914453125,52.303913921875214L79.40523437499999,52.98503252698354L80.4190234375,53.66717149537294L81.4328125,54.35061135585077L82.4466015625,55.03556327541024L83.460390625,55.722280123602786L84.4741796875,56.41100711367451L85.48796875000001,57.10172587437003L86.5017578125,57.79455007525361L87.515546875,58.4894524066898L88.5293359375,59.18647593558943L89.54312499999999,59.88562459054123L90.5569140625,60.58658375119528L91.57070312500001,61.289034532558205L92.5844921875,61.99273570456242L93.59828125,62.69750430767344L94.6120703125,63.40315052195191L95.62585937499999,64.10951076713883L96.6396484375,64.81651509175451L97.65343750000001,65.52406034299179L98.6672265625,66.2322219276302L99.681015625,66.94099426608717L100.6948046875,67.65027419250164L101.70859375,68.36000607455757L102.7223828125,69.07007571876504L103.736171875,69.78036117481773L104.74996093749999,70.49072947698161L105.76375,71.20111017179185L106.7775390625,71.91146714385096L107.791328125,72.62174370634735L108.8051171875,73.33180874050394L109.81890625,74.04150490387008L110.8326953125,74.75079244316296L111.84648437499999,75.45963424906837L112.86027343750001,76.16794570060885L113.87406250000001,76.87569357037974L114.8878515625,77.58278105677155L115.901640625,78.2891258775164L116.9154296875,78.99470453391991L117.92921874999999,79.69953796462225L118.9430078125,80.40373685089996L119.95679687500001,81.10738974254181L120.9705859375,81.81049229160546L121.984375,82.51299325423899L122.9981640625,83.21477277531538L124.01195312500002,83.91573892959002L125.02574218750001,84.61597612737879L126.03953125000001,85.31546655056464L127.0533203125,86.01420058240522L128.067109375,86.71220985596366L129.0808984375,87.40950799009222L130.0946875,88.10614194509782L131.1084765625,88.80217928120516L132.122265625,89.49763540559131L133.1360546875,90.19246923197483L134.14984375,90.88679732632582L135.1636328125,91.5807364618648L136.177421875,92.27434829989484L137.1912109375,92.96767530063833L138.20499999999998,93.66069605564938L139.2187890625,94.3533614063996L140.232578125,95.04565057759469L141.2463671875,95.73769739957537L142.26015625,96.42951721532458L143.27394531250002,97.12108878775334L144.287734375,97.81238853651818L145.3015234375,98.50344838912002L146.3153125,99.19421586908398L147.3291015625,99.88466627511164L148.342890625,100.57478745718834L149.3566796875,101.26456024170356L150.37046875,101.95403135950302L151.38425781249998,102.64318634947811L152.39804687499998,103.33206267896155L153.4118359375,104.02069661823069L154.42562500000003,104.70906702621872L155.43941406250002,105.39716146182579L156.45320312500002,106.08497156163924L157.4669921875,106.77244709205009L158.48078125,107.45967583437262L159.4945703125,108.1467246623911L160.508359375,108.83366921677066L161.5221484375,109.52061028221283L162.5359375,110.20763463147507L163.54972656249998,110.89479169464309L164.563515625,111.58213675642985L165.5773046875,112.26967257837245L166.59109375,112.95736722916376L167.6048828125,113.64517034619648L168.618671875,114.3331253706683L169.6324609375,115.02121283374939L170.64625,115.70950354211007L171.6600390625,116.39800460485748L172.673828125,117.08677292977168L173.6876171875,117.77581155223513L174.70140625,118.46518718650262L175.71519531250001,119.15491783803037L176.728984375,119.84493587932734L177.7427734375,120.5351373850338L178.7565625,121.22536435560578L179.7703515625,121.91550239514173L180.784140625,122.60543104612924L181.7979296875,123.29505676577648L182.81171874999998,123.98435754231977L183.82550781249998,124.67333014642401L184.839296875,125.36192760268558L185.8530859375,126.05012435691383L186.86687500000002,126.73786551519497L187.88066406250002,127.4251011004173L188.894453125,128.1118184876021L189.9082421875,128.79801579161136L190.92203125,129.4836770351753L191.9358203125,130.16880743556388L192.949609375,130.85344902335498L193.9633984375,131.5376353130164L194.97718749999999,132.2213616189941L195.99097656249998,132.90462506432903L197.00476562499998,133.5873999826097L198.0185546875,134.26969551871463L199.03234375,134.95151059969677L200.04613281250002,135.6328476308362L201.05992187500001,136.3137363006641L202.0737109375,136.99418415224432L203.0875,137.67416884737654L204.1012890625,138.35365812944988L205.115078125,139.03267323386063L206.1288671875,139.71126096050037L207.14265625,140.38946772384725L208.1564453125,141.0673020148796L209.170234375,141.7447555702649L210.1840234375,142.42179482788927L211.1978125,143.0984310673778L212.2116015625,143.77471147231017L213.225390625,144.45058326474495L214.2391796875,145.1260679291348L215.25296875,145.8012080540224L216.2667578125,146.4760486857628L217.280546875,147.15057946024214L218.2943359375,147.82480926015114L219.30812500000002,148.49872573206596L220.3219140625,149.17230068338893L221.335703125,149.8455366886931L222.3494921875,150.51842266722505L223.36328125,151.19095362339132L224.3770703125,151.8631651183592L225.390859375,152.53506968693344L226.4046484375,153.20669125283877L227.41843749999998,153.87807447799887" style="fill: none;" fill="none"></path></g></g></g></g><g opacity="0.2"><g><g><g><path stroke="rgb(51, 187, 238)" stroke-width="2px" d="M21.6192578125,16.038141089569088L22.633046874999998,16.76116354648844L23.6468359375,17.510308587361653L24.660625,18.235190451721188L25.6744140625,18.963299758097328L26.688203125,19.70422829829916L27.7019921875,20.473581825683592L28.715781250000003,21.25171832625325L29.729570312499998,22.035477625162756L30.743359375,22.827148649169917L31.757148437500003,23.64275757145182L32.7709375,24.476868651692705L33.7847265625,25.319130117268884L34.798515625,26.17007365527345L35.8123046875,27.021159099365224L36.82609375,27.871469588785814L37.8398828125,28.71278009928385L38.853671875,29.547704835856123L39.8674609375,30.37711919319661L40.88125,31.197494869954433L41.8950390625,32.01467673828125L42.908828125,32.82986086376953L43.9226171875,33.642643643391935L44.93640625,34.45229527441407L45.9501953125,35.25868306542968L46.963984375,36.06455299137369L47.9777734375,36.869387187174475L48.9915625,37.674221382975254L50.005351562499996,38.47662658886719L51.019140625,39.27899862190755L52.0329296875,40.076050098144535L53.04671875,40.86594545312501L54.060507812500006,41.650002386230476L55.074296875,42.42872954785156L56.0880859375,43.203730292480465L57.101875,43.97598137630209L58.1156640625,44.745694736979175L59.129453125,45.51173696874999L60.1432421875,46.2766550094401L61.157031249999996,47.03911825911458L62.170820312500005,47.79966485514322L63.184609375,48.5570010563151L64.1983984375,49.312239996093744L65.2121875,50.06535587337239L66.2259765625,50.814796935872394L67.239765625,51.56130404394531L68.2535546875,52.304785050781256L69.26734375000001,53.044911913736975L70.2811328125,53.782267000651046L71.294921875,54.5190876360677L72.3087109375,55.25439337792968L73.32249999999999,55.98776035091146L74.3362890625,56.72025008626302L75.35007812500001,57.452094793945314L76.3638671875,58.18223294270834L77.37765625,58.911574943033855L78.3914453125,59.640540984374994L79.40523437499999,60.37027737304687L80.4190234375,61.10001376171874L81.4328125,61.830288287760425L82.4466015625,62.56010945149739L83.460390625,63.2894735670573L84.4741796875,64.01788304166666L85.48796875000001,64.74566591796875L86.5017578125,65.474362890625L87.515546875,66.20285345442709L88.5293359375,66.93066213183594L89.54312499999999,67.65772626302082L90.5569140625,68.38444023632813L91.57070312500001,69.11069716145833L92.5844921875,69.83611002180989L93.59828125,70.5605166389974L94.6120703125,71.28330147233073L95.62585937499999,72.004903140625L96.6396484375,72.72618782389323L97.65343750000001,73.44755359635417L98.6672265625,74.16881616438802L99.681015625,74.88947056347658L100.6948046875,75.60985957975261L101.70859375,76.32983209244792L102.7223828125,77.04912271875001L103.736171875,77.767956296875L104.74996093749999,78.4860821875L105.76375,79.20361833854167L106.7775390625,79.92093333723957L107.791328125,80.63750378971355L108.8051171875,81.3538236028646L109.81890625,82.07029085091146L110.8326953125,82.78653694661459L111.84648437499999,83.50312951432292L112.86027343750001,84.22097527864582L113.87406250000001,84.94001526562501L114.8878515625,85.65982928580729L115.901640625,86.38023304557292L116.9154296875,87.10089481640624L117.92921874999999,87.8210921673177L118.9430078125,88.5412452877604L119.95679687500001,89.26145738216145L120.9705859375,89.98188325716147L121.984375,90.70346649609375L122.9981640625,91.4265978014323L124.01195312500002,92.15076115104165L125.02574218750001,92.87587545572916L126.03953125000001,93.60215449609375L127.0533203125,94.32866206054688L128.067109375,95.05553084049478L129.0808984375,95.78220795507814L130.0946875,96.50887032617186L131.1084765625,97.23531891666667L132.122265625,97.96246782291668L133.1360546875,98.6897715358073L134.14984375,99.41668454622396L135.1636328125,100.1433616608073L136.177421875,100.86958172721354L137.1912109375,101.59578705013021L138.20499999999998,102.32184493815103L139.2187890625,103.04796180013021L140.232578125,103.77346680729168L141.2463671875,104.4985442532552L142.26015625,105.22345214908854L143.27394531250002,105.94802094466147L144.287734375,106.67209583333333L145.3015234375,107.39588322395835L146.3153125,108.11930939908854L147.3291015625,108.84262499804687L148.342890625,109.56579316210937L149.3566796875,110.28845267578126L150.37046875,111.01082469140626L151.38425781249998,111.73321882226563L152.39804687499998,112.45567192708333L153.4118359375,113.1781545188802L154.42562500000003,113.90011371679687L155.43941406250002,114.62135048372396L156.45320312500002,115.34229975260418L157.4669921875,116.06279934505208L158.48078125,116.78279765885415L159.4945703125,117.50175655664064L160.508359375,118.2200667408854L161.5221484375,118.93749968750001L162.5359375,119.65443872721353L163.54972656249998,120.3713556516927L164.563515625,121.08830943489583L165.5773046875,121.80737153710938L166.59109375,122.52655158723958L167.6048828125,123.2457168938802L168.618671875,123.96466104817708L169.6324609375,124.68356834375L170.64625,125.40228397395832L171.6600390625,126.1207858235677L172.673828125,126.83883799674479L173.6876171875,127.55649946744792L174.70140625,128.27365228776043L175.71519531250001,128.99028171419272L176.728984375,129.70635825976564L177.7427734375,130.4223021139323L178.7565625,131.13773731770834L179.7703515625,131.85287027994792L180.784140625,132.5679884986979L181.7979296875,133.28273813020834L182.81171874999998,133.99707494401042L183.82550781249998,134.71090310742187L184.839296875,135.4245101184896L185.8530859375,136.13780014453124L186.86687500000002,136.85082478776042L187.88066406250002,137.56375359830727L188.894453125,138.27649811523438L189.9082421875,138.9893826953125L190.92203125,139.70236310807292L191.9358203125,140.41506339453124L192.949609375,141.12771945052083L193.9633984375,141.8403165325521L194.97718749999999,142.55258925781249L195.99097656249998,143.2645966002604L197.00476562499998,143.9764417643229L198.0185546875,144.68844910677083L199.03234375,145.40070708854165L200.04613281250002,146.11283237890626L201.05992187500001,146.8250608736979L202.0737109375,147.53739257291667L203.0875,148.24932619791667L204.1012890625,148.96075854427082L205.115078125,149.67176332942708L206.1288671875,150.38245850130207L207.14265625,151.09282931640624L208.1564453125,151.8031411575521L209.170234375,152.51315812890624L210.1840234375,153.2226738216146L211.1978125,153.931938875L212.2116015625,154.64092380208334L213.225390625,155.34987924218748L214.2391796875,156.05861352994793L215.25296875,156.767111921875L216.2667578125,157.47537441796877L217.280546875,158.18337153125L218.2943359375,158.8913981315104L219.30812500000002,159.59960165364583L220.3219140625,160.30810004557293L221.335703125,161.01668689843748L222.3494921875,161.7256275950521L223.36328125,162.43481893098956L224.3770703125,163.14467372395833L225.390859375,163.8554721002604L226.4046484375,164.5675826471354L227.41843749999998,165.2808726731771" style="fill: none;" fill="none"></path></g><g><path stroke="rgb(0, 119, 187)" stroke-width="2px" d="M21.6192578125,16.157368349507646L22.633046874999998,17.029037778361005L23.6468359375,17.877176828206377L24.660625,18.73370584509278L25.6744140625,19.594172295166008L26.688203125,20.459573206909173L27.7019921875,21.32124493725586L28.715781250000003,22.170745916951493L29.729570312499998,23.01900015030924L30.743359375,23.855337497477205L31.757148437500003,24.702289235677082L32.7709375,25.56462304085287L33.7847265625,26.427451674397783L34.798515625,27.294493260091148L35.8123046875,28.17455242561849L36.82609375,29.05375739021809L37.8398828125,29.93135623592122L38.853671875,30.809182684244785L39.8674609375,31.675644666503914L40.88125,32.529980128580725L41.8950390625,33.370821611816396L42.908828125,34.19947207210287L43.9226171875,35.02090190836589L44.93640625,35.83540046158855L45.9501953125,36.64232270410156L46.963984375,37.44565122102863L47.9777734375,38.243438028808605L48.9915625,39.03465845491537L50.005351562499996,39.819146635091144L51.019140625,40.60336943245443L52.0329296875,41.38484256901042L53.04671875,42.165451368489585L54.060507812500006,42.94469270930989L55.074296875,43.723161859863275L56.0880859375,44.500092158691416L57.101875,45.27403321500652L58.1156640625,46.04812354915365L59.129453125,46.82046125097657L60.1432421875,47.59086018391926L61.157031249999996,48.362468083007805L62.170820312500005,49.13335355110678L63.184609375,49.904729240234374L64.1983984375,50.67571422688802L65.2121875,51.44744744563802L66.2259765625,52.216983884440104L67.239765625,52.98604115983073L68.2535546875,53.75212393619791L69.26734375000001,54.52004964876302L70.2811328125,55.285406308268236L71.294921875,56.04871362272136L72.3087109375,56.810922547200526L73.32249999999999,57.57074671223958L74.3362890625,58.32758532063802L75.35007812500001,59.0828795485026L76.3638671875,59.83668836979166L77.37765625,60.59062251074219L78.3914453125,61.343841592447916L79.40523437499999,62.09616132128906L80.4190234375,62.850349787434894L81.4328125,63.60808037695312L82.4466015625,64.36432555989583L83.460390625,65.12005840657551L84.4741796875,65.87477395247396L85.48796875000001,66.6277239654948L86.5017578125,67.37929177636718L87.515546875,68.12918620117186L88.5293359375,68.87702759505208L89.54312499999999,69.62285650260417L90.5569140625,70.36781185839843L91.57070312500001,71.11228067903646L92.5844921875,71.85660943652344L93.59828125,72.59930166666666L94.6120703125,73.3407517578125L95.62585937499999,74.08164159635417L96.6396484375,74.82217021940104L97.65343750000001,75.56277624576822L98.6672265625,76.30214013313802L99.681015625,77.0417878326823L100.6948046875,77.78249337760417L101.70859375,78.52417199283855L102.7223828125,79.2659464407552L103.736171875,80.00884139388022L104.74996093749999,80.75394049869792L105.76375,81.50010113476563L106.7775390625,82.24590055533854L107.791328125,82.99173683463542L108.8051171875,83.73764683138022L109.81890625,84.48480265299479L110.8326953125,85.23320429947917L111.84648437499999,85.98193030273437L112.86027343750001,86.73096591927084L113.87406250000001,87.47992781835937L114.8878515625,88.22984067252605L115.901640625,88.97902372395833L116.9154296875,89.72836158203125L117.92921874999999,90.47820071875L118.9430078125,91.22855587760417L119.95679687500001,91.97975878710936L120.9705859375,92.72995913932292L121.984375,93.47956975195314L122.9981640625,94.22878966210938L124.01195312500002,94.97879097721355L125.02574218750001,95.72999388671874L126.03953125000001,96.48042276302084L127.0533203125,97.23105804817708L128.067109375,97.98283595377605L129.0808984375,98.73454014192708L130.0946875,99.48648759765625L131.1084765625,100.23850877083332L132.122265625,100.99126711848959L133.1360546875,101.74423924674478L134.14984375,102.49701970963541L135.1636328125,103.24950530273438L136.177421875,104.00258800716146L137.1912109375,104.75605404231771L138.20499999999998,105.51038994335937L139.2187890625,106.26525661002604L140.232578125,107.0210152578125L141.2463671875,107.7781450501302L142.26015625,108.53763380078124L143.27394531250002,109.30032926041666L144.287734375,110.06444746679686L145.3015234375,110.82967143489583L146.3153125,111.59598642122396L147.3291015625,112.36246358593749L148.342890625,113.12852056119792L149.3566796875,113.8949756106771L150.37046875,114.66126111002605L151.38425781249998,115.42837961653646L152.39804687499998,116.196449078125L153.4118359375,116.96515988151042L154.42562500000003,117.73493221614584L155.43941406250002,118.5049404466146L156.45320312500002,119.27511822721355L157.4669921875,120.04603318229167L158.48078125,120.81736832682292L159.4945703125,121.58888039322918L160.508359375,122.36011233333335L161.5221484375,123.13141061914064L162.5359375,123.90178006510416L163.54972656249998,124.67137547786459L164.563515625,125.44011576822918L165.5773046875,126.20792721875L166.59109375,126.97485405989583L167.6048828125,127.74159660742185L168.618671875,128.50759460872396L169.6324609375,129.27287755078126L170.64625,130.03732011393228L171.6600390625,130.80087069596354L172.673828125,131.56366198828124L173.6876171875,132.3254359798177L174.70140625,133.08666446223958L175.71519531250001,133.8467282089844L176.728984375,134.60556824609375L177.7427734375,135.36413552864582L178.7565625,136.12185506054686L179.7703515625,136.87880793098958L180.784140625,137.6347951028646L181.7979296875,138.39037682877603L182.81171874999998,139.14547201953127L183.82550781249998,139.89986689453124L184.839296875,140.65395215625L185.8530859375,141.40758036979167L186.86687500000002,142.16117909635418L187.88066406250002,142.91437974869794L188.894453125,143.66707912239582L189.9082421875,144.4189233736979L190.92203125,145.17020737239582L191.9358203125,145.9212554752604L192.949609375,146.67208242578124L193.9633984375,147.4227177109375L194.97718749999999,148.17317607421876L195.99097656249998,148.92852927604167L197.00476562499998,149.68397093880208L198.0185546875,150.43901452734374L199.03234375,151.19401388541667L200.04613281250002,151.94862991276042L201.05992187500001,152.7029363268229L202.0737109375,153.45753761067706L203.0875,154.2119914596354L204.1012890625,154.9673594049479L205.115078125,155.72237350651042L206.1288671875,156.4783901653646L207.14265625,157.23453951562502L208.1564453125,157.99133757942707L209.170234375,158.7487253828125L210.1840234375,159.5070125390625L211.1978125,160.2666118658854L212.2116015625,161.0274054153646L213.225390625,161.78951113541666L214.2391796875,162.55278159114584L215.25296875,163.317113578125L216.2667578125,164.08227120052084L217.280546875,164.84800381901042L218.2943359375,165.61441463802083L219.30812500000002,166.38199019270834L220.3219140625,167.151010609375L221.335703125,167.92113678776042L222.3494921875,168.69250141927083L223.36328125,169.46478014713543L224.3770703125,170.23848899348957L225.390859375,171.0127580924479L226.4046484375,171.78801500520834L227.41843749999998,172.56527703255207" style="fill: none;" fill="none"></path></g><g><path stroke="rgb(255, 112, 67)" stroke-width="2px" d="M21.6192578125,16.02028234671021L22.633046874999998,16.75314470072429L23.6468359375,17.49273826401775L24.660625,18.232048245503737L25.6744140625,18.986167371175124L26.688203125,19.762688538167318L27.7019921875,20.545280797729493L28.715781250000003,21.32583523059082L29.729570312499998,22.09129831966145L30.743359375,22.849155150309247L31.757148437500003,23.599447649332678L32.7709375,24.348393883463533L33.7847265625,25.09064657332356L34.798515625,25.83145993001302L35.8123046875,26.574552998779296L36.82609375,27.318115094807936L37.8398828125,28.06188267822266L38.853671875,28.801572765299472L39.8674609375,29.541133846842445L40.88125,30.279686842285166L41.8950390625,31.016829991536465L42.908828125,31.750582138183596L43.9226171875,32.484605196451824L44.93640625,33.218276253906254L45.9501953125,33.951458933268235L46.963984375,34.682509335449225L47.9777734375,35.41122842333984L48.9915625,36.13804744401041L50.005351562499996,36.86279131852213L51.019140625,37.583893551106776L52.0329296875,38.30096343929037L53.04671875,39.012421586751294L54.060507812500006,39.71873057047526L55.074296875,40.4218789186198L56.0880859375,41.122226003743485L57.101875,41.81859787548829L58.1156640625,42.512332505533855L59.129453125,43.20410625146485L60.1432421875,43.8949327281901L61.157031249999996,44.58440280387371L62.170820312500005,45.27229532617187L63.184609375,45.958969667643224L64.1983984375,46.643749470703135L65.2121875,47.326649478841155L66.2259765625,48.00977063932292L67.239765625,48.691598058593755L68.2535546875,49.37263301529948L69.26734375000001,50.052735446289056L70.2811328125,50.73167314160157L71.294921875,51.41023487792969L72.3087109375,52.087587648111985L73.32249999999999,52.76466397786458L74.3362890625,53.441847197916665L75.35007812500001,54.11956118359374L76.3638671875,54.797772762044275L77.37765625,55.477661412434884L78.3914453125,56.1598721624349L79.40523437499999,56.844338666341145L80.4190234375,57.53231412076823L81.4328125,58.223171927408856L82.4466015625,58.91673147851563L83.460390625,59.61348299511718L84.4741796875,60.313629200195315L85.48796875000001,61.01565888606772L86.5017578125,61.720434546875L87.515546875,62.42713054720053L88.5293359375,63.13618919173177L89.54312499999999,63.8473930139974L90.5569140625,64.5586226373698L91.57070312500001,65.26953527571615L92.5844921875,65.98032996614583L93.59828125,66.69115414355468L94.6120703125,67.40177928385417L95.62585937499999,68.11219064355468L96.6396484375,68.82284895670574L97.65343750000001,69.53346303938802L98.6672265625,70.24512022395834L99.681015625,70.9573560904948L100.6948046875,71.66951455371093L101.70859375,72.38180939420572L102.7223828125,73.09379462141928L103.736171875,73.80530437109375L104.74996093749999,74.51614329199218L105.76375,75.22659519628905L106.7775390625,75.93681857649739L107.791328125,76.64664019661458L108.8051171875,77.35550717578124L109.81890625,78.06311358658854L110.8326953125,78.77008602734375L111.84648437499999,79.47640238281251L112.86027343750001,80.18170880924478L113.87406250000001,80.88626331770834L114.8878515625,81.58960886002605L115.901640625,82.29174543619791L116.9154296875,82.99298265950522L117.92921874999999,83.6935932845052L118.9430078125,84.39419653776042L119.95679687500001,85.09475556054687L120.9705859375,85.79473958723958L121.984375,86.4938316328125L122.9981640625,87.19152304687499L124.01195312500002,87.8878801751302L125.02574218750001,88.5839866640625L126.03953125000001,89.27924540234376L127.0533203125,89.97369324869791L128.067109375,90.6675955859375L129.0808984375,91.360863953125L130.0946875,92.05373424609375L131.1084765625,92.74639075846355L132.122265625,93.4385533639323L133.1360546875,94.1298608470052L134.14984375,94.82132313671875L135.1636328125,95.51305818098959L136.177421875,96.20481534049479L137.1912109375,96.89652826953126L138.20499999999998,97.58781363736978L139.2187890625,98.27846503515623L140.232578125,98.96862252604168L141.2463671875,99.6592960390625L142.26015625,100.3498294889323L143.27394531250002,101.0399943515625L144.287734375,101.72975376822916L145.3015234375,102.41945421093749L146.3153125,103.1085649140625L147.3291015625,103.79721856901041L148.342890625,104.48547414973957L149.3566796875,105.17327268229167L150.37046875,105.8610343561198L151.38425781249998,106.54839795572916L152.39804687499998,107.23569520963542L153.4118359375,107.92295560481772L154.42562500000003,108.60983266927083L155.43941406250002,109.29636326171877L156.45320312500002,109.98256212565104L157.4669921875,110.66814176302084L158.48078125,111.35397203971354L159.4945703125,112.04000135351562L160.508359375,112.72635502408855L161.5221484375,113.41327631901041L162.5359375,114.10077261002606L163.54972656249998,114.78868171875L164.563515625,115.47709210611978L165.5773046875,116.16570890234375L166.59109375,116.85430358333333L167.6048828125,117.54272134244792L168.618671875,118.23153717578126L169.6324609375,118.92037512434895L170.64625,119.60981755598958L171.6600390625,120.29951062695312L172.673828125,120.9897934375L173.6876171875,121.68036374609373L174.70140625,122.37164911393229L175.71519531250001,123.0633915299479L176.728984375,123.75503811328126L177.7427734375,124.44627925065105L178.7565625,125.13665052213541L179.7703515625,125.82628461914062L180.784140625,126.51502673502604L181.7979296875,127.20293584375L182.81171874999998,127.89039527604167L183.82550781249998,128.57750823632813L184.839296875,129.2639798548177L185.8530859375,129.9499059641927L186.86687500000002,130.63506541210936L187.88066406250002,131.31943608333333L188.894453125,132.00321701497396L189.9082421875,132.68646718098958L190.92203125,133.36909074869791L191.9358203125,134.05121303776042L192.949609375,134.7330846875L193.9633984375,135.41469095442707L194.97718749999999,136.09581068619792L195.99097656249998,136.7764512545573L197.00476562499998,137.4564578528646L198.0185546875,138.13603688997395L199.03234375,138.8151293919271L200.04613281250002,139.49375747395834L201.05992187500001,140.1721054296875L202.0737109375,140.85005531119793L203.0875,141.527415453125L204.1012890625,142.20409739453126L205.115078125,142.8804254921875L206.1288671875,143.55659141145836L207.14265625,144.2326393828125L208.1564453125,144.90836299739584L209.170234375,145.58365905078125L210.1840234375,146.25835062109374L211.1978125,146.93270309114584L212.2116015625,147.60696710026042L213.225390625,148.280523421875L214.2391796875,148.9538143606771L215.25296875,149.6270020950521L216.2667578125,150.30014559895832L217.280546875,150.97292051562502L218.2943359375,151.64544479296876L219.30812500000002,152.31758573958334L220.3219140625,152.98922540755208L221.335703125,153.66054071875L222.3494921875,154.33144321223958L223.36328125,155.001962375L224.3770703125,155.67236358984374L225.390859375,156.34252890885415L226.4046484375,157.01254679296875L227.41843749999998,157.68257942057292" style="fill: none;" fill="none"></path></g></g></g></g></g></g><g transform="translate(82, 176)" clip-path="url(#clip_1)"><clipPath id="clip_1"><rect width="247" height="23"></rect></clipPath><g><g><line x1="0" y1="0" x2="0" y2="5" style="visibility: inherit;" fill="rgb(0, 0, 0)" stroke="rgb(204, 204, 204)" stroke-width="1px"></line><line x1="20.60546875" y1="0" x2="20.60546875" y2="5" style="visibility: inherit;" fill="rgb(0, 0, 0)" stroke="rgb(204, 204, 204)" stroke-width="1px"></line><line x1="41.2109375" y1="0" x2="41.2109375" y2="5" style="visibility: inherit;" fill="rgb(0, 0, 0)" stroke="rgb(204, 204, 204)" stroke-width="1px"></line><line x1="61.81640625" y1="0" x2="61.81640625" y2="5" style="visibility: inherit;" fill="rgb(0, 0, 0)" stroke="rgb(204, 204, 204)" stroke-width="1px"></line><line x1="82.421875" y1="0" x2="82.421875" y2="5" style="visibility: inherit;" fill="rgb(0, 0, 0)" stroke="rgb(204, 204, 204)" stroke-width="1px"></line><line x1="103.02734375" y1="0" x2="103.02734375" y2="5" style="visibility: inherit;" fill="rgb(0, 0, 0)" stroke="rgb(204, 204, 204)" stroke-width="1px"></line><line x1="123.6328125" y1="0" x2="123.6328125" y2="5" style="visibility: inherit;" fill="rgb(0, 0, 0)" stroke="rgb(204, 204, 204)" stroke-width="1px"></line><line x1="144.23828125" y1="0" x2="144.23828125" y2="5" style="visibility: inherit;" fill="rgb(0, 0, 0)" stroke="rgb(204, 204, 204)" stroke-width="1px"></line><line x1="164.84375" y1="0" x2="164.84375" y2="5" style="visibility: inherit;" fill="rgb(0, 0, 0)" stroke="rgb(204, 204, 204)" stroke-width="1px"></line><line x1="185.44921875" y1="0" x2="185.44921875" y2="5" style="visibility: inherit;" fill="rgb(0, 0, 0)" stroke="rgb(204, 204, 204)" stroke-width="1px"></line><line x1="206.0546875" y1="0" x2="206.0546875" y2="5" style="visibility: inherit;" fill="rgb(0, 0, 0)" stroke="rgb(204, 204, 204)" stroke-width="1px"></line><line x1="226.66015625" y1="0" x2="226.66015625" y2="5" style="visibility: inherit;" fill="rgb(0, 0, 0)" stroke="rgb(204, 204, 204)" stroke-width="1px"></line><line x1="247.265625" y1="0" x2="247.265625" y2="5" style="visibility: inherit;" fill="rgb(0, 0, 0)" stroke="rgb(204, 204, 204)" stroke-width="1px"></line></g><g transform="translate(0, 8)"><text x="0" y="0" dx="0em" dy="0.95em" style="text-anchor: middle; visibility: hidden; font-family: Roboto, sans-serif; font-size: 12px; font-weight: 200;" fill="rgb(33, 33, 33)" stroke="none" stroke-width="1px">-10k</text><text x="20.60546875" y="0" dx="0em" dy="0.95em" style="text-anchor: middle; visibility: inherit; font-family: Roboto, sans-serif; font-size: 12px; font-weight: 200;" fill="rgb(33, 33, 33)" stroke="none" stroke-width="1px">0</text><text x="41.2109375" y="0" dx="0em" dy="0.95em" style="text-anchor: middle; visibility: hidden; font-family: Roboto, sans-serif; font-size: 12px; font-weight: 200;" fill="rgb(33, 33, 33)" stroke="none" stroke-width="1px">10k</text><text x="61.81640625" y="0" dx="0em" dy="0.95em" style="text-anchor: middle; visibility: inherit; font-family: Roboto, sans-serif; font-size: 12px; font-weight: 200;" fill="rgb(33, 33, 33)" stroke="none" stroke-width="1px">20k</text><text x="82.421875" y="0" dx="0em" dy="0.95em" style="text-anchor: middle; visibility: hidden; font-family: Roboto, sans-serif; font-size: 12px; font-weight: 200;" fill="rgb(33, 33, 33)" stroke="none" stroke-width="1px">30k</text><text x="103.02734375" y="0" dx="0em" dy="0.95em" style="text-anchor: middle; visibility: inherit; font-family: Roboto, sans-serif; font-size: 12px; font-weight: 200;" fill="rgb(33, 33, 33)" stroke="none" stroke-width="1px">40k</text><text x="123.6328125" y="0" dx="0em" dy="0.95em" style="text-anchor: middle; visibility: hidden; font-family: Roboto, sans-serif; font-size: 12px; font-weight: 200;" fill="rgb(33, 33, 33)" stroke="none" stroke-width="1px">50k</text><text x="144.23828125" y="0" dx="0em" dy="0.95em" style="text-anchor: middle; visibility: inherit; font-family: Roboto, sans-serif; font-size: 12px; font-weight: 200;" fill="rgb(33, 33, 33)" stroke="none" stroke-width="1px">60k</text><text x="164.84375" y="0" dx="0em" dy="0.95em" style="text-anchor: middle; visibility: hidden; font-family: Roboto, sans-serif; font-size: 12px; font-weight: 200;" fill="rgb(33, 33, 33)" stroke="none" stroke-width="1px">70k</text><text x="185.44921875" y="0" dx="0em" dy="0.95em" style="text-anchor: middle; visibility: inherit; font-family: Roboto, sans-serif; font-size: 12px; font-weight: 200;" fill="rgb(33, 33, 33)" stroke="none" stroke-width="1px">80k</text><text x="206.0546875" y="0" dx="0em" dy="0.95em" style="text-anchor: middle; visibility: hidden; font-family: Roboto, sans-serif; font-size: 12px; font-weight: 200;" fill="rgb(33, 33, 33)" stroke="none" stroke-width="1px">90k</text><text x="226.66015625" y="0" dx="0em" dy="0.95em" style="text-anchor: middle; visibility: inherit; font-family: Roboto, sans-serif; font-size: 12px; font-weight: 200;" fill="rgb(33, 33, 33)" stroke="none" stroke-width="1px">100k</text><text x="247.265625" y="0" dx="0em" dy="0.95em" style="text-anchor: middle; visibility: hidden; font-family: Roboto, sans-serif; font-size: 12px; font-weight: 200;" fill="rgb(33, 33, 33)" stroke="none" stroke-width="1px">110k</text></g><line x1="0" y1="0" x2="247.265625" y2="0" fill="rgb(0, 0, 0)" stroke="rgb(204, 204, 204)" stroke-width="1px"></line></g></g></g></g></svg>