<svg viewBox="0 0 330 200" xmlns="http://www.w3.org/2000/svg"><g><g><g><g><g><line x1="82.734375" y1="176.921875" x2="77.734375" y2="176.921875" style="visibility: inherit;" fill="rgb(0, 0, 0)" stroke="rgb(204, 204, 204)" stroke-width="1px"></line><line x1="82.734375" y1="163.3125" x2="77.734375" y2="163.3125" style="visibility: inherit;" fill="rgb(0, 0, 0)" stroke="rgb(204, 204, 204)" stroke-width="1px"></line><line x1="82.734375" y1="149.703125" x2="77.734375" y2="149.703125" style="visibility: inherit;" fill="rgb(0, 0, 0)" stroke="rgb(204, 204, 204)" stroke-width="1px"></line><line x1="82.734375" y1="136.09375" x2="77.734375" y2="136.09375" style="visibility: inherit;" fill="rgb(0, 0, 0)" stroke="rgb(204, 204, 204)" stroke-width="1px"></line><line x1="82.734375" y1="122.484375" x2="77.734375" y2="122.484375" style="visibility: inherit;" fill="rgb(0, 0, 0)" stroke="rgb(204, 204, 204)" stroke-width="1px"></line><line x1="82.734375" y1="108.875" x2="77.734375" y2="108.875" style="visibility: inherit;" fill="rgb(0, 0, 0)" stroke="rgb(204, 204, 204)" stroke-width="1px"></line><line x1="82.734375" y1="95.265625" x2="77.734375" y2="95.265625" style="visibility: inherit;" fill="rgb(0, 0, 0)" stroke="rgb(204, 204, 204)" stroke-width="1px"></line><line x1="82.734375" y1="81.65625" x2="77.734375" y2="81.65625" style="visibility: inherit;" fill="rgb(0, 0, 0)" stroke="rgb(204, 204, 204)" stroke-width="1px"></line><line x1="82.734375" y1="68.046875" x2="77.734375" y2="68.046875" style="visibility: inherit;" fill="rgb(0, 0, 0)" stroke="rgb(204, 204, 204)" stroke-width="1px"></line><line x1="82.734375" y1="54.4375" x2="77.734375" y2="54.4375" style="visibility: inherit;" fill="rgb(0, 0, 0)" stroke="rgb(204, 204, 204)" stroke-width="1px"></line><line x1="82.734375" y1="40.82812499999999" x2="77.734375" y2="40.82812499999999" style="visibility: inherit;" fill="rgb(0, 0, 0)" stroke="rgb(204, 204, 204)" stroke-width="1px"></line><line x1="82.734375" y1="27.21875" x2="77.734375" y2="27.21875" style="visibility: inherit;" fill="rgb(0, 0, 0)" stroke="rgb(204, 204, 204)" stroke-width="1px"></line><line x1="82.734375" y1="13.609374999999991" x2="77.734375" y2="13.609374999999991" style="visibility: inherit;" fill="rgb(0, 0, 0)" stroke="rgb(204, 204, 204)" stroke-width="1px"></line><line x1="82.734375" y1="0" x2="77.734375" y2="0" style="visibility: inherit;" fill="rgb(0, 0, 0)" stroke="rgb(204, 204, 204)" stroke-width="1px"></line></g><g transform="translate(72.734375, 0)"><text x="0" y="176.921875" dx="0em" dy="0.3em" style="text-anchor: end; visibility: hidden; font-family: Roboto, sans-serif; font-size: 12px; font-weight: 200;" fill="rgb(33, 33, 33)" stroke="none" stroke-width="1px">-6e+7</text><text x="0" y="163.3125" dx="0em" dy="0.3em" style="text-anchor: end; visibility: inherit; font-family: Roboto, sans-serif; font-size: 12px; font-weight: 200;" fill="rgb(33, 33, 33)" stroke="none" stroke-width="1px">-5.5e+7</text><text x="0" y="149.703125" dx="0em" dy="0.3em" style="text-anchor: end; visibility: hidden; font-family: Roboto, sans-serif; font-size: 12px; font-weight: 200;" fill="rgb(33, 33, 33)" stroke="none" stroke-width="1px">-5e+7</text><text x="0" y="136.09375" dx="0em" dy="0.3em" style="text-anchor: end; visibility: inherit; font-family: Roboto, sans-serif; font-size: 12px; font-weight: 200;" fill="rgb(33, 33, 33)" stroke="none" stroke-width="1px">-4.5e+7</text><text x="0" y="122.484375" dx="0em" dy="0.3em" style="text-anchor: end; visibility: hidden; font-family: Roboto, sans-serif; font-size: 12px; font-weight: 200;" fill="rgb(33, 33, 33)" stroke="none" stroke-width="1px">-4e+7</text><text x="0" y="108.875" dx="0em" dy="0.3em" style="text-anchor: end; visibility: inherit; font-family: Roboto, sans-serif; font-size: 12px; font-weight: 200;" fill="rgb(33, 33, 33)" stroke="none" stroke-width="1px">-3.5e+7</text><text x="0" y="95.265625" dx="0em" dy="0.3em" style="text-anchor: end; visibility: hidden; font-family: Roboto, sans-serif; font-size: 12px; font-weight: 200;" fill="rgb(33, 33, 33)" stroke="none" stroke-width="1px">-3e+7</text><text x="0" y="81.65625" dx="0em" dy="0.3em" style="text-anchor: end; visibility: inherit; font-family: Roboto, sans-serif; font-size: 12px; font-weight: 200;" fill="rgb(33, 33, 33)" stroke="none" stroke-width="1px">-2.5e+7</text><text x="0" y="68.046875" dx="0em" dy="0.3em" style="text-anchor: end; visibility: hidden; font-family: Roboto, sans-serif; font-size: 12px; font-weight: 200;" fill="rgb(33, 33, 33)" stroke="none" stroke-width="1px">-2e+7</text><text x="0" y="54.4375" dx="0em" dy="0.3em" style="text-anchor: end; visibility: inherit; font-family: Roboto, sans-serif; font-size: 12px; font-weight: 200;" fill="rgb(33, 33, 33)" stroke="none" stroke-width="1px">-1.5e+7</text><text x="0" y="40.82812499999999" dx="0em" dy="0.3em" style="text-anchor: end; visibility: hidden; font-family: Roboto, sans-serif; font-size: 12px; font-weight: 200;" fill="rgb(33, 33, 33)" stroke="none" stroke-width="1px">-1e+7</text><text x="0" y="27.21875" dx="0em" dy="0.3em" style="text-anchor: end; visibility: inherit; font-family: Roboto, sans-serif; font-size: 12px; font-weight: 200;" fill="rgb(33, 33, 33)" stroke="none" stroke-width="1px">-5e+6</text><text x="0" y="13.609374999999991" dx="0em" dy="0.3em" style="text-anchor: end; visibility: hidden; font-family: Roboto, sans-serif; font-size: 12px; font-weight: 200;" fill="rgb(33, 33, 33)" stroke="none" stroke-width="1px">0</text><text x="0" y="0" dx="0em" dy="0.3em" style="text-anchor: end; visibility: hidden; font-family: Roboto, sans-serif; font-size: 12px; font-weight: 200;" fill="rgb(33, 33, 33)" stroke="none" stroke-width="1px">5e+6</text></g><line x1="82.734375" y1="0" x2="82.734375" y2="176.921875" fill="rgb(0, 0, 0)" stroke="rgb(204, 204, 204)" stroke-width="1px"></line></g></g><g transform="translate(82, 0)" clip-path="url(#clip_0)"><clipPath id="clip_0"><rect width="247" height="176"></rect></clipPath><g><g><g><line x1="0" y1="0" x2="0" y2="176.921875" fill="rgb(0, 0, 0)" stroke="rgb(66, 66, 66)" stroke-width="1px" opacity="0.25"></line><line x1="20.60546875" y1="0" x2="20.60546875" y2="176.921875" fill="rgb(0, 0, 0)" stroke="rgb(66, 66, 66)" stroke-width="1px" opacity="0.25"></line><line x1="41.2109375" y1="0" x2="41.2109375" y2="176.921875" fill="rgb(0, 0, 0)" stroke="rgb(66, 66, 66)" stroke-width="1px" opacity="0.25"></line><line x1="61.81640625" y1="0" x2="61.81640625" y2="176.921875" fill="rgb(0, 0, 0)" stroke="rgb(66, 66, 66)" stroke-width="1px" opacity="0.25"></line><line x1="82.421875" y1="0" x2="82.421875" y2="176.921875" fill="rgb(0, 0, 0)" stroke="rgb(66, 66, 66)" stroke-width="1px" opacity="0.25"></line><line x1="103.02734375" y1="0" x2="103.02734375" y2="176.921875" fill="rgb(0, 0, 0)" stroke="rgb(66, 66, 66)" stroke-width="1px" opacity="0.25"></line><line x1="123.6328125" y1="0" x2="123.6328125" y2="176.921875" fill="rgb(0, 0, 0)" stroke="rgb(66, 66, 66)" stroke-width="1px" opacity="0.25"></line><line x1="144.23828125" y1="0" x2="144.23828125" y2="176.921875" fill="rgb(0, 0, 0)" stroke="rgb(66, 66, 66)" stroke-width="1px" opacity="0.25"></line><line x1="164.84375" y1="0" x2="164.84375" y2="176.921875" fill="rgb(0, 0, 0)" stroke="rgb(66, 66, 66)" stroke-width="1px" opacity="0.25"></line><line x1="185.44921875" y1="0" x2="185.44921875" y2="176.921875" fill="rgb(0, 0, 0)" stroke="rgb(66, 66, 66)" stroke-width="1px" opacity="0.25"></line><line x1="206.0546875" y1="0" x2="206.0546875" y2="176.921875" fill="rgb(0, 0, 0)" stroke="rgb(66, 66, 66)" stroke-width="1px" opacity="0.25"></line><line x1="226.66015625" y1="0" x2="226.66015625" y2="176.921875" fill="rgb(0, 0, 0)" stroke="rgb(66, 66, 66)" stroke-width="1px" opacity="0.25"></line><line x1="247.265625" y1="0" x2="247.265625" y2="176.921875" fill="rgb(0, 0, 0)" stroke="rgb(66, 66, 66)" stroke-width="1px" opacity="0.25"></line></g><g><line x1="0" y1="176.921875" x2="247.265625" y2="176.921875" fill="rgb(0, 0, 0)" stroke="rgb(66, 66, 66)" stroke-width="1px" opacity="0.25"></line><line x1="0" y1="163.3125" x2="247.265625" y2="163.3125" fill="rgb(0, 0, 0)" stroke="rgb(66, 66, 66)" stroke-width="1px" opacity="0.25"></line><line x1="0" y1="149.703125" x2="247.265625" y2="149.703125" fill="rgb(0, 0, 0)" stroke="rgb(66, 66, 66)" stroke-width="1px" opacity="0.25"></line><line x1="0" y1="136.09375" x2="247.265625" y2="136.09375" fill="rgb(0, 0, 0)" stroke="rgb(66, 66, 66)" stroke-width="1px" opacity="0.25"></line><line x1="0" y1="122.484375" x2="247.265625" y2="122.484375" fill="rgb(0, 0, 0)" stroke="rgb(66, 66, 66)" stroke-width="1px" opacity="0.25"></line><line x1="0" y1="108.875" x2="247.265625" y2="108.875" fill="rgb(0, 0, 0)" stroke="rgb(66, 66, 66)" stroke-width="1px" opacity="0.25"></line><line x1="0" y1="95.265625" x2="247.265625" y2="95.265625" fill="rgb(0, 0, 0)" stroke="rgb(66, 66, 66)" stroke-width="1px" opacity="0.25"></line><line x1="0" y1="81.65625" x2="247.265625" y2="81.65625" fill="rgb(0, 0, 0)" stroke="rgb(66, 66, 66)" stroke-width="1px" opacity="0.25"></line><line x1="0" y1="68.046875" x2="247.265625" y2="68.046875" fill="rgb(0, 0, 0)" stroke="rgb(66, 66, 66)" stroke-width="1px" opacity="0.25"></line><line x1="0" y1="54.4375" x2="247.265625" y2="54.4375" fill="rgb(0, 0, 0)" stroke="rgb(66, 66, 66)" stroke-width="1px" opacity="0.25"></line><line x1="0" y1="40.82812499999999" x2="247.265625" y2="40.82812499999999" fill="rgb(0, 0, 0)" stroke="rgb(66, 66, 66)" stroke-width="1px" opacity="0.25"></line><line x1="0" y1="27.21875" x2="247.265625" y2="27.21875" fill="rgb(0, 0, 0)" stroke="rgb(66, 66, 66)" stroke-width="1px" opacity="0.25"></line><line x1="0" y1="13.609374999999991" x2="247.265625" y2="13.609374999999991" fill="rgb(0, 0, 0)" stroke="rgb(66, 66, 66)" stroke-width="1px" opacity="0.25"></line><line x1="0" y1="0" x2="247.265625" y2="0" fill="rgb(0, 0, 0)" stroke="rgb(66, 66, 66)" stroke-width="1px" opacity="0.25"></line></g></g></g><g><g><line x1="0" y1="13.609374999999991" x2="247.265625" y2="13.609374999999991" fill="rgb(0, 0, 0)" stroke="rgb(153, 153, 153)" stroke-width="1.5px"></line></g></g><g><g><line x1="20.60546875" y1="0" x2="20.60546875" y2="176.921875" fill="rgb(0, 0, 0)" stroke="rgb(153, 153, 153)" stroke-width="1.5px"></line></g></g><g><g><g><g><g><path stroke="rgb(51, 187, 238)" stroke-width="2px" d="M21.6192578125,14.087400171533202L22.633046874999998,14.231704029878841L23.6468359375,14.386909347391327L24.660625,14.547489600846713L25.6744140625,14.714658864706308L26.688203125,14.889590134375865L27.7019921875,15.074050626718561L28.715781250000003,15.267524947807637L29.729570312499998,15.469431353947563L30.743359375,15.679488032605773L31.757148437500003,15.898504546257568L32.7709375,16.12666909703086L33.7847265625,16.363428247884343L34.798515625,16.608347494748003L35.8123046875,16.86052433549994L36.82609375,17.11914275729263L37.8398828125,17.383015273962613L38.853671875,17.651286805204403L39.8674609375,17.923264636497812L40.88125,18.198133743038202L41.8950390625,18.475516532208246L42.908828125,18.755132313002843L43.9226171875,19.036693142666998L44.93640625,19.319889883810472L45.9501953125,19.60443225742203L46.963984375,19.890210105379815L47.9777734375,20.177083692524892L48.9915625,20.464977773414244L50.005351562499996,20.753679805620788L51.019140625,21.043132560531642L52.0329296875,21.33298305982897L53.04671875,21.622821968878256L54.060507812500006,21.9123686718861L55.074296875,22.20140731721892L56.0880859375,22.489838527931035L57.101875,22.77762755219203L58.1156640625,23.0647526412877L59.129453125,23.351129007747847L60.1432421875,23.636823085063504L61.157031249999996,23.921814988809697L62.170820312500005,24.206115583371638L63.184609375,24.489660586934832L64.1983984375,24.772455601726314L65.2121875,25.054502674924272L66.2259765625,25.33571645904207L67.239765625,25.616064576442334L68.2535546875,25.89551362639001L69.26734375000001,26.17401638556961L70.2811328125,26.451564425257484L71.294921875,26.728274052242377L72.3087109375,27.004189385057675L73.32249999999999,27.279324094107864L74.3362890625,27.553748310985725L75.35007812500001,27.827534257627892L76.3638671875,28.100684308857527L77.37765625,28.37325073655427L78.3914453125,28.645301094377743L79.40523437499999,28.916956166705685L80.4190234375,29.188275840399633L81.4328125,29.459340733977168L82.4466015625,29.730164378475774L83.460390625,30.000758007007747L84.4741796875,30.271103553397797L85.48796875000001,30.54120378494413L86.5017578125,30.811146347767192L87.515546875,31.08094364651697L88.5293359375,31.350579862372644L89.54312499999999,31.620038055307397L90.5569140625,31.889325649595023L91.57070312500001,32.15844301848645L92.5844921875,32.42736902968307L93.59828125,32.69607672619891L94.6120703125,32.96450909246237L95.62585937499999,33.232641949382995L96.6396484375,33.500502710466115L97.65343750000001,33.76813671789453L98.6672265625,34.035572299832864L99.681015625,34.30280556314333L100.6948046875,34.56985217983994L101.70859375,34.83671709796631L102.7223828125,35.10338982234903L103.736171875,35.36987388228004L104.74996093749999,35.63615839401483L105.76375,35.90224063713959L106.7775390625,36.16813871190215L107.791328125,36.43383901424761L108.8051171875,36.699357334529005L109.81890625,36.96472914083093L110.8326953125,37.22996416616733L111.84648437499999,37.49510212061283L112.86027343750001,37.760226975777854L113.87406250000001,38.025406840791014L114.8878515625,38.29067633596342L115.901640625,38.55605468118371L116.9154296875,38.8215398404092L117.92921874999999,39.087090071191916L118.9430078125,39.35269316428349L119.95679687500001,39.61834445758596L120.9705859375,39.88404856207395L121.984375,40.149861656952794L122.9981640625,40.415853133343994L124.01195312500002,40.68205339391675L125.02574218750001,40.94848378976734L126.03953125000001,41.215174309417726L127.0533203125,41.48209859133418L128.067109375,41.74924157722885L129.0808984375,42.016559846422176L130.0946875,42.284026290053085L131.1084765625,42.55160684196659L132.122265625,42.81932317278221L133.1360546875,43.087163489691946L134.14984375,43.35508755597812L135.1636328125,43.62306974432196L136.177421875,43.89107602305177L137.1912109375,44.159101962110874L138.20499999999998,44.427136446878954L139.2187890625,44.69518146179572L140.232578125,44.96320154003413L141.2463671875,45.23117674181669L142.26015625,45.49910440817137L143.27394531250002,45.766972888498906L144.287734375,46.034763705880046L145.3015234375,46.302472586805465L146.3153125,46.57009181597707L147.3291015625,46.837628716951734L148.342890625,47.10508747334473L149.3566796875,47.372451635446126L150.37046875,47.63971946943863L151.38425781249998,47.906906649388915L152.39804687499998,48.174028539658885L153.4118359375,48.44109656683033L154.42562500000003,48.7080898224033L155.43941406250002,48.974979510558455L156.45320312500002,49.24176524344266L157.4669921875,49.50843770919275L158.48078125,49.77498613475593L159.4945703125,50.041371558505816L160.508359375,50.30758250196585L161.5221484375,50.57359655171211L162.5359375,50.83941588695895L163.54972656249998,51.10506849003855L164.563515625,51.370581412182965L165.5773046875,51.63609237397071L166.59109375,51.90160820195581L167.6048828125,52.167127349646684L168.618671875,52.43263707065035L169.6324609375,52.69813673756396L170.64625,52.96361724318888L171.6600390625,53.22906962156238L172.673828125,53.49447318661614L173.6876171875,53.75981362144204L174.70140625,54.025072224168206L175.71519531250001,54.29023228164095L176.728984375,54.55527795455464L177.7427734375,54.82021905153073L178.7565625,55.08504308755369L179.7703515625,55.349750882235355L180.784140625,55.614359055214415L181.7979296875,55.87886213568384L182.81171874999998,56.14325302377009L183.82550781249998,56.40752037692449L184.839296875,56.671670476949274L185.8530859375,56.93570335572022L186.86687500000002,57.19962189830037L187.88066406250002,57.46343794746216L188.894453125,57.727156670187114L189.9082421875,57.99080042278447L190.92203125,58.25438575842965L191.9358203125,58.51790592497801L192.949609375,58.78136824810658L193.9633984375,59.04477813807833L194.97718749999999,59.30812549549177L195.99097656249998,59.57140500210567L197.00476562499998,59.834617853352455L198.0185546875,60.097783029724695L199.03234375,60.36092156401609L200.04613281250002,60.62403010347628L201.05992187500001,60.8871188632674L202.0737109375,61.15019652627734L203.0875,61.41324270983579L204.1012890625,61.67623437273547L205.115078125,61.93915601276269L206.1288671875,62.20200098553581L207.14265625,62.464762826767966L208.1564453125,62.72745073994029L209.170234375,62.99005948301178L210.1840234375,63.252573168372514L211.1978125,63.514992173116674L212.2116015625,63.77731518464919L213.225390625,64.03955496882682L214.2391796875,64.3017117613153L215.25296875,64.56378494586802L216.2667578125,64.82577399867532L217.280546875,65.087676841374L218.2943359375,65.34950803860542L219.30812500000002,65.61128813593959L220.3219140625,65.87304112961115L221.335703125,66.1347759845445L222.3494921875,66.39651501905031L223.36328125,66.65827148775527L224.3770703125,66.920079520842L225.390859375,67.1819836436532L226.4046484375,67.44404211679273L227.41843749999998,67.70629711271131" style="fill: none;" fill="none"></path></g><g><path stroke="rgb(204, 51, 17)" stroke-width="2px" d="M21.6192578125,14.601079013574225L22.633046874999998,15.509185020489324L23.6468359375,16.164696453547432L24.660625,16.73466719207351L25.6744140625,17.255575997429165L26.688203125,17.7893525046793L27.7019921875,18.320795908050933L28.715781250000003,18.850929533502097L29.729570312499998,19.384535969719206L30.743359375,19.91593572463305L31.757148437500003,20.4502304939201L32.7709375,20.991308072551046L33.7847265625,21.54281505668896L34.798515625,22.10474821961448L35.8123046875,22.699121075287763L36.82609375,23.31641246268959L37.8398828125,23.9563109188572L38.853671875,24.612455633253234L39.8674609375,25.287516416233426L40.88125,25.978077637855506L41.8950390625,26.683082627520207L42.908828125,27.39985479477043L43.9226171875,28.128920151176022L44.93640625,28.866573378465546L45.9501953125,29.61103024972327L46.963984375,30.358763254213383L47.9777734375,31.107333738449046L48.9915625,31.854787457427125L50.005351562499996,32.599585273522734L51.019140625,33.34455028562698L52.0329296875,34.08680920065745L53.04671875,34.82518349925804L54.060507812500006,35.55854809061887L55.074296875,36.28565934672187L56.0880859375,37.00856033830536L57.101875,37.72572988685552L58.1156640625,38.43736309812261L59.129453125,39.14289402428824L60.1432421875,39.845969019227624L61.157031249999996,40.5477821925572L62.170820312500005,41.24810234893042L63.184609375,41.9465085137604L64.1983984375,42.6427587605122L65.2121875,43.3364703554192L66.2259765625,44.026844799994684L67.239765625,44.71820156999723L68.2535546875,45.40940716002629L69.26734375000001,46.0992628487238L70.2811328125,46.78719100150128L71.294921875,47.4739876839659L72.3087109375,48.16689645579891L73.32249999999999,48.863761752584374L74.3362890625,49.56315815903148L75.35007812500001,50.264275909887026L76.3638671875,50.967372825435L77.37765625,51.672449984338904L78.3914453125,52.37907146151821L79.40523437499999,53.08603226218071L80.4190234375,53.79285793378467L81.4328125,54.498420244733836L82.4466015625,55.20218141028869L83.460390625,55.90418636746644L84.4741796875,56.606343570250466L85.48796875000001,57.30786161873818L86.5017578125,58.008614848604466L87.515546875,58.707939453137335L88.5293359375,59.405388718944685L89.54312499999999,60.10136352737256L90.5569140625,60.79604043841961L91.57070312500001,61.488998697459536L92.5844921875,62.18044814386158L93.59828125,62.87023802954544L94.6120703125,63.577812515915305L95.62585937499999,64.29904968137484L96.6396484375,65.03192714789063L97.65343750000001,65.77331077985049L98.6672265625,66.52255674228891L99.681015625,67.27727559599825L100.6948046875,68.03637372933359L101.70859375,68.79842754450722L102.7223828125,69.56269650242132L103.736171875,70.32771824420291L104.74996093749999,71.09279930799336L105.76375,71.85683744504848L106.7775390625,72.61914234260276L107.791328125,73.37912641497984L108.8051171875,74.13654906198823L109.81890625,74.89141971036263L110.8326953125,75.6432450008787L111.84648437499999,76.39292187572401L112.86027343750001,77.1400581140427L113.87406250000001,77.88411047017196L114.8878515625,78.62566320105819L115.901640625,79.36434491785559L116.9154296875,80.09990608081853L117.92921874999999,80.83244895707878L118.9430078125,81.56177467615302L119.95679687500001,82.28796324921593L120.9705859375,83.01079525528543L121.984375,83.73069007559165L122.9981640625,84.4479617225858L124.01195312500002,85.16274319031103L125.02574218750001,85.87494664908762L126.03953125000001,86.58429003661549L127.0533203125,87.29086675729816L128.067109375,87.99446224222883L129.0808984375,88.69468670084343L130.0946875,89.39181470045905L131.1084765625,90.08569828851154L132.122265625,90.77606472399927L133.1360546875,91.46281446013997L134.14984375,92.1469137980686L135.1636328125,92.82987898839413L136.177421875,93.51171439126468L137.1912109375,94.19227591496298L138.20499999999998,94.87112425525281L139.2187890625,95.54860947789275L140.232578125,96.2249099206326L141.2463671875,96.8996643692917L142.26015625,97.57739739213336L143.27394531250002,98.2584828484012L144.287734375,98.94209043156566L145.3015234375,99.62729064294503L146.3153125,100.31448477334455L147.3291015625,101.00290502806604L148.342890625,101.69187755098713L149.3566796875,102.38096103096304L150.37046875,103.06976810507997L151.38425781249998,103.75780130298328L152.39804687499998,104.44530082361972L153.4118359375,105.13230425734157L154.42562500000003,105.81849080094625L155.43941406250002,106.50438147046049L156.45320312500002,107.18988673075528L157.4669921875,107.87461365071981L158.48078125,108.55868388078405L159.4945703125,109.24250295193777L160.508359375,109.9256659611464L161.5221484375,110.60879065145505L162.5359375,111.29165250007651L163.54972656249998,111.97395777576627L164.563515625,112.65570177571605L165.5773046875,113.33671719003861L166.59109375,114.01682261032946L167.6048828125,114.69590466756964L168.618671875,115.37417239246784L169.6324609375,116.0517626330012L170.64625,116.72840955870022L171.6600390625,117.40467927929079L172.673828125,118.08052548866468L173.6876171875,118.75602477850482L174.70140625,119.43258631361675L175.71519531250001,120.110098117835L176.728984375,120.78823147454389L177.7427734375,121.4668539558701L178.7565625,122.1456096624962L179.7703515625,122.82421077812742L180.784140625,123.50282910578811L181.7979296875,124.18174786054895L182.81171874999998,124.86096933897007L183.82550781249998,125.54120100312751L184.839296875,126.22231908828589L185.8530859375,126.90410897504513L186.86687500000002,127.5865548156652L187.88066406250002,128.26957454831694L188.894453125,128.95333032419575L189.9082421875,129.63775583119252L190.92203125,130.32324707963957L191.9358203125,131.00970953331947L192.949609375,131.69722778207222L193.9633984375,132.386087666637L194.97718749999999,133.0761532666419L195.99097656249998,133.77506312727107L197.00476562499998,134.4837720850558L198.0185546875,135.20134104104775L199.03234375,135.92649162239087L200.04613281250002,136.6580228934075L201.05992187500001,137.39479810689656L202.0737109375,138.14092188086224L203.0875,138.89489231060804L204.1012890625,139.65527599714196L205.115078125,140.4206634756958L206.1288671875,141.1899285587165L207.14265625,141.9625124692841L208.1564453125,142.73772630764157L209.170234375,143.5147950664954L210.1840234375,144.29301916152113L211.1978125,145.071856206043L212.2116015625,145.85078964513656L213.225390625,146.62937877399114L214.2391796875,147.40716733726748L215.25296875,148.18383937542737L216.2667578125,148.95964402348827L217.280546875,149.73424268309006L218.2943359375,150.50726915562655L219.30812500000002,151.27866040728256L220.3219140625,152.0483285636902L221.335703125,152.81602582038667L222.3494921875,153.58153011170367L223.36328125,154.34475556869813L224.3770703125,155.10558837464342L225.390859375,155.8638729928219L226.4046484375,156.61969115639863L227.41843749999998,157.37301761731382" style="fill: none;" fill="none"></path></g><g><path stroke="rgb(0, 119, 187)" stroke-width="2px" d="M21.6192578125,14.131422544433589L22.633046874999998,14.3053939896933L23.6468359375,14.484610612534839L24.660625,14.672293508134935L25.6744140625,14.868620064151905L26.688203125,15.073639304850412L27.7019921875,15.286565307415687L28.715781250000003,15.506187449514435L29.729570312499998,15.732395070303756L30.743359375,15.964243217877168L31.757148437500003,16.2024374728962L32.7709375,16.447687163454162L33.7847265625,16.699497316337265L34.798515625,16.957640800805127L35.8123046875,17.222403301945313L36.82609375,17.493118643348623L37.8398828125,17.76915270445687L38.853671875,18.050047266877357L39.8674609375,18.334707681635507L40.88125,18.62214671960801L41.8950390625,18.91142916587905L42.908828125,19.20181504488143L43.9226171875,19.4929353138882L44.93640625,19.784467119174508L45.9501953125,20.07607679888671L46.963984375,20.367684785658547L47.9777734375,20.659094815337607L48.9915625,20.95006702173509L50.005351562499996,21.2403750406272L51.019140625,21.530175934823014L52.0329296875,21.81945317736705L53.04671875,22.10828867205015L54.060507812500006,22.396716049740785L55.074296875,22.684790382989238L56.0880859375,22.972510228649277L57.101875,23.259789131541165L58.1156640625,23.546724037327305L59.129453125,23.83328827604174L60.1432421875,24.119446030747856L61.157031249999996,24.40533906743015L62.170820312500005,24.690978595426945L63.184609375,24.97643963397984L64.1983984375,25.261735594948746L65.2121875,25.54693975514084L66.2259765625,25.831950092772917L67.239765625,26.116774218372328L68.2535546875,26.401279564659816L69.26734375000001,26.68561975882177L70.2811328125,26.969680351041216L71.294921875,27.2533924071828L72.3087109375,27.536749627022147L73.32249999999999,27.8196750553575L74.3362890625,28.10206971952186L75.35007812500001,28.383929087753515L76.3638671875,28.66525236455593L77.37765625,28.946127914509734L78.3914453125,29.22658414170803L79.40523437499999,29.50663485223856L80.4190234375,29.786444992312514L81.4328125,30.066247352966396L82.4466015625,30.34596125986758L83.460390625,30.625571972805908L84.4741796875,30.905038939410563L85.48796875000001,31.18428620217859L86.5017578125,31.46327038969039L87.515546875,31.741938475242925L88.5293359375,32.02022433082825L89.54312499999999,32.29807396913931L90.5569140625,32.57550456062747L91.57070312500001,32.85255211705457L92.5844921875,33.12926642232501L93.59828125,33.40560689777262L94.6120703125,33.68156088398766L95.62585937499999,33.957155377455834L96.6396484375,34.23242434083801L97.65343750000001,34.50742092843358L98.6672265625,34.782117232974194L99.681015625,35.05657404301864L100.6948046875,35.33088589429015L101.70859375,35.60512844330588L102.7223828125,35.879317409525356L103.736171875,36.153522903189376L104.74996093749999,36.42786453326765L105.76375,36.70238068184688L106.7775390625,36.97702517381827L107.791328125,37.251780806302875L108.8051171875,37.52663499718687L109.81890625,37.80164196751562L110.8326953125,38.07684780437393L111.84648437499999,38.35224064592623L112.86027343750001,38.62780959248877L113.87406250000001,38.90352414822093L114.8878515625,39.179415142364675L115.901640625,39.45541569127602L116.9154296875,39.73151793733083L117.92921874999999,40.007734390518976L118.9430078125,40.28407650067865L119.95679687500001,40.56057237264736L120.9705859375,40.83714341677573L121.984375,41.11374569548689L122.9981640625,41.390352885324795L124.01195312500002,41.66700752797995L125.02574218750001,41.94376905583854L126.03953125000001,42.22057856697782L127.0533203125,42.49744029611472L128.067109375,42.774409694428996L129.0808984375,43.051466528971645L130.0946875,43.32861115779458L131.1084765625,43.60583449474225L132.122265625,43.883165561869596L133.1360546875,44.16060003993166L134.14984375,44.438111802082446L135.1636328125,44.715672924549445L136.177421875,44.9933090741442L137.1912109375,45.2710302274885L138.20499999999998,45.548871811263645L139.2187890625,45.82684515720254L140.232578125,46.104979903052374L141.2463671875,46.383327779173555L142.26015625,46.66198746605485L143.27394531250002,46.94108979445098L144.287734375,47.22064716643692L145.3015234375,47.500652567679424L146.3153125,47.7810992194301L147.3291015625,48.06192991631306L148.342890625,48.343063779538106L149.3566796875,48.624477381350786L150.37046875,48.90611937050212L151.38425781249998,49.188001624679416L152.39804687499998,49.470140772415846L153.4118359375,49.75253380015119L154.42562500000003,50.03520141838983L155.43941406250002,50.318115503559845L156.45320312500002,50.601248476093275L157.4669921875,50.88460833101322L158.48078125,51.16818430799511L159.4945703125,51.451953787481564L160.508359375,51.735872229410994L161.5221484375,52.0199209639495L162.5359375,52.3040290037694L163.54972656249998,52.58814458354825L164.563515625,52.87221921166797L165.5773046875,53.156207587440704L166.59109375,53.440073654969076L167.6048828125,53.72382555345899L168.618671875,54.00743917186047L169.6324609375,54.290895648905824L170.64625,54.574172011736344L171.6600390625,54.85724587545326L172.673828125,55.140105561955096L173.6876171875,55.422726855011796L174.70140625,55.705115300827806L175.71519531250001,55.98724131805187L176.728984375,56.269076496285386L177.7427734375,56.55064935497082L178.7565625,56.83195228969668L179.7703515625,57.11298332780701L180.784140625,57.39372976895045L181.7979296875,57.674211847203296L182.81171874999998,57.95444227043673L183.82550781249998,58.23442000018492L184.839296875,58.51416579265822L185.8530859375,58.79368912501038L186.86687500000002,59.07302173313457L187.88066406250002,59.352170178477515L188.894453125,59.63113432233142L189.9082421875,59.909894449294654L190.92203125,60.188450132525844L191.9358203125,60.466818973584786L192.949609375,60.74501675035985L193.9633984375,61.0230585071811L194.97718749999999,61.30095784829164L195.99097656249998,61.57900723479807L197.00476562499998,61.857189059266L198.0185546875,62.13546140881372L199.03234375,62.41380825499176L200.04613281250002,62.69219719268058L201.05992187500001,62.97060476034108L202.0737109375,63.24904449472749L203.0875,63.52750340520593L204.1012890625,63.80602924223757L205.115078125,64.08459236933949L206.1288671875,64.36324271925109L207.14265625,64.64197455761345L208.1564453125,64.92081158990895L209.170234375,65.19977069954764L210.1840234375,65.47888338524052L211.1978125,65.75819928464196L212.2116015625,66.03775405725818L213.225390625,66.31758454616944L214.2391796875,66.59771390236907L215.25296875,66.87815608826371L216.2667578125,67.15890990689914L217.280546875,67.43996045930179L218.2943359375,67.72130079728153L219.30812500000002,68.0029519614393L220.3219140625,68.28494735097343L221.335703125,68.5672965742649L222.3494921875,68.85001514750016L223.36328125,69.13309829506265L224.3770703125,69.41657053736573L225.390859375,69.70040453957338L226.4046484375,69.98460074738738L227.41843749999998,70.26921588246678" style="fill: none;" fill="none"></path></g><g><path stroke="rgb(255, 112, 67)" stroke-width="2px" d="M21.6192578125,14.080806174169924L22.633046874999998,14.227073920501214L23.6468359375,14.38155721872262L24.660625,14.543452948410689L25.6744140625,14.713987356433167L26.688203125,14.894278699226378L27.7019921875,15.083548766292427L28.715781250000003,15.280707184147776L29.729570312499998,15.484063742316584L30.743359375,15.692905123318909L31.757148437500003,15.906623815326373L32.7709375,16.125073022581073L33.7847265625,16.34770961670741L34.798515625,16.57435463040687L35.8123046875,16.805015809914142L36.82609375,17.03952289152529L37.8398828125,17.277664733794815L38.853671875,17.51896784964393L39.8674609375,17.763228928788777L40.88125,18.01018921405028L41.8950390625,18.25957597841255L42.908828125,18.511018446444044L43.9226171875,18.76438779472172L44.93640625,19.01951678230087L45.9501953125,19.27623652707735L46.963984375,19.534294566258282L47.9777734375,19.7934515313631L48.9915625,20.053516109437876L50.005351562499996,20.314305160500243L51.019140625,20.575566245944056L52.0329296875,20.837055243724713L53.04671875,21.098469909529772L54.060507812500006,21.359573382914007L55.074296875,21.62026977554403L56.0880859375,21.88049279552032L57.101875,22.140116766957558L58.1156640625,22.399105737748933L59.129453125,22.657463640951228L60.1432421875,22.915247421758938L61.157031249999996,23.17248050151766L62.170820312500005,23.429168619957753L63.184609375,23.68533498169002L64.1983984375,23.94096044921712L65.2121875,24.196028437693634L66.2259765625,24.45064032254928L67.239765625,24.70479745855236L68.2535546875,24.95852807736628L69.26734375000001,25.211847817094185L70.2811328125,25.464756601038548L71.294921875,25.71729763914487L72.3087109375,25.96946114537269L73.32249999999999,26.221290157213133L74.3362890625,26.472842227162204L75.35007812500001,26.724189529787523L76.3638671875,26.975391384489132L77.37765625,27.226563384189923L78.3914453125,27.477839371153916L79.40523437499999,27.729329317655463L80.4190234375,27.981196013676158L81.4328125,28.23354303908336L82.4466015625,28.486448363228405L83.460390625,28.74000535333027L84.4741796875,28.99430454966443L85.48796875000001,29.249339168998176L86.5017578125,29.5051511816321L87.515546875,29.76173050400856L88.5293359375,30.0190930377561L89.54312499999999,30.27724023343062L90.5569140625,30.536055923518255L91.57070312500001,30.795422365867648L92.5844921875,31.055250490915355L93.59828125,31.31547274437172L94.6120703125,31.576019038874556L95.62585937499999,31.836828975558948L96.6396484375,32.09787672618628L97.65343750000001,32.35912420356619L98.6672265625,32.62059925020192L99.681015625,32.88229980593987L100.6948046875,33.14418777876984L101.70859375,33.40624262752893L102.7223828125,33.668422188467076L103.736171875,33.93068143377886L104.74996093749999,34.19297126842398L105.76375,34.45526567881546L106.7775390625,34.71755133003728L107.791328125,34.97980729157441L108.8051171875,35.24198515033991L109.81890625,35.50402681065972L110.8326953125,35.765917594398616L111.84648437499999,36.027643799656005L112.86027343750001,36.289174181763265L113.87406250000001,36.55049647214021L114.8878515625,36.8115749286541L115.901640625,37.0723791701599L116.9154296875,37.332900520216576L117.92921874999999,37.59314671001439L118.9430078125,37.853158606486154L119.95679687500001,38.11296890493851L120.9705859375,38.37257599997741L121.984375,38.63196097079593L122.9981640625,38.891079563193365L124.01195312500002,39.14989783554093L125.02574218750001,39.40844695472447L126.03953125000001,39.66672034174693L127.0533203125,39.92471444581115L128.067109375,40.182440946817366L129.0808984375,40.43990487326481L130.0946875,40.69712356434381L131.1084765625,40.95412196536806L132.122265625,41.21090576514141L133.1360546875,41.46745979334455L134.14984375,41.72382708972031L135.1636328125,41.98005077053471L136.177421875,42.23615360303808L137.1912109375,42.492151264851074L138.20499999999998,42.7480358513167L139.2187890625,43.003789211593684L140.232578125,43.25940367480419L141.2463671875,43.51492865522782L142.26015625,43.77036981796597L143.27394531250002,44.02571932163199L144.287734375,44.280968459637464L145.3015234375,44.53612902059815L146.3153125,44.791181628584845L147.3291015625,45.04611716311815L148.342890625,45.30093113803875L149.3566796875,45.55561647385978L150.37046875,45.810190425047274L151.38425781249998,46.06464765211499L152.39804687499998,46.319001989155026L153.4118359375,46.573266828269794L154.42562500000003,46.82743436352691L155.43941406250002,47.08150000128952L156.45320312500002,47.335460653528344L157.4669921875,47.58929777244928L158.48078125,47.84304376961451L159.4945703125,48.096723336882874L160.508359375,48.35036440311532L161.5221484375,48.60400418112473L162.5359375,48.8576747100831L163.54972656249998,49.111394241098985L164.563515625,49.36518318698949L165.5773046875,49.61904256739905L166.59109375,49.872960592306626L167.6048828125,50.12691866628795L168.618671875,50.38093282916983L169.6324609375,50.63499589246131L170.64625,50.88913400016372L171.6600390625,51.14334977717815L172.673828125,51.39766423560799L173.6876171875,51.652078496209896L174.70140625,51.906617191939425L175.71519531250001,52.16128697096505L176.728984375,52.41606286313625L177.7427734375,52.67090649601247L178.7565625,52.92575953130058L179.7703515625,53.18057973051387L180.784140625,53.435322617032334L181.7979296875,53.689953651978996L182.81171874999998,53.94446470793344L183.82550781249998,54.1988545925258L184.839296875,54.45310596099161L185.8530859375,54.707209377937424L186.86687500000002,54.961144574841235L187.88066406250002,55.21489309861561L188.894453125,55.46845028772999L189.9082421875,55.72181544613341L190.92203125,55.97498267452625L191.9358203125,56.22795389928512L192.949609375,56.480744639392604L193.9633984375,56.73336726942144L194.97718749999999,56.985820059320886L195.99097656249998,57.23810194682917L197.00476562499998,57.490203455117424L198.0185546875,57.742127960756164L199.03234375,57.993875067580326L200.04613281250002,58.24544566369337L201.05992187500001,58.496850711014424L202.0737109375,58.74809299467484L203.0875,58.99916426672364L204.1012890625,59.25005261702764L205.115078125,59.50076588634854L206.1288671875,59.75132135464628L207.14265625,60.00173615957437L208.1564453125,60.252013436263255L209.170234375,60.502150133636285L210.1840234375,60.75213385952834L211.1978125,61.001968778724105L212.2116015625,61.251672312852975L213.225390625,61.50122497467506L214.2391796875,61.7506346969113L215.25296875,61.99991720456211L216.2667578125,62.2490891301278L217.280546875,62.49814664685865L218.2943359375,62.74709303451734L219.30812500000002,62.99592373183974L220.3219140625,63.244628329251285L221.335703125,63.4932077773636L222.3494921875,63.74165798482157L223.36328125,63.98997710709833L224.3770703125,64.2381782744711L225.390859375,64.48626611517541L226.4046484375,64.73424946258662L227.41843749999998,64.98214480726114" style="fill: none;" fill="none"></path></g></g></g></g><g opacity="0.2"><g><g><g><path stroke="rgb(51, 187, 238)" stroke-width="2px" d="M21.6192578125,14.087400171533202L22.633046874999998,14.354362309472657L23.6468359375,14.630969709179679L24.660625,14.898618397558584L25.6744140625,15.167458756835932L26.688203125,15.441032371679682L27.7019921875,15.725101366406248L28.715781250000003,16.01241330507813L29.729570312499998,16.301801353906242L30.743359375,16.59411065507812L31.757148437500003,16.895258564843754L32.7709375,17.203238040624992L33.7847265625,17.51422688945313L34.798515625,17.8284214265625L35.8123046875,18.142668359765626L36.82609375,18.45662915585938L37.8398828125,18.7672668828125L38.853671875,19.075546785546884L39.8674609375,19.381792086718754L40.88125,19.684700028906253L41.8950390625,19.98642871875001L42.908828125,20.287419780468753L43.9226171875,20.587524191406242L44.93640625,20.88647248593751L45.9501953125,21.184215670312494L46.963984375,21.481767642968748L47.9777734375,21.7789371921875L48.9915625,22.076106741406253L50.005351562499996,22.372379432812497L51.019140625,22.668639875781246L52.0329296875,22.962935805468753L53.04671875,23.254589474999996L54.060507812500006,23.54408741953125L55.074296875,23.831617448437505L56.0880859375,24.117771569531254L57.101875,24.402910431249992L58.1156640625,24.687112287500003L59.129453125,24.96995864999999L60.1432421875,25.252389926562493L61.157031249999996,25.533914818750006L62.170820312500005,25.814732023437497L63.184609375,26.094363851562502L64.1983984375,26.37322130625L65.2121875,26.6512948609375L66.2259765625,26.928011560937502L67.239765625,27.203644954687494L68.2535546875,27.478161018750004L69.26734375000001,27.7514386296875L70.2811328125,28.023692815624997L71.294921875,28.295749665625006L72.3087109375,28.567247170312505L73.32249999999999,28.838028821875L74.3362890625,29.108486570312493L75.35007812500001,29.378706154687503L76.3638671875,29.648295625000003L77.37765625,29.917591132812497L78.3914453125,30.186747824999998L79.40523437499999,30.456188953125004L80.4190234375,30.725630081249992L81.4328125,30.99526990625001L82.4466015625,31.264742335937502L83.460390625,31.534046009375L84.4741796875,31.802997200000004L85.48796875000001,32.071717031249996L86.5017578125,32.340774375L87.515546875,32.609755506249996L88.5293359375,32.87848486406251L89.54312499999999,33.1469393125L90.5569140625,33.415264471875005L91.57070312500001,33.683420874999996L92.5844921875,33.9512656234375L93.59828125,34.21873883593751L94.6120703125,34.48561323593749L95.62585937499999,34.75205077500001L96.6396484375,35.018371273437495L97.65343750000001,35.284721712499994L98.6672265625,35.55103404531249L99.681015625,35.81712182343751L100.6948046875,36.08311161406251L101.70859375,36.34894761875L102.7223828125,36.61453185L103.736171875,36.879947324999996L104.74996093749999,37.1451015L105.76375,37.410037925L106.7775390625,37.67489269375001L107.791328125,37.939472553125L108.8051171875,38.20395986875L109.81890625,38.46850162187499L110.8326953125,38.73296171875L111.84648437499999,38.99754974374999L112.86027343750001,39.262600487499995L113.87406250000001,39.528092175000005L114.8878515625,39.793869659375L115.901640625,40.05986489375001L116.9154296875,40.32595539375L117.92921874999999,40.591874415625L118.9430078125,40.85777710625L119.95679687500001,41.12370157187501L120.9705859375,41.389704971875005L121.984375,41.656135706250005L122.9981640625,41.923138034375L124.01195312500002,42.19052142499999L125.02574218750001,42.458255937500006L126.03953125000001,42.72642050625L127.0533203125,42.994669453125L128.067109375,43.263051771875006L129.0808984375,43.531363321875L130.0946875,43.799669428125L131.1084765625,44.067896600000005L132.122265625,44.33638235000001L133.1360546875,44.604925259374994L134.14984375,44.873323909374996L135.1636328125,45.141635459375L136.177421875,45.409778253125L137.1912109375,45.677915603124994L138.20499999999998,45.94599851562501L139.2187890625,46.214103203125L140.232578125,46.481981975L141.2463671875,46.74970287812501L142.26015625,47.01736117812501L143.27394531250002,47.284894271875L144.287734375,47.552245000000006L145.3015234375,47.81948957499999L146.3153125,48.086600778125L147.3291015625,48.353671153125L148.342890625,48.62068709062501L149.3566796875,48.88751521874999L150.37046875,49.154237193750006L151.38425781249998,49.42096733437499L152.39804687499998,49.68771925L153.4118359375,49.95448205312499L154.42562500000003,50.221051603125005L155.43941406250002,50.487354409375L156.45320312500002,50.753551062499994L157.4669921875,51.01958168125001L158.48078125,51.28542721250001L159.4945703125,51.55088895937501L160.508359375,51.81611118125L161.5221484375,52.0810095L162.5359375,52.345725453125006L163.54972656249998,52.610433240625L164.563515625,52.87515463749999L165.5773046875,53.140654490625L166.59109375,53.40619789375001L167.6048828125,53.671735853125L168.618671875,53.937192156250006L169.6324609375,54.202634849999995L170.64625,54.468006775000006L171.6600390625,54.733299765625006L172.673828125,54.998426721875006L173.6876171875,55.26340941875L174.70140625,55.52820430624999L175.71519531250001,55.792805940625L176.728984375,56.057203434375L177.7427734375,56.32155193437501L178.7565625,56.58571262499999L179.7703515625,56.84976171875001L180.784140625,57.11380536875001L181.7979296875,57.377712925L182.81171874999998,57.64146805625L183.82550781249998,57.905035378125L184.839296875,58.168521043750005L185.8530859375,58.431889668749996L186.86687500000002,58.69516030625L187.88066406250002,58.95839555937499L188.894453125,59.221562765624995L189.9082421875,59.48478168749999L190.92203125,59.74803599375001L191.9358203125,60.01118686875L192.949609375,60.274321412499994L193.9633984375,60.537434181250006L194.97718749999999,60.8004271875L195.99097656249998,61.06332220625L197.00476562499998,61.32615734374999L198.0185546875,61.589052362500006L199.03234375,61.85203992500001L200.04613281250002,62.114978493749994L201.05992187500001,62.37795516874999L202.0737109375,62.640969950000006L203.0875,62.903837749999994L204.1012890625,63.1665204625L205.115078125,63.429045306249996L206.1288671875,63.691455831249996L207.14265625,63.95374659375L208.1564453125,64.21601558125L209.170234375,64.47817569375L210.1840234375,64.74015071875L211.1978125,65.00203319999999L212.2116015625,65.26381225L213.225390625,65.5255804125L214.2391796875,65.78726691875L215.25296875,66.048866325L216.2667578125,66.31037863125L217.280546875,66.57179295L218.2943359375,66.83321815625L219.30812500000002,67.0947086875L220.3219140625,67.35630809375L221.335703125,67.6179401625L222.3494921875,67.87970288125001L223.36328125,68.14155814374999L224.3770703125,68.40365837499999L225.390859375,68.66610700625L226.4046484375,68.92904013125L227.41843749999998,69.19240875624999" style="fill: none;" fill="none"></path></g><g><path stroke="rgb(204, 51, 17)" stroke-width="2px" d="M21.6192578125,14.601079013574225L22.633046874999998,16.28107512636719L23.6468359375,17.19548818203126L24.660625,17.980979458203123L25.6744140625,18.66652586601562L26.688203125,19.47199570468749L27.7019921875,20.1965180015625L28.715781250000003,20.891977478124996L29.729570312499998,21.584357153125005L30.743359375,22.22974093437501L31.757148437500003,22.881830054687498L32.7709375,23.544322181249992L33.7847265625,24.22348647265625L34.798515625,24.90403823984375L35.8123046875,25.721094079687493L36.82609375,26.508833284374997L37.8398828125,27.313160956249998L38.853671875,28.0959436265625L39.8674609375,28.907644857812492L40.88125,29.712819032812504L41.8950390625,30.52326547968751L42.908828125,31.32774829843749L43.9226171875,32.14459659531251L44.93640625,32.94711013749999L45.9501953125,33.74426566875L46.963984375,34.5230471828125L47.9777734375,35.2872244765625L48.9915625,36.03772979218749L50.005351562499996,36.77553075624999L51.019140625,37.52812102812501L52.0329296875,38.26084705625001L53.04671875,38.98216570625001L54.060507812500006,39.691369290625005L55.074296875,40.386647762500004L56.0880859375,41.088681928125006L57.101875,41.77593086875L58.1156640625,42.458345759375L59.129453125,43.131122490624996L60.1432421875,43.821776496874996L61.157031249999996,44.51769460937499L62.170820312500005,45.21062138125001L63.184609375,45.899089721874994L64.1983984375,46.583894418750006L65.2121875,47.263875953124995L66.2259765625,47.93589872500001L67.239765625,48.633278484375005L68.2535546875,49.32401959062501L69.26734375000001,50.00656240937501L70.2811328125,50.68385473125L71.294921875,51.36448134999999L72.3087109375,52.092218181250004L73.32249999999999,52.811672346875L74.3362890625,53.52555755625001L75.35007812500001,54.236554856249995L76.3638671875,54.950973553124996L77.37765625,55.6673628875L78.3914453125,56.382813175L79.40523437499999,57.091763625L80.4190234375,57.797880603124995L81.4328125,58.49633278125001L82.4466015625,59.18992913437501L83.460390625,59.88201756875L84.4741796875,60.58506699375L85.48796875000001,61.282988406250006L86.5017578125,61.97942911874999L87.515546875,62.67067649375001L88.5293359375,63.35751443124999L89.54312499999999,64.04514715625L90.5569140625,64.732480475L91.57070312500001,65.41570920625001L92.5844921875,66.09861675625L93.59828125,66.77900929375001L94.6120703125,67.5873680625L95.62585937499999,68.38603151250001L96.6396484375,69.18487460625L97.65343750000001,69.97446332499999L98.6672265625,70.76826550624999L99.681015625,71.55400005L100.6948046875,72.33791638125001L101.70859375,73.11672103125001L102.7223828125,73.89354415625L103.736171875,74.66283313125001L104.74996093749999,75.42825160000001L105.76375,76.18638088750001L106.7775390625,76.93886500625L107.791328125,77.68569851250001L108.8051171875,78.428607075L109.81890625,79.16901695624999L110.8326953125,79.90358569375L111.84648437499999,80.6410886125L112.86027343750001,81.37382825L113.87406250000001,82.10040556249999L114.8878515625,82.82779399375L115.901640625,83.5502068375L116.9154296875,84.2680850375L117.92921874999999,84.98352443750001L118.9430078125,85.69461972500001L119.95679687500001,86.40303124375001L120.9705859375,87.10684279375L121.984375,87.8100936375L122.9981640625,88.51250069999999L124.01195312500002,89.21317120625001L125.02574218750001,89.91076599374999L126.03953125000001,90.60390235L127.0533203125,91.29480132500001L128.067109375,91.98150316875001L129.0808984375,92.66262516875001L130.0946875,93.34220658750002L131.1084765625,94.01770519375L132.122265625,94.6881411125L133.1360546875,95.35439623125L134.14984375,96.02347665625L135.1636328125,96.70001501875001L136.177421875,97.3754483L137.1912109375,98.04879118125L138.20499999999998,98.71793148749998L139.2187890625,99.38769238124999L140.232578125,100.057279075L141.2463671875,100.72327289374999L142.26015625,101.41788450624999L143.27394531250002,102.1179670875L144.287734375,102.815866725L145.3015234375,103.51009183125001L146.3153125,104.20858483750001L147.3291015625,104.90395313124999L148.342890625,105.59605517499999L149.3566796875,106.28576741250001L150.37046875,106.9730081875L151.38425781249998,107.6566560875L152.39804687499998,108.3411314375L153.4118359375,109.02532371249998L154.42562500000003,109.70688121250001L155.43941406250002,110.3910952625L156.45320312500002,111.07441653750001L157.4669921875,111.7547328625L158.48078125,112.43508185L159.4945703125,113.11747768750001L160.508359375,113.79692301249999L161.5221484375,114.4798305625L162.5359375,115.161202975L163.54972656249998,115.8403543375L164.563515625,116.518917775L165.5773046875,117.19580453749998L166.59109375,117.87075332500001L167.6048828125,118.544036325L168.618671875,119.21768949999999L169.6324609375,119.8914406625L170.64625,120.5627421375L171.6600390625,121.23687436250002L172.673828125,121.910320675L173.6876171875,122.58385408749999L174.70140625,123.26643501250001L175.71519531250001,123.949331675L176.728984375,124.63098716249999L177.7427734375,125.31238135000001L178.7565625,125.991892L179.7703515625,126.6696171L180.784140625,127.34833296250001L181.7979296875,128.0289541375L182.81171874999998,128.70989105L183.82550781249998,129.3958471L184.839296875,130.0819882375L185.8530859375,130.767585L186.86687500000002,131.4537479125L187.88066406250002,132.1400197L188.894453125,132.8279463875L189.9082421875,133.5161670375L190.92203125,134.20769748749998L191.9358203125,134.89966343749998L192.949609375,135.593164525L193.9633984375,136.2896270125L194.97718749999999,136.986525L195.99097656249998,137.7355523375L197.00476562499998,138.4997895125L198.0185546875,139.267565125L199.03234375,140.03567825L200.04613281250002,140.8033667625L201.05992187500001,141.56985765000002L202.0737109375,142.3689566L203.0875,143.1673914125L204.1012890625,143.9641168875L205.115078125,144.7578591875L206.1288671875,145.5490973625L207.14265625,146.3404879625L208.1564453125,147.130604725L209.170234375,147.91818469999998L210.1840234375,148.70295570000002L211.1978125,149.48526612499998L212.2116015625,150.26474580000001L213.225390625,151.0413838375L214.2391796875,151.81463586249998L215.25296875,152.584980925L216.2667578125,153.3558703625L217.280546875,154.1236350875L218.2943359375,154.8877525L219.30812500000002,155.6498775L220.3219140625,156.40978145L221.335703125,157.166310275L222.3494921875,157.9193877625L223.36328125,158.669699825L224.3770703125,159.416974275L225.390859375,160.1608191625L226.4046484375,160.90266075L227.41843749999998,161.6418675625" style="fill: none;" fill="none"></path></g><g><path stroke="rgb(0, 119, 187)" stroke-width="2px" d="M21.6192578125,14.131422544433589L22.633046874999998,14.453269718164071L23.6468359375,14.76642875195312L24.660625,15.082685619726561L25.6744140625,15.400396308984377L26.688203125,15.71992895332032L27.7019921875,16.03808466914063L28.715781250000003,16.351746569335933L29.729570312499998,16.664948132421866L30.743359375,16.973749614453133L31.757148437500003,17.28647025625L32.7709375,17.60487043046875L33.7847265625,17.923453310546872L34.798515625,18.243591742187505L35.8123046875,18.56853666484375L36.82609375,18.89316619023438L37.8398828125,19.21720268710937L38.853671875,19.541323221875004L39.8674609375,19.86124764609376L40.88125,20.176694585937494L41.8950390625,20.48715913359375L42.908828125,20.793122380468755L43.9226171875,21.096419550781246L44.93640625,21.397157478124992L45.9501953125,21.695097998437507L46.963984375,21.991711604687495L47.9777734375,22.286279041406242L48.9915625,22.57842196796874L50.005351562499996,22.86807914218749L51.019140625,23.157638328906245L52.0329296875,23.446182256250008L53.04671875,23.734407043749997L54.060507812500006,24.022126923437504L55.074296875,24.30956168671876L56.0880859375,24.596428258593747L57.101875,24.882191110156256L58.1156640625,25.168009079687504L59.129453125,25.4531799234375L60.1432421875,25.737634914062507L61.157031249999996,26.022536292187493L62.170820312500005,26.307170926562502L63.184609375,26.59198656562499L64.1983984375,26.8766579453125L65.2121875,27.161605595312505L66.2259765625,27.445742126562504L67.239765625,27.7297017359375L68.2535546875,28.012563068750005L69.26734375000001,28.296104870312494L70.2811328125,28.578698098437506L71.294921875,28.860534645312498L72.3087109375,29.141965632812504L73.32249999999999,29.42251609375L74.3362890625,29.70196419531249L75.35007812500001,29.980842064062493L76.3638671875,30.25917147499999L77.37765625,30.53754715781251L78.3914453125,30.81565881875001L79.40523437499999,31.0934384109375L80.4190234375,31.371907998437504L81.4328125,31.651685446875007L82.4466015625,31.930914437500004L83.460390625,32.2099542578125L84.4741796875,32.488618459375L85.48796875000001,32.766630771875L86.5017578125,33.04413273281249L87.515546875,33.321016828124996L88.5293359375,33.59714288125001L89.54312499999999,33.87252586249999L90.5569140625,34.1475863015625L91.57070312500001,34.422467096875L92.5844921875,34.69729617656251L93.59828125,34.971521L94.6120703125,35.245287187500004L95.62585937499999,35.51884651249999L96.6396484375,35.792272465625L97.65343750000001,36.0657269984375L98.6672265625,36.3387228953125L99.681015625,36.61182358437499L100.6948046875,36.88531486250001L101.70859375,37.15916542812501L102.7223828125,37.43305137812501L103.736171875,37.707351053125L104.74996093749999,37.98246456875L105.76375,38.257970034375L106.7775390625,38.533342128125L107.791328125,38.80872783125L108.8051171875,39.084140753125L109.81890625,39.36001367187499L110.8326953125,39.63634658749999L111.84648437499999,39.912799265625L112.86027343750001,40.18936626250001L113.87406250000001,40.46590604062501L114.8878515625,40.742796940625L115.901640625,41.019418375L116.9154296875,41.29609696874999L117.92921874999999,41.57296065000001L118.9430078125,41.85001486249999L119.95679687500001,42.12738209062499L120.9705859375,42.404379143750006L121.984375,42.68115844687501L122.9981640625,42.95779349062501L124.01195312500002,43.234717053125L125.02574218750001,43.512084281250004L126.03953125000001,43.7891657125L127.0533203125,44.06632335625001L128.067109375,44.343902890624996L129.0808984375,44.621455206250005L130.0946875,44.89909734375001L131.1084765625,45.1767667L132.122265625,45.454708243750005L133.1360546875,45.732728721875L134.14984375,46.01067843125001L135.1636328125,46.288519265625L136.177421875,46.566580571875L137.1912109375,46.84478341562501L138.20499999999998,47.123307440625L139.2187890625,47.402027440625005L140.232578125,47.681076787500004L141.2463671875,47.960632403125L142.26015625,48.24105901874999L143.27394531250002,48.522669650000005L144.287734375,48.804805603125L145.3015234375,49.08734983750001L146.3153125,49.37029690937499L147.3291015625,49.653303862499996L148.342890625,49.93615566874999L149.3566796875,50.21915445625001L150.37046875,50.502090640625006L151.38425781249998,50.785334396874994L152.39804687499998,51.068929274999995L153.4118359375,51.35276095625L154.42562500000003,51.636984587499995L155.43941406250002,51.921295318750005L156.45320312500002,52.205668653124995L157.4669921875,52.490314175L158.48078125,52.775114843749996L159.4945703125,53.0599808375L160.508359375,53.3447434L161.5221484375,53.62953045937499L162.5359375,53.913974562499995L163.54972656249998,54.19813286875L164.563515625,54.48197543750001L165.5773046875,54.76547504999999L166.59109375,55.048648037499994L167.6048828125,55.331752978124996L168.618671875,55.61458300937499L169.6324609375,55.89714901875001L170.64625,56.179404734375L171.6600390625,56.461331103125005L172.673828125,56.74297711874999L173.6876171875,57.02424751562501L174.70140625,57.30531649375L175.71519531250001,57.58595541562501L176.728984375,57.86614250625001L177.7427734375,58.146228887499994L178.7565625,58.426002253125006L179.7703515625,58.705492543750005L180.784140625,58.984626268750006L181.7979296875,59.26361029062501L182.81171874999998,59.54241466874999L183.82550781249998,59.82096046875001L184.839296875,60.09939195L185.8530859375,60.377654675L186.86687500000002,60.65590651250001L187.88066406250002,60.93401136875L188.894453125,61.211931137499995L189.9082421875,61.48953516875L190.92203125,61.766932337499995L191.9358203125,62.04424240625001L192.949609375,62.32147081875L193.9633984375,62.59862846250001L194.97718749999999,62.87572078125L195.99097656249998,63.15462042499999L197.00476562499998,63.43355273125L198.0185546875,63.71233805625L199.03234375,63.991107050000004L200.04613281250002,64.26973450625L201.05992187500001,64.54824764374999L202.0737109375,64.82686965625L203.0875,65.10543723125L204.1012890625,65.38434231875L205.115078125,65.66311675624999L206.1288671875,65.94226136875001L207.14265625,66.221454975L208.1564453125,66.50088810625L209.170234375,66.7805389875L210.1840234375,67.0605219375L211.1978125,67.34098938125L212.2116015625,67.62189776875L213.225390625,67.90329065L214.2391796875,68.1851135875L215.25296875,68.467328475L216.2667578125,68.74984821249998L217.280546875,69.03258025624999L218.2943359375,69.3155627125L219.30812500000002,69.598975225L220.3219140625,69.88292122499999L221.335703125,70.16727550625L222.3494921875,70.45208706250001L223.36328125,70.73723613125L224.3770703125,71.02291324375L225.390859375,71.30879721875L226.4046484375,71.595045925L227.41843749999998,71.88203498125" style="fill: none;" fill="none"></path></g><g><path stroke="rgb(255, 112, 67)" stroke-width="2px" d="M21.6192578125,14.080806174169924L22.633046874999998,14.351401504882812L23.6468359375,14.624482205175779L24.660625,14.897458198339848L25.6744140625,15.17590218320312L26.688203125,15.462617691015621L27.7019921875,15.751574833007805L28.715781250000003,16.03977954667968L29.729570312499998,16.322412071875007L30.743359375,16.60223613242187L31.757148437500003,16.87926720898437L32.7709375,17.155801203125L33.7847265625,17.429863734765632L34.798515625,17.7033948203125L35.8123046875,17.977767645703135L36.82609375,18.252313650390615L37.8398828125,18.526935527343756L38.853671875,18.80005186718751L39.8674609375,19.07312057421874L40.88125,19.345817064843743L41.8950390625,19.617992996875003L42.908828125,19.88891686640625L43.9226171875,20.15994076484374L44.93640625,20.430834693749997L45.9501953125,20.701548298437505L46.963984375,20.971474600781253L47.9777734375,21.240540110156246L48.9915625,21.50890405625L50.005351562499996,21.77650179453125L51.019140625,22.0427549265625L52.0329296875,22.30751919296875L53.04671875,22.570211432031243L54.060507812500006,22.831002441406245L55.074296875,23.090626446875003L56.0880859375,23.349216139843744L57.101875,23.60633806171876L58.1156640625,23.862486232812508L59.129453125,24.117910385156243L60.1432421875,24.3729847765625L61.157031249999996,24.627558342968754L62.170820312500005,24.881549428124995L63.184609375,25.1350907234375L64.1983984375,25.387932496875006L65.2121875,25.640080192187494L66.2259765625,25.892309543750002L67.239765625,26.144061206250004L68.2535546875,26.3955202671875L69.26734375000001,26.646635010937505L70.2811328125,26.897319698437506L71.294921875,27.1478655703125L72.3087109375,27.3979650546875L73.32249999999999,27.64796246875001L74.3362890625,27.897999349999992L75.35007812500001,28.148232206250007L76.3638671875,28.398648789062495L77.37765625,28.649684598437496L78.3914453125,28.901577798437504L79.40523437499999,29.154303892187503L80.4190234375,29.408325598437507L81.4328125,29.663411557812495L82.4466015625,29.919495084375L83.460390625,30.176757182812505L84.4741796875,30.4352727046875L85.48796875000001,30.694483665624993L86.5017578125,30.954708524999997L87.515546875,31.2156424328125L88.5293359375,31.477448701562494L89.54312499999999,31.740047035937504L90.5569140625,32.002654896875L91.57070312500001,32.26514571718751L92.5844921875,32.52759298750001L93.59828125,32.79005114531249L94.6120703125,33.0524358125L95.62585937499999,33.31474154531249L96.6396484375,33.577138460937505L97.65343750000001,33.83951904531249L98.6672265625,34.10228477500001L99.681015625,34.365264171875005L100.6948046875,34.628214989062506L101.70859375,34.8912161609375L102.7223828125,35.15410301406249L103.736171875,35.41681430625L104.74996093749999,35.67927790781249L105.76375,35.941598610937504L106.7775390625,36.20383493593749L107.791328125,36.465922918749996L108.8051171875,36.72765841875L109.81890625,36.98892847812501L110.8326953125,37.249964456250005L111.84648437499999,37.5107581875L112.86027343750001,37.771179021875L113.87406250000001,38.031322225000004L114.8878515625,38.291019040625L115.901640625,38.550269468749995L116.9154296875,38.809187828125L117.92921874999999,39.06787482812501L118.9430078125,39.326559106249995L119.95679687500001,39.585227053124996L120.9705859375,39.84368269374999L121.984375,40.10180898749999L122.9981640625,40.359418125L124.01195312500002,40.616534603125004L125.02574218750001,40.8735585375L126.03953125000001,41.130269456250005L127.0533203125,41.38668096875001L128.067109375,41.6428910625L129.0808984375,41.898867075000005L130.0946875,42.15469610624999L131.1084765625,42.410446203125L132.122265625,42.666013934375L133.1360546875,42.921265928124996L134.14984375,43.17657508124999L135.1636328125,43.43198494375L136.177421875,43.687402971874995L137.1912109375,43.94280466875L138.20499999999998,44.198048496875L139.2187890625,44.45305824375L140.232578125,44.707885625L141.2463671875,44.962903537500004L142.26015625,45.21786973437499L143.27394531250002,45.4726998375L144.287734375,45.72738023749999L145.3015234375,45.98203886249999L146.3153125,46.2364797375L147.3291015625,46.49075185625L148.342890625,46.74487699375001L149.3566796875,46.998833375000004L150.37046875,47.25277614687499L151.38425781249998,47.50657193749999L152.39804687499998,47.76034323124999L153.4118359375,48.014100915624994L154.42562500000003,48.26771706249999L155.43941406250002,48.521205281250005L156.45320312500002,48.774571015625L157.4669921875,49.027708112499994L158.48078125,49.280937753124995L159.4945703125,49.534240884374995L160.508359375,49.787663778124994L161.5221484375,50.04129625625001L162.5359375,50.295141040625005L163.54972656249998,50.549138250000006L164.563515625,50.803320546875L165.5773046875,51.05757905624999L166.59109375,51.31182939999999L167.6048828125,51.56601441875L168.618671875,51.820346418750006L169.6324609375,52.074686584375L170.64625,52.32924994375L171.6600390625,52.583905846875005L172.673828125,52.83877950000001L173.6876171875,53.09375930624999L174.70140625,53.349003134374996L175.71519531250001,53.604415718750005L176.728984375,53.85979291875L177.7427734375,54.115020415625L178.7565625,54.369926731250004L179.7703515625,54.62456085937501L180.784140625,54.878865640625L181.7979296875,55.13286285L182.81171874999998,55.386694025000004L183.82550781249998,55.640397271874996L184.839296875,55.893863715625L185.8530859375,56.14712874062501L186.86687500000002,56.400110690625L187.88066406250002,56.6528014L188.894453125,56.905274359375L189.9082421875,57.157551343749994L190.92203125,57.40959696875001L191.9358203125,57.66145750624999L192.949609375,57.91322550000001L193.9633984375,58.16489550625001L194.97718749999999,58.41638586874999L195.99097656249998,58.667699309375L197.00476562499998,58.918778668749994L198.0185546875,59.169700159375L199.03234375,59.420442006250006L200.04613281250002,59.671012375L201.05992187500001,59.921479312500004L202.0737109375,60.17179926875L203.0875,60.42190147499999L204.1012890625,60.67175326875L205.115078125,60.92147441250001L206.1288671875,61.171135674999995L207.14265625,61.4207533875L208.1564453125,61.6702513375L209.170234375,61.91959141875L210.1840234375,62.16870830625L211.1978125,62.4176999875L212.2116015625,62.66665900625L213.225390625,62.915356724999995L214.2391796875,63.16395645624999L215.25296875,63.41251808124999L216.2667578125,63.661063375000005L217.280546875,63.909472574999995L218.2943359375,64.15778923125L219.30812500000002,64.40596434999999L220.3219140625,64.65395438125L221.335703125,64.90182465L222.3494921875,65.14954249375L223.36328125,65.3971188L224.3770703125,65.64465155625L225.390859375,65.8920972125L226.4046484375,66.13948843124999L227.41843749999998,66.38688509375" style="fill: none;" fill="none"></path></g></g></g></g></g></g><g transform="translate(82, 176)" clip-path="url(#clip_1)"><clipPath id="clip_1"><rect width="247" height="23"></rect></clipPath><g><g><line x1="0" y1="0" x2="0" y2="5" style="visibility: inherit;" fill="rgb(0, 0, 0)" stroke="rgb(204, 204, 204)" stroke-width="1px"></line><line x1="20.60546875" y1="0" x2="20.60546875" y2="5" style="visibility: inherit;" fill="rgb(0, 0, 0)" stroke="rgb(204, 204, 204)" stroke-width="1px"></line><line x1="41.2109375" y1="0" x2="41.2109375" y2="5" style="visibility: inherit;" fill="rgb(0, 0, 0)" stroke="rgb(204, 204, 204)" stroke-width="1px"></line><line x1="61.81640625" y1="0" x2="61.81640625" y2="5" style="visibility: inherit;" fill="rgb(0, 0, 0)" stroke="rgb(204, 204, 204)" stroke-width="1px"></line><line x1="82.421875" y1="0" x2="82.421875" y2="5" style="visibility: inherit;" fill="rgb(0, 0, 0)" stroke="rgb(204, 204, 204)" stroke-width="1px"></line><line x1="103.02734375" y1="0" x2="103.02734375" y2="5" style="visibility: inherit;" fill="rgb(0, 0, 0)" stroke="rgb(204, 204, 204)" stroke-width="1px"></line><line x1="123.6328125" y1="0" x2="123.6328125" y2="5" style="visibility: inherit;" fill="rgb(0, 0, 0)" stroke="rgb(204, 204, 204)" stroke-width="1px"></line><line x1="144.23828125" y1="0" x2="144.23828125" y2="5" style="visibility: inherit;" fill="rgb(0, 0, 0)" stroke="rgb(204, 204, 204)" stroke-width="1px"></line><line x1="164.84375" y1="0" x2="164.84375" y2="5" style="visibility: inherit;" fill="rgb(0, 0, 0)" stroke="rgb(204, 204, 204)" stroke-width="1px"></line><line x1="185.44921875" y1="0" x2="185.44921875" y2="5" style="visibility: inherit;" fill="rgb(0, 0, 0)" stroke="rgb(204, 204, 204)" stroke-width="1px"></line><line x1="206.0546875" y1="0" x2="206.0546875" y2="5" style="visibility: inherit;" fill="rgb(0, 0, 0)" stroke="rgb(204, 204, 204)" stroke-width="1px"></line><line x1="226.66015625" y1="0" x2="226.66015625" y2="5" style="visibility: inherit;" fill="rgb(0, 0, 0)" stroke="rgb(204, 204, 204)" stroke-width="1px"></line><line x1="247.265625" y1="0" x2="247.265625" y2="5" style="visibility: inherit;" fill="rgb(0, 0, 0)" stroke="rgb(204, 204, 204)" stroke-width="1px"></line></g><g transform="translate(0, 8)"><text x="0" y="0" dx="0em" dy="0.95em" style="text-anchor: middle; visibility: hidden; font-family: Roboto, sans-serif; font-size: 12px; font-weight: 200;" fill="rgb(33, 33, 33)" stroke="none" stroke-width="1px">-10k</text><text x="20.60546875" y="0" dx="0em" dy="0.95em" style="text-anchor: middle; visibility: inherit; font-family: Roboto, sans-serif; font-size: 12px; font-weight: 200;" fill="rgb(33, 33, 33)" stroke="none" stroke-width="1px">0</text><text x="41.2109375" y="0" dx="0em" dy="0.95em" style="text-anchor: middle; visibility: hidden; font-family: Roboto, sans-serif; font-size: 12px; font-weight: 200;" fill="rgb(33, 33, 33)" stroke="none" stroke-width="1px">10k</text><text x="61.81640625" y="0" dx="0em" dy="0.95em" style="text-anchor: middle; visibility: inherit; font-family: Roboto, sans-serif; font-size: 12px; font-weight: 200;" fill="rgb(33, 33, 33)" stroke="none" stroke-width="1px">20k</text><text x="82.421875" y="0" dx="0em" dy="0.95em" style="text-anchor: middle; visibility: hidden; font-family: Roboto, sans-serif; font-size: 12px; font-weight: 200;" fill="rgb(33, 33, 33)" stroke="none" stroke-width="1px">30k</text><text x="103.02734375" y="0" dx="0em" dy="0.95em" style="text-anchor: middle; visibility: inherit; font-family: Roboto, sans-serif; font-size: 12px; font-weight: 200;" fill="rgb(33, 33, 33)" stroke="none" stroke-width="1px">40k</text><text x="123.6328125" y="0" dx="0em" dy="0.95em" style="text-anchor: middle; visibility: hidden; font-family: Roboto, sans-serif; font-size: 12px; font-weight: 200;" fill="rgb(33, 33, 33)" stroke="none" stroke-width="1px">50k</text><text x="144.23828125" y="0" dx="0em" dy="0.95em" style="text-anchor: middle; visibility: inherit; font-family: Roboto, sans-serif; font-size: 12px; font-weight: 200;" fill="rgb(33, 33, 33)" stroke="none" stroke-width="1px">60k</text><text x="164.84375" y="0" dx="0em" dy="0.95em" style="text-anchor: middle; visibility: hidden; font-family: Roboto, sans-serif; font-size: 12px; font-weight: 200;" fill="rgb(33, 33, 33)" stroke="none" stroke-width="1px">70k</text><text x="185.44921875" y="0" dx="0em" dy="0.95em" style="text-anchor: middle; visibility: inherit; font-family: Roboto, sans-serif; font-size: 12px; font-weight: 200;" fill="rgb(33, 33, 33)" stroke="none" stroke-width="1px">80k</text><text x="206.0546875" y="0" dx="0em" dy="0.95em" style="text-anchor: middle; visibility: hidden; font-family: Roboto, sans-serif; font-size: 12px; font-weight: 200;" fill="rgb(33, 33, 33)" stroke="none" stroke-width="1px">90k</text><text x="226.66015625" y="0" dx="0em" dy="0.95em" style="text-anchor: middle; visibility: inherit; font-family: Roboto, sans-serif; font-size: 12px; font-weight: 200;" fill="rgb(33, 33, 33)" stroke="none" stroke-width="1px">100k</text><text x="247.265625" y="0" dx="0em" dy="0.95em" style="text-anchor: middle; visibility: hidden; font-family: Roboto, sans-serif; font-size: 12px; font-weight: 200;" fill="rgb(33, 33, 33)" stroke="none" stroke-width="1px">110k</text></g><line x1="0" y1="0" x2="247.265625" y2="0" fill="rgb(0, 0, 0)" stroke="rgb(204, 204, 204)" stroke-width="1px"></line></g></g></g></g></svg>